<svg width="1440" height="157" viewBox="0 0 1440 157" fill="none" xmlns="http://www.w3.org/2000/svg">
<mask id="mask0" mask-type="alpha" maskUnits="userSpaceOnUse" x="0" y="0" width="1440" height="157">
<rect width="1440" height="157" fill="url(#paint0_linear)"/>
</mask>
<g mask="url(#mask0)">
<path opacity="0.2" fill-rule="evenodd" clip-rule="evenodd" d="M0 65.1544L24 62.5639C48 59.6035 96 54.4226 144 70.3352C192 86.2478 240 123.624 288 126.214C336 129.175 384 96.9796 432 94.3891C480 91.7987 528 118.443 576 129.175C624 139.536 672 134.356 720 121.033C768 107.711 816 86.2478 864 70.3352C912 54.4226 960 43.6909 1008 38.51C1056 32.9591 1104 32.9591 1152 27.7783C1200 22.5974 1248 11.8657 1296 22.5974C1344 32.9591 1392 65.1544 1416 81.067L1440 96.9796V161H1416C1392 161 1344 161 1296 161C1248 161 1200 161 1152 161C1104 161 1056 161 1008 161C960 161 912 161 864 161C816 161 768 161 720 161C672 161 624 161 576 161C528 161 480 161 432 161C384 161 336 161 288 161C240 161 192 161 144 161C96 161 48 161 24 161H0V65.1544Z" fill="white"/>
<path opacity="0.17" fill-rule="evenodd" clip-rule="evenodd" d="M0 72.1544L24 69.5639C48 66.6035 96 61.4226 144 77.3352C192 93.2478 240 130.624 288 133.214C336 136.175 384 103.98 432 101.389C480 98.7987 528 125.443 576 136.175C624 146.536 672 141.356 720 128.033C768 114.711 816 93.2478 864 77.3352C912 61.4226 960 50.6909 1008 45.51C1056 39.9591 1104 39.9591 1152 34.7783C1200 29.5974 1248 18.8657 1296 29.5974C1344 39.9591 1392 72.1544 1416 88.067L1440 103.98V168H1416C1392 168 1344 168 1296 168C1248 168 1200 168 1152 168C1104 168 1056 168 1008 168C960 168 912 168 864 168C816 168 768 168 720 168C672 168 624 168 576 168C528 168 480 168 432 168C384 168 336 168 288 168C240 168 192 168 144 168C96 168 48 168 24 168H0V72.1544Z" fill="url(#paint1_linear)"/>
</g>
<defs>
<linearGradient id="paint0_linear" x1="720" y1="76.4872" x2="-3.65521e-05" y2="76.4868" gradientUnits="userSpaceOnUse">
<stop stop-color="#0570D8"/>
<stop offset="1" stop-color="#3599FB"/>
</linearGradient>
<linearGradient id="paint1_linear" x1="0" y1="96.5" x2="1440" y2="96.5" gradientUnits="userSpaceOnUse">
<stop stop-color="white"/>
<stop offset="1" stop-color="#E6E6E6"/>
</linearGradient>
</defs>
</svg>
