<svg width="36" height="36" viewBox="0 0 36 36" fill="none" xmlns="http://www.w3.org/2000/svg">
<path d="M11.5981 9.71875C11.0891 9.71875 10.6572 9.89901 10.3021 10.2595C9.9471 10.6201 9.76953 11.0527 9.76953 11.5576V19.3103C9.76953 19.8279 9.94705 20.2661 10.3021 20.6267C10.6572 20.9872 11.0891 21.1675 11.5981 21.1675C12.1068 21.1675 12.5361 20.9873 12.8856 20.6267C13.2345 20.2662 13.4094 19.8279 13.4094 19.3103V11.5576C13.4094 11.0526 13.2319 10.6201 12.8768 10.2595C12.5217 9.89901 12.0954 9.71875 11.5981 9.71875Z" fill="#0570D8"/>
<path d="M26.3053 2.7583L27.5659 0.396807C27.6487 0.240466 27.6192 0.12058 27.4773 0.0362794C27.3233 -0.036412 27.205 0.000421932 27.1223 0.144177L25.844 2.52455C24.7193 2.01956 23.5296 1.76661 22.2751 1.76661C21.0204 1.76661 19.8306 2.01961 18.7063 2.52455L17.428 0.144177C17.3449 0.000421932 17.2266 -0.0360865 17.0729 0.0362794C16.9307 0.120959 16.9013 0.240466 16.9844 0.396807L18.245 2.7583C16.9667 3.42028 15.9486 4.34221 15.1911 5.52611C14.4336 6.71065 14.0547 8.0051 14.0547 9.41173H30.4777C30.4777 8.00542 30.0988 6.71092 29.3413 5.52611C28.5837 4.34221 27.5715 3.42028 26.3053 2.7583ZM19.0169 6.19313C18.8805 6.3319 18.7177 6.40095 18.5284 6.40095C18.3388 6.40095 18.1793 6.3319 18.0491 6.19313C17.919 6.05502 17.8539 5.89032 17.8539 5.69747C17.8539 5.50527 17.919 5.34025 18.0491 5.20182C18.1793 5.0637 18.3392 4.99465 18.5284 4.99465C18.7177 4.99465 18.8805 5.0637 19.0169 5.20182C19.1529 5.34058 19.2212 5.50527 19.2212 5.69747C19.2208 5.89 19.1526 6.05502 19.0169 6.19313ZM26.5004 6.19313C26.37 6.3319 26.2101 6.40095 26.0212 6.40095C25.8315 6.40095 25.6687 6.3319 25.5326 6.19313C25.3964 6.05502 25.3284 5.89032 25.3284 5.69747C25.3284 5.50527 25.3964 5.34025 25.5326 5.20182C25.6687 5.0637 25.8315 4.99465 26.0212 4.99465C26.2104 4.99465 26.37 5.0637 26.5004 5.20182C26.6307 5.34058 26.6956 5.50527 26.6956 5.69747C26.6956 5.89 26.6306 6.05502 26.5004 6.19313Z" fill="#0570D8"/>
<path d="M14.1133 22.0664C14.1133 22.6199 14.3026 23.0884 14.6811 23.4728C15.0601 23.8573 15.5214 24.0495 16.066 24.0495H17.38L17.398 28.1426C17.398 28.6595 17.5755 29.0984 17.9305 29.459C18.2856 29.8196 18.7119 29.9998 19.2088 29.9998C19.7176 29.9998 20.1498 29.8196 20.5048 29.459C20.8599 29.0984 21.0375 28.6596 21.0375 28.1426V24.0498H23.4876V28.1426C23.4876 28.6595 23.665 29.0984 24.0201 29.459C24.3752 29.8196 24.807 29.9998 25.3161 29.9998C25.8248 29.9998 26.257 29.8196 26.6121 29.459C26.9672 29.0984 27.1447 28.6596 27.1447 28.1426V24.0498H28.4763C29.0089 24.0498 29.4643 23.8576 29.8436 23.4731C30.2221 23.0887 30.4115 22.6202 30.4115 22.0668V10.0586H14.1133V22.0664Z" fill="#0570D8"/>
<path d="M32.9398 9.71875C32.4425 9.71875 32.0166 9.89636 31.6615 10.2506C31.3064 10.6055 31.1289 11.0414 31.1289 11.5576V19.3103C31.1289 19.8279 31.3064 20.2661 31.6615 20.6267C32.0166 20.9873 32.4429 21.1675 32.9398 21.1675C33.4486 21.1675 33.8807 20.9873 34.2358 20.6267C34.5909 20.2661 34.7684 19.8279 34.7684 19.3103V11.5576C34.7684 11.0414 34.5909 10.6055 34.2358 10.2506C33.8807 9.89636 33.4486 9.71875 32.9398 9.71875Z" fill="#0570D8"/>
</svg>
