<svg width="36" height="36" viewBox="0 0 36 36" fill="none" xmlns="http://www.w3.org/2000/svg">
<g clip-path="url(#clip0)">
<path d="M27.6967 22.0376C27.616 22.2655 27.5378 22.5102 27.4478 22.7507C26.7028 24.7681 25.5717 26.5593 24.1993 28.2007C23.9345 28.5203 23.6258 28.8096 23.3071 29.0778C22.6773 29.611 21.9524 29.933 21.114 29.9625C20.4842 29.9826 19.8795 29.8683 19.2968 29.6311C18.8746 29.4587 18.4592 29.2662 18.0312 29.1106C16.642 28.6061 15.2604 28.6725 13.8939 29.2124C13.4011 29.4074 12.9151 29.6227 12.413 29.7917C11.8311 29.9868 11.2273 30.0659 10.6126 29.9498C10.0761 29.8498 9.60689 29.6 9.17129 29.2779C8.63058 28.8777 8.17649 28.3899 7.75182 27.8736C5.74119 25.4215 4.39151 22.649 3.7398 19.5435C3.45893 18.2081 3.32439 16.8618 3.4068 15.497C3.5035 13.8606 3.8836 12.3023 4.75815 10.898C5.85555 9.13291 7.40368 7.97665 9.44039 7.49985C10.6656 7.21142 11.8572 7.32914 13.0252 7.77904C13.6399 8.01449 14.2563 8.24743 14.8736 8.47868C15.442 8.69227 16.008 8.69227 16.5773 8.47447C17.2071 8.23397 17.8378 7.99431 18.4702 7.75969C19.1185 7.5234 19.7778 7.32999 20.4657 7.27533C21.4949 7.19207 22.499 7.32578 23.4761 7.6529C24.8611 8.11624 25.988 8.93614 26.839 10.1302C26.8617 10.163 26.8869 10.1992 26.9037 10.2253C24.7577 11.7213 23.5359 13.6974 23.7133 16.3732C23.8924 19.0507 25.3337 20.862 27.6967 22.0376ZM15.659 6.944C16.2922 6.96082 16.901 6.83889 17.4871 6.60595C20.1604 5.54472 21.558 2.71671 21.516 0.553867C21.5126 0.379797 21.5008 0.205727 21.4933 0.00390625C21.2183 0.0451112 20.9677 0.0644524 20.7272 0.124998C18.7754 0.603481 17.2735 1.69247 16.2863 3.45588C15.7086 4.48852 15.3874 5.58508 15.4857 6.78339C15.4925 6.91037 15.5387 6.94232 15.659 6.944Z" fill="#0570D8"/>
</g>
<defs>
<clipPath id="clip0">
<rect width="35.676" height="35.676" fill="white" transform="translate(0 0.00390625)"/>
</clipPath>
</defs>
</svg>
