<svg width="1440" height="707" viewBox="0 0 1440 707" fill="none" xmlns="http://www.w3.org/2000/svg">
<path d="M-1 1H1439V672H-1V1Z" fill="#ACB6E5"/>
<path d="M-1 1H1439V707H-1V1Z" fill="url(#paint0_linear)"/>
<mask id="mask0" mask-type="alpha" maskUnits="userSpaceOnUse" x="0" y="0" width="1440" height="706">
<path d="M0 0H1440V706H0V0Z" fill="url(#paint1_linear)"/>
</mask>
<g mask="url(#mask0)">
<path fill-rule="evenodd" clip-rule="evenodd" d="M370.737 202.872C434.489 265.563 461.823 378.229 415.158 453.74C371.52 524.351 260.752 472.843 184.238 504.651C90.8723 543.466 34.7395 679.838 -63.1574 652.587C-172.147 622.248 -231.166 497.439 -245.864 384.925C-261.049 268.691 -244.011 120.172 -139.32 69.5753C-40.4649 21.7985 43.6575 165.504 150.415 193.404C225.392 212.998 315.25 148.309 370.737 202.872Z" fill="url(#paint2_linear)" fill-opacity="0.18"/>
<path fill-rule="evenodd" clip-rule="evenodd" d="M1068.31 202.872C1004.56 265.563 977.224 378.229 1023.89 453.74C1067.53 524.351 1178.3 472.843 1254.81 504.651C1348.17 543.466 1404.31 679.838 1502.2 652.587C1611.19 622.248 1670.21 497.439 1684.91 384.925C1700.1 268.691 1683.06 120.172 1578.37 69.5753C1479.51 21.7985 1395.39 165.504 1288.63 193.404C1213.65 212.998 1123.8 148.309 1068.31 202.872Z" fill="url(#paint3_linear)" fill-opacity="0.18"/>
</g>
<defs>
<linearGradient id="paint0_linear" x1="644" y1="692.796" x2="648.428" y2="34.146" gradientUnits="userSpaceOnUse">
<stop offset="0.0211933" stop-color="#E6F2FF"/>
<stop offset="0.989583" stop-color="white"/>
</linearGradient>
<linearGradient id="paint1_linear" x1="645" y1="691.796" x2="649.428" y2="33.146" gradientUnits="userSpaceOnUse">
<stop offset="0.0211933" stop-color="#E6F2FF"/>
<stop offset="0.989583" stop-color="white"/>
</linearGradient>
<linearGradient id="paint2_linear" x1="476.227" y1="358.456" x2="-287.536" y2="400.645" gradientUnits="userSpaceOnUse">
<stop stop-color="white"/>
<stop offset="1" stop-color="#0570D8"/>
</linearGradient>
<linearGradient id="paint3_linear" x1="962.82" y1="358.456" x2="1726.58" y2="400.645" gradientUnits="userSpaceOnUse">
<stop stop-color="white"/>
<stop offset="1" stop-color="#69AEF7"/>
</linearGradient>
</defs>
</svg>
