<svg width="50" height="50" viewBox="0 0 50 50" fill="none" xmlns="http://www.w3.org/2000/svg">
<g clip-path="url(#clip0)">
<path d="M24.2615 19.3082C24.4902 18.3223 24.4902 17.2798 24.2615 16.2938C24.1137 15.6568 24.3997 14.998 24.9661 14.6711L25.9805 14.0854L25.1084 12.5749L24.0924 13.1615C23.5254 13.4888 22.8108 13.4066 22.3331 12.9588C21.5813 12.2542 20.7051 11.7473 19.7286 11.4519C19.1017 11.2622 18.6729 10.6845 18.6729 10.0295V8.85938H16.9287V10.0295C16.9287 10.6845 16.4998 11.2622 15.873 11.4519C14.8965 11.7472 14.0202 12.2542 13.2685 12.9588C12.7907 13.4065 12.0763 13.4891 11.5092 13.1615L10.4932 12.5749L9.62109 14.0854L10.6354 14.6711C11.2019 14.998 11.4879 15.6568 11.34 16.2939C11.1113 17.2799 11.1113 18.3221 11.34 19.3081C11.4879 19.9452 11.2019 20.604 10.6354 20.931L9.62109 21.5166L10.4932 23.0271L11.5092 22.4405C12.0761 22.1131 12.7906 22.1955 13.2685 22.6433C14.0202 23.3478 14.8965 23.8548 15.873 24.1502C16.4999 24.3398 16.9287 24.9176 16.9287 25.5726V26.7427H18.6729V25.5725C18.6729 24.9175 19.1018 24.3397 19.7286 24.1501C20.7051 23.8548 21.5813 23.3478 22.3331 22.6432C22.8109 22.1955 23.5254 22.1129 24.0924 22.4404L25.1084 23.027L25.9805 21.5165L24.9661 20.9309C24.3997 20.604 24.1137 19.9452 24.2615 19.3082ZM20.7172 20.7174C19.9382 21.4964 18.9025 21.9255 17.8008 21.9255C16.6991 21.9255 15.6635 21.4964 14.8844 20.7174C13.2764 19.1093 13.2764 16.4928 14.8844 14.8847C15.6635 14.1057 16.6991 13.6766 17.8008 13.6766C18.9025 13.6766 19.9382 14.1057 20.7172 14.8847C22.3252 16.4928 22.3252 19.1093 20.7172 20.7174Z" fill="#F6821F"/>
<path d="M18.6149 16.9859C18.3974 16.7683 18.1081 16.6484 17.8003 16.6484C17.4926 16.6484 17.2032 16.7684 16.9854 16.9859C16.5361 17.4353 16.5361 18.1662 16.9854 18.6155C17.2031 18.8332 17.4925 18.953 17.8002 18.953C18.108 18.953 18.3972 18.8332 18.6149 18.6155C19.0641 18.1663 19.0641 17.4353 18.6149 16.9859Z" fill="#F6821F"/>
<path d="M48.3871 40.603L40.0163 32.2322C38.2332 30.4491 35.5223 30.1483 33.4244 31.3268L31.3945 29.2969C34.1168 26.0875 35.6013 22.0604 35.6013 17.8045C35.6013 13.0498 33.7497 8.57969 30.3876 5.21758C27.0255 1.85547 22.5554 0.00390625 17.8006 0.00390625C13.0458 0.00390625 8.57578 1.85557 5.21367 5.21758C1.85156 8.57959 0 13.0497 0 17.8044C0 22.5591 1.85156 27.0292 5.21367 30.3914C8.68389 33.8616 13.2422 35.5968 17.8006 35.5968C21.894 35.5968 25.9871 34.1964 29.2925 31.398L31.3214 33.4269C30.8615 34.2419 30.6154 35.1648 30.6154 36.1263C30.6154 37.5973 31.1883 38.9801 32.2284 40.0202L40.5992 48.391C41.6728 49.4647 43.083 50.0014 44.4932 50.0014C45.9033 50.0014 47.3136 49.4647 48.3871 48.391C49.4272 47.351 50 45.9681 50 44.4971C50 43.026 49.4272 41.6431 48.3871 40.603ZM29.2972 21.719L26.939 25.8035C26.7419 26.1448 26.4174 26.3938 26.0366 26.4959C25.6559 26.5978 25.2503 26.5444 24.909 26.3474L23.5029 25.5355C22.9239 25.9648 22.3032 26.324 21.6446 26.6107V28.232C21.6446 29.0527 20.9793 29.7181 20.1586 29.7181H15.4424C14.6217 29.7181 13.9563 29.0527 13.9563 28.232V26.6107C13.2979 26.324 12.6771 25.9648 12.098 25.5355L10.6921 26.3474C10.3508 26.5444 9.94512 26.5977 9.56445 26.4959C9.18369 26.3938 8.85918 26.1448 8.66211 25.8035L6.30391 21.719C6.10684 21.3777 6.05342 20.9721 6.15537 20.5913C6.25732 20.2105 6.50635 19.8861 6.84775 19.6891L8.25566 18.8762C8.17676 18.1648 8.17676 17.4439 8.25566 16.7326L6.84775 15.9197C6.50645 15.7227 6.25742 15.3981 6.15537 15.0175C6.05332 14.6368 6.10674 14.2311 6.30391 13.8897L8.66211 9.80527C8.85918 9.46397 9.18369 9.21494 9.56445 9.11289C9.94522 9.01113 10.3508 9.06436 10.6921 9.26143L12.098 10.0732C12.6771 9.64395 13.2978 9.28477 13.9563 8.99805V7.37676C13.9563 6.55606 14.6217 5.89072 15.4424 5.89072H20.1586C20.9793 5.89072 21.6446 6.55606 21.6446 7.37676V8.99805C22.303 9.28477 22.9239 9.64395 23.5029 10.0732L24.909 9.26143C25.2503 9.06426 25.6559 9.01104 26.0366 9.11289C26.4174 9.21494 26.7419 9.46397 26.939 9.80527L29.2972 13.8897C29.4942 14.2311 29.5477 14.6367 29.4457 15.0174C29.3437 15.3981 29.0947 15.7227 28.7533 15.9197L27.3454 16.7326C27.4243 17.4438 27.4243 18.1648 27.3454 18.8761L28.7533 19.689C29.0946 19.886 29.3437 20.2106 29.4457 20.5913C29.5478 20.972 29.4943 21.3777 29.2972 21.719Z" fill="#F6821F"/>
</g>
<defs>
<clipPath id="clip0">
<rect width="50" height="50" fill="white"/>
</clipPath>
</defs>
</svg>
