<svg width="65" height="65" viewBox="0 0 65 65" fill="none" xmlns="http://www.w3.org/2000/svg">
<path d="M11.5664 59.6281C13.0361 60.3328 14.6235 60.7598 16.2484 60.8875V58.8563C14.9828 58.7366 13.7466 58.4035 12.5922 57.8711L11.5664 59.6281Z" fill="#F6821F"/>
<path d="M26.4063 47.7344C26.4063 45.9265 25.8702 44.1593 24.8658 42.6561C23.8614 41.153 22.4338 39.9814 20.7636 39.2895C19.0934 38.5977 17.2555 38.4167 15.4824 38.7694C13.7093 39.1221 12.0806 39.9926 10.8022 41.271C9.52389 42.5493 8.65333 44.178 8.30064 45.9511C7.94795 47.7242 8.12896 49.5621 8.82079 51.2323C9.51262 52.9026 10.6842 54.3301 12.1874 55.3345C13.6905 56.3389 15.4578 56.875 17.2656 56.875C19.6887 56.8712 22.0115 55.907 23.7249 54.1936C25.4383 52.4802 26.4025 50.1575 26.4063 47.7344ZM20.3125 44.6875H16.25V46.7188H18.2813C18.82 46.7188 19.3366 46.9328 19.7176 47.3137C20.0985 47.6946 20.3125 48.2113 20.3125 48.75V50.7813C20.3125 51.32 20.0985 51.8366 19.7176 52.2176C19.3366 52.5985 18.82 52.8125 18.2813 52.8125V54.8438H16.25V52.8125H14.2188V50.7813H18.2813V48.75H16.25C15.7113 48.75 15.1946 48.536 14.8137 48.1551C14.4328 47.7741 14.2188 47.2575 14.2188 46.7188V44.6875C14.2188 44.1488 14.4328 43.6321 14.8137 43.2512C15.1946 42.8703 15.7113 42.6563 16.25 42.6563V40.625H18.2813V42.6563H20.3125V44.6875Z" fill="#F6821F"/>
<path d="M8.14609 54.1719L6.37891 55.1875C7.3055 56.5305 8.46871 57.6937 9.81172 58.6203L10.8273 56.8531C9.79239 56.1127 8.88651 55.2068 8.14609 54.1719Z" fill="#F6821F"/>
<path d="M18.2812 58.8563V60.8875C19.9062 60.7598 21.4935 60.3328 22.9633 59.6281L21.9375 57.8711C20.7831 58.4035 19.5469 58.7366 18.2812 58.8563Z" fill="#F6821F"/>
<path d="M22.9633 35.8414C21.4935 35.1367 19.9062 34.7097 18.2812 34.582V36.6133C19.5469 36.733 20.7831 37.066 21.9375 37.5984L22.9633 35.8414Z" fill="#F6821F"/>
<path d="M23.707 56.8531L24.7227 58.6203C26.0657 57.6937 27.2289 56.5305 28.1555 55.1875L26.3883 54.1719C25.6479 55.2068 24.742 56.1127 23.707 56.8531Z" fill="#F6821F"/>
<path d="M16.2484 36.6133V34.582C14.6235 34.7097 13.0361 35.1367 11.5664 35.8414L12.5922 37.5984C13.7466 37.066 14.9828 36.733 16.2484 36.6133Z" fill="#F6821F"/>
<path d="M10.8273 38.6148L9.81172 36.8477C8.46871 37.7743 7.3055 38.9375 6.37891 40.2805L8.14609 41.2961C8.88651 40.2611 9.79239 39.3553 10.8273 38.6148Z" fill="#F6821F"/>
<path d="M27.4023 52.4062L29.1594 53.432C29.8641 51.9623 30.2911 50.3749 30.4188 48.75H28.3875C28.2678 50.0156 27.9347 51.2518 27.4023 52.4062Z" fill="#F6821F"/>
<path d="M6.14453 48.75H4.11328C4.24097 50.3749 4.66794 51.9623 5.37266 53.432L7.12969 52.4062C6.5973 51.2518 6.26421 50.0156 6.14453 48.75Z" fill="#F6821F"/>
<path d="M7.12969 43.0648L5.37266 42.0391C4.66794 43.5088 4.24097 45.0961 4.11328 46.7211H6.14453C6.26421 45.4555 6.5973 44.2193 7.12969 43.0648Z" fill="#F6821F"/>
<path d="M55.4922 5.2C55.6825 5.39176 55.7892 5.65095 55.7892 5.92109C55.7892 6.19124 55.6825 6.45043 55.4922 6.64219L30.9648 31.1594L33.8391 34.0336L58.3562 9.50625C58.548 9.31597 58.8072 9.2092 59.0773 9.2092C59.3475 9.2092 59.6067 9.31597 59.7984 9.50625L60.9359 10.6539V4.0625H54.3445L55.4922 5.2Z" fill="#F6821F"/>
<path d="M55.4922 38.7156C55.6825 38.9074 55.7892 39.1666 55.7892 39.4367C55.7892 39.7069 55.6825 39.9661 55.4922 40.1578L39.0898 56.55L41.9641 59.4242L58.3562 43.0219C58.548 42.8316 58.8072 42.7248 59.0773 42.7248C59.3475 42.7248 59.6067 42.8316 59.7984 43.0219L60.9359 44.1695V37.5781H54.3445L55.4922 38.7156Z" fill="#F6821F"/>
<path d="M28.3875 46.7211H30.4188C30.2911 45.0961 29.8641 43.5088 29.1594 42.0391L27.4023 43.0648C27.9347 44.2193 28.2678 45.4555 28.3875 46.7211Z" fill="#F6821F"/>
<path d="M25.8563 9.50625C26.048 9.31597 26.3072 9.2092 26.5774 9.2092C26.8475 9.2092 27.1067 9.31597 27.2984 9.50625L28.4359 10.6539V4.0625H21.8445L22.9922 5.2C23.1825 5.39176 23.2892 5.65095 23.2892 5.92109C23.2892 6.19124 23.1825 6.45043 22.9922 6.64219L6.58984 23.0344L9.46406 25.9086L25.8563 9.50625Z" fill="#F6821F"/>
<path d="M24.7227 36.8477L23.707 38.6148C24.742 39.3553 25.6479 40.2611 26.3883 41.2961L28.1555 40.2805C27.2289 38.9375 26.0657 37.7743 24.7227 36.8477Z" fill="#F6821F"/>
<path d="M15.5273 28.7344L23.6513 20.6104L25.0874 22.0465L16.9634 30.1705L15.5273 28.7344Z" fill="#F6821F"/>
<path d="M25.6836 18.5781L27.7145 16.5472L29.1509 17.9835L27.1199 20.0144L25.6836 18.5781Z" fill="#F6821F"/>
<path d="M34.8203 48.0312L42.9443 39.9073L44.3804 41.3434L36.2564 49.4673L34.8203 48.0312Z" fill="#F6821F"/>
<path d="M44.9766 37.875L47.0075 35.8441L48.4438 37.2804L46.4129 39.3113L44.9766 37.875Z" fill="#F6821F"/>
<path d="M27.7148 23.6562L35.8388 15.5323L37.2749 16.9684L29.1509 25.0923L27.7148 23.6562Z" fill="#F6821F"/>
<path d="M37.8711 13.5039L39.902 11.473L41.3383 12.9093L39.3074 14.9402L37.8711 13.5039Z" fill="#F6821F"/>
<path d="M39.8984 35.8438L48.0224 27.7198L49.4585 29.1559L41.3345 37.2798L39.8984 35.8438Z" fill="#F6821F"/>
<path d="M50.0547 25.6875L52.0856 23.6566L53.5219 25.0929L51.491 27.1238L50.0547 25.6875Z" fill="#F6821F"/>
</svg>
