<svg width="1439" height="387" viewBox="0 0 1439 387" fill="none" xmlns="http://www.w3.org/2000/svg">
<path opacity="0.2" fill-rule="evenodd" clip-rule="evenodd" d="M-1 127.423L23 120.423C47 112.423 95 98.4234 143 141.423C191 184.423 239 285.423 287 292.423C335 300.423 383 213.423 431 206.423C479 199.423 527 271.423 575 300.423C623 328.423 671 314.423 719 278.423C767 242.423 815 184.423 863 141.423C911 98.4234 959 69.4234 1007 55.4234C1055 40.4234 1103 40.4234 1151 26.4234C1199 12.4234 1247 -16.5766 1295 12.4234C1343 40.4234 1391 127.423 1415 170.423L1439 213.423V386.423H1415C1391 386.423 1343 386.423 1295 386.423C1247 386.423 1199 386.423 1151 386.423C1103 386.423 1055 386.423 1007 386.423C959 386.423 911 386.423 863 386.423C815 386.423 767 386.423 719 386.423C671 386.423 623 386.423 575 386.423C527 386.423 479 386.423 431 386.423C383 386.423 335 386.423 287 386.423C239 386.423 191 386.423 143 386.423C95 386.423 47 386.423 23 386.423H-1V127.423Z" fill="url(#paint0_linear)"/>
<defs>
<linearGradient id="paint0_linear" x1="-1" y1="193.212" x2="1439" y2="193.212" gradientUnits="userSpaceOnUse">
<stop stop-color="white"/>
<stop offset="1" stop-color="#E6E6E6"/>
</linearGradient>
</defs>
</svg>
