<svg width="65" height="65" viewBox="0 0 65 65" fill="none" xmlns="http://www.w3.org/2000/svg">
<g clip-path="url(#clip0)">
<path d="M10.1048 13.5412C10.824 14.0899 11.8513 13.9518 12.4002 13.2331C17.2305 6.90444 24.5567 3.27517 32.5005 3.27517C40.4443 3.27517 47.7704 6.90466 52.6008 13.2331C52.9232 13.6553 53.4106 13.877 53.9039 13.877C54.2501 13.877 54.5996 13.7675 54.8962 13.5412C55.6149 12.9923 55.7528 11.9648 55.2043 11.2459C49.7489 4.09894 41.4738 0 32.5005 0C23.5272 0 15.2521 4.09894 9.79687 11.2459C9.2482 11.9648 9.38608 12.9923 10.1048 13.5412Z" fill="#F6821F"/>
<path d="M49.9062 22.2746C49.9062 25.0945 52.2007 27.389 55.0207 27.389C57.8407 27.389 60.1351 25.0945 60.1351 22.2746C60.1351 19.4546 57.8407 17.1602 55.0207 17.1602C52.2007 17.1602 49.9062 19.4544 49.9062 22.2746Z" fill="#F6821F"/>
<path d="M60.255 29.0875C60.2432 29.0836 58.9546 28.6881 58.9546 28.6881C58.488 28.5457 57.9811 28.6334 57.5905 28.9258L55.0209 30.8498L52.4513 28.9258C52.0604 28.6332 51.5534 28.5454 51.0872 28.6881C51.0872 28.6881 49.7986 29.0836 49.7868 29.0875C47.7133 29.7789 46.3203 31.7116 46.3203 33.8971V41.629C46.3203 41.9273 46.4074 42.2191 46.5716 42.4681L49.1646 46.4143V56.7776C49.1646 57.6217 49.8487 58.3058 50.6928 58.3058H59.3492C60.1933 58.3058 60.8775 57.6217 60.8775 56.7776V46.4143L63.4705 42.4681C63.6344 42.2189 63.7217 41.9271 63.7217 41.629V33.8971C63.7217 31.7116 62.3285 29.7789 60.255 29.0875Z" fill="#F6821F"/>
<path d="M9.97793 27.389C12.7979 27.389 15.0924 25.0945 15.0924 22.2746C15.0924 19.4546 12.7979 17.1602 9.97793 17.1602C7.15798 17.1602 4.86328 19.4544 4.86328 22.2746C4.86328 25.0948 7.15776 27.389 9.97793 27.389Z" fill="#F6821F"/>
<path d="M15.2121 29.0875C15.2003 29.0836 13.9116 28.6881 13.9116 28.6881C13.4448 28.5457 12.9384 28.6334 12.5475 28.9258L9.97793 30.8498L7.40835 28.9258C7.0177 28.6332 6.51039 28.5454 6.04423 28.6881C6.04423 28.6881 4.75561 29.0836 4.74379 29.0875C2.67036 29.7789 1.27734 31.7116 1.27734 33.8971V41.629C1.27734 41.9273 1.36445 42.2191 1.52859 42.4681L4.12159 46.4143V56.7776C4.12159 57.6217 4.80573 58.3058 5.64985 58.3058H14.306C15.1501 58.3058 15.8343 57.6217 15.8343 56.7776V46.4143L18.4273 42.4681C18.5912 42.2189 18.6785 41.9271 18.6785 41.629V33.8971C18.6785 31.7116 17.2853 29.7789 15.2121 29.0875Z" fill="#F6821F"/>
<path d="M39.0958 15.0655C39.0958 11.4281 36.1364 8.46875 32.4991 8.46875C28.8617 8.46875 25.9023 11.4281 25.9023 15.0655C25.9023 18.7031 28.8617 21.6622 32.4991 21.6622C36.1364 21.6622 39.0958 18.7031 39.0958 15.0655Z" fill="#F6821F"/>
<path d="M39.7478 24.8651L39.7368 24.8616L37.854 24.2839C37.557 24.1926 37.2397 24.3497 37.1329 24.6428L33.1738 35.5057C32.9453 36.1322 32.0592 36.1322 31.8307 35.5057L27.8716 24.6428C27.7854 24.4062 27.5622 24.2578 27.3227 24.2578C27.266 24.2578 25.2699 24.8608 25.2699 24.8608C22.8646 25.6622 21.2578 27.8919 21.2578 30.4131V41.9043C21.2578 42.0184 21.2913 42.13 21.3539 42.2254L25.485 48.5118V64.4182C25.485 64.7412 25.7468 65.003 26.0698 65.003H38.9347C39.2578 65.003 39.5195 64.7412 39.5195 64.4182V48.5118L43.6506 42.2254C43.7132 42.13 43.7467 42.0184 43.7467 41.9043V30.3829C43.7465 27.8726 42.1333 25.6467 39.7478 24.8651Z" fill="#F6821F"/>
<path d="M34.0466 24.6351C33.8831 24.4569 33.6439 24.3672 33.4018 24.3672H31.5974C31.3556 24.3672 31.1163 24.4569 30.9526 24.6351C30.6994 24.911 30.6627 25.3096 30.8423 25.621L31.8068 27.0751L31.3553 30.8842L32.2445 33.2496C32.3312 33.4875 32.6676 33.4875 32.7545 33.2496L33.6437 30.8842L33.1922 27.0751L34.1567 25.621C34.3366 25.3096 34.2998 24.911 34.0466 24.6351Z" fill="#F6821F"/>
</g>
<defs>
<clipPath id="clip0">
<rect width="65" height="65" fill="white"/>
</clipPath>
</defs>
</svg>
