<svg width="65" height="65" viewBox="0 0 65 65" fill="none" xmlns="http://www.w3.org/2000/svg">
<path d="M63.0957 30.5957H60.9678C60.023 16.3651 48.6349 4.97696 34.4043 4.03225V2.03125C34.4043 0.978928 33.5523 0 32.5 0C31.4477 0 30.5957 0.978928 30.5957 2.03125V4.03225C16.3651 4.97696 4.97696 16.3651 4.03225 30.5957H1.9043C0.851975 30.5957 0 31.4477 0 32.5C0 33.5523 0.851975 34.4043 1.9043 34.4043H4.03225C4.97696 48.6349 16.3651 60.023 30.5957 60.9678V63.0957C30.5957 64.148 31.4477 65 32.5 65C33.5523 65 34.4043 64.148 34.4043 63.0957V60.9678C48.6349 60.023 60.023 48.6349 60.9678 34.4043H63.0957C64.148 34.4043 65 33.5523 65 32.5C65 31.4477 64.148 30.5957 63.0957 30.5957ZM34.4043 57.1592V55.3516C34.4043 54.2992 33.5523 53.4473 32.5 53.4473C31.4477 53.4473 30.5957 54.2992 30.5957 55.3516V57.1592C18.4657 56.2288 8.77117 46.5343 7.84084 34.4043H9.64844C10.7008 34.4043 11.5527 33.5523 11.5527 32.5C11.5527 31.4477 10.7008 30.5957 9.64844 30.5957H7.84084C8.77117 18.4657 18.4657 8.77117 30.5957 7.84084V9.64844C30.5957 10.7008 31.4477 11.5527 32.5 11.5527C33.5523 11.5527 34.4043 10.7008 34.4043 9.64844V7.84084C46.5343 8.77117 56.2288 18.4657 57.1592 30.5957H55.3516C54.2992 30.5957 53.4473 31.4477 53.4473 32.5C53.4473 33.5523 54.2992 34.3914 55.3516 34.3914H57.1592C56.2288 46.5219 46.5343 56.2288 34.4043 57.1592Z" fill="#F6821F"/>
<path d="M42.0215 47.7344H22.9785C21.9262 47.7344 21.0742 46.8824 21.0742 45.8301V40.1172C21.0742 35.9163 24.4905 32.5 28.6914 32.5V31.4809C26.3408 30.1196 24.8828 27.5925 24.8828 24.8828C24.8828 20.682 28.2991 17.2656 32.5 17.2656C36.7009 17.2656 40.1172 20.682 40.1172 24.8828C40.1172 27.5925 38.6572 30.1216 36.3086 31.4809V32.5C40.5095 32.5 43.9258 35.9163 43.9258 40.1172V45.8301C43.9258 46.8824 43.0738 47.7344 42.0215 47.7344Z" fill="#F6821F"/>
</svg>
