<svg width="65" height="65" viewBox="0 0 65 65" fill="none" xmlns="http://www.w3.org/2000/svg">
<path d="M15.2344 15.2344H7.10938V17.2656H13.2031V21.3281H7.10938V23.3594H13.2031V27.4219H7.10938V29.4531H15.2344V15.2344Z" fill="#F6821F"/>
<path d="M35.5469 15.2344H27.4219V29.4531H35.5469V15.2344ZM33.5156 27.4219H29.4531V17.2656H33.5156V27.4219Z" fill="#F6821F"/>
<path d="M25.3906 21.3281H19.2969V17.2656H25.3906V15.2344H17.2656V29.4531H25.3906V21.3281ZM23.3594 27.4219H19.2969V23.3594H23.3594V27.4219Z" fill="#F6821F"/>
<path d="M32.4973 10.1535C32.4973 8.47367 33.8643 7.10664 35.5441 7.10664C35.732 7.10664 35.9149 7.12898 36.0936 7.1625C37.2159 5.55477 38.3767 4.2893 39.3792 3.34375C33.454 4.36242 28.4571 8.09281 25.6875 13.2004H27.4191H35.5441C33.8643 13.2004 32.4973 11.8334 32.4973 10.1535Z" fill="#F6821F"/>
<path d="M25.6602 31.4844C28.4653 36.728 33.5201 40.3752 39.4056 41.3654C38.3981 40.4178 37.2271 39.1432 36.0957 37.5233C35.917 37.5558 35.7341 37.5781 35.5462 37.5781C33.8664 37.5781 32.4994 36.2111 32.4994 34.5312C32.4994 32.8514 33.8664 31.4844 35.5462 31.4844H27.4212H25.6602Z" fill="#F6821F"/>
<path d="M50.831 29.4518H41.6406V27.4205H51.3104C51.611 25.8636 51.7969 24.1817 51.7969 22.3424C51.7969 20.5062 51.608 18.8233 51.3013 17.2643H41.6406V15.233H50.8138C48.7866 8.18969 44.1949 4.37094 42.6552 3.25781C41.732 3.92508 39.7363 5.53891 37.8544 8.18867C38.3094 8.72086 38.5938 9.40234 38.5938 10.1549C38.5938 11.8348 37.2267 13.2018 35.5469 13.2018H37.5781V15.233H39.6094V17.2643H37.5781V27.4205H39.6094V29.4518H37.5781V31.483H35.5469C37.2267 31.483 38.5938 32.8501 38.5938 34.5299C38.5938 35.2825 38.3094 35.964 37.8544 36.4962C39.7404 39.152 41.7412 40.7669 42.6613 41.4311C44.2376 40.3119 48.8241 36.5317 50.831 29.4518Z" fill="#F6821F"/>
<path d="M52.9457 15.2325H60.5791C58.1345 9.09101 52.6298 4.50445 45.9531 3.34766C48.2748 5.52719 51.4304 9.39367 52.9457 15.2325Z" fill="#F6821F"/>
<path d="M35.5469 35.5469C36.1078 35.5469 36.5625 35.0922 36.5625 34.5312C36.5625 33.9703 36.1078 33.5156 35.5469 33.5156C34.986 33.5156 34.5312 33.9703 34.5312 34.5312C34.5312 35.0922 34.986 35.5469 35.5469 35.5469Z" fill="#F6821F"/>
<path d="M3.08984 50.3164C3.91859 55.8302 17.1573 59.9222 34.5326 59.9222H41.642V57.891H34.5326C21.7286 57.891 8.15781 55.488 3.08984 50.3164Z" fill="#F6821F"/>
<path d="M5.07812 45.7021C5.07812 42.4846 14.1558 38.7065 27.9358 37.7904C27.3142 37.1973 26.7262 36.5706 26.1787 35.9023C12.3236 37.0815 3.04688 40.9937 3.04688 45.7021C3.04688 51.4922 16.5821 55.8584 34.5312 55.8584H41.6406V53.8271H34.5312C17.1742 53.8271 5.07812 49.5452 5.07812 45.7021Z" fill="#F6821F"/>
<path d="M45.9531 41.338C52.6298 40.1812 58.1345 35.5946 60.5791 29.4531H52.9457C51.4304 35.292 48.2748 39.1584 45.9531 41.338Z" fill="#F6821F"/>
<path d="M35.5469 11.1719C36.1078 11.1719 36.5625 10.7172 36.5625 10.1562C36.5625 9.59534 36.1078 9.14062 35.5469 9.14062C34.986 9.14062 34.5312 9.59534 34.5312 10.1562C34.5312 10.7172 34.986 11.1719 35.5469 11.1719Z" fill="#F6821F"/>
<path d="M61.2555 17.2656H53.3945C53.6728 18.8327 53.8313 20.5237 53.8313 22.3438C53.8313 24.1638 53.6728 25.8548 53.3945 27.4219H61.2555C61.6993 25.8009 61.9563 24.1038 61.9563 22.3438C61.9563 20.5837 61.6993 18.8866 61.2555 17.2656Z" fill="#F6821F"/>
<path d="M43.6719 61.3228L52.5728 56.8723L43.6719 52.4219V61.3228Z" fill="#F6821F"/>
</svg>
