<svg width="56" height="67" viewBox="0 0 56 67" fill="none" xmlns="http://www.w3.org/2000/svg">
<path opacity="0.2" fill-rule="evenodd" clip-rule="evenodd" d="M-64.8117 -46.2741C-57.8232 -56.2798 -51.3868 -67.38 -39.7747 -71.8129C-27.6909 -76.4259 -13.0913 -76.6665 -1.00069 -70.6338C10.4921 -64.8995 15.5414 -52.0242 21.9366 -41.0221C27.471 -31.5006 30.2488 -21.6113 33.5227 -11.2397C38.3139 3.93856 52.1072 19.8155 45.5042 33.6386C39.0436 47.1638 19.1598 46.8705 4.16186 50.2265C-9.82265 53.3558 -24.2101 57.2086 -38.1776 52.3637C-52.1231 47.5264 -63.3731 36.5837 -71.1468 24.1043C-78.4312 12.4101 -81.0059 -1.27568 -79.8171 -14.4825C-78.7251 -26.6136 -71.676 -36.4461 -64.8117 -46.2741Z" fill="url(#paint0_linear)"/>
<defs>
<linearGradient id="paint0_linear" x1="-48.6258" y1="47.5349" x2="24.1186" y2="-52.8855" gradientUnits="userSpaceOnUse">
<stop stop-color="#5433FF"/>
<stop offset="0.5" stop-color="#20BDFF"/>
<stop offset="1" stop-color="#A5FECB"/>
</linearGradient>
</defs>
</svg>
