<svg width="80" height="62" viewBox="0 0 80 62" fill="none" xmlns="http://www.w3.org/2000/svg">
<path opacity="0.2" fill-rule="evenodd" clip-rule="evenodd" d="M21.1761 46.7171C28.1755 36.7192 34.6793 25.6678 45.9387 20.9795C57.6555 16.1006 71.6496 15.4214 83.0492 20.9535C93.8851 26.212 98.331 38.6501 104.123 49.2155C109.136 58.3589 111.496 67.9458 114.317 77.9895C118.446 92.6876 131.177 107.795 124.431 121.515C117.83 134.939 98.7901 135.256 84.3197 138.994C70.8271 142.48 56.9265 146.685 43.6926 142.372C30.4796 138.065 20.0346 127.706 12.9668 115.738C6.34375 104.523 4.29335 91.2167 5.83387 78.2646C7.2489 66.3676 14.3011 56.5373 21.1761 46.7171Z" fill="url(#paint0_linear)"/>
<defs>
<linearGradient id="paint0_linear" x1="33.8299" y1="137.967" x2="106.574" y2="37.547" gradientUnits="userSpaceOnUse">
<stop stop-color="#00F5A0"/>
<stop offset="1" stop-color="#00D9F5"/>
</linearGradient>
</defs>
</svg>
