<svg width="128" height="121" viewBox="0 0 128 121" fill="none" xmlns="http://www.w3.org/2000/svg">
<mask id="mask0" mask-type="alpha" maskUnits="userSpaceOnUse" x="0" y="0" width="128" height="121">
<rect width="128" height="121" rx="15" fill="white"/>
</mask>
<g mask="url(#mask0)">
<path fill-rule="evenodd" clip-rule="evenodd" d="M-6.12364 -91C63.6228 -91 117.805 -22.7987 117.805 58.0231C117.805 136.613 61.6963 199 -6.12364 199C-73.456 199 -128.297 136.047 -128.297 58.0231C-128.297 -22.2494 -75.396 -91 -6.12364 -91Z" fill="#B1D7FF"/>
</g>
<g clip-path="url(#clip0)">
<path d="M36.6121 42.9438C43.3315 42.9438 48.7983 37.3488 48.7983 30.4719C48.7983 23.5949 43.3315 18 36.6121 18C29.8926 18 24.4258 23.5949 24.4258 30.4719C24.4258 37.3488 29.8926 42.9438 36.6121 42.9438ZM36.6121 20.6953C41.8794 20.6953 46.1647 25.0811 46.1647 30.4719C46.1647 35.8626 41.8794 40.2485 36.6121 40.2485C31.3447 40.2485 27.0594 35.8626 27.0594 30.4719C27.0594 25.0811 31.3447 20.6953 36.6121 20.6953Z" fill="#2C68A1"/>
<path d="M37.6602 33.4342C37.9172 33.6963 38.2535 33.8273 38.5898 33.8273C38.9274 33.8273 39.2653 33.6952 39.5225 33.4311C40.0358 32.9039 40.0345 32.0505 39.5195 31.5251L37.9383 29.9122V23.9297C37.9383 23.1855 37.3486 22.582 36.6215 22.582C35.8943 22.582 35.3047 23.1855 35.3047 23.9297V30.4719C35.3047 30.8301 35.4441 31.1736 35.6918 31.4264L37.6602 33.4342Z" fill="#2C68A1"/>
<path d="M90.5288 62.742H82.4244C81.3104 61.1202 79.6364 59.9715 77.7272 59.5443L71.9381 58.2488C74.3071 56.6135 75.8683 53.8417 75.8683 50.7035V47.4129V45.8905V45.5479C75.8683 40.533 71.8818 36.4531 66.9818 36.4531C62.0817 36.4531 58.0953 40.533 58.0953 45.5479V45.8905V47.4129V50.7035C58.0953 53.8376 59.6524 56.6067 62.0164 58.2427L56.231 59.5417C55.9838 59.5972 55.7409 59.6653 55.5021 59.7441V48.5916C55.5021 47.8474 54.9125 47.2439 54.1853 47.2439H45.2311C44.504 47.2439 43.9143 47.8474 43.9143 48.5916C43.9143 49.3358 44.504 49.9393 45.2311 49.9393H52.8685V68.8064H43.9143V62.0682C43.9143 59.8389 42.1422 58.0252 39.9639 58.0252C37.7857 58.0252 36.0136 59.8389 36.0136 62.0682V68.8064H27.0594V49.9393H34.6968C35.4239 49.9393 36.0136 49.3358 36.0136 48.5916C36.0136 47.8474 35.4239 47.2439 34.6968 47.2439H25.7426C25.0154 47.2439 24.4258 47.8474 24.4258 48.5916V70.1541C24.4258 70.8983 25.0154 71.5018 25.7426 71.5018H36.0136V74.0623H35.8819C33.631 74.0623 31.7998 75.9364 31.7998 78.24V78.9139H25.7426C25.0154 78.9139 24.4258 79.5173 24.4258 80.2615V85.6521C24.4258 86.3963 25.0154 86.9998 25.7426 86.9998H90.5288C91.256 86.9998 91.8456 86.3963 91.8456 85.6521V80.2615V74.8709V69.4803V64.0896C91.8456 63.3455 91.256 62.742 90.5288 62.742ZM82.52 78.9139H74.9907V76.2186H89.212V78.9139H82.52ZM89.212 73.5232H74.9907V70.8279H89.212V73.5232ZM89.212 68.1326H74.9907V65.4373H81.6897C81.6937 65.4373 81.6976 65.4381 81.7014 65.4381C81.7055 65.4381 81.7097 65.4373 81.7138 65.4373H89.212V68.1326ZM60.7287 45.5481C60.7287 42.0193 63.5339 39.1486 66.9817 39.1486C70.2648 39.1486 72.965 41.7514 73.2156 45.0469L70.1546 43.2064C69.6001 42.8728 68.8914 42.9983 68.4783 43.5027C67.1449 45.1314 65.1894 46.0656 63.1132 46.0656H60.7289V45.8908V45.5481H60.7287ZM60.7287 48.7607H63.1132C65.592 48.7607 67.9458 47.7932 69.7241 46.0735L73.2347 48.1843V50.7036C73.2347 54.2323 70.4296 57.1031 66.9818 57.1031C63.534 57.1031 60.7289 54.2322 60.7289 50.7036V48.7607H60.7287ZM69.0446 59.5485L66.962 65.2482L64.8757 59.5382C65.5512 59.7069 66.2561 59.7984 66.9817 59.7984C67.6919 59.7984 68.3821 59.7103 69.0446 59.5485ZM54.1853 71.5018C54.9125 71.5018 55.5021 70.8983 55.5021 70.1541V62.658C55.9083 62.4389 56.3414 62.2764 56.7952 62.1745L62.5549 60.8813L65.7287 69.5679C65.9211 70.0944 66.4127 70.4434 66.962 70.4434C67.5114 70.4434 68.003 70.0944 68.1954 69.5677L71.3694 60.8806L77.1647 62.1775C77.6734 62.2912 78.1561 62.4839 78.6003 62.7419H73.6739C72.9467 62.7419 72.3571 63.3453 72.3571 64.0895V69.4801V74.8708V78.9137H52.7604V71.5016H54.1853V71.5018ZM50.1268 71.5018V78.9139H48.1281V78.24C48.1281 75.9364 46.2969 74.0623 44.046 74.0623H43.9143V71.5018H50.1268ZM38.6472 62.0682C38.6472 61.3251 39.2379 60.7205 39.9639 60.7205C40.69 60.7205 41.2807 61.3251 41.2807 62.0682V74.0623H38.6472V62.0682ZM34.4334 78.24C34.4334 77.4227 35.0833 76.7576 35.8819 76.7576H37.3304H42.5975H44.046C44.8446 76.7576 45.4945 77.4227 45.4945 78.24V78.9139H34.4334V78.24ZM89.212 84.3045H27.0594V81.6092H89.212V84.3045Z" fill="#2C68A1"/>
<path d="M39.0343 47.637C38.7893 47.8877 38.6484 48.2354 38.6484 48.5898C38.6484 48.9443 38.7892 49.292 39.0343 49.5425C39.2792 49.7932 39.6189 49.9375 39.9652 49.9375C40.3115 49.9375 40.6513 49.7933 40.8961 49.5425C41.1411 49.292 41.282 48.9443 41.282 48.5898C41.282 48.2354 41.1411 47.8877 40.8961 47.637C40.6513 47.3864 40.3115 47.2422 39.9652 47.2422C39.6189 47.2422 39.2792 47.3863 39.0343 47.637Z" fill="#2C68A1"/>
</g>
<defs>
<clipPath id="clip0">
<rect width="67.4198" height="69" fill="white" transform="translate(24.4258 18)"/>
</clipPath>
</defs>
</svg>
