<svg width="128" height="121" viewBox="0 0 128 121" fill="none" xmlns="http://www.w3.org/2000/svg">
<mask id="mask0" mask-type="alpha" maskUnits="userSpaceOnUse" x="0" y="0" width="128" height="121">
<rect width="128" height="121" rx="15" fill="white"/>
</mask>
<g mask="url(#mask0)">
<path fill-rule="evenodd" clip-rule="evenodd" d="M-6.26802 -91C65.1131 -91 120.566 -22.7987 120.566 58.0231C120.566 136.613 63.1415 199 -6.26802 199C-75.1785 199 -131.305 136.047 -131.305 58.0231C-131.305 -22.2494 -77.164 -91 -6.26802 -91Z" fill="#B1D7FF"/>
</g>
<path d="M83.7411 80.1923C84.47 79.185 84.9012 77.9489 84.9012 76.6135V68.6328C84.9012 67.8993 84.3065 67.3047 83.5731 67.3047H77.6375C74.8936 67.3047 72.6613 69.537 72.6613 72.2809V76.6135C72.6613 77.9481 73.092 79.1833 73.8199 80.1903C72.912 80.3376 72.0385 80.6284 71.2238 81.0542C69.3785 78.3008 66.3553 76.4018 62.8812 76.0815C62.8677 76.0776 62.8538 76.0748 62.8402 76.0715C64.0832 74.6835 64.8409 72.8523 64.8409 70.8468V60C64.8409 59.2665 64.2461 58.6719 63.5127 58.6719H55.4454C51.9792 58.6719 49.1591 61.4919 49.1591 64.9582V70.8467C49.1591 72.8521 49.9168 74.6834 51.1598 76.0714C51.1462 76.0747 51.1323 76.0776 51.1188 76.0813C47.6443 76.4017 44.6209 78.3009 42.7758 81.0548C41.9608 80.6291 41.0872 80.338 40.1797 80.1907C40.9078 79.1837 41.3388 77.9483 41.3388 76.6135V68.6328C41.3388 67.8993 40.744 67.3047 40.0106 67.3047H34.075C31.3311 67.3047 29.0987 69.537 29.0987 72.2809V76.6135C29.0987 77.9491 29.53 79.185 30.2589 80.1923C26.1479 80.8642 23 84.4394 23 88.7373V92.6719C23 93.4054 23.5947 94 24.3281 94H89.6719C90.4053 94 91 93.4054 91 92.6719V88.7373C91 84.4394 87.8521 80.8642 83.7411 80.1923ZM31.755 72.2809C31.755 71.0017 32.7957 69.9609 34.075 69.9609H38.6825V71.5785C38.6825 72.3716 38.0373 73.0168 37.2443 73.0168H31.755V72.2809ZM31.755 75.6729H37.2443C37.7503 75.6729 38.2348 75.5801 38.6825 75.4114V76.6135C38.6825 78.5234 37.1287 80.0773 35.2188 80.0773C33.3088 80.0773 31.755 78.5234 31.755 76.6135V75.6729ZM36.075 82.7335L35.2188 83.5898L34.3625 82.7335H36.075ZM40.8702 87.3243V91.3438H25.6562V88.7373C25.6562 85.7585 27.8374 83.2804 30.6863 82.8137L34.2796 86.4071C34.5288 86.6561 34.8665 86.7961 35.2188 86.7961C35.571 86.7961 35.9087 86.6561 36.1579 86.4071L39.7523 82.8125C40.3871 82.9159 40.9977 83.1205 41.5667 83.4199C41.1167 84.6373 40.8702 85.9525 40.8702 87.3243ZM57.0001 76.0314C54.1413 76.0314 51.8155 73.7056 51.8155 70.8468V69.0914H59.7529C60.6331 69.0914 61.4618 68.8666 62.1847 68.4716V70.8468C62.1847 73.7056 59.8589 76.0314 57.0001 76.0314ZM59.3152 78.6875L57 81.0027L54.6848 78.6875H59.3152ZM51.8153 64.9582H51.8154C51.8154 62.9565 53.4438 61.3281 55.4454 61.3281H62.1846V64.0035C62.1846 65.3444 61.0937 66.4353 59.7528 66.4353H51.8153V64.9582ZM70.4734 91.3438H67.8906H46.1094H43.5266V88.6875H52.1745C52.9079 88.6875 53.5026 88.0929 53.5026 87.3594C53.5026 86.6259 52.9079 86.0312 52.1745 86.0312H43.6237C44.1929 82.2566 47.2144 79.2769 51.0079 78.7671L56.0609 83.8201C56.3203 84.0794 56.6601 84.2091 57 84.2091C57.3399 84.2091 57.6797 84.0794 57.9391 83.8201L62.9921 78.7671C67.2097 79.3339 70.4734 82.954 70.4734 87.3243V91.3438ZM75.3175 72.2809C75.3175 71.0017 76.3582 69.9609 77.6375 69.9609H82.245V71.5785C82.245 72.3716 81.5998 73.0168 80.8068 73.0168H75.3175V72.2809ZM75.3175 75.6729H80.8068C81.3128 75.6729 81.7973 75.5801 82.245 75.4114V76.6135C82.245 78.5234 80.6912 80.0773 78.7812 80.0773C76.8713 80.0773 75.3175 78.5234 75.3175 76.6135V75.6729ZM79.6375 82.7335L78.7812 83.5898L77.925 82.7335H79.6375ZM73.1297 91.3438V87.3243C73.1297 85.9524 72.8832 84.6371 72.4331 83.4196C73.0018 83.12 73.6122 82.9155 74.2472 82.8123L77.842 86.4071C78.0912 86.6561 78.4289 86.7961 78.7811 86.7961C79.1333 86.7961 79.4711 86.6561 79.7202 86.4071L83.3136 82.8137C86.1624 83.2806 88.3436 85.7585 88.3436 88.7373V91.3438H73.1297Z" fill="#2C68A2"/>
<path d="M63.5465 34.678C63.0277 34.1594 62.187 34.1594 61.6681 34.678L55.151 41.1953L52.3336 38.3779C51.8149 37.8592 50.9741 37.8592 50.4554 38.3778C49.9367 38.8964 49.9367 39.7374 50.4554 40.2562L54.2119 44.0126C54.461 44.2617 54.7988 44.4016 55.151 44.4016C55.5032 44.4016 55.8409 44.2617 56.0901 44.0126L63.5465 36.5563C64.0651 36.0376 64.0651 35.1967 63.5465 34.678Z" fill="#2C68A2"/>
<path d="M62.4275 27.1545C61.7577 26.8558 60.9724 27.1566 60.6736 27.8266C60.3748 28.4965 60.6757 29.2818 61.3456 29.5805C65.1971 31.2981 67.6857 35.132 67.6857 39.3478C67.6857 45.2415 62.8908 50.0364 56.9971 50.0364C51.1034 50.0364 46.3085 45.2415 46.3085 39.3478C46.3085 35.1538 48.7792 31.3279 52.6028 29.6009C53.2713 29.299 53.5685 28.5123 53.2665 27.8438C52.9646 27.1752 52.1774 26.8781 51.5095 27.18C46.7365 29.3358 43.6523 34.1119 43.6523 39.3476C43.6522 46.7061 49.6387 52.6926 56.9971 52.6926C64.3554 52.6926 70.3419 46.7061 70.3419 39.3478C70.3419 34.0848 67.2353 29.2986 62.4275 27.1545Z" fill="#2C68A2"/>
<path d="M57.0475 26H57C56.2666 26 55.6719 26.5946 55.6719 27.3281C55.6719 28.0616 56.2666 28.6562 57 28.6562H57.0351C57.0372 28.6562 57.0392 28.6562 57.0414 28.6562C57.772 28.6562 58.366 28.0658 58.3694 27.3344C58.3729 26.6008 57.7811 26.0035 57.0475 26Z" fill="#2C68A2"/>
<path d="M57.9389 86.4204C57.692 86.1734 57.3493 86.0312 57 86.0312C56.6507 86.0312 56.308 86.1734 56.061 86.4204C55.814 86.6674 55.6719 87.0101 55.6719 87.3594C55.6719 87.7087 55.8139 88.0513 56.061 88.2984C56.3082 88.5454 56.6507 88.6875 57 88.6875C57.3493 88.6875 57.692 88.5454 57.9389 88.2984C58.1859 88.0513 58.3281 87.7087 58.3281 87.3594C58.3281 87.0101 58.186 86.6674 57.9389 86.4204Z" fill="#2C68A2"/>
</svg>
