<svg width="128" height="121" viewBox="0 0 128 121" fill="none" xmlns="http://www.w3.org/2000/svg">
<mask id="mask0" mask-type="alpha" maskUnits="userSpaceOnUse" x="0" y="0" width="128" height="121">
<rect width="128" height="121" rx="15" fill="white"/>
</mask>
<g mask="url(#mask0)">
<path fill-rule="evenodd" clip-rule="evenodd" d="M-6.64302 -91C64.7381 -91 120.191 -22.7987 120.191 58.0231C120.191 136.613 62.7665 199 -6.64302 199C-75.5535 199 -131.68 136.047 -131.68 58.0231C-131.68 -22.2494 -77.539 -91 -6.64302 -91Z" fill="#FFDCBE"/>
</g>
<g clip-path="url(#clip0)">
<path d="M92.8458 62.6935C92.1275 55.4687 88.8998 48.6575 83.7569 43.5144C79.3618 39.1195 73.9824 36.2952 68.322 35.0394V31.0694C70.6339 30.4942 72.3523 28.4015 72.3523 25.9141C72.3523 22.9847 69.9692 20.6016 67.0398 20.6016H55.7896C52.8602 20.6016 50.477 22.9847 50.477 25.9141C50.477 28.4014 52.1955 30.4941 54.5072 31.0694V35.0505C48.8642 36.3117 43.5025 39.132 39.1199 43.5146C38.1609 44.4737 37.2765 45.4798 36.4669 46.5254C36.4277 46.5224 36.3885 46.5195 36.3485 46.5195H25.2138C24.351 46.5195 23.6513 47.219 23.6513 48.082C23.6513 48.945 24.351 49.6445 25.2138 49.6445H34.3408C33.1952 51.5625 32.2714 53.5768 31.5683 55.6502H14.5625C13.6997 55.6502 13 56.3498 13 57.2128C13 58.0757 13.6997 58.7753 14.5625 58.7753H30.6853C30.235 60.752 29.9765 62.7638 29.9098 64.7812H23.0002C22.1373 64.7812 21.4376 65.4807 21.4376 66.3437C21.4376 67.2067 22.1373 67.9062 23.0002 67.9062H29.9596C30.0915 69.9287 30.4167 71.9407 30.9353 73.9121H20.8126C19.9498 73.9121 19.2501 74.6116 19.2501 75.4746C19.2501 76.3376 19.9498 77.0371 20.8126 77.0371H31.9325C33.4653 81.092 35.8608 84.8926 39.1199 88.1517C44.2678 93.2996 51.0861 96.5281 58.3184 97.2426C59.3506 97.3445 60.3836 97.395 61.4151 97.395C67.5124 97.395 73.5322 95.6304 78.6401 92.3041C79.3632 91.8332 79.5678 90.8652 79.0968 90.142C78.6259 89.4189 77.6579 89.2144 76.9347 89.6853C65.7538 96.9662 50.7797 95.392 41.3297 85.942C30.2417 74.854 30.2417 56.8126 41.3297 45.7245C52.4175 34.6366 70.4589 34.6366 81.547 45.7245C90.9845 55.1621 92.5673 70.1234 85.3105 81.2989C84.8405 82.0227 85.0463 82.9905 85.7699 83.4604C86.494 83.9304 87.4615 83.7246 87.9313 83.0008C91.8086 77.0296 93.5539 69.8178 92.8458 62.6935ZM53.602 25.9143C53.602 24.708 54.5833 23.7268 55.7896 23.7268H67.0398C68.246 23.7268 69.2273 24.708 69.2273 25.9143C69.2273 27.1206 68.246 28.1018 67.0398 28.1018H66.7594H56.0697H55.7896C54.5833 28.1018 53.602 27.1204 53.602 25.9143ZM57.6323 34.5133V31.2269H65.1969V34.5077C62.685 34.209 60.1437 34.2108 57.6323 34.5133Z" fill="#65617D"/>
<path d="M82.6523 85.4844C82.2398 85.4844 81.8383 85.6516 81.5478 85.9422C81.2556 86.2328 81.0898 86.6359 81.0898 87.0469C81.0898 87.4578 81.2556 87.8609 81.5478 88.1516C81.8383 88.4438 82.24 88.6094 82.6523 88.6094C83.0633 88.6094 83.4648 88.4438 83.757 88.1516C84.0477 87.8609 84.2148 87.4578 84.2148 87.0469C84.2148 86.6359 84.0478 86.2328 83.757 85.9422C83.4648 85.6516 83.0631 85.4844 82.6523 85.4844Z" fill="#65617D"/>
<path d="M61.4385 41.5938C48.073 41.5938 37.1992 52.4674 37.1992 65.833C37.1992 79.1987 48.073 90.0723 61.4385 90.0723C74.804 90.0723 85.6778 79.1987 85.6778 65.833C85.6778 52.4674 74.804 41.5938 61.4385 41.5938ZM61.4385 86.9473C49.796 86.9473 40.3243 77.4754 40.3243 65.833C40.3243 54.1907 49.796 44.7188 61.4385 44.7188C73.081 44.7188 82.5527 54.1907 82.5527 65.833C82.5527 77.4754 73.081 86.9473 61.4385 86.9473Z" fill="#65617D"/>
<path d="M71.3238 53.7389L63.5846 61.4779C62.9374 61.1579 62.2095 60.9771 61.4399 60.9771C60.6702 60.9771 59.9424 61.1579 59.2952 61.4779L55.8316 58.0143C55.2212 57.4041 54.2322 57.4041 53.6217 58.0143C53.0115 58.6244 53.0115 59.6138 53.6217 60.224L57.0853 63.6876C56.7652 64.3348 56.5845 65.0628 56.5845 65.8323C56.5845 68.5096 58.7625 70.6877 61.4399 70.6877C64.1173 70.6877 66.2953 68.5096 66.2953 65.8323C66.2953 65.0628 66.1145 64.3348 65.7945 63.6876L73.3065 56.1756L73.5335 55.9486C74.1437 55.3384 74.1437 54.349 73.5335 53.7389C72.9234 53.1287 71.9343 53.1287 71.3238 53.7389ZM61.4399 67.5628C60.4858 67.5628 59.7096 66.7866 59.7096 65.8325C59.7096 64.8784 60.4858 64.1022 61.4399 64.1022C62.394 64.1022 63.1703 64.8784 63.1703 65.8325C63.1703 66.7866 62.394 67.5628 61.4399 67.5628Z" fill="#65617D"/>
<path d="M78.1469 64.2891H76.6992C75.8364 64.2891 75.1367 64.9886 75.1367 65.8516C75.1367 66.7145 75.8364 67.4141 76.6992 67.4141H78.1469C79.0097 67.4141 79.7094 66.7145 79.7094 65.8516C79.7094 64.9886 79.0097 64.2891 78.1469 64.2891Z" fill="#65617D"/>
<path d="M46.178 64.25H44.7305C43.8677 64.25 43.168 64.9495 43.168 65.8125C43.168 66.6755 43.8677 67.375 44.7305 67.375H46.178C47.0408 67.375 47.7405 66.6755 47.7405 65.8125C47.7405 64.9495 47.0408 64.25 46.178 64.25Z" fill="#65617D"/>
<path d="M61.457 52.135C62.3198 52.135 63.0195 51.4355 63.0195 50.5725V49.125C63.0195 48.262 62.3198 47.5625 61.457 47.5625C60.5942 47.5625 59.8945 48.262 59.8945 49.125V50.5725C59.8945 51.4355 60.5942 52.135 61.457 52.135Z" fill="#65617D"/>
<path d="M61.418 79.5273C60.5551 79.5273 59.8555 80.2269 59.8555 81.0898V82.5373C59.8555 83.4003 60.5551 84.0998 61.418 84.0998C62.2808 84.0998 62.9804 83.4003 62.9804 82.5373V81.0898C62.9804 80.2269 62.2808 79.5273 61.418 79.5273Z" fill="#65617D"/>
<path d="M14.5625 73.9102C14.1516 73.9102 13.7484 74.0773 13.4578 74.368C13.1672 74.6586 13 75.0617 13 75.4727C13 75.8852 13.167 76.2867 13.4578 76.5773C13.7486 76.868 14.1516 77.0352 14.5625 77.0352C14.9734 77.0352 15.3766 76.868 15.667 76.5773C15.9577 76.2867 16.125 75.8836 16.125 75.4727C16.125 75.0617 15.9578 74.6586 15.667 74.368C15.3766 74.0773 14.9734 73.9102 14.5625 73.9102Z" fill="#65617D"/>
</g>
<defs>
<clipPath id="clip0">
<rect width="80" height="80" fill="white" transform="translate(13 19)"/>
</clipPath>
</defs>
</svg>
