<svg width="58" height="58" viewBox="0 0 58 58" fill="none" xmlns="http://www.w3.org/2000/svg">
<g clip-path="url(#clip0)">
<path d="M38.0625 58C40.8779 58 43.1602 55.7177 43.1602 52.9023C43.1602 50.087 40.8779 47.8047 38.0625 47.8047C35.2471 47.8047 32.9648 50.087 32.9648 52.9023C32.9648 55.7177 35.2471 58 38.0625 58Z" fill="#2C68A1"/>
<path d="M53.9219 26.0547H50.5234V39.6484H53.9219C56.1116 39.6484 57.8867 37.8733 57.8867 35.6836V30.0195C57.8867 27.8298 56.1116 26.0547 53.9219 26.0547Z" fill="#2C68A1"/>
<path d="M28.9959 3.39844C40.2169 3.39844 49.5103 11.8084 50.9048 22.6562H54.3277C53.6976 16.9193 51.1589 11.6054 47.0188 7.46535C42.2047 2.65123 35.8041 0 28.9959 0C22.1877 0 15.7871 2.65123 10.973 7.46535C6.83288 11.6054 4.29436 16.9193 3.66406 22.6562H7.08697C8.48146 11.8084 17.7749 3.39844 28.9959 3.39844Z" fill="#2C68A1"/>
<path d="M0.113281 30.0195V35.6836C0.113281 37.8733 1.8884 39.6484 4.07812 39.6484H7.47656V26.0547H4.07812C1.8884 26.0547 0.113281 27.8298 0.113281 30.0195Z" fill="#2C68A1"/>
<path d="M47.125 26.0547C47.125 23.865 45.3499 22.0898 43.1602 22.0898H14.8398C12.6501 22.0898 10.875 23.865 10.875 26.0547V39.6484C10.875 41.8382 12.6501 43.6133 14.8398 43.6133H43.1602C45.3499 43.6133 47.125 41.8382 47.125 39.6484V26.0547ZM40.3281 34.5508H35.5734L32.6794 38.8917C32.3626 39.3668 31.8307 39.6484 31.2659 39.6484C31.2178 39.6484 31.1697 39.6464 31.1215 39.6423C30.5043 39.5898 29.9644 39.2055 29.7128 38.6393L26.4354 31.2654L24.7497 33.7941C24.4347 34.2668 23.904 34.5508 23.3359 34.5508H17.6719C16.7335 34.5508 15.9727 33.79 15.9727 32.8516C15.9727 31.9131 16.7335 31.1523 17.6719 31.1523H22.4266L25.3206 26.8114C25.6642 26.2959 26.2624 26.0088 26.8785 26.0608C27.4957 26.1134 28.0356 26.4976 28.2872 27.0638L31.5646 34.4377L33.2504 31.9091C33.5655 31.4363 34.0961 31.1523 34.6642 31.1523H40.3282C41.2667 31.1523 42.0275 31.9131 42.0275 32.8516C42.0275 33.79 41.2665 34.5508 40.3281 34.5508Z" fill="#2C68A1"/>
<path d="M51.0889 43.0473V49.5044C51.0889 50.4413 50.3266 51.2036 49.3897 51.2036H46.3867C46.4986 51.7528 46.5577 52.321 46.5577 52.9028C46.5577 53.4846 46.4986 54.0528 46.3867 54.602H49.3897C52.2005 54.602 54.4874 52.3152 54.4874 49.5044V43.0234C54.3002 43.0377 54.1117 43.0473 53.9209 43.0473H51.0889Z" fill="#2C68A1"/>
</g>
<defs>
<clipPath id="clip0">
<rect width="58" height="58" fill="white"/>
</clipPath>
</defs>
</svg>
