<svg width="58" height="58" viewBox="0 0 58 58" fill="none" xmlns="http://www.w3.org/2000/svg">
<g clip-path="url(#clip0)">
<path d="M3.39844 34.9874V23.0126C1.45861 22.5952 0 20.8674 0 18.8047C0 15.397 3.78314 13.3603 6.61845 15.175L15.175 6.61846C13.3601 3.7828 15.3973 0 18.8047 0C21.4762 0 23.5252 2.42716 23.0379 5.08293L32.9969 9.22143L35.5788 6.63941C33.7526 3.82381 35.7595 0 39.1953 0C42.5986 0 44.6426 3.77861 42.825 6.61857L51.3815 15.1752C54.2175 13.3598 58 15.398 58 18.8047C58 21.4814 55.5683 23.524 52.9171 23.0379L50.4395 29L52.9171 34.9621C55.5779 34.4739 58 36.5289 58 39.1953C58 42.603 54.2169 44.6397 51.3815 42.825L42.825 51.3815C44.6402 54.2175 42.602 58 39.1953 58C37.1326 58 35.4049 56.5414 34.9875 54.6016H23.0126C22.5952 56.5414 20.8674 58 18.8048 58C16.4312 58 14.5001 56.0689 14.5001 53.6953C14.5001 51.3217 16.4312 49.3906 18.8048 49.3906C20.8675 49.3906 22.5952 50.8492 23.0126 52.7891H34.654L7.84201 41.6474C5.46446 45.0885 0 43.415 0 39.1953C0 37.1326 1.45861 35.4049 3.39844 34.9874ZM49.4603 38.4272L46.9522 37.3918L41.7625 49.8806L50.0919 41.5511C49.4822 40.6232 49.265 39.5068 49.4603 38.4272ZM25.8316 18.95L29.6941 28.3062L45.9724 35.0263L48.4767 29L42.7588 15.2405L33.4216 11.36L25.8316 18.95ZM17.1358 25.0825L12.0276 22.9737L6.89611 35.3222L17.1358 25.0825ZM10.3522 22.282L7.84835 21.2483C7.22701 22.1529 6.28484 22.7831 5.21094 23.0124V34.654L10.3522 22.282ZM8.53971 19.5728L11.0478 20.6082L16.2375 8.11955L7.90805 16.449C8.51784 17.3768 8.735 18.4932 8.53971 19.5728ZM19.5724 8.53971C19.0724 8.63022 18.5588 8.63554 18.0264 8.5379L12.7232 21.2999L18.5238 23.6946L23.6945 18.5239L19.5724 8.53971ZM20.3381 24.4436L27.3302 27.3302L24.4436 20.3382L20.3381 24.4436ZM30.67 30.6699L38.4272 49.4604C38.9436 49.3671 39.4567 49.3674 39.9736 49.4622L45.2769 36.7002L30.67 30.6699ZM35.6595 51.244C35.9554 50.819 36.3266 50.4487 36.7525 50.1537L28.306 29.6941L18.9501 25.8316L7.92108 36.8607C8.52895 37.7979 8.73274 38.9115 8.53767 39.9739L35.6595 51.244ZM22.3406 6.75587C22.0448 7.18101 21.6733 7.55155 21.2471 7.84654L25.0826 17.1356L31.6108 10.6074L22.3406 6.75587ZM41.7731 12.8684L39.9736 8.53778C38.909 8.73319 37.7958 8.5277 36.8606 7.92108L34.8078 9.97385L41.7731 12.8684ZM49.8805 16.2375L41.7625 8.11955L44.1456 13.8544L49.8805 16.2375ZM51.2433 22.3422C49.8579 21.3851 49.1543 19.7046 49.462 18.0264L45.1314 16.2266L49.458 26.6384L51.2433 22.3422ZM47.6478 35.718L50.1537 36.7525C50.4487 36.3266 50.8191 35.9552 51.244 35.6594L49.458 31.3617L47.6478 35.718Z" fill="#2C68A1"/>
</g>
<defs>
<clipPath id="clip0">
<rect width="58" height="58" fill="white" transform="matrix(-1 0 0 1 58 0)"/>
</clipPath>
</defs>
</svg>
