<svg width="58" height="58" viewBox="0 0 58 58" fill="none" xmlns="http://www.w3.org/2000/svg">
<path d="M7.12109 38.9179H12.5904V13.3945H9.85574C9.13113 13.3967 8.43682 13.6855 7.92444 14.1979C7.41207 14.7103 7.12326 15.4046 7.12109 16.1292V38.9179Z" fill="#65617D"/>
<path d="M23.4219 48.0391L22.7383 53.5084H35.263L34.5793 48.0391H23.4219Z" fill="#65617D"/>
<path d="M50.8755 40.7422H7.12109V43.4768C7.12326 44.2014 7.41207 44.8958 7.92444 45.4081C8.43682 45.9205 9.13113 46.2093 9.85574 46.2115H48.1408C48.8654 46.2093 49.5598 45.9205 50.0721 45.4081C50.5845 44.8958 50.8733 44.2014 50.8755 43.4768V40.7422ZM47.2293 44.3884H45.4062V42.5653H47.2293V44.3884Z" fill="#65617D"/>
<path d="M18.9727 55.3281H39.0267V57.1512H18.9727V55.3281Z" fill="#65617D"/>
<path d="M44.4933 11.5748C45.2185 11.5748 45.9141 11.2867 46.427 10.7738C46.9398 10.261 47.2279 9.56539 47.2279 8.84012C47.2279 8.11484 46.9398 7.41928 46.427 6.90643C45.9141 6.39358 45.2185 6.10547 44.4933 6.10547H20.793C21.3847 6.8944 21.7045 7.85396 21.7045 8.84012C21.7045 9.82628 21.3847 10.7858 20.793 11.5748H44.4933Z" fill="#65617D"/>
<path d="M50.8755 16.1292C50.8734 15.4046 50.5846 14.7103 50.0722 14.1979C49.5598 13.6855 48.8655 13.3967 48.1409 13.3945H45.4062V38.9179H50.8755V16.1292Z" fill="#65617D"/>
<path d="M14.4102 38.9213H43.5797V13.3979H17.1448C16.903 13.3979 16.6712 13.3018 16.5002 13.1309C16.3293 12.9599 16.2333 12.7281 16.2333 12.4863C16.2333 12.2446 16.3293 12.0127 16.5002 11.8418C16.6712 11.6708 16.903 11.5748 17.1448 11.5748C17.6857 11.5748 18.2144 11.4144 18.6641 11.1139C19.1138 10.8134 19.4643 10.3863 19.6713 9.88662C19.8783 9.38693 19.9324 8.83709 19.8269 8.30662C19.7214 7.77615 19.4609 7.28888 19.0785 6.90643C18.696 6.52398 18.2088 6.26353 17.6783 6.15802C17.1478 6.0525 16.598 6.10665 16.0983 6.31363C15.5986 6.52061 15.1715 6.87112 14.871 7.32083C14.5705 7.77054 14.4102 8.29926 14.4102 8.84012V38.9213ZM19.4893 26.2817L21.0681 25.3702L21.9797 26.949L20.4009 27.8605L19.4893 26.2817ZM23.4035 30.1959L21.8247 29.2844L22.7363 27.7056L24.3151 28.6171L23.4035 30.1959ZM30.5409 26.949L31.4525 25.3702L33.0313 26.2817L32.1197 27.8605L30.5409 26.949ZM30.6959 29.2844L29.1171 30.1959L28.2056 28.6171L29.7844 27.7056L30.6959 29.2844ZM31.7296 24.3365V22.5134H33.5527V24.3365H31.7296ZM33.0313 20.5681L31.4525 21.4797L30.5409 19.9009L32.1197 18.9893L33.0313 20.5681ZM29.1171 16.6539L30.6959 17.5655L29.7844 19.1443L28.2056 18.2327L29.1171 16.6539ZM25.3488 16.1325H27.1719V17.9556H25.3488V16.1325ZM25.3488 23.4249C25.3488 23.1832 25.4448 22.9513 25.6157 22.7803C25.7867 22.6094 26.0185 22.5134 26.2603 22.5134H29.9065V24.3365H27.1719V27.0711H25.3488V23.4249ZM25.3488 28.8942H27.1719V30.7173H25.3488V28.8942ZM25.3488 32.5404H27.1719V33.452H36.2874V24.3365H35.3758V22.5134H37.1989C37.4407 22.5134 37.6725 22.6094 37.8435 22.7803C38.0144 22.9513 38.1105 23.1832 38.1105 23.4249V34.3635C38.1105 34.6053 38.0144 34.8371 37.8435 35.0081C37.6725 35.179 37.4407 35.2751 37.1989 35.2751H26.2603C26.0185 35.2751 25.7867 35.179 25.6157 35.0081C25.4448 34.8371 25.3488 34.6053 25.3488 34.3635V32.5404ZM23.4035 16.6539L24.3151 18.2327L22.7363 19.1443L21.8247 17.5655L23.4035 16.6539ZM20.4009 18.9893L21.9797 19.9009L21.0681 21.4797L19.4893 20.5681L20.4009 18.9893ZM18.9679 22.5134H20.791V24.3365H18.9679V22.5134Z" fill="#65617D"/>
</svg>
