<svg width="58" height="58" viewBox="0 0 58 58" fill="none" xmlns="http://www.w3.org/2000/svg">
<g clip-path="url(#clip0)">
<path d="M15.5352 26.9303C15.5352 27.502 15.9992 27.966 16.5709 27.966C17.1426 27.966 17.6066 27.502 17.6066 26.9303C17.6056 26.3585 17.1426 25.8945 16.5709 25.8945C15.9992 25.8945 15.5352 26.3585 15.5352 26.9303Z" fill="#65617D"/>
<path d="M27.9643 40.3919H19.4921L18.8209 43.7455C20.2036 44.3245 20.97 45.8138 20.6376 47.2763C20.3051 48.7387 18.9701 49.7495 17.4724 49.674C15.9759 49.5973 14.7495 48.457 14.5662 46.9687C14.3829 45.4804 15.2954 44.077 16.7298 43.64L17.461 39.985C17.6567 39.0187 18.505 38.3227 19.492 38.3205H27.9642V34.1777H25.7022C25.1977 35.605 23.7384 36.4605 22.247 36.2047C20.7555 35.9489 19.665 34.6552 19.665 33.1421C19.665 31.6289 20.7555 30.3354 22.247 30.0796C23.7384 29.8238 25.1977 30.6793 25.7022 32.1065H27.9642V27.9637H19.4879C18.9835 29.3909 17.5242 30.2464 16.0327 29.9906C14.5413 29.7349 13.4507 28.4412 13.4507 26.9281C13.4507 25.415 14.5413 24.1213 16.0327 23.8656C17.5242 23.6098 18.9835 24.4653 19.4879 25.8925H27.9642V17.7311L25.1542 21.6668C24.7617 22.2115 24.132 22.5337 23.4608 22.5326C23.177 22.5326 22.8963 22.4736 22.6363 22.3596L18.8746 20.7086C17.8606 21.8366 16.1869 22.0779 14.8954 21.2834C13.6039 20.489 13.0654 18.8847 13.6152 17.472C14.1651 16.0593 15.6462 15.2421 17.1345 15.529C18.6228 15.8159 19.6938 17.126 19.6782 18.6423C19.6782 18.6941 19.6658 18.7428 19.6627 18.7935L23.4669 20.4631L27.9639 14.167V7.76699C27.966 3.56507 24.6248 0.1245 20.425 0.00328971C16.2252 -0.117921 12.6903 3.12497 12.451 7.31953C15.3831 7.65722 17.9828 9.35881 19.467 11.9088C19.6524 12.2288 19.6524 12.6235 19.468 12.9445C19.2825 13.2655 18.9408 13.4634 18.571 13.4634C18.2003 13.4634 17.8585 13.2667 17.6731 12.9466C16.0325 10.1047 12.6881 8.71991 9.51785 9.56816C6.34758 10.4164 4.14359 13.2894 4.14257 16.5706C4.13951 17.5079 4.32076 18.4359 4.67702 19.3028C5.83079 18.8689 7.05298 18.6441 8.28547 18.6421C8.8572 18.6421 9.3212 19.1061 9.3212 19.6778C9.3212 20.2495 8.8572 20.7135 8.28547 20.7135C6.96394 20.7135 5.66302 21.0315 4.49068 21.6425C4.23489 21.7751 3.98624 21.9191 3.74597 22.0765C3.61547 22.1625 3.49222 22.2557 3.36693 22.3478C3.20947 22.4648 3.05518 22.584 2.90713 22.7103C2.77243 22.8253 2.64092 22.9433 2.51461 23.0666C2.41832 23.1598 2.32815 23.2581 2.23605 23.3566C2.00201 23.6073 1.78349 23.8724 1.58151 24.1499C1.51728 24.2399 1.44897 24.3259 1.3878 24.4181C1.28211 24.5766 1.1848 24.7423 1.08953 24.9091C1.01805 25.0344 0.951785 25.1608 0.887555 25.2892C0.810864 25.4424 0.731114 25.5947 0.663826 25.7532C0.547826 26.0256 0.446326 26.3052 0.360346 26.5889C0.325116 26.7029 0.300307 26.8209 0.270288 26.9369C0.211269 27.1659 0.160519 27.3979 0.12223 27.6329C0.104671 27.7417 0.0859801 27.8504 0.0724997 27.9602C0.0269608 28.304 0.00305858 28.652 0 28.999C0.00419139 31.3377 0.995285 33.5654 2.72701 35.1367C3.88802 33.9249 5.34006 33.0311 6.94445 32.5391C7.49126 32.3714 8.07126 32.6779 8.23914 33.2248C8.40691 33.7716 8.10037 34.3516 7.55345 34.5195C6.02473 34.9887 4.6794 35.9198 3.70168 37.1855C3.69545 37.1947 3.69443 37.2062 3.68718 37.2155C2.93216 38.188 2.42466 39.3294 2.20716 40.5412C2.19889 40.5857 2.18235 40.6271 2.1751 40.6717C2.10566 41.0932 2.07157 41.5189 2.07157 41.9456C2.05707 45.2547 4.15231 48.2065 7.28124 49.2846C7.2698 49.0827 7.2502 48.8828 7.2502 48.6777C7.24295 46.2106 8.0435 43.8088 9.52771 41.8378C9.87265 41.3821 10.5199 41.291 10.9767 41.6338C11.4334 41.9766 11.5256 42.625 11.1839 43.0817C9.5899 45.207 8.97886 47.9102 9.50392 50.514C9.51842 50.5865 9.53813 50.6559 9.55467 50.7273C9.6044 50.9458 9.65821 51.1633 9.72244 51.3767C9.74623 51.4565 9.77523 51.5331 9.80117 51.6107C9.86948 51.8148 9.94096 52.0167 10.0229 52.2145C10.0529 52.287 10.0851 52.3585 10.1171 52.43C10.2051 52.6299 10.2994 52.8267 10.4009 53.0193C10.4341 53.0825 10.4682 53.1456 10.5034 53.2078C10.6142 53.4056 10.7323 53.5993 10.8566 53.7878C10.8908 53.8395 10.9239 53.8923 10.9591 53.9431C11.0948 54.1419 11.2398 54.3336 11.3899 54.52C11.42 54.5573 11.4479 54.5956 11.479 54.633C11.652 54.8402 11.8322 55.039 12.0217 55.2305C12.0352 55.244 12.0465 55.2585 12.06 55.272C12.4712 55.681 12.9185 56.0519 13.3982 56.3782C13.4665 56.4247 13.539 56.4662 13.6084 56.5107C13.7742 56.6174 13.9409 56.721 14.1129 56.8172C14.2144 56.8742 14.3189 56.925 14.4226 56.9778C14.5696 57.0523 14.7188 57.1258 14.87 57.1932C14.986 57.245 15.1051 57.2937 15.2243 57.3403C15.3703 57.3983 15.5185 57.4521 15.6685 57.5028C15.7928 57.5453 15.9171 57.5856 16.0435 57.6219C16.1988 57.6674 16.3573 57.7068 16.5158 57.7441C16.639 57.7731 16.7613 57.8031 16.8855 57.8269C17.0668 57.8611 17.2511 57.887 17.4365 57.9109C17.5422 57.9254 17.6458 57.9429 17.7513 57.9533C18.0455 57.9813 18.3416 57.9989 18.6431 57.9989C23.7885 57.9926 27.9583 53.8229 27.9645 48.6774V40.3919H27.9643Z" fill="#65617D"/>
<path d="M21.75 33.1412C21.75 33.7129 22.214 34.1769 22.7857 34.1769C23.3575 34.1769 23.8215 33.7129 23.8215 33.1412C23.8204 32.5695 23.3575 32.1055 22.7857 32.1055C22.214 32.1055 21.75 32.5695 21.75 33.1412Z" fill="#65617D"/>
<path d="M15.5352 18.6412C15.5352 19.2129 15.9992 19.6769 16.5709 19.6769C17.1426 19.6759 17.6056 19.2129 17.6066 18.6412C17.6066 18.0695 17.1426 17.6055 16.5709 17.6055C15.9992 17.6055 15.5352 18.0695 15.5352 18.6412Z" fill="#65617D"/>
<path d="M30.0352 23.9258V34.0737C32.4463 33.5817 34.1779 31.4607 34.1779 28.9997C34.1779 26.5388 32.4462 24.4176 30.0352 23.9258Z" fill="#65617D"/>
<path d="M30.0352 41.3774C36.4741 40.844 41.4279 35.4625 41.4279 29.0017C41.4279 22.541 36.4741 17.1595 30.0352 16.625V21.8347C33.6011 22.3452 36.2494 25.3996 36.2494 29.0018C36.2494 32.6041 33.6011 35.6583 30.0352 36.169V41.3774Z" fill="#65617D"/>
<path d="M16.5742 46.606C16.5742 47.1778 17.0382 47.6418 17.6099 47.6418C18.1817 47.6418 18.6457 47.1778 18.6457 46.606C18.6457 46.0343 18.1817 45.5703 17.6099 45.5703C17.0382 45.5703 16.5752 46.0343 16.5742 46.606Z" fill="#65617D"/>
<path d="M57.6973 24.8606H52.2391C51.7523 24.8606 51.3318 24.5219 51.2283 24.0486C50.6648 21.4707 49.6458 19.0141 48.2196 16.7945C47.9555 16.3843 48.0135 15.8468 48.3583 15.502L52.2205 11.6398C50.5645 9.41197 48.5903 7.43783 46.3625 5.78178L42.5003 9.64397C42.1554 9.98891 41.6179 10.0469 41.2078 9.78274C38.9883 8.35654 36.5316 7.33746 33.9536 6.77401C33.4793 6.66945 33.1406 6.24895 33.1406 5.76207V0.303972C30.9034 -0.0170655 28.6364 -0.0740458 26.3867 0.135184C28.6922 1.99945 30.0335 4.8062 30.0335 7.77144V14.5554C37.6179 15.0907 43.4977 21.4004 43.4977 29.0034C43.4977 36.6065 37.6179 42.9151 30.0335 43.4506V48.682C30.0304 52.2583 28.3442 55.6254 25.4805 57.7714C28.0262 58.0894 30.602 58.0656 33.1406 57.7031V52.2449C33.1406 51.7582 33.4793 51.3377 33.9526 51.2341C36.5306 50.6707 38.9872 49.6516 41.2068 48.2254C41.617 47.9623 42.1545 48.0203 42.4993 48.3641L46.3615 52.2263C48.5903 50.5703 50.5634 48.5961 52.2195 46.3684L48.3573 42.5062C48.0135 42.1612 47.9555 41.6237 48.2185 41.2136C49.6447 38.9941 50.6638 36.5374 51.2273 33.9595C51.3318 33.4852 51.7523 33.1465 52.2392 33.1465H57.6974C58.0981 30.3986 58.0981 27.6074 57.6973 24.8606Z" fill="#65617D"/>
</g>
<defs>
<clipPath id="clip0">
<rect width="58" height="58" fill="white"/>
</clipPath>
</defs>
</svg>
