<svg width="58" height="58" viewBox="0 0 58 58" fill="none" xmlns="http://www.w3.org/2000/svg">
<path d="M30.6992 32.293H27.3008V42.4802H23.9023V52.6755H34.0977V42.4802H30.6992V32.293Z" fill="#2C68A1"/>
<path d="M58 32.2932V22.0898H50.0238C49.6616 20.9696 49.2091 19.8794 48.6705 18.8285L54.2322 13.2668L44.6199 3.65457L39.0582 9.21622C38.0073 8.67757 36.9171 8.22513 35.7969 7.86297V0C34.1523 0 23.8585 0 22.2031 0V7.86297C21.0829 8.22513 19.9927 8.67757 18.9418 9.21622L13.3801 3.65457L3.76785 13.2668L9.3295 18.8285C8.79085 19.8794 8.33841 20.9696 7.97625 22.0898H0V32.2932H13.707V49.2773H10.1953V45.8789H0V56.0742H10.1953V52.6758H17.1055V32.2932H18.8047V27.1875C18.8047 21.5658 23.3783 16.9922 29 16.9922C34.6217 16.9922 39.1953 21.5658 39.1953 27.1875V32.2932H40.8945V54.6016H47.8047V58H58V47.8047H47.8047V51.2031H44.293V32.2932H58Z" fill="#2C68A1"/>
<path d="M29 20.3906C25.2522 20.3906 22.2031 23.4397 22.2031 27.1875V28.8948H35.7969V27.1875C35.7969 23.4397 32.7478 20.3906 29 20.3906Z" fill="#2C68A1"/>
</svg>
