<svg width="581" height="466" viewBox="0 0 581 466" fill="none" xmlns="http://www.w3.org/2000/svg">
<path opacity="0.1" fill-rule="evenodd" clip-rule="evenodd" d="M301.118 -249.393C364.815 -223.846 362.541 -127.609 412.161 -80.1986C445.719 -48.1354 506.489 -59.0356 536.976 -24.0393C568.766 12.4536 582.664 63.8254 579.709 112.133C576.812 159.47 546.361 199.013 520.881 239.013C496.345 277.53 465.644 309.037 433.571 341.547C390.97 384.73 360.152 447.82 301.118 461.771C241.476 475.865 179.143 445.936 126.814 414.038C75.1421 382.541 21.6024 340.817 6.54163 282.207C-8.25752 224.615 51.028 171.569 49.2349 112.133C47.3538 49.7833 -18.4487 -3.31258 -3.90218 -63.9708C10.5943 -124.421 70.0356 -163.818 123.155 -196.109C176.985 -228.833 242.649 -272.843 301.118 -249.393Z" fill="white"/>
</svg>
