<svg width="150" height="53" viewBox="0 0 150 53" fill="none" xmlns="http://www.w3.org/2000/svg">
<path d="M101.125 39.5623V28.9943C101.125 27.006 99.8814 25.7541 98.0157 25.7541C95.8604 25.7911 94.4924 27.3741 94.4924 29.6573V39.5623H86.1187V28.9943C86.1187 27.006 84.875 25.7541 83.0101 25.7541C80.8127 25.7911 79.4447 27.3741 79.4447 29.6573V39.5623H71.071V19.5309H79.4447V22.5871C80.9783 20.4146 83.3831 19.2364 86.4504 19.2364C89.9741 19.2364 92.6684 20.8567 93.8704 23.5817C95.3214 20.7832 97.9744 19.2364 101.498 19.2364C106.265 19.2364 109.498 22.2192 109.498 26.8586V39.5623H101.125ZM58.4276 31.1669H54.6135C52.9555 31.1669 52.0848 31.7933 52.0848 33.0448C52.0848 34.297 52.9968 35.0331 54.6135 35.0331C56.3132 35.0331 57.8055 34.2232 58.4276 32.971V31.1669ZM58.4276 39.5623V37.353C57.0595 38.9729 54.8208 39.8941 51.8362 39.8941C47.0275 39.8941 44.2088 37.353 44.2088 33.5974C44.2088 29.7312 47.2352 27.5952 52.9138 27.5215H58.4276V27.4478C58.4276 25.7911 57.1009 24.7966 54.5305 24.7966C52.7482 24.7966 50.2199 25.2754 47.7325 26.2326L45.6594 21.2984C49.3488 19.9729 52.9968 19.2364 56.5201 19.2364C62.8633 19.2364 66.6352 21.9244 66.6352 26.564V39.5623H58.4276ZM30.9021 24.3182C28.9124 24.3182 27.627 25.6803 27.2127 27.7057H34.3011C34.3424 25.7173 32.933 24.3182 30.9021 24.3182ZM42.5504 31.3511H27.3784C28.0417 33.2656 29.6167 34.3336 31.7724 34.3336C33.5547 34.3336 35.2544 33.634 36.7471 32.4191L41.0994 36.2116C38.7364 38.5317 35.3374 39.8204 31.0677 39.8204C23.523 39.8204 18.9221 35.77 18.9221 29.6208C18.9221 23.3607 23.689 19.2731 30.8191 19.2731C38.7364 19.2731 43.0478 23.9867 42.5504 31.3511ZM11.5426 32.161C11.5426 33.4498 12.2889 34.0762 13.4496 34.0762C14.113 34.0762 15.025 33.8182 16.0196 33.4871L17.5119 38.6055C15.937 39.4155 13.5326 39.8941 11.2526 39.8941C6.44431 39.931 3.21057 37.4636 3.21057 33.3029V25.3121H0.101562V20.5618H3.21057V15.0019H11.5426V20.5618H17.0972V25.3121H11.5426V32.161Z" fill="white"/>
<path d="M122.861 52.4185V48.1445C122.861 46.8234 121.975 46.0358 120.503 46.0358C118.857 46.0498 117.844 47.0202 117.702 48.4537V52.4185H116.467V45.0235H117.702V46.6545C118.287 45.5296 119.411 44.9953 120.93 44.9815C122.924 44.9815 124.096 46.0638 124.096 47.8634V52.4185H122.861ZM107.542 45.9516C105.785 45.9516 104.551 47.0897 104.551 48.7209C104.551 50.3796 105.785 51.5045 107.542 51.5045C109.283 51.5045 110.533 50.3796 110.533 48.7209C110.533 47.0897 109.283 45.9516 107.542 45.9516ZM107.542 52.4607C105.057 52.4607 103.316 50.9145 103.316 48.7068C103.316 46.5137 105.057 44.9815 107.542 44.9815C110.011 44.9815 111.768 46.5137 111.768 48.7068C111.768 50.9145 110.011 52.4607 107.542 52.4607ZM98.6161 52.4185H97.3975V45.0235H98.6161V52.4185ZM97.9989 43.6454C97.5401 43.6454 97.1918 43.3226 97.1918 42.9007C97.1918 42.4648 97.5401 42.1556 97.9989 42.1556C98.4577 42.1556 98.8064 42.4648 98.8064 42.9007C98.8064 43.3226 98.4577 43.6454 97.9989 43.6454ZM90.2132 50.1834C90.2132 51.0827 90.6085 51.4484 91.3208 51.4484C91.7481 51.4341 92.1915 51.3077 92.65 51.0693L92.9986 51.9125C92.413 52.2637 91.7797 52.4607 91.1147 52.4607C89.8965 52.4748 88.9942 51.8278 88.9942 50.3664V46.1064H87.791V45.2485H88.9942V43.3078H90.2132V45.2485H92.8561V46.1064H90.2132V50.1834ZM81.9209 52.4185V50.745C81.3669 51.8984 80.2593 52.4467 78.7556 52.4607C76.8089 52.4607 75.6381 51.3645 75.6381 49.5786V45.0235H76.8725V49.2975C76.8725 50.6193 77.7428 51.4059 79.1829 51.4059C80.9081 51.3778 81.9209 50.2536 81.9209 48.6507V45.0235H83.1557V52.4185H81.9209ZM69.0702 52.4185V41.9867H70.3049V52.4185H69.0702ZM60.0659 45.9516C58.3095 45.9516 57.0747 47.0897 57.0747 48.7209C57.0747 50.3796 58.3095 51.5045 60.0659 51.5045C61.8069 51.5045 63.0571 50.3796 63.0571 48.7209C63.0571 47.0897 61.8069 45.9516 60.0659 45.9516ZM60.0659 52.4607C57.5814 52.4607 55.84 50.9145 55.84 48.7068C55.84 46.5137 57.5814 44.9815 60.0659 44.9815C62.5346 44.9815 64.2918 46.5137 64.2918 48.7068C64.2918 50.9145 62.5346 52.4607 60.0659 52.4607ZM47.8648 43.6322C46.4404 43.6322 45.5066 44.1376 45.5066 44.9815C45.5066 47.5397 51.7424 46.2045 51.7266 49.7756C51.7266 51.4059 50.0962 52.4607 47.7222 52.4607C46.108 52.4607 44.5249 51.8419 43.4805 50.9567L44.0507 49.9866C45.0793 50.8577 46.4874 51.3645 47.738 51.3645C49.3364 51.3645 50.3335 50.7875 50.3335 49.8317C50.3493 47.2025 44.1134 48.5945 44.1134 45.0657C44.1134 43.5194 45.6487 42.5353 47.9437 42.5353C49.2259 42.5353 50.5392 42.9007 51.4577 43.4493L50.9195 44.4468C49.9224 43.8704 48.7508 43.6322 47.8648 43.6322Z" fill="white"/>
<path fill-rule="evenodd" clip-rule="evenodd" d="M6.06008 0.000630379C9.40722 0.000630379 12.1202 2.41322 12.1202 5.38881C12.1202 8.36476 9.40722 10.7773 6.06008 10.7773C2.71335 10.7773 0 8.36476 0 5.38881C0 2.41322 2.71335 0.000630379 6.06008 0.000630379Z" fill="white"/>
<path fill-rule="evenodd" clip-rule="evenodd" d="M140.686 26.474V9.79189C140.686 9.79189 139.832 6.75906 135.905 5.84903H127.709C127.709 5.84903 124.465 7.36563 124.294 8.57876L103.122 31.0235C103.122 31.0235 99.3653 39.365 109.61 40.7296H127.026C127.026 40.7296 127.367 49.98 140.344 48.9192V41.0327C140.344 41.0327 151.101 38.4553 149.906 27.384C149.906 27.384 144.954 32.692 132.49 31.3273H116.781L127.367 20.4081C127.367 20.4081 127.709 28.5972 140.686 26.474Z" fill="white"/>
</svg>
