<svg width="408" height="253" viewBox="0 0 408 253" fill="none" xmlns="http://www.w3.org/2000/svg">
<path opacity="0.1" fill-rule="evenodd" clip-rule="evenodd" d="M307.118 6.60691C370.815 32.1536 368.541 128.391 418.161 175.801C451.719 207.865 512.489 196.964 542.976 231.961C574.766 268.454 588.664 319.825 585.709 368.133C582.812 415.47 552.361 455.013 526.881 495.013C502.345 533.53 471.644 565.037 439.571 597.547C396.97 640.73 366.152 703.82 307.118 717.771C247.476 731.865 185.143 701.936 132.814 670.038C81.1421 638.541 27.6024 596.817 12.5416 538.207C-2.25752 480.615 57.028 427.569 55.2349 368.133C53.3538 305.783 -12.4487 252.687 2.09782 192.029C16.5943 131.579 76.0356 92.1816 129.155 59.8905C182.985 27.167 248.649 -16.8431 307.118 6.60691Z" fill="white"/>
</svg>
