<svg width="36" height="36" viewBox="0 0 36 36" fill="none" xmlns="http://www.w3.org/2000/svg">
<path d="M11.6562 3.00391C10.846 3.00588 10.0528 3.52223 9.64503 4.30983L3.3012 16.6806C2.8996 17.4703 2.8996 18.5026 3.3012 19.2923L9.64503 31.6631C10.0528 32.4507 10.846 32.9672 11.6562 32.9691H24.3438C25.1541 32.9671 25.9472 32.4507 26.355 31.6631L32.6988 19.2923C33.1004 18.5026 33.1003 17.4703 32.6988 16.6806L26.355 4.30983C25.9472 3.52209 25.1541 3.00575 24.3438 3.00391H11.6562ZM11.7714 10.241C11.7889 10.2391 11.8071 10.2391 11.8246 10.241H14.013C14.0616 10.2428 14.109 10.2584 14.1509 10.2862C14.1927 10.3141 14.2276 10.3534 14.2523 10.4005L17.9646 17.8269C17.9834 17.8637 17.9953 17.9045 17.9998 17.9466C18.0045 17.9045 18.0164 17.8637 18.0352 17.8269L21.7387 10.4005C21.7642 10.3521 21.8005 10.3119 21.8439 10.284C21.8874 10.256 21.9366 10.2412 21.9867 10.241H24.1752C24.3689 10.2429 24.5141 10.5169 24.4233 10.7095L20.7995 17.9865L24.4233 25.2535C24.5227 25.4471 24.3741 25.7338 24.1752 25.7319H21.9867C21.9358 25.7307 21.886 25.7144 21.8424 25.6847C21.7988 25.6549 21.763 25.6128 21.7387 25.5625L18.0352 18.1359C18.0164 18.0992 18.0045 18.0583 17.9999 18.0163C17.9953 18.0585 17.9834 18.0992 17.9646 18.1361L14.2521 25.5625C14.2285 25.6113 14.1942 25.6526 14.1523 25.6822C14.1104 25.7119 14.0625 25.729 14.0131 25.7319H11.8245C11.6256 25.7339 11.477 25.4471 11.5764 25.2535L15.2002 17.9865L11.5764 10.7095C11.4896 10.5337 11.5955 10.2785 11.7713 10.241H11.7714Z" fill="#F6821F"/>
</svg>
