<svg width="88" height="88" viewBox="0 0 88 88" fill="none" xmlns="http://www.w3.org/2000/svg">
<circle opacity="0.2" cx="44" cy="44" r="44" fill="#F6821F"/>
<g clip-path="url(#clip0)">
<path d="M73.748 28.0273H26.332V58.3963H73.748V28.0273Z" fill="#E6E6E6"/>
<path d="M47.6412 32.1055H30.5234V49.696H47.6412V32.1055Z" fill="white"/>
<path d="M71.1608 32.4453H54.043V53.81H71.1608V32.4453Z" fill="white"/>
<path d="M70.9336 60.6027C72.6271 60.6027 73.9999 60.4066 73.9999 60.1646C73.9999 59.9227 72.6271 59.7266 70.9336 59.7266C69.2401 59.7266 67.8672 59.9227 67.8672 60.1646C67.8672 60.4066 69.2401 60.6027 70.9336 60.6027Z" fill="#E6E6E6"/>
<path d="M40.2773 60.6144C41.9708 60.6144 43.3437 60.4183 43.3437 60.1764C43.3437 59.9344 41.9708 59.7383 40.2773 59.7383C38.5838 59.7383 37.2109 59.9344 37.2109 60.1764C37.2109 60.4183 38.5838 60.6144 40.2773 60.6144Z" fill="#E6E6E6"/>
<path d="M21.0375 60.0763C24.9242 60.0763 28.075 59.9254 28.075 59.7393C28.075 59.5532 24.9242 59.4023 21.0375 59.4023C17.1508 59.4023 14 59.5532 14 59.7393C14 59.9254 17.1508 60.0763 21.0375 60.0763Z" fill="#E6E6E6"/>
<path d="M73.7285 28H26.3125V30.0145H73.7285V28Z" fill="#6C63FF"/>
<path d="M27.8069 29.403C28.0131 29.403 28.1803 29.2358 28.1803 29.0296C28.1803 28.8234 28.0131 28.6562 27.8069 28.6562C27.6007 28.6562 27.4336 28.8234 27.4336 29.0296C27.4336 29.2358 27.6007 29.403 27.8069 29.403Z" fill="#E6E6E6"/>
<path d="M29.2249 29.403C29.4311 29.403 29.5983 29.2358 29.5983 29.0296C29.5983 28.8234 29.4311 28.6562 29.2249 28.6562C29.0187 28.6562 28.8516 28.8234 28.8516 29.0296C28.8516 29.2358 29.0187 29.403 29.2249 29.403Z" fill="#E6E6E6"/>
<path d="M30.6429 29.403C30.8491 29.403 31.0162 29.2358 31.0162 29.0296C31.0162 28.8234 30.8491 28.6562 30.6429 28.6562C30.4367 28.6562 30.2695 28.8234 30.2695 29.0296C30.2695 29.2358 30.4367 29.403 30.6429 29.403Z" fill="#E6E6E6"/>
<path d="M67.3867 38.1764H67.283V35.3356C67.283 35.1197 67.2405 34.9059 67.1579 34.7064C67.0753 34.5069 66.9542 34.3257 66.8015 34.173C66.6488 34.0203 66.4676 33.8992 66.2681 33.8166C66.0686 33.7339 65.8548 33.6914 65.6389 33.6914H59.6207C59.4048 33.6914 59.191 33.7339 58.9915 33.8166C58.792 33.8992 58.6108 34.0203 58.4581 34.173C58.3054 34.3257 58.1843 34.5069 58.1017 34.7064C58.0191 34.9059 57.9766 35.1197 57.9766 35.3356V50.9204C57.9766 51.1364 58.0191 51.3502 58.1017 51.5496C58.1843 51.7491 58.3054 51.9304 58.4581 52.0831C58.6108 52.2357 58.792 52.3568 58.9915 52.4395C59.191 52.5221 59.4048 52.5646 59.6207 52.5646H65.6389C65.8548 52.5646 66.0686 52.5221 66.2681 52.4395C66.4676 52.3568 66.6488 52.2357 66.8015 52.0831C66.9542 51.9304 67.0753 51.7491 67.1579 51.5496C67.2405 51.3502 67.283 51.1364 67.283 50.9204V40.1985H67.3867V38.1764Z" fill="#3F3D56"/>
<path d="M65.6383 34.1211H64.8528C64.8889 34.2097 64.9027 34.3058 64.8929 34.4009C64.8832 34.4961 64.8501 34.5874 64.7968 34.6668C64.7434 34.7462 64.6714 34.8113 64.5869 34.8562C64.5025 34.9012 64.4083 34.9248 64.3127 34.9248H60.8649C60.7692 34.9248 60.675 34.9012 60.5906 34.8562C60.5062 34.8112 60.4341 34.7462 60.3808 34.6668C60.3274 34.5874 60.2944 34.4961 60.2847 34.4009C60.2749 34.3058 60.2887 34.2097 60.3248 34.1211H59.5911C59.4298 34.1211 59.2702 34.1529 59.1212 34.2146C58.9723 34.2763 58.8369 34.3667 58.7229 34.4807C58.6089 34.5947 58.5184 34.7301 58.4567 34.8791C58.395 35.028 58.3633 35.1877 58.3633 35.3489V50.9109C58.3633 51.0722 58.395 51.2318 58.4567 51.3808C58.5184 51.5298 58.6089 51.6651 58.7229 51.7792C58.8369 51.8932 58.9723 51.9836 59.1212 52.0453C59.2702 52.107 59.4298 52.1388 59.5911 52.1388H65.6383C65.7996 52.1388 65.9592 52.107 66.1082 52.0453C66.2572 51.9836 66.3925 51.8932 66.5065 51.7792C66.6205 51.6651 66.711 51.5298 66.7727 51.3808C66.8344 51.2318 66.8661 51.0722 66.8661 50.9109V35.3489C66.8661 35.0233 66.7368 34.711 66.5065 34.4807C66.2763 34.2505 65.964 34.1211 65.6383 34.1211Z" fill="white"/>
<path d="M45.0424 43.2148H33.1445V43.7576H45.0424V43.2148Z" fill="#E6E6E6"/>
<path d="M45.0424 44.9688H33.1445V45.5115H45.0424V44.9688Z" fill="#6C63FF"/>
<path d="M45.0424 46.7227H33.1445V47.2654H45.0424V46.7227Z" fill="#E6E6E6"/>
<path d="M66.1567 44.4023H59.2109V44.9451H66.1567V44.4023Z" fill="#E6E6E6"/>
<path d="M66.1567 46.0859H59.2109V46.6287H66.1567V46.0859Z" fill="#E6E6E6"/>
<path d="M66.1567 47.7695H59.2109V48.3123H66.1567V47.7695Z" fill="#E6E6E6"/>
<path d="M66.8828 56.1968V55.0391H65.7252V56.1968H66.8828Z" fill="#3F3D56"/>
<path d="M65.0156 56.1968V55.0391H63.858V56.1968H65.0156Z" fill="#6C63FF"/>
<path d="M63.1523 56.1968V55.0391H61.9947V56.1968H63.1523Z" fill="#3F3D56"/>
<path d="M61.2852 56.1968V55.0391H60.1275V56.1968H61.2852Z" fill="#3F3D56"/>
<path d="M59.4219 56.1968V55.0391H58.2643V56.1968H59.4219Z" fill="#3F3D56"/>
<path d="M64.5463 37.3672H60.6875V41.2262H64.5463V37.3672Z" fill="#6C63FF"/>
<path d="M37.5622 46.5736L37.5123 46.6735L37.3624 45.9242C37.3624 45.9242 37.1627 45.125 37.5622 45.125C37.9618 45.125 37.8619 45.9242 37.8619 45.9242V46.4737L37.5622 46.5736Z" fill="#A0616A"/>
<path d="M44.1155 46.472L44.1654 46.5719L44.3153 45.8226C44.3153 45.8226 44.5151 45.0234 44.1155 45.0234C43.7159 45.0234 43.8158 45.8226 43.8158 45.8226V46.3721L44.1155 46.472Z" fill="#A0616A"/>
<path d="M39.7595 52.1914L39.1602 55.8877L39.4598 59.484L40.1591 59.1844L40.0592 56.4871L40.7584 54.3392L40.9083 56.8867L40.6086 59.534L41.5077 59.6339L42.157 54.1894L42.107 52.3412L39.7595 52.1914Z" fill="#2F2E41"/>
<path d="M39.7598 59.0343L39.4102 59.5838V60.8115C39.4102 60.8469 39.4227 60.8811 39.4457 60.908C39.4686 60.9349 39.5004 60.9528 39.5353 60.9585C39.7066 60.9866 40.005 61.0066 40.1094 60.8325C40.2593 60.5828 40.1594 60.0333 40.1594 60.0333C40.1594 60.0333 40.3592 59.6337 40.2593 59.334C40.1594 59.0343 40.0595 58.9844 40.0595 58.9844L39.7598 59.0343Z" fill="#2F2E41"/>
<path d="M41.2556 59.5343L41.3555 59.6842C41.3555 59.6842 41.5054 59.834 41.4055 59.9339C41.3321 60.0116 41.2653 60.0951 41.2057 60.1837C41.2057 60.1837 40.6562 60.3335 40.6562 60.1337V59.4844L41.2556 59.5343Z" fill="#2F2E41"/>
<path d="M41.0761 48.125C41.4418 48.125 41.7382 47.8286 41.7382 47.4629C41.7382 47.0972 41.4418 46.8008 41.0761 46.8008C40.7105 46.8008 40.4141 47.0972 40.4141 47.4629C40.4141 47.8286 40.7105 48.125 41.0761 48.125Z" fill="#A0616A"/>
<path d="M40.632 47.6719L40.582 48.621L41.481 48.6709L41.4311 47.7218L40.632 47.6719Z" fill="#A0616A"/>
<path d="M41.6053 48.6942L41.4636 48.3478C41.4636 48.3478 40.8062 48.0948 40.6064 48.3445L40.5065 48.6442L39.7073 48.4444L39.2578 49.4434L39.6574 52.2906C39.6574 52.2906 40.7063 53.6392 42.1048 52.3405L42.5044 49.6432L42.2047 48.5943L41.6053 48.6942Z" fill="#575A89"/>
<path d="M42.1055 48.7953L42.2053 48.5955L43.2043 47.9961L43.8139 46.1914L44.2857 46.3936L43.7537 48.5456L42.3052 49.8942L42.1055 48.7953Z" fill="#575A89"/>
<path d="M39.8098 48.5446L39.7099 48.4447L38.661 47.7954L37.9118 46.2969L37.3125 46.4966L37.9618 48.3448L39.5601 49.6435L39.8098 48.5446Z" fill="#575A89"/>
<path d="M41.5683 46.4504L41.6766 46.3963L41.5142 46.3422V46.288C41.5142 46.288 40.7023 45.9633 40.5941 46.5045C40.4544 46.6923 40.3789 46.9201 40.3789 47.1541C40.3789 47.3881 40.4544 47.6159 40.5941 47.8037V47.966L41.4601 48.0743L41.5683 47.7495C41.5683 47.7495 42.1096 46.7752 41.5683 46.4504Z" fill="#2F2E41"/>
<path d="M21.7553 52.25L21.5628 52.3462C21.5628 52.3462 20.7931 52.699 21.0176 52.8915C21.2421 53.0839 21.8515 52.699 21.8515 52.699L21.9798 52.5387L21.7553 52.25Z" fill="#FFB8B8"/>
<path d="M27.386 52.2031L26.7912 56.1962L25.8931 58.9866L25.412 58.7621L25.861 54.9453L24.5781 53.8547L24.6744 52.251L27.386 52.2031Z" fill="#2F2E41"/>
<path d="M25.3475 58.859C25.3475 58.859 25.8927 58.5704 25.9248 58.9873L25.8606 59.4043C25.8606 59.4043 26.0531 60.142 25.4116 59.9816C24.7702 59.8213 25.2192 59.3402 25.2192 59.3402L25.3475 58.859Z" fill="#2F2E41"/>
<path d="M24.9951 53.5L24.5781 53.8528C24.5781 53.8528 24.5781 56.0339 24.8668 56.3546C25.1554 56.6753 26.9835 58.3111 27.0477 58.3753C27.1118 58.4394 27.4005 57.7338 27.4005 57.7338L25.6686 55.7131L25.7969 54.4622L24.9951 53.5Z" fill="#2F2E41"/>
<path d="M27.2066 57.637C27.2066 57.637 27.7198 57.5408 27.7198 57.8936C27.7262 58.1725 27.7476 58.4509 27.7839 58.7275C27.7839 58.7275 27.9122 59.8501 27.4953 59.6897C27.0783 59.5294 26.918 58.4068 26.918 58.4068C26.9568 58.3135 27.0241 58.2349 27.1104 58.1822C27.2387 58.1181 27.2066 57.637 27.2066 57.637Z" fill="#2F2E41"/>
<path d="M25.6059 47.4375L25.7021 48.6243L25.4455 49.0733L24.7399 48.3997L24.6758 47.5017L25.6059 47.4375Z" fill="#FFB8B8"/>
<path d="M25.0276 47.8247C25.4527 47.8247 25.7973 47.4801 25.7973 47.0549C25.7973 46.6298 25.4527 46.2852 25.0276 46.2852C24.6024 46.2852 24.2578 46.6298 24.2578 47.0549C24.2578 47.4801 24.6024 47.8247 25.0276 47.8247Z" fill="#FFB8B8"/>
<path d="M25.3489 48.5942L25.6696 47.6641L26.2469 48.3055L27.3053 52.3789L26.5035 52.8601L26.1507 52.3468L26.0866 53.0204L24.515 52.6997L24.3867 48.4017L24.7072 47.9502L25.3489 48.5942Z" fill="#D0CDE1"/>
<path d="M24.8987 53.1491L24.7063 47.9531L24.2893 48.2739L23.5195 48.787L24.0327 50.6153L24.1931 52.5397L24.8987 53.1491Z" fill="#2F2E41"/>
<path d="M23.7465 48.8172L23.522 48.7852L22.8805 50.6775L21.5977 52.2813L22.0788 52.7944L23.5541 51.3511L24.0993 50.1644L23.7465 48.8172Z" fill="#2F2E41"/>
<path d="M27.2478 52.2773L27.204 52.488C27.204 52.488 27.0038 53.3108 27.294 53.2539C27.5842 53.1969 27.6598 52.4801 27.6598 52.4801L27.6135 52.2801L27.2478 52.2773Z" fill="#FFB8B8"/>
<path d="M25.6196 47.6094L27.2092 48.2388L27.0168 50.1632L27.4017 52.2802L27.0168 52.6971L25.5938 47.882L25.6196 47.6094Z" fill="#2F2E41"/>
<path d="M25.0681 45.7614L25.294 45.6484V45.7614L25.4447 45.6861V45.8744C25.4447 45.8744 26.0095 46.2886 25.8966 46.7782C25.7836 47.2678 25.7836 47.3054 25.7836 47.3054C25.7836 47.3054 25.6408 46.3744 25.0759 46.525C24.5111 46.6757 24.4656 46.7029 24.315 47.1171L24.2741 47.2948C24.2741 47.2948 23.6371 45.8367 25.0681 45.7614Z" fill="#2F2E41"/>
<path d="M26.9831 48.2422H27.2397L27.6567 50.4874V52.4439L27.1435 52.3477L26.7266 49.3968L26.9831 48.2422Z" fill="#2F2E41"/>
<path d="M23.6949 52.9883H14.2383V59.5602H23.6949V52.9883Z" fill="#6C63FF"/>
<path d="M18.9684 54.2695C18.5721 54.2695 18.1847 54.387 17.8553 54.6072C17.5258 54.8274 17.269 55.1403 17.1174 55.5064C16.9657 55.8725 16.926 56.2754 17.0033 56.6641C17.0806 57.0527 17.2715 57.4097 17.5517 57.6899C17.8319 57.9702 18.1889 58.161 18.5775 58.2383C18.9661 58.3156 19.369 58.2759 19.7351 58.1243C20.1012 57.9726 20.4141 57.7158 20.6342 57.3863C20.8544 57.0568 20.9719 56.6694 20.9719 56.2732C20.9703 55.7422 20.7588 55.2335 20.3834 54.8581C20.008 54.4827 19.4993 54.2711 18.9684 54.2695ZM18.9684 54.8706C19.0872 54.8706 19.2035 54.9059 19.3023 54.9719C19.4011 55.038 19.4782 55.1318 19.5237 55.2417C19.5692 55.3515 19.5811 55.4724 19.5579 55.589C19.5347 55.7056 19.4774 55.8127 19.3934 55.8967C19.3093 55.9808 19.2022 56.0381 19.0856 56.0613C18.969 56.0844 18.8482 56.0725 18.7384 56.027C18.6285 55.9815 18.5347 55.9045 18.4686 55.8057C18.4026 55.7068 18.3673 55.5906 18.3673 55.4717C18.3678 55.3125 18.4313 55.1599 18.5439 55.0473C18.6565 54.9347 18.8091 54.8712 18.9684 54.8706ZM18.9684 57.7643C18.7309 57.7632 18.4973 57.7042 18.2879 57.5924C18.0784 57.4807 17.8993 57.3194 17.7663 57.1228C17.7759 56.7221 18.5677 56.5015 18.9684 56.5015C19.3691 56.5015 20.1608 56.7221 20.1705 57.1228C20.0373 57.3193 19.8582 57.4804 19.6487 57.5922C19.4393 57.7039 19.2058 57.763 18.9684 57.7643Z" fill="white"/>
<path d="M45.0135 34.125H33.1523V40.932H45.0135V34.125Z" fill="#E6E6E6"/>
<path d="M68.4673 47.6275L68.5223 47.273C68.5223 47.273 68.8426 46.5448 68.5894 46.5055C68.3362 46.4663 68.125 47.1595 68.125 47.1595L68.2176 47.8999L68.4673 47.6275Z" fill="#FFB8B8"/>
<path d="M71.0595 49.6388L68.7963 49.1842L68.5334 47.5358L67.8672 47.4844L67.8997 49.6157L69.8661 50.6466L71.0595 49.6388Z" fill="#575A89"/>
<path opacity="0.2" d="M71.0595 49.6388L68.7963 49.1842L68.5334 47.5358L67.8672 47.4844L67.8997 49.6157L69.8661 50.6466L71.0595 49.6388Z" fill="black"/>
<path d="M64.9019 47.1914H71.8477V46.6487H64.9019V47.1914Z" fill="#6C63FF"/>
<path d="M68.0266 47.5064L68.0271 47.1477C68.0271 47.1477 68.233 46.3792 67.9768 46.3789C67.7206 46.3786 67.6172 47.0959 67.6172 47.0959L67.8213 47.8136L68.0266 47.5064Z" fill="#FFB8B8"/>
<path d="M70.9723 48.5328L71.2828 48.4571C71.4013 48.4573 71.5183 48.4311 71.6254 48.3804C71.7326 48.3298 71.8271 48.256 71.9022 48.1643C71.9773 48.0726 72.031 47.9654 72.0596 47.8504C72.0882 47.7354 72.0908 47.6155 72.0674 47.4994C72.0675 47.3621 72.0407 47.2262 71.9883 47.0994C71.936 46.9725 71.8591 46.8573 71.7622 46.7601C71.6653 46.663 71.5503 46.5858 71.4236 46.5332C71.2968 46.4805 71.161 46.4533 71.0238 46.4531C70.8866 46.453 70.7507 46.4798 70.6238 46.5322C70.497 46.5845 70.3817 46.6613 70.2846 46.7582C70.1874 46.8552 70.1103 46.9702 70.0576 47.097C70.005 47.2237 69.9778 47.3595 69.9776 47.4967C69.9374 47.6365 69.9347 47.7844 69.9696 47.9255C70.0046 48.0667 70.076 48.1962 70.1767 48.3011C70.2774 48.4061 70.4039 48.4827 70.5435 48.5233C70.6831 48.564 70.831 48.5673 70.9723 48.5328Z" fill="#2F2E41"/>
<path d="M69.1445 53.7095L69.3973 56.4772L69.855 59.1939L70.6237 59.1949L70.5246 56.5299L70.1187 53.3008L69.1445 53.7095Z" fill="#2F2E41"/>
<path d="M69.9564 59.0391L69.4436 59.3459C69.4436 59.3459 68.6235 59.4474 68.7769 59.7038C68.9303 59.9602 70.7241 59.8088 70.7242 59.7063C70.7244 59.6038 70.6738 59.04 70.5713 59.0398L69.9564 59.0391Z" fill="#2F2E41"/>
<path d="M71.4146 53.4697C71.4146 53.4697 71.4002 53.8654 71.0407 54.4799L71.0895 56.3761L72.9314 58.7358L72.2645 59.2987L70.013 56.7335L69.4531 53.658L70.1715 52.9414L71.4146 53.4697Z" fill="#2F2E41"/>
<path d="M72.7754 58.7344C72.7754 58.7344 73.3902 58.8376 73.2874 59.0938C73.1845 59.3499 72.9268 60.5282 72.2609 60.3737C72.2609 60.3737 71.9534 60.3733 72.0562 60.1684C72.1179 60.0452 72.1865 59.9255 72.2616 59.8099L72.2624 59.1437L72.7754 58.7344Z" fill="#2F2E41"/>
<path d="M70.6398 48.5843C71.0643 48.5843 71.4084 48.2401 71.4084 47.8156C71.4084 47.391 71.0643 47.0469 70.6398 47.0469C70.2152 47.0469 69.8711 47.391 69.8711 47.8156C69.8711 48.2401 70.2152 48.5843 70.6398 48.5843Z" fill="#FFB8B8"/>
<path d="M70.9967 48.329L70.9957 49.2002L70.1758 49.1992L70.2794 48.3281L70.9967 48.329Z" fill="#FFB8B8"/>
<path d="M69.9715 48.8931L70.22 48.832L70.9964 48.8944C70.9964 48.8944 71.4059 49.3048 71.3545 49.4073C71.3031 49.5097 71.0438 52.0205 71.0438 52.0205L71.5027 53.8148L69.8628 53.9152L69.043 53.8117L69.2008 50.5833C69.2008 50.5833 68.8431 49.7116 69.3047 49.456C69.5653 49.3192 69.7929 49.1271 69.9715 48.8931Z" fill="#575A89"/>
<path d="M70.8927 49.097L68.5868 48.9916L68.0764 47.4023L67.4102 47.4527L67.7662 49.5543L69.8664 50.2744L70.8927 49.097Z" fill="#575A89"/>
<path d="M72.1209 47.2497C72.3948 47.2497 72.6169 47.0277 72.6169 46.7538C72.6169 46.4799 72.3948 46.2578 72.1209 46.2578C71.847 46.2578 71.625 46.4799 71.625 46.7538C71.625 47.0277 71.847 47.2497 72.1209 47.2497Z" fill="#2F2E41"/>
<path d="M71.6647 46.4901C71.6648 46.4168 71.6811 46.3443 71.7126 46.2781C71.744 46.2118 71.7898 46.1533 71.8465 46.1068C71.9033 46.0604 71.9697 46.0271 72.0409 46.0094C72.1121 45.9917 72.1863 45.9901 72.2583 46.0045C72.1948 45.9746 72.1257 45.9584 72.0555 45.9571C71.9854 45.9558 71.9157 45.9695 71.8512 45.9971C71.7867 46.0248 71.7288 46.0658 71.6813 46.1175C71.6339 46.1692 71.5979 46.2304 71.5759 46.297C71.5538 46.3636 71.5462 46.4342 71.5534 46.504C71.5607 46.5738 71.5827 46.6413 71.618 46.702C71.6532 46.7626 71.701 46.8151 71.7581 46.8559C71.8152 46.8968 71.8803 46.925 71.9491 46.9388C71.864 46.8987 71.7921 46.8353 71.7417 46.7558C71.6914 46.6763 71.6647 46.5842 71.6647 46.4901Z" fill="#2F2E41"/>
<path d="M71.2399 46.7715L70.5713 46.6484L70.0572 46.9707C69.9308 47.0499 69.8297 47.1638 69.766 47.2987C69.7024 47.4336 69.6787 47.584 69.6979 47.7319L70.2128 47.6014L70.3282 47.3122L70.4655 47.5374L71.0226 48.5115L71.5867 48.2047L71.9461 47.6415L71.2399 46.7715Z" fill="#2F2E41"/>
<path d="M33.1843 34.0667L33.1172 34.1836L44.9783 40.9906L45.0454 40.8738L33.1843 34.0667Z" fill="white"/>
<path d="M44.9789 34.0689L33.1172 40.875L33.1843 40.9919L45.0459 34.1858L44.9789 34.0689Z" fill="white"/>
<path d="M60.7633 37.3149L60.668 37.4102L64.5093 41.2518L64.6046 41.1565L60.7633 37.3149Z" fill="white"/>
<path d="M64.5093 37.3146L60.668 41.1562L60.7633 41.2516L64.6046 37.41L64.5093 37.3146Z" fill="white"/>
</g>
<defs>
<clipPath id="clip0">
<rect width="60" height="32.9771" fill="white" transform="translate(14 28)"/>
</clipPath>
</defs>
</svg>
