<svg width="109" height="59" viewBox="0 0 109 59" fill="none" xmlns="http://www.w3.org/2000/svg">
<mask id="mask0" mask-type="alpha" maskUnits="userSpaceOnUse" x="0" y="0" width="109" height="59">
<rect width="109" height="59" rx="15" fill="white"/>
</mask>
<g mask="url(#mask0)">
<path opacity="0.2" fill-rule="evenodd" clip-rule="evenodd" d="M77.4908 32.7495C65.9958 32.6133 58.7502 9.64896 48.4448 14.7353C37.4871 20.1435 48.8677 40.5132 41.7128 50.408C36.4234 57.7229 23.4456 53.641 16.3097 59.1761C8.81367 64.9906 -2.22153 73.3482 0.391968 82.4593C3.67287 93.897 20.6944 94.8265 28.9869 103.371C33.3385 107.854 35.4637 114.085 36.9676 120.145C39.3521 129.754 32.6207 143.26 40.4068 149.389C47.6471 155.089 58.082 143.814 67.2998 144.022C74.8765 144.194 81.338 151.095 88.8922 150.488C96.4429 149.88 102.566 144.381 109.159 140.656C115.923 136.835 122.276 132.671 128.546 128.086C136.222 122.471 148.021 119.505 150.586 110.356C153.156 101.191 143 93.0207 140.984 83.718C139.206 75.5165 143.765 65.9863 139.413 58.8077C134.986 51.5071 122.971 52.2447 117.788 45.4589C111.22 36.8607 116.598 18.6778 106.271 15.4206C95.4965 12.0224 88.789 32.8834 77.4908 32.7495Z" fill="#F47116"/>
</g>
</svg>
