<svg width="30" height="30" viewBox="0 0 30 30" fill="none" xmlns="http://www.w3.org/2000/svg">
<path d="M15 1.875C7.75117 1.875 1.875 7.75117 1.875 15C1.875 22.2488 7.75117 28.125 15 28.125C22.2488 28.125 28.125 22.2488 28.125 15C28.125 7.75117 22.2488 1.875 15 1.875ZM11.7871 20.44H9.1293V11.8869H11.7871V20.44ZM10.4418 10.8369C9.60234 10.8369 9.05957 10.2422 9.05957 9.50664C9.05957 8.75605 9.61875 8.1791 10.476 8.1791C11.3332 8.1791 11.8582 8.75605 11.8746 9.50664C11.8746 10.2422 11.3332 10.8369 10.4418 10.8369ZM21.4941 20.44H18.8363V15.7C18.8363 14.5967 18.4508 13.8475 17.4896 13.8475C16.7555 13.8475 16.3193 14.3547 16.1266 14.8428C16.0555 15.0164 16.0377 15.2625 16.0377 15.5072V20.4387H13.3785V14.6145C13.3785 13.5467 13.3443 12.6539 13.3088 11.8855H15.618L15.7396 13.0736H15.793C16.143 12.5158 17.0002 11.6928 18.4344 11.6928C20.183 11.6928 21.4941 12.8645 21.4941 15.3828V20.44Z" fill="white"/>
</svg>
