<svg width="30" height="30" viewBox="0 0 30 30" fill="none" xmlns="http://www.w3.org/2000/svg">
<path d="M15 28.125C13.2227 28.125 11.5222 27.7789 9.89868 27.0868C8.27515 26.3947 6.87805 25.4633 5.7074 24.2926C4.53674 23.1219 3.60535 21.7249 2.91321 20.1013C2.22107 18.4778 1.875 16.7773 1.875 15C1.875 13.2227 2.22107 11.5222 2.91321 9.89868C3.60535 8.27515 4.53674 6.87805 5.7074 5.7074C6.87805 4.53674 8.27515 3.60535 9.89868 2.91321C11.5222 2.22107 13.2227 1.875 15 1.875C16.7773 1.875 18.4778 2.22107 20.1013 2.91321C21.7249 3.60535 23.1219 4.53674 24.2926 5.7074C25.4633 6.87805 26.3947 8.27515 27.0868 9.89868C27.7789 11.5222 28.125 13.2227 28.125 15C28.125 16.7773 27.7789 18.4778 27.0868 20.1013C26.3947 21.7249 25.4633 23.1219 24.2926 24.2926C23.1219 25.4633 21.7249 26.3947 20.1013 27.0868C18.4778 27.7789 16.7773 28.125 15 28.125ZM21.5625 10.0781C21.5625 9.63379 21.4044 9.24927 21.0883 8.92456C20.7721 8.59985 20.3833 8.4375 19.9219 8.4375H10.0781C9.63379 8.4375 9.24927 8.59985 8.92456 8.92456C8.59985 9.24927 8.4375 9.63379 8.4375 10.0781V11.7188H11.3599C12.3511 10.625 13.5645 10.0781 15 10.0781C16.4355 10.0781 17.6489 10.625 18.6401 11.7188H21.5625V10.0781ZM11.7188 15C11.7188 15.9058 12.0392 16.6791 12.6801 17.3199C13.3209 17.9608 14.0942 18.2812 15 18.2812C15.9058 18.2812 16.6791 17.9608 17.3199 17.3199C17.9608 16.6791 18.2812 15.9058 18.2812 15C18.2812 14.0942 17.9608 13.3209 17.3199 12.6801C16.6791 12.0392 15.9058 11.7188 15 11.7188C14.0942 11.7188 13.3209 12.0392 12.6801 12.6801C12.0392 13.3209 11.7188 14.0942 11.7188 15ZM21.5625 13.3594H19.6143C19.8193 13.9233 19.9219 14.4702 19.9219 15C19.9219 16.3672 19.4434 17.5293 18.4863 18.4863C17.5293 19.4434 16.3672 19.9219 15 19.9219C13.6328 19.9219 12.4707 19.4434 11.5137 18.4863C10.5566 17.5293 10.0781 16.3672 10.0781 15C10.0781 14.4702 10.1807 13.9233 10.3857 13.3594H8.4375V19.9219C8.4375 20.3833 8.59558 20.7721 8.91174 21.0883C9.22791 21.4044 9.6167 21.5625 10.0781 21.5625H19.9219C20.3833 21.5625 20.7721 21.4044 21.0883 21.0883C21.4044 20.7721 21.5625 20.3833 21.5625 19.9219V13.3594Z" fill="white"/>
</svg>
