<svg width="799" height="768" viewBox="0 0 799 768" fill="none" xmlns="http://www.w3.org/2000/svg">
<ellipse opacity="0.6" cx="391.576" cy="376.693" rx="357" ry="372" transform="rotate(86.9495 391.576 376.693)" fill="#F47116"/>
<path d="M409.255 745.737C205.672 756.587 32.3392 607.031 21.939 411.876C11.5388 216.721 167.995 49.5898 371.577 38.7405C575.16 27.8912 748.493 177.447 758.893 372.602C769.293 567.757 612.838 734.888 409.255 745.737Z" fill="white" stroke="#F7A973" stroke-width="4"/>
<path d="M617.996 139.5C617.996 160.211 634.785 177 655.496 177C676.207 177 692.996 160.211 692.996 139.5C692.996 118.789 676.207 102 655.496 102C634.785 102 617.996 118.789 617.996 139.5Z" fill="#9BC6EF"/>
<path d="M671.023 137.791C671.037 137.531 671.062 137.272 671.062 137.014C671.062 129.538 665.874 123.287 658.737 121.793L661.177 119.963L659.92 119.02C668.029 121.026 674.027 128.426 674.027 137.014C674.027 137.549 673.997 138.085 673.951 138.619C673.055 138.17 672.069 137.88 671.023 137.791Z" fill="white"/>
<path d="M669.588 152.542V145.914H671.07V152.542C670.826 152.57 670.58 152.586 670.329 152.586C670.078 152.586 669.832 152.57 669.588 152.542Z" fill="white"/>
<path d="M672.555 153.75V156.29C672.555 156.698 672.222 157.031 671.813 157.031H668.848C668.439 157.031 668.107 156.698 668.107 156.29V153.75C668.815 153.951 669.559 154.066 670.331 154.066C671.102 154.066 671.847 153.951 672.555 153.75Z" fill="white"/>
<path d="M650.305 131.824H648.822V143.686H650.305V131.824Z" fill="white"/>
<path d="M654.753 121.444L653.938 121.525C645.95 122.318 639.926 128.978 639.926 137.017C639.926 139.353 640.456 141.643 641.454 143.729C641.195 143.704 640.932 143.689 640.667 143.689C639.858 143.689 639.077 143.811 638.34 144.031C637.428 141.806 636.96 139.451 636.96 137.017C636.96 127.384 644.475 119.266 654.067 118.537L654.753 118.484V117L658.707 119.965L654.753 122.931V121.444Z" fill="white"/>
<path d="M656.238 134.793H654.756V143.689H656.238V134.793Z" fill="white"/>
<path d="M655.496 151.107H648.786C648.494 147.879 646.311 145.194 643.357 144.159C642.087 142.001 641.411 139.541 641.411 137.022C641.411 130.025 646.455 124.182 653.272 123.109V125.901L657.093 123.035C664.23 123.838 669.582 129.798 669.582 137.022C669.582 137.281 669.558 137.541 669.543 137.802C667.109 138.034 664.987 139.343 663.651 141.244V136.28H659.203V143.694H657.72V133.315H653.272V143.694H651.79V130.349H647.341V145.176H662.206C662.184 145.421 662.169 145.667 662.169 145.918C662.169 147.031 662.394 148.091 662.799 149.058C660.601 150.396 658.092 151.107 655.496 151.107Z" fill="white"/>
<path d="M662.172 137.758H660.689V143.689H662.172V137.758Z" fill="white"/>
<path d="M640.674 151.098C639.855 151.098 639.191 150.434 639.191 149.616C639.191 148.797 639.855 148.133 640.674 148.133C641.492 148.133 642.156 148.797 642.156 149.616C642.156 150.434 641.492 151.098 640.674 151.098Z" fill="white"/>
<path d="M640.668 145.172C644.346 145.172 647.34 148.165 647.34 151.844C647.34 153.53 646.706 155.067 645.671 156.243L645.569 155.431C645.358 153.737 644.297 152.329 642.849 151.613C643.331 151.085 643.633 150.39 643.633 149.62C643.633 147.985 642.303 146.655 640.668 146.655C639.032 146.655 637.702 147.985 637.702 149.62C637.702 150.39 638.004 151.085 638.486 151.612C637.037 152.328 635.977 153.736 635.765 155.43L635.664 156.242C634.629 155.067 633.995 153.53 633.995 151.844C633.995 148.165 636.989 145.172 640.668 145.172Z" fill="white"/>
<path d="M668.1 152.193C665.513 151.274 663.652 148.809 663.652 145.91C663.652 142.232 666.645 139.238 670.324 139.238C674.003 139.238 676.996 142.232 676.996 145.91C676.996 148.808 675.135 151.274 672.548 152.193V147.257C672.781 147.34 673.028 147.393 673.289 147.393C674.516 147.393 675.513 146.395 675.513 145.169C675.513 143.943 674.516 142.945 673.289 142.945C672.324 142.945 671.509 143.567 671.202 144.428H669.445C669.138 143.567 668.323 142.945 667.358 142.945C666.132 142.945 665.134 143.943 665.134 145.169C665.134 146.395 666.132 147.393 667.358 147.393C667.619 147.393 667.866 147.34 668.099 147.257V152.193H668.1Z" fill="white"/>
<path d="M640.672 152.582C642.412 152.582 643.887 153.884 644.103 155.61L644.328 157.415C643.277 158.107 642.022 158.513 640.672 158.513C639.322 158.513 638.067 158.107 637.015 157.415L637.241 155.61C637.457 153.884 638.932 152.582 640.672 152.582Z" fill="white"/>
<path d="M667.356 145.908C666.947 145.908 666.615 145.577 666.615 145.167C666.615 144.758 666.947 144.426 667.356 144.426C667.766 144.426 668.098 144.758 668.098 145.167C668.098 145.577 667.766 145.908 667.356 145.908Z" fill="white"/>
<path d="M655.497 152.589C658.338 152.589 661.085 151.817 663.499 150.367C664.056 151.22 664.77 151.959 665.598 152.55C662.591 154.512 659.126 155.554 655.497 155.554H647.925C648.389 154.649 648.691 153.649 648.787 152.589H655.497Z" fill="white"/>
<path d="M673.286 145.908C672.877 145.908 672.545 145.577 672.545 145.167C672.545 144.758 672.877 144.426 673.286 144.426C673.695 144.426 674.027 144.758 674.027 145.167C674.027 145.577 673.695 145.908 673.286 145.908Z" fill="white"/>
<path d="M687.996 240.5C687.996 261.211 704.785 278 725.496 278C746.207 278 762.996 261.211 762.996 240.5C762.996 219.789 746.207 203 725.496 203C704.785 203 687.996 219.789 687.996 240.5Z" fill="#82B8EC"/>
<path d="M707.996 246.249H712.371V225.832H710.184C709.604 225.834 709.049 226.065 708.639 226.475C708.229 226.885 707.998 227.44 707.996 228.02V246.249Z" fill="white"/>
<path d="M721.035 253.543L720.488 257.918H730.507L729.96 253.543H721.035Z" fill="white"/>
<path d="M742.996 247.707H707.996V249.895C707.998 250.474 708.229 251.03 708.639 251.439C709.049 251.849 709.604 252.08 710.184 252.082H740.809C741.388 252.08 741.944 251.849 742.353 251.439C742.763 251.03 742.994 250.474 742.996 249.895V247.707ZM740.079 250.624H738.621V249.165H740.079V250.624Z" fill="white"/>
<path d="M717.477 259.375H733.518V260.833H717.477V259.375Z" fill="white"/>
<path d="M737.892 224.375C738.472 224.375 739.028 224.145 739.439 223.734C739.849 223.324 740.079 222.768 740.079 222.188C740.079 221.607 739.849 221.051 739.439 220.641C739.028 220.23 738.472 220 737.892 220H718.934C719.407 220.631 719.663 221.399 719.663 222.188C719.663 222.976 719.407 223.744 718.934 224.375H737.892Z" fill="white"/>
<path d="M742.996 228.02C742.994 227.44 742.763 226.885 742.353 226.475C741.944 226.065 741.388 225.834 740.809 225.832H738.621V246.249H742.996V228.02Z" fill="white"/>
<path d="M713.828 246.25H737.161V225.833H716.016C715.822 225.833 715.637 225.757 715.5 225.62C715.363 225.483 715.286 225.298 715.286 225.104C715.286 224.911 715.363 224.725 715.5 224.589C715.637 224.452 715.822 224.375 716.016 224.375C716.448 224.375 716.871 224.247 717.231 224.006C717.591 223.766 717.871 223.424 718.037 223.025C718.202 222.625 718.245 222.185 718.161 221.761C718.077 221.336 717.868 220.947 717.562 220.641C717.256 220.335 716.867 220.126 716.442 220.042C716.018 219.958 715.578 220.001 715.179 220.167C714.779 220.332 714.437 220.612 714.197 220.972C713.956 221.332 713.828 221.755 713.828 222.188V246.25ZM717.891 236.139L719.154 235.41L719.883 236.673L718.62 237.402L717.891 236.139ZM721.022 239.27L719.759 238.541L720.488 237.278L721.751 238.008L721.022 239.27ZM726.731 236.673L727.461 235.41L728.724 236.139L727.994 237.402L726.731 236.673ZM726.855 238.541L725.592 239.27L724.863 238.008L726.126 237.278L726.855 238.541ZM727.682 234.583V233.125H729.141V234.583H727.682ZM728.724 231.569L727.461 232.298L726.731 231.035L727.994 230.306L728.724 231.569ZM725.592 228.438L726.855 229.167L726.126 230.43L724.863 229.701L725.592 228.438ZM722.578 228.021H724.036V229.479H722.578V228.021ZM722.578 233.854C722.578 233.661 722.655 233.475 722.792 233.339C722.928 233.202 723.114 233.125 723.307 233.125H726.224V234.583H724.036V236.771H722.578V233.854ZM722.578 238.229H724.036V239.688H722.578V238.229ZM722.578 241.146H724.036V241.875H731.328V234.583H730.599V233.125H732.057C732.251 233.125 732.436 233.202 732.573 233.339C732.71 233.475 732.786 233.661 732.786 233.854V242.604C732.786 242.798 732.71 242.983 732.573 243.12C732.436 243.257 732.251 243.333 732.057 243.333H723.307C723.114 243.333 722.928 243.257 722.792 243.12C722.655 242.983 722.578 242.798 722.578 242.604V241.146ZM721.022 228.438L721.751 229.701L720.488 230.43L719.759 229.167L721.022 228.438ZM718.62 230.306L719.883 231.035L719.154 232.298L717.891 231.569L718.62 230.306ZM717.474 233.125H718.932V234.583H717.474V233.125Z" fill="white"/>
<path d="M723.996 355.5C723.996 375.106 740.785 391 761.496 391C782.207 391 798.996 375.106 798.996 355.5C798.996 335.894 782.207 320 761.496 320C740.785 320 723.996 335.894 723.996 355.5Z" fill="#69A9E8"/>
<g clip-path="url(#clip0)">
<path d="M777.901 348.938H764.047C763.443 348.938 762.953 349.428 762.953 350.031C762.953 350.635 763.443 351.125 764.047 351.125H777.901C778.505 351.125 778.995 350.635 778.995 350.031C778.995 349.428 778.505 348.938 777.901 348.938Z" fill="white"/>
<path d="M777.901 353.312H764.047C763.443 353.312 762.953 353.803 762.953 354.406C762.953 355.01 763.443 355.5 764.047 355.5H777.901C778.505 355.5 778.995 355.01 778.995 354.406C778.995 353.803 778.505 353.312 777.901 353.312Z" fill="white"/>
<path d="M777.901 357.688H764.047C763.443 357.688 762.953 358.178 762.953 358.781C762.953 359.385 763.443 359.875 764.047 359.875H777.901C778.505 359.875 778.995 359.385 778.995 358.781C778.995 358.178 778.505 357.688 777.901 357.688Z" fill="white"/>
<path d="M777.901 362.062H764.047C763.443 362.062 762.953 362.553 762.953 363.156C762.953 363.76 763.443 364.25 764.047 364.25H777.901C778.505 364.25 778.995 363.76 778.995 363.156C778.995 362.553 778.505 362.062 777.901 362.062Z" fill="white"/>
<path d="M777.901 366.438H764.047C763.443 366.438 762.953 366.928 762.953 367.531C762.953 368.135 763.443 368.625 764.047 368.625H777.901C778.505 368.625 778.995 368.135 778.995 367.531C778.995 366.928 778.505 366.438 777.901 366.438Z" fill="white"/>
<path d="M746.548 359.875H757.486C758.893 359.875 760.038 358.73 760.038 357.323V351.49C760.038 350.082 758.893 348.938 757.486 348.938H746.548C745.141 348.938 743.996 350.082 743.996 351.49V357.323C743.996 358.73 745.141 359.875 746.548 359.875Z" fill="white"/>
<path d="M746.548 373H757.486C758.893 373 760.038 371.855 760.038 370.448V364.615C760.038 363.207 758.893 362.062 757.486 362.062H746.548C745.141 362.062 743.996 363.207 743.996 364.615V370.448C743.996 371.855 745.141 373 746.548 373Z" fill="white"/>
<path d="M777.901 370.812H764.047C763.443 370.812 762.953 371.303 762.953 371.906C762.953 372.51 763.443 373 764.047 373H777.901C778.505 373 778.995 372.51 778.995 371.906C778.995 371.303 778.505 370.812 777.901 370.812Z" fill="white"/>
<path d="M776.445 338H758.216C756.809 338 755.664 339.145 755.664 340.552V344.198C755.664 345.605 756.809 346.75 758.216 346.75H776.445C777.853 346.75 778.997 345.605 778.997 344.198V340.552C778.997 339.145 777.853 338 776.445 338Z" fill="white"/>
<path d="M748.371 346.75C750.787 346.75 752.746 344.791 752.746 342.375C752.746 339.959 750.787 338 748.371 338C745.955 338 743.996 339.959 743.996 342.375C743.996 344.791 745.955 346.75 748.371 346.75Z" fill="white"/>
</g>
<path d="M720.996 470.5C720.996 491.211 737.785 508 758.496 508C779.207 508 795.996 491.211 795.996 470.5C795.996 449.789 779.207 433 758.496 433C737.785 433 720.996 449.789 720.996 470.5Z" fill="#509BE4"/>
<path d="M754.97 472.637H754.98V471.293H752.168V472.644H754.966L754.97 472.637Z" fill="white"/>
<path d="M747.949 471.293H745.137V471.601V472.618L745.154 472.644H747.949V471.293Z" fill="white"/>
<path d="M754.569 473.995H752.169C751.394 473.995 750.763 473.389 750.763 472.644V471.969H749.357V472.644C749.357 473.389 748.726 473.995 747.951 473.995H745.551C746.273 476.092 747.914 477.82 750.06 478.674C752.206 477.82 753.846 476.092 754.569 473.995Z" fill="white"/>
<path d="M758.918 483.396L754.068 481.532L753.399 486.028L750.059 483.621L746.718 486.028L746.049 481.531L741.199 483.396C739.32 484.118 738.105 485.841 738.105 487.787V490.207H740.918V486.154H742.324V490.207H757.793V486.154H759.199V490.207H762.012V487.787C762.012 485.841 760.797 484.118 758.918 483.396ZM750.762 488.856H749.355V487.505H750.762V488.856ZM750.762 486.154H749.355V484.803H750.762V486.154Z" fill="white"/>
<path d="M754.277 469.267H752.5C750.471 469.267 748.441 468.835 746.599 468.016L745.45 468.752C745.253 468.878 745.137 469.088 745.137 469.314V469.942H747.949C748.467 469.942 748.916 470.216 749.16 470.618H750.957C751.201 470.216 751.65 469.942 752.168 469.942H754.98C754.98 469.57 754.665 469.267 754.277 469.267Z" fill="white"/>
<path d="M751.465 479.852V479.523C751.093 479.717 750.708 479.89 750.306 480.035L750.059 480.123L749.811 480.035C749.41 479.89 749.024 479.717 748.652 479.523V479.852L750.059 481.653L751.465 479.852Z" fill="white"/>
<path d="M752.723 481.016L752.407 480.895L751.043 482.642L752.343 483.579L752.723 481.016Z" fill="white"/>
<path d="M743.73 469.316C743.73 468.637 744.081 468.007 744.67 467.63L746.492 466.463L746.858 466.638C748.6 467.475 750.551 467.918 752.5 467.918H754.277C755.44 467.918 756.387 468.827 756.387 469.944C756.901 469.944 757.377 470.088 757.793 470.32V467.467C757.793 465.887 757.098 464.399 755.909 463.341C755.042 464.547 753.017 465.216 750.059 465.216V463.864C752.438 463.864 754.98 463.332 754.98 461.838C754.98 460.768 754.215 459.896 753.683 459.418C752.313 460.941 750.292 461.838 748.183 461.838C744.953 461.838 742.324 464.363 742.324 467.467V470.32C742.74 470.088 743.216 469.944 743.73 469.944V469.316Z" fill="white"/>
<path d="M756.387 472.644C756.387 472.872 756.323 473.083 756.219 473.271C756.171 473.518 756.096 473.755 756.027 473.995H756.387C757.163 473.995 757.794 473.389 757.794 472.644C757.794 471.899 757.163 471.293 756.387 471.293V472.644Z" fill="white"/>
<path d="M747.395 481.016L747.775 483.579L749.075 482.642L747.711 480.895L747.395 481.016Z" fill="white"/>
<path d="M743.73 473.995H744.09C744.022 473.755 743.946 473.518 743.899 473.271C743.794 473.083 743.73 472.872 743.73 472.644V471.601V471.293C742.955 471.293 742.324 471.899 742.324 472.644C742.324 473.389 742.955 473.995 743.73 473.995Z" fill="white"/>
<path d="M766.23 471.295C770.883 471.295 774.668 467.659 774.668 463.189C774.668 458.719 770.883 455.082 766.23 455.082C761.578 455.082 757.793 458.719 757.793 463.189C757.793 463.245 757.796 463.302 757.797 463.358C758.692 464.538 759.199 465.969 759.199 467.467V467.655C760.769 469.934 763.38 471.295 766.23 471.295ZM768.494 460.233L769.592 459.389L772.755 463.189L769.592 466.989L768.494 466.145L770.955 463.189L768.494 460.233ZM766.237 458.364L767.63 458.555L766.223 468.013L764.831 467.822L766.237 458.364ZM762.869 459.389L763.967 460.232L761.505 463.189L763.967 466.144L762.869 466.988L759.705 463.189L762.869 459.389Z" fill="white"/>
<path d="M777.273 461.131L777.185 460.761C776.906 459.596 776.427 458.487 775.76 457.464L775.551 457.142L776.313 455.678L774.046 453.501L772.522 454.232L772.187 454.031C771.122 453.39 769.968 452.93 768.755 452.662L768.37 452.578L767.832 451.027H764.627L764.089 452.577L763.704 452.662C762.492 452.93 761.337 453.39 760.273 454.031L759.937 454.232L758.413 453.501L756.147 455.678L756.909 457.142L756.7 457.464C756.267 458.128 755.916 458.835 755.645 459.567C756.059 460.182 756.386 460.95 756.386 461.836C756.386 461.879 756.38 461.918 756.378 461.96C756.408 461.982 756.438 462.004 756.468 462.027C757.066 457.359 761.212 453.73 766.23 453.73C771.658 453.73 776.074 457.972 776.074 463.187C776.074 468.403 771.658 472.645 766.23 472.645C763.539 472.645 761.03 471.607 759.199 469.805V472.494L759.941 472.144L760.273 472.344C761.338 472.985 762.492 473.445 763.705 473.712L764.09 473.797L764.628 475.347H767.833L768.371 473.797L768.756 473.713C769.969 473.446 771.124 472.985 772.188 472.344L772.524 472.143L774.047 472.875L776.314 470.697L775.552 469.233L775.762 468.911C776.428 467.888 776.908 466.779 777.186 465.614L777.275 465.244L778.886 464.727V461.647L777.273 461.131Z" fill="white"/>
<path d="M764.824 478.047H777.48V479.398H764.824V478.047Z" fill="white"/>
<path d="M764.824 480.75H777.48V482.101H764.824V480.75Z" fill="white"/>
<path d="M764.824 483.453H771.855V484.804H764.824V483.453Z" fill="white"/>
<path d="M773.262 483.453H774.668V484.804H773.262V483.453Z" fill="white"/>
<path d="M776.074 483.453H777.48V484.804H776.074V483.453Z" fill="white"/>
<path d="M666.996 582.5C666.996 603.211 683.785 620 704.496 620C725.207 620 741.996 603.211 741.996 582.5C741.996 561.789 725.207 545 704.496 545C683.785 545 666.996 561.789 666.996 582.5Z" fill="#378DE0"/>
<g clip-path="url(#clip1)">
<path d="M714.491 570.328C714.517 570.231 714.53 570.131 714.53 570.031C714.53 569.404 714.021 568.895 713.394 568.895H713.17C712.658 568.895 712.207 569.24 712.073 569.735L711.281 572.664L713.647 573.452L714.491 570.328Z" fill="white"/>
<path d="M713.286 574.788L710.92 574L710.539 575.408L712.905 576.196L713.286 574.788Z" fill="white"/>
<path d="M686.754 573.032H701.926V568.895H686.754V573.032ZM699.168 570.274H700.547V571.653H699.168V570.274ZM696.409 570.274H697.788V571.653H696.409V570.274ZM693.65 570.274H695.03V571.653H693.65V570.274ZM690.892 570.274H692.271V571.653H690.892V570.274ZM688.133 570.274H689.513V571.653H688.133V570.274Z" fill="white"/>
<path d="M708.823 576.471L710.74 569.376C711.036 568.282 712.035 567.517 713.169 567.517H713.393C714.78 567.517 715.908 568.646 715.908 570.033C715.908 570.255 715.88 570.477 715.822 570.69L712.951 581.31H713.004C713.687 581.31 714.349 581.511 714.917 581.89L716.409 582.884V562H692.961V564.759H708.823V576.471Z" fill="white"/>
<path d="M710.177 576.742L707.266 587.517H709.844L712.543 577.531L710.177 576.742Z" fill="white"/>
<path d="M711.77 587.516C712.151 587.516 712.46 587.206 712.46 586.826C712.46 586.447 712.151 586.137 711.77 586.137H711.647L711.273 587.516H711.77Z" fill="white"/>
<path d="M707.141 582.691H706.016C705.471 582.691 704.938 582.912 704.553 583.297L699.582 588.268C699.436 588.414 699.355 588.608 699.355 588.815C699.355 589.241 699.702 589.588 700.129 589.588C700.333 589.588 700.532 589.505 700.676 589.361L704.267 585.77C704.888 585.149 705.706 584.804 706.578 584.773L707.141 582.691Z" fill="white"/>
<path d="M706.793 596.482L706.578 597.339L705.24 597.004L705.457 596.139C704.701 595.705 704.186 594.899 704.186 593.966C704.186 593.744 704.215 593.523 704.273 593.309L704.533 592.344H702.116C701.355 592.344 700.737 591.725 700.737 590.964C700.737 590.931 700.746 590.899 700.747 590.864C700.548 590.924 700.344 590.964 700.131 590.964C698.944 590.964 697.978 589.999 697.978 588.812C697.978 588.237 698.202 587.696 698.609 587.289L699.762 586.137H697.1V584.757H701.142L702.521 583.378H697.1V581.999H703.969C704.56 581.558 705.267 581.309 706.018 581.309H707.444V566.137H683.996V601.999H707.444V596.421C707.275 596.457 707.103 596.482 706.925 596.482H706.793ZM706.065 580.619H697.1V579.24H706.065V580.619ZM685.375 567.516H703.306V574.413H685.375V567.516ZM689.513 584.353L687.646 582.486L688.622 581.511L689.513 582.403L695.922 575.994L696.897 576.969L689.513 584.353ZM696.897 588.693L689.513 596.077L687.646 594.211L688.622 593.235L689.513 594.127L695.922 587.718L696.897 588.693ZM685.375 578.551H690.893V579.93H686.755V585.447H692.272V582.688H693.651V586.826H685.375V578.551ZM693.651 598.551H685.375V590.275H690.893V591.654H686.755V597.171H692.272V594.413H693.651V598.551ZM703.306 599.93H695.72V598.551H703.306V599.93ZM706.065 599.93H704.686V598.551H706.065V599.93Z" fill="white"/>
<path d="M705.964 592.344L705.606 593.669C705.58 593.765 705.566 593.865 705.566 593.965C705.566 594.592 706.076 595.102 706.703 595.102H706.927C707.439 595.102 707.89 594.756 708.024 594.261L708.538 592.359C708.404 592.354 708.27 592.344 708.135 592.344H705.964Z" fill="white"/>
<path d="M705.84 587.516L706.192 586.211C705.837 586.304 705.506 586.481 705.246 586.742L704.473 587.516H705.84Z" fill="white"/>
<path d="M720.884 586.829C720.201 586.829 719.54 586.629 718.971 586.25L714.154 583.039C713.813 582.811 713.416 582.691 713.006 582.691H712.58L712.014 584.785C713.041 584.906 713.841 585.771 713.841 586.829C713.841 587.97 712.913 588.898 711.772 588.898H704.186C703.046 588.898 702.117 589.827 702.117 590.967H708.135C709.25 590.967 710.352 591.146 711.41 591.499L712.572 591.887C714.184 592.424 715.939 592.491 717.588 592.079L720.796 591.277C721.616 591.071 722.462 590.967 723.308 590.967H723.997V586.829H720.884Z" fill="white"/>
<path d="M712.134 593.193L710.973 592.806C710.627 592.691 710.275 592.604 709.919 592.531L709.355 594.623C709.254 594.996 709.066 595.327 708.824 595.606V597.863H716.41V593.664C716.077 593.696 715.744 593.725 715.41 593.725C714.295 593.725 713.192 593.547 712.134 593.193Z" fill="white"/>
</g>
<path d="M581.996 669.5C581.996 690.211 598.785 707 619.496 707C640.207 707 656.996 690.211 656.996 669.5C656.996 648.789 640.207 632 619.496 632C598.785 632 581.996 648.789 581.996 669.5Z" fill="#1E7EDC"/>
<path d="M602.909 665.795C603.66 665.266 604.475 664.836 605.335 664.515C604.975 662.919 604.777 661.292 604.745 659.656H599.844C600.029 662.023 601.129 664.225 602.909 665.795Z" fill="white"/>
<path d="M605.335 653.393C604.475 653.072 603.66 652.642 602.909 652.113C601.129 653.683 600.029 655.885 599.844 658.252H604.745C604.777 656.616 604.975 654.988 605.335 653.393Z" fill="white"/>
<path d="M606.566 650.137C605.694 650.374 604.862 650.739 604.098 651.22C604.611 651.544 605.155 651.817 605.722 652.035C605.934 651.374 606.217 650.737 606.566 650.137Z" fill="white"/>
<path d="M611.745 658.249C611.717 656.744 611.538 655.246 611.211 653.777C610.468 653.943 609.708 654.028 608.947 654.03C608.185 654.028 607.426 653.943 606.683 653.777C606.356 655.246 606.177 656.744 606.148 658.249H611.745Z" fill="white"/>
<path d="M604.098 666.687C604.862 667.168 605.694 667.532 606.566 667.77C606.217 667.169 605.934 666.532 605.722 665.871C605.155 666.089 604.611 666.362 604.098 666.687Z" fill="white"/>
<path d="M611.745 659.656H606.148C606.177 661.161 606.356 662.659 606.683 664.128C608.173 663.791 609.72 663.791 611.211 664.128C611.538 662.659 611.717 661.161 611.745 659.656Z" fill="white"/>
<path d="M611.332 667.77C612.204 667.532 613.035 667.168 613.8 666.687C613.287 666.362 612.743 666.089 612.176 665.871C611.963 666.532 611.68 667.169 611.332 667.77Z" fill="white"/>
<path d="M608.952 665.281C608.32 665.281 607.691 665.35 607.074 665.485C607.637 667.152 608.361 668.094 608.952 668.094C609.542 668.094 610.266 667.152 610.829 665.485C610.212 665.35 609.583 665.281 608.952 665.281Z" fill="white"/>
<path d="M612.562 664.515C613.423 664.836 614.238 665.266 614.988 665.795C616.769 664.225 617.869 662.023 618.054 659.656H613.153C613.121 661.292 612.923 662.919 612.562 664.515Z" fill="white"/>
<path d="M613.8 651.22C613.035 650.739 612.204 650.374 611.332 650.137C611.68 650.737 611.963 651.374 612.176 652.035C612.743 651.817 613.287 651.544 613.8 651.22Z" fill="white"/>
<path d="M610.829 652.421C610.266 650.755 609.542 649.812 608.952 649.812C608.361 649.812 607.637 650.755 607.074 652.421C607.691 652.556 608.32 652.625 608.952 652.625C609.583 652.625 610.212 652.556 610.829 652.421Z" fill="white"/>
<path d="M614.988 652.113C614.238 652.642 613.423 653.072 612.562 653.393C612.923 654.988 613.121 656.616 613.153 658.252H618.054C617.869 655.885 616.769 653.683 614.988 652.113Z" fill="white"/>
<path d="M621.605 673.719C621.419 673.719 621.24 673.793 621.108 673.925C620.976 674.057 620.902 674.235 620.902 674.422V684.969H637.777V674.422C637.777 674.235 637.703 674.057 637.571 673.925C637.44 673.793 637.261 673.719 637.074 673.719H621.605Z" fill="white"/>
<path d="M619.496 686.375V688.484C619.496 688.671 619.57 688.85 619.702 688.982C619.834 689.113 620.013 689.188 620.199 689.188H638.48C638.667 689.188 638.846 689.113 638.978 688.982C639.11 688.85 639.184 688.671 639.184 688.484V686.375H619.496Z" fill="white"/>
<path d="M629.34 660.359C630.116 660.359 630.746 659.73 630.746 658.953C630.746 658.176 630.116 657.547 629.34 657.547C628.563 657.547 627.934 658.176 627.934 658.953C627.934 659.73 628.563 660.359 629.34 660.359Z" fill="white"/>
<path d="M620.902 658.25H622.309V659.656H620.902V658.25Z" fill="white"/>
<path d="M623.715 658.25H625.121V659.656H623.715V658.25Z" fill="white"/>
<path d="M628.637 662.469H630.043V663.875H628.637V662.469Z" fill="white"/>
<path d="M628.637 665.281H630.043V666.688H628.637V665.281Z" fill="white"/>
<path d="M628.637 668.094H630.043V669.5H628.637V668.094Z" fill="white"/>
<path d="M608.949 682.859C609.726 682.859 610.355 682.23 610.355 681.453C610.355 680.676 609.726 680.047 608.949 680.047C608.173 680.047 607.543 680.676 607.543 681.453C607.543 682.23 608.173 682.859 608.949 682.859Z" fill="white"/>
<path d="M615.98 680.75H617.387V682.156H615.98V680.75Z" fill="white"/>
<path d="M613.168 680.75H614.574V682.156H613.168V680.75Z" fill="white"/>
<path d="M608.246 676.531H609.652V677.938H608.246V676.531Z" fill="white"/>
<path d="M608.246 673.719H609.652V675.125H608.246V673.719Z" fill="white"/>
<path d="M608.246 670.906H609.652V672.312H608.246V670.906Z" fill="white"/>
<path d="M635.668 669.5H637.074V652.625C637.074 652.439 637 652.26 636.868 652.128C636.736 651.996 636.558 651.922 636.371 651.922H619.496V653.328H635.668V669.5Z" fill="white"/>
<path d="M603.324 669.5H601.918V686.375C601.918 686.561 601.992 686.74 602.124 686.872C602.256 687.004 602.435 687.078 602.621 687.078H616.684V685.672H603.324V669.5Z" fill="white"/>
<path d="M472.996 715.5C472.996 735.106 488.89 751 508.496 751C528.102 751 543.996 735.106 543.996 715.5C543.996 695.894 528.102 680 508.496 680C488.89 680 472.996 695.894 472.996 715.5Z" fill="#0570D8" stroke="#0570D8" stroke-width="4"/>
<g clip-path="url(#clip2)">
<path d="M505.867 704.363V705.782H514.433C516.129 705.781 517.591 706.967 517.93 708.619H527.995V704.363H505.867ZM520.857 707.909H519.429V705.073H520.857V707.909ZM523.712 707.909H522.284V705.073H523.712V707.909ZM526.567 707.909H525.14V705.073H526.567V707.909Z" fill="white"/>
<path d="M508.422 700.957H510.124V702.659H508.422V700.957Z" fill="white"/>
<path d="M523.742 700.957H525.444V702.659H523.742V700.957Z" fill="white"/>
<path d="M516.081 724.789H487.996V725.64C487.996 727.05 488.939 728.193 490.102 728.193H513.975C515.138 728.193 516.081 727.05 516.081 725.64V724.789ZM513.273 727.342H511.868V725.64H513.273V727.342Z" fill="white"/>
<path d="M523.742 709.469H525.444V711.171H523.742V709.469Z" fill="white"/>
<path d="M517.785 712.871V717.126H527.998V712.871H517.785ZM520.703 716.417H519.244V713.58H520.703V716.417ZM523.621 716.417H522.162V713.58H523.621V716.417ZM526.539 716.417H525.08V713.58H526.539V716.417Z" fill="white"/>
<path d="M523.742 726.488H525.444V727.339H523.742V726.488Z" fill="white"/>
<path d="M527.995 695.852H506.719V700.107H527.995V695.852ZM509.556 698.688H508.137V697.27H509.556V698.688ZM512.393 698.688H510.974V697.27H512.393V698.688ZM515.229 698.688H513.811V697.27H515.229V698.688ZM520.903 699.398H519.485V696.561H520.903V699.398ZM523.74 699.398H522.322V696.561H523.74V699.398ZM526.577 699.398H525.158V696.561H526.577V699.398Z" fill="white"/>
<path d="M523.742 717.98H525.444V719.683H523.742V717.98Z" fill="white"/>
<path d="M495.656 733.297H508.422V734.999H495.656V733.297Z" fill="white"/>
<path d="M517.785 721.383V724.787H527.998V721.383H517.785ZM520.703 724.22H519.244V721.95H520.703V724.22ZM523.621 724.22H522.162V721.95H523.621V724.22ZM526.539 724.22H525.08V721.95H526.539V724.22Z" fill="white"/>
<path d="M516.081 709.042C516.081 707.867 515.138 706.914 513.975 706.914H490.102C488.939 706.914 487.996 707.867 487.996 709.042V723.935H494.35C491.906 720.077 492.637 714.991 496.066 711.994C499.495 708.997 504.582 708.997 508.012 711.994C511.441 714.991 512.171 720.077 509.727 723.935H516.081V709.042Z" fill="white"/>
<path d="M499.53 729.043L499.059 732.447H505.867L505.396 729.043H499.53Z" fill="white"/>
<path d="M494.805 719.67C494.945 721.238 495.549 722.726 496.537 723.938H508.392C509.38 722.726 509.984 721.238 510.124 719.67H509.457V718.248H510.12C510.04 717.361 509.81 716.495 509.44 715.688L508.869 716.023L508.17 714.791L508.741 714.456C508.234 713.729 507.61 713.094 506.895 712.579L506.566 713.159L505.355 712.448L505.684 711.867C504.89 711.49 504.037 711.255 503.164 711.172V711.847H501.765V711.172C500.892 711.253 500.039 711.488 499.244 711.864L499.574 712.444L498.362 713.156L498.033 712.575C497.318 713.091 496.694 713.725 496.188 714.452L496.758 714.787L496.059 716.019L495.489 715.684C495.119 716.491 494.889 717.358 494.808 718.245H495.472V719.667L494.805 719.67ZM503.363 717.039L505.466 714.9L506.455 715.905L504.352 718.045C504.489 718.33 504.561 718.643 504.562 718.959C504.562 720.138 503.623 721.093 502.464 721.093C501.306 721.093 500.367 720.138 500.367 718.959C500.367 717.781 501.306 716.826 502.464 716.826C502.776 716.827 503.083 716.9 503.363 717.039ZM502.464 713.269V714.692C500.148 714.694 498.271 716.603 498.269 718.959H496.87C496.874 715.818 499.376 713.273 502.464 713.269Z" fill="white"/>
<path d="M503.315 718.832C503.315 719.302 502.934 719.683 502.464 719.683C501.994 719.683 501.613 719.302 501.613 718.832C501.613 718.362 501.994 717.98 502.464 717.98C502.934 717.98 503.315 718.362 503.315 718.832Z" fill="white"/>
<path d="M519.026 733.542H511.824V735.001H519.68C520.042 735.001 520.335 734.674 520.335 734.271V729.895H519.026V733.542Z" fill="white"/>
<path d="M522.039 729.895H523.741V731.597H522.039V729.895Z" fill="white"/>
<path d="M522.039 733.297H523.741V734.148H522.039V733.297Z" fill="white"/>
<path d="M491.984 699.068H504.168V697.555H491.267C490.872 697.555 490.551 697.893 490.551 698.311V704.363H491.984V699.068Z" fill="white"/>
<path d="M491.398 695H492.25V696.702H491.398V695Z" fill="white"/>
<path d="M493.953 695H495.655V696.702H493.953V695Z" fill="white"/>
<path d="M496.508 695H498.21V696.702H496.508V695Z" fill="white"/>
<path d="M499.91 695H500.761V696.702H499.91V695Z" fill="white"/>
</g>
<defs>
<clipPath id="clip0">
<rect width="35" height="35" fill="white" transform="translate(743.996 338)"/>
</clipPath>
<clipPath id="clip1">
<rect width="40" height="40" fill="white" transform="translate(683.996 562)"/>
</clipPath>
<clipPath id="clip2">
<rect width="40" height="40" fill="white" transform="translate(487.996 695)"/>
</clipPath>
</defs>
</svg>
