<svg width="170" height="60" viewBox="0 0 170 60" fill="none" xmlns="http://www.w3.org/2000/svg">
<path d="M114.019 45.4856V33.5965C114.019 31.3597 112.621 29.9512 110.522 29.9512C108.097 29.9929 106.558 31.7738 106.558 34.3424V45.4856H97.1373V33.5965C97.1373 31.3597 95.7382 29.9512 93.6401 29.9512C91.168 29.9929 89.629 31.7738 89.629 34.3424V45.4856H80.2085V22.95H89.629V26.3883C91.3544 23.9443 94.0597 22.6188 97.5105 22.6188C101.475 22.6188 104.506 24.4416 105.858 27.5073C107.49 24.359 110.475 22.6188 114.439 22.6188C119.802 22.6188 123.44 25.9744 123.44 31.1939V45.4856H114.019ZM65.9845 36.0407H61.6937C59.8284 36.0407 58.8489 36.7454 58.8489 38.1534C58.8489 39.5621 59.8749 40.3903 61.6937 40.3903C63.6058 40.3903 65.2847 39.479 65.9845 38.0703V36.0407ZM65.9845 45.4856V43.0002C64.4455 44.8226 61.9269 45.8589 58.5691 45.8589C53.1593 45.8589 49.9883 43.0002 49.9883 38.7751C49.9883 34.4255 53.393 32.0225 59.7815 31.9396H65.9845V31.8567C65.9845 29.9929 64.492 28.8741 61.6003 28.8741C59.5952 28.8741 56.7508 29.4127 53.9525 30.4896L51.6203 24.9385C55.7708 23.4473 59.8749 22.6188 63.8387 22.6188C70.9748 22.6188 75.2183 25.6427 75.2183 30.8624V45.4856H65.9845ZM35.0181 28.3359C32.7797 28.3359 31.3336 29.8682 30.8675 32.1468H38.842C38.8884 29.9098 37.3029 28.3359 35.0181 28.3359ZM48.1226 36.2479H31.0539C31.8002 38.4017 33.572 39.6032 35.9972 39.6032C38.0023 39.6032 39.9145 38.8162 41.5938 37.4494L46.4902 41.7161C43.8317 44.3261 40.0079 45.776 35.2044 45.776C26.7166 45.776 21.5404 41.2192 21.5404 34.3013C21.5404 27.2586 26.9033 22.6601 34.9247 22.6601C43.8317 22.6601 48.6821 27.9629 48.1226 36.2479ZM13.2384 37.1591C13.2384 38.609 14.0781 39.3137 15.3839 39.3137C16.1302 39.3137 17.1562 39.0234 18.2751 38.6509L19.954 44.4092C18.1822 45.3204 15.4773 45.8589 12.9122 45.8589C7.50285 45.9004 3.86485 43.1245 3.86485 38.4437V29.454H0.367188V24.1099H3.86485V17.855H13.2384V24.1099H19.4875V29.454H13.2384V37.1591Z" fill="#4069BC"/>
<path d="M138.472 59.9523V55.1439C138.472 53.6577 137.475 52.7716 135.819 52.7716C133.967 52.7874 132.827 53.8791 132.668 55.4918V59.9523H131.279V51.6328H132.668V53.4677C133.326 52.2021 134.59 51.6011 136.3 51.5855C138.543 51.5855 139.861 52.8031 139.861 54.8277V59.9523H138.472ZM121.238 52.6769C119.261 52.6769 117.873 53.9573 117.873 55.7924C117.873 57.6585 119.261 58.924 121.238 58.924C123.197 58.924 124.603 57.6585 124.603 55.7924C124.603 53.9573 123.197 52.6769 121.238 52.6769ZM121.238 59.9997C118.442 59.9997 116.483 58.2602 116.483 55.7766C116.483 53.3093 118.442 51.5855 121.238 51.5855C124.016 51.5855 125.992 53.3093 125.992 55.7766C125.992 58.2602 124.016 59.9997 121.238 59.9997ZM111.196 59.9523H109.825V51.6328H111.196V59.9523ZM110.502 50.0825C109.986 50.0825 109.594 49.7193 109.594 49.2447C109.594 48.7543 109.986 48.4064 110.502 48.4064C111.018 48.4064 111.41 48.7543 111.41 49.2447C111.41 49.7193 111.018 50.0825 110.502 50.0825ZM101.743 57.4378C101.743 58.4494 102.187 58.8609 102.989 58.8609C103.47 58.8448 103.968 58.7026 104.484 58.4344L104.876 59.383C104.218 59.7781 103.505 59.9997 102.757 59.9997C101.387 60.0156 100.371 59.2877 100.371 57.6436V52.8511H99.0178V51.8859H100.371V49.7027H101.743V51.8859H104.716V52.8511H101.743V57.4378ZM92.4139 59.9523V58.0696C91.7906 59.3671 90.5445 59.984 88.8529 59.9997C86.6628 59.9997 85.3456 58.7665 85.3456 56.7574V51.6328H86.7343V56.4411C86.7343 57.9282 87.7134 58.8131 89.3335 58.8131C91.2744 58.7815 92.4139 57.5167 92.4139 55.7134V51.6328H93.803V59.9523H92.4139ZM77.9566 59.9523V48.2164H79.3458V59.9523H77.9566ZM67.8268 52.6769C65.8508 52.6769 64.4617 53.9573 64.4617 55.7924C64.4617 57.6585 65.8508 58.924 67.8268 58.924C69.7854 58.924 71.1918 57.6585 71.1918 55.7924C71.1918 53.9573 69.7854 52.6769 67.8268 52.6769ZM67.8268 59.9997C65.0316 59.9997 63.0725 58.2602 63.0725 55.7766C63.0725 53.3093 65.0316 51.5855 67.8268 51.5855C70.6041 51.5855 72.581 53.3093 72.581 55.7766C72.581 58.2602 70.6041 59.9997 67.8268 59.9997ZM54.1003 50.0676C52.498 50.0676 51.4474 50.6361 51.4474 51.5855C51.4474 54.4635 58.4627 52.9615 58.445 56.979C58.445 58.8131 56.6107 59.9997 53.94 59.9997C52.1239 59.9997 50.343 59.3035 49.168 58.3077L49.8095 57.2163C50.9667 58.1963 52.5508 58.7665 53.9577 58.7665C55.756 58.7665 56.8777 58.1174 56.8777 57.0421C56.8955 54.0842 49.8801 55.6502 49.8801 51.6803C49.8801 49.9407 51.6073 48.8335 54.1892 48.8335C55.6316 48.8335 57.1091 49.2447 58.1424 49.8618L57.5369 50.984C56.4153 50.3356 55.0972 50.0676 54.1003 50.0676Z" fill="#4069BC"/>
<path fill-rule="evenodd" clip-rule="evenodd" d="M7.06766 0.981554C10.8332 0.981554 13.8853 3.69574 13.8853 7.04331C13.8853 10.3913 10.8332 13.1055 7.06766 13.1055C3.30255 13.1055 0.25 10.3913 0.25 7.04331C0.25 3.69574 3.30255 0.981554 7.06766 0.981554Z" fill="#F47116"/>
<path fill-rule="evenodd" clip-rule="evenodd" d="M158.524 30.7669V11.9994C158.524 11.9994 157.564 8.5874 153.146 7.56361H143.925C143.925 7.56361 140.276 9.26979 140.084 10.6346L116.264 35.8852C116.264 35.8852 112.038 45.2694 123.564 46.8046H143.157C143.157 46.8046 143.541 57.2114 158.14 56.018V47.1456C158.14 47.1456 170.242 44.246 168.897 31.7906C168.897 31.7906 163.327 37.7622 149.304 36.2269H131.632L143.541 23.9427C143.541 23.9427 143.925 33.1555 158.524 30.7669Z" fill="#F47116"/>
</svg>
