<svg width="36" height="36" viewBox="0 0 36 36" fill="none" xmlns="http://www.w3.org/2000/svg">
<path d="M7.15234 3.00609V5.64453H8.03182H8.9113V4.61853V3.59253H9.60754H10.3038V4.61853V5.64453H11.22H12.1362L12.1214 3.02085L12.0995 0.404372L11.2052 0.382411L10.3038 0.360451V1.35729V2.34657H9.60754H8.9113V1.35729V0.367651H8.03182H7.15234V3.00609Z" fill="#F6821F"/>
<path d="M12.7969 0.983612V1.60641L13.4053 1.62837L14.0061 1.65033L14.0281 3.64365L14.0428 5.64453H14.8856H15.7284V3.62925V1.61397H16.3512H16.9815L16.9596 1.00557L16.9376 0.404732L14.8708 0.382772L12.7969 0.368011V0.983612Z" fill="#F6821F"/>
<path d="M17.6332 3.00609V5.64453H18.3294H19.0257L19.0329 3.82689V2.01681L19.4361 3.33585C19.656 4.06125 19.9051 4.87485 19.9858 5.14593L20.1323 5.64417H20.704H21.2757L21.7739 3.89997C22.0522 2.94741 22.3017 2.11185 22.3308 2.05317C22.3675 1.99449 22.3967 2.77857 22.3967 3.79017V5.64417H23.0929H23.7892V3.00573V0.367651H22.7412H21.6861L21.2901 1.72341C21.0777 2.47113 20.8797 3.07917 20.8577 3.07917C20.8357 3.07917 20.6305 2.47833 20.4106 1.73817L20.0074 0.404372L18.8201 0.382411L17.6328 0.367651V3.00609H17.6332Z" fill="#F6821F"/>
<path d="M24.7422 3.00609V5.64453H26.7942H28.8462V5.02173V4.39893H27.7104H26.5746V2.38365V0.367651H25.6584H24.7422V3.00609Z" fill="#F6821F"/>
<path d="M5.6875 7.93106C5.6875 8.42211 7.67362 31.1849 7.71754 31.2288C7.79818 31.3023 17.7212 35.6406 17.8163 35.6406C17.8749 35.6406 27.7317 31.6759 27.8052 31.6245C27.8199 31.6097 30.3115 8.05563 30.3115 7.89435C30.3115 7.86483 24.7711 7.84286 17.9995 7.84286C8.20102 7.84323 5.6875 7.86518 5.6875 7.93106ZM24.9615 14.8787V16.2712H19.172H13.3825V17.7004V19.1296H19.172H24.9615V23.3657V27.6015L21.4292 29.0814C19.4798 29.895 17.8602 30.5617 17.8235 30.5617C17.7795 30.5617 16.1599 29.895 14.2105 29.0814L10.6706 27.5935V25.93V24.2589H12.0264H13.3749L13.3969 25.0066L13.4189 25.7539L15.6174 26.4793L17.8087 27.1975L19.9341 26.4793C22.0081 25.7759 22.0596 25.7539 22.1107 25.5412C22.1402 25.4166 22.1766 24.5371 22.1989 23.5774L22.2356 21.8404H16.4533H10.671V17.6637V13.4862H17.8163H24.9615V14.8787Z" fill="#F6821F"/>
</svg>
