<svg width="30" height="30" viewBox="0 0 30 30" fill="none" xmlns="http://www.w3.org/2000/svg">
<g clip-path="url(#clip0)">
<path d="M28.7499 13.75H16.25V1.25002C16.25 0.559643 15.6904 0 15 0C14.3096 0 13.75 0.559643 13.75 1.25002V13.75H1.25002C0.559643 13.75 0 14.3096 0 15C0 15.6904 0.559643 16.25 1.25002 16.25H13.75V28.75C13.75 29.4404 14.3097 30 15.0001 30C15.6904 30 16.2501 29.4404 16.2501 28.75V16.25H28.7501C29.4405 16.25 30.0001 15.6904 30.0001 15C30.0001 14.3096 29.4403 13.75 28.7499 13.75Z" fill="#0570D8"/>
</g>
<path d="M1.79993 16.7992H28.1998C29.1941 16.7992 30 16.2173 30 15.4991C30 14.7811 29.1944 14.1992 28.1998 14.1992H1.79993C0.805878 14.1994 0 14.7813 0 15.4993C0 16.2173 0.805878 16.7992 1.79993 16.7992Z" fill="#0570D8"/>
<defs>
<clipPath id="clip0">
<rect width="30" height="30" fill="white"/>
</clipPath>
</defs>
</svg>
