<svg width="1438" height="151" viewBox="0 0 1438 151" fill="none" xmlns="http://www.w3.org/2000/svg">
<g opacity="0.2">
<path fill-rule="evenodd" clip-rule="evenodd" d="M0 49.7924L24 47.057C48 43.9309 96 38.4602 144 55.263C192 72.0659 240 111.533 288 114.268C336 117.394 384 83.398 432 80.6626C480 77.9273 528 106.062 576 117.394C624 128.336 672 122.865 720 108.798C768 94.7301 816 72.0659 864 55.263C912 38.4602 960 27.1281 1008 21.6574C1056 15.796 1104 15.796 1152 10.3253C1200 4.85461 1248 -6.47752 1296 4.85461C1344 15.796 1392 49.7924 1416 66.5952L1440 83.398V151H1416C1392 151 1344 151 1296 151C1248 151 1200 151 1152 151C1104 151 1056 151 1008 151C960 151 912 151 864 151C816 151 768 151 720 151C672 151 624 151 576 151C528 151 480 151 432 151C384 151 336 151 288 151C240 151 192 151 144 151C96 151 48 151 24 151H0V49.7924Z" fill="url(#paint0_linear)"/>
</g>
<defs>
<linearGradient id="paint0_linear" x1="0" y1="75.5" x2="1440" y2="75.5" gradientUnits="userSpaceOnUse">
<stop stop-color="#1488CC"/>
<stop offset="1" stop-color="#2B32B2"/>
</linearGradient>
</defs>
</svg>
