<svg width="1440" height="431" viewBox="0 0 1440 431" fill="none" xmlns="http://www.w3.org/2000/svg">
<g opacity="0.2">
<path opacity="0.1" fill-rule="evenodd" clip-rule="evenodd" d="M0 128.423L24 121.423C48 113.423 96 99.4234 144 142.423C192 185.423 240 286.423 288 293.423C336 301.423 384 214.423 432 207.423C480 200.423 528 272.423 576 301.423C624 329.423 672 315.423 720 279.423C768 243.423 816 185.423 864 142.423C912 99.4234 960 70.4234 1008 56.4234C1056 41.4234 1104 41.4234 1152 27.4234C1200 13.4234 1248 -15.5766 1296 13.4234C1344 41.4234 1392 128.423 1416 171.423L1440 214.423V387.423H1416C1392 387.423 1344 387.423 1296 387.423C1248 387.423 1200 387.423 1152 387.423C1104 387.423 1056 387.423 1008 387.423C960 387.423 912 387.423 864 387.423C816 387.423 768 387.423 720 387.423C672 387.423 624 387.423 576 387.423C528 387.423 480 387.423 432 387.423C384 387.423 336 387.423 288 387.423C240 387.423 192 387.423 144 387.423C96 387.423 48 387.423 24 387.423H0V128.423Z" stroke="black" stroke-width="2"/>
<path fill-rule="evenodd" clip-rule="evenodd" d="M0 171.423L24 164.423C48 156.423 96 142.423 144 185.423C192 228.423 240 329.423 288 336.423C336 344.423 384 257.423 432 250.423C480 243.423 528 315.423 576 344.423C624 372.423 672 358.423 720 322.423C768 286.423 816 228.423 864 185.423C912 142.423 960 113.423 1008 99.4234C1056 84.4234 1104 84.4234 1152 70.4234C1200 56.4234 1248 27.4234 1296 56.4234C1344 84.4234 1392 171.423 1416 214.423L1440 257.423V430.423H1416C1392 430.423 1344 430.423 1296 430.423C1248 430.423 1200 430.423 1152 430.423C1104 430.423 1056 430.423 1008 430.423C960 430.423 912 430.423 864 430.423C816 430.423 768 430.423 720 430.423C672 430.423 624 430.423 576 430.423C528 430.423 480 430.423 432 430.423C384 430.423 336 430.423 288 430.423C240 430.423 192 430.423 144 430.423C96 430.423 48 430.423 24 430.423H0V171.423Z" fill="url(#paint0_linear)"/>
</g>
<defs>
<linearGradient id="paint0_linear" x1="0" y1="237.212" x2="1440" y2="237.212" gradientUnits="userSpaceOnUse">
<stop stop-color="#1488CC"/>
<stop offset="1" stop-color="#2B32B2"/>
</linearGradient>
</defs>
</svg>
