<svg width="38" height="38" viewBox="0 0 38 38" fill="none" xmlns="http://www.w3.org/2000/svg">
<path d="M4.995 15.8709C5.6286 15.4243 6.31707 15.0611 7.04344 14.7903C6.73921 13.443 6.57211 12.0684 6.54469 10.6875H2.40625C2.5628 12.6861 3.49129 14.5452 4.995 15.8709Z" fill="#1E7EDC"/>
<path d="M7.04344 5.39703C6.31707 5.12624 5.6286 4.76304 4.995 4.31641C3.49129 5.64217 2.5628 7.50128 2.40625 9.49985H6.54469C6.57211 8.11892 6.73921 6.74431 7.04344 5.39703Z" fill="#1E7EDC"/>
<path d="M8.08406 2.64844C7.34803 2.84865 6.64572 3.15678 6 3.56281C6.43344 3.83692 6.89285 4.06762 7.37156 4.25156C7.55096 3.69321 7.78983 3.15575 8.08406 2.64844Z" fill="#1E7EDC"/>
<path d="M12.4567 9.49891C12.4329 8.22824 12.2817 6.96317 12.0055 5.72266C11.3778 5.86278 10.7367 5.93445 10.0936 5.93641C9.45045 5.93445 8.80941 5.86278 8.18172 5.72266C7.9055 6.96317 7.75433 8.22824 7.73047 9.49891H12.4567Z" fill="#1E7EDC"/>
<path d="M6 16.6262C6.64572 17.0323 7.34803 17.3404 8.08406 17.5406C7.78983 17.0333 7.55096 16.4958 7.37156 15.9375C6.89285 16.1214 6.43344 16.3521 6 16.6262Z" fill="#1E7EDC"/>
<path d="M12.4567 10.6875H7.73047C7.75433 11.9582 7.9055 13.2232 8.18172 14.4637C9.44037 14.1788 10.7468 14.1788 12.0055 14.4637C12.2817 13.2232 12.4329 11.9582 12.4567 10.6875Z" fill="#1E7EDC"/>
<path d="M12.1094 17.5406C12.8454 17.3404 13.5477 17.0323 14.1934 16.6262C13.76 16.3521 13.3006 16.1214 12.8219 15.9375C12.6425 16.4958 12.4036 17.0333 12.1094 17.5406Z" fill="#1E7EDC"/>
<path d="M10.097 15.4375C9.56394 15.4377 9.03242 15.4954 8.51172 15.6097C8.98672 17.0169 9.59828 17.8125 10.097 17.8125C10.5958 17.8125 11.2073 17.0169 11.6823 15.6097C11.1616 15.4954 10.6301 15.4377 10.097 15.4375Z" fill="#1E7EDC"/>
<path d="M13.1484 14.7903C13.8748 15.0611 14.5633 15.4243 15.1969 15.8709C16.7006 14.5452 17.6291 12.6861 17.7856 10.6875H13.6472C13.6198 12.0684 13.4527 13.443 13.1484 14.7903Z" fill="#1E7EDC"/>
<path d="M14.1934 3.56281C13.5477 3.15678 12.8454 2.84865 12.1094 2.64844C12.4036 3.15575 12.6425 3.69321 12.8219 4.25156C13.3006 4.06762 13.76 3.83692 14.1934 3.56281Z" fill="#1E7EDC"/>
<path d="M11.6823 4.57781C11.2073 3.17063 10.5958 2.375 10.097 2.375C9.59828 2.375 8.98672 3.17063 8.51172 4.57781C9.03242 4.69207 9.56394 4.7498 10.097 4.75C10.6301 4.7498 11.1616 4.69207 11.6823 4.57781Z" fill="#1E7EDC"/>
<path d="M15.1969 4.31641C14.5633 4.76304 13.8748 5.12624 13.1484 5.39703C13.4527 6.74431 13.6198 8.11892 13.6472 9.49985H17.7856C17.6291 7.50128 16.7006 5.64217 15.1969 4.31641Z" fill="#1E7EDC"/>
<path d="M20.7813 22.5625C20.6238 22.5625 20.4728 22.6251 20.3614 22.7364C20.2501 22.8478 20.1875 22.9988 20.1875 23.1562V32.0625H34.4375V23.1562C34.4375 22.9988 34.3749 22.8478 34.2636 22.7364C34.1522 22.6251 34.0012 22.5625 33.8438 22.5625H20.7813Z" fill="#1E7EDC"/>
<path d="M19 33.25V35.0312C19 35.1887 19.0626 35.3397 19.1739 35.4511C19.2853 35.5624 19.4363 35.625 19.5938 35.625H35.0312C35.1887 35.625 35.3397 35.5624 35.4511 35.4511C35.5624 35.3397 35.625 35.1887 35.625 35.0312V33.25H19Z" fill="#1E7EDC"/>
<path d="M27.3125 11.2812C27.9683 11.2812 28.5 10.7496 28.5 10.0938C28.5 9.43791 27.9683 8.90625 27.3125 8.90625C26.6567 8.90625 26.125 9.43791 26.125 10.0938C26.125 10.7496 26.6567 11.2812 27.3125 11.2812Z" fill="#1E7EDC"/>
<path d="M20.1875 9.5H21.375V10.6875H20.1875V9.5Z" fill="#1E7EDC"/>
<path d="M22.5625 9.5H23.75V10.6875H22.5625V9.5Z" fill="#1E7EDC"/>
<path d="M26.7188 13.0625H27.9062V14.25H26.7188V13.0625Z" fill="#1E7EDC"/>
<path d="M26.7188 15.4375H27.9062V16.625H26.7188V15.4375Z" fill="#1E7EDC"/>
<path d="M26.7188 17.8125H27.9062V19H26.7188V17.8125Z" fill="#1E7EDC"/>
<path d="M10.0938 30.2812C10.7496 30.2812 11.2813 29.7496 11.2813 29.0938C11.2813 28.4379 10.7496 27.9062 10.0938 27.9062C9.43791 27.9062 8.90625 28.4379 8.90625 29.0938C8.90625 29.7496 9.43791 30.2812 10.0938 30.2812Z" fill="#1E7EDC"/>
<path d="M16.0312 28.5H17.2188V29.6875H16.0312V28.5Z" fill="#1E7EDC"/>
<path d="M13.6562 28.5H14.8438V29.6875H13.6562V28.5Z" fill="#1E7EDC"/>
<path d="M9.5 24.9375H10.6875V26.125H9.5V24.9375Z" fill="#1E7EDC"/>
<path d="M9.5 22.5625H10.6875V23.75H9.5V22.5625Z" fill="#1E7EDC"/>
<path d="M9.5 20.1875H10.6875V21.375H9.5V20.1875Z" fill="#1E7EDC"/>
<path d="M32.6563 19H33.8438V4.75C33.8438 4.59253 33.7812 4.44151 33.6698 4.33016C33.5585 4.21881 33.4075 4.15625 33.25 4.15625H19V5.34375H32.6563V19Z" fill="#1E7EDC"/>
<path d="M5.34375 19H4.15625V33.25C4.15625 33.4075 4.21881 33.5585 4.33016 33.6698C4.44151 33.7812 4.59253 33.8438 4.75 33.8438H16.625V32.6562H5.34375V19Z" fill="#1E7EDC"/>
</svg>
