<svg width="38" height="33" viewBox="0 0 38 33" fill="none" xmlns="http://www.w3.org/2000/svg">
<g clip-path="url(#clip0)">
<path d="M28.9709 6.87379C28.9959 6.79405 29.0083 6.71154 29.0083 6.62903C29.0083 6.11202 28.5243 5.69141 27.9287 5.69141H27.7162C27.2297 5.69141 26.801 5.97644 26.674 6.38456L25.9219 8.80127L28.1692 9.45163L28.9709 6.87379Z" fill="#378DE0"/>
<path d="M27.824 10.5527L25.5767 9.90234L25.2148 11.0636L27.4622 11.714L27.824 10.5527Z" fill="#378DE0"/>
<path d="M2.62109 9.10129H17.0349V5.6875H2.62109V9.10129ZM14.4142 6.82543H15.7245V7.96336H14.4142V6.82543ZM11.7935 6.82543H13.1039V7.96336H11.7935V6.82543ZM9.17282 6.82543H10.4832V7.96336H9.17282V6.82543ZM6.55213 6.82543H7.86247V7.96336H6.55213V6.82543ZM3.93144 6.82543H5.24178V7.96336H3.93144V6.82543Z" fill="#378DE0"/>
<path d="M23.5846 11.9386L25.4058 6.08554C25.687 5.18264 26.6359 4.55172 27.7133 4.55172H27.9257C29.2441 4.55172 30.3158 5.48324 30.3158 6.62728C30.3158 6.81064 30.2883 6.99316 30.2332 7.16958L27.5063 15.931H27.5569C28.2057 15.931 28.834 16.0966 29.3737 16.4089L30.7915 17.2295V0H8.51562V2.27586H23.5846V11.9386Z" fill="#378DE0"/>
<path d="M24.8714 12.1602L22.1055 21.0497H24.555L27.1194 12.8105L24.8714 12.1602Z" fill="#378DE0"/>
<path d="M26.3862 21.052C26.7474 21.052 27.0414 20.7964 27.0414 20.483C27.0414 20.1697 26.7474 19.9141 26.3862 19.9141H26.2685L25.9141 21.052H26.3862Z" fill="#378DE0"/>
<path d="M21.99 17.0703H20.9209C20.4033 17.0703 19.8975 17.2523 19.5312 17.5698L14.8094 21.6709C14.6705 21.7915 14.5938 21.9515 14.5938 22.1221C14.5938 22.4738 14.9233 22.76 15.3289 22.76C15.5221 22.76 15.7115 22.6916 15.8484 22.5727L19.2599 19.6101C19.8495 19.0981 20.6266 18.8136 21.4555 18.7875L21.99 17.0703Z" fill="#378DE0"/>
<path d="M21.6568 28.4485L21.4531 29.1559L20.1821 28.8797L20.3878 28.1663C19.6696 27.8079 19.1801 27.1428 19.1801 26.3735C19.1801 26.1902 19.2076 26.0077 19.2626 25.8312L19.5103 25.0347H17.214C16.4913 25.0347 15.9036 24.5244 15.9036 23.8968C15.9036 23.869 15.9122 23.8426 15.9135 23.8143C15.7248 23.8632 15.5303 23.8968 15.3284 23.8968C14.2007 23.8968 13.2829 23.1003 13.2829 22.121C13.2829 21.6465 13.496 21.2006 13.8824 20.8647L14.9778 19.9141H12.4483V18.7761H16.2881L17.5985 17.6382H12.4483V16.5003H18.9744C19.5358 16.1366 20.2073 15.9313 20.9204 15.9313H22.2759V3.41406H0V33.0003H22.2759V28.3985C22.1153 28.428 21.9515 28.4485 21.7826 28.4485H21.6568ZM20.9655 15.3623H12.4483V14.2244H20.9655V15.3623ZM1.31034 4.55199H18.3448V10.2416H1.31034V4.55199ZM5.24138 18.4427L3.46781 16.9025L4.39426 16.098L5.24138 16.8336L11.3299 11.5463L12.2563 12.3508L5.24138 18.4427ZM12.2563 22.0232L5.24138 28.1152L3.46781 26.575L4.39426 25.7704L5.24138 26.5061L11.3299 21.2187L12.2563 22.0232ZM1.31034 13.6554H6.55172V14.7934H2.62069V19.3451H7.86207V17.0692H9.17241V20.483H1.31034V13.6554ZM9.17241 30.1554H1.31034V23.3278H6.55172V24.4658H2.62069V29.0175H7.86207V26.7416H9.17241V30.1554ZM18.3448 31.2934H11.1379V30.1554H18.3448V31.2934ZM20.9655 31.2934H19.6552V30.1554H20.9655V31.2934Z" fill="#378DE0"/>
<path d="M20.8697 25.0352L20.5296 26.1281C20.5047 26.2078 20.4922 26.2903 20.4922 26.3728C20.4922 26.8899 20.9765 27.3105 21.5719 27.3105H21.7843C22.2712 27.3105 22.6996 27.0254 22.8266 26.6168L23.3147 25.0477C23.1877 25.0438 23.0604 25.0352 22.9328 25.0352H20.8697Z" fill="#378DE0"/>
<path d="M20.7516 21.0492L21.0866 19.9727C20.7497 20.0491 20.4352 20.1957 20.1876 20.4108L19.4531 21.0492H20.7516Z" fill="#378DE0"/>
<path d="M35.0433 20.4841C34.3949 20.4841 33.7666 20.3185 33.2259 20.0063L28.6503 17.357C28.3259 17.1692 27.9487 17.0703 27.5594 17.0703H27.1544L26.6173 18.7972C27.592 18.8972 28.3528 19.6107 28.3528 20.4841C28.3528 21.4251 27.4711 22.191 26.3873 22.191H19.1804C18.0968 22.191 17.2148 22.9569 17.2148 23.8979H22.9319C23.9915 23.8979 25.0382 24.0451 26.0434 24.3366L27.1474 24.6563C28.6784 25.0995 30.3452 25.1547 31.9117 24.815L34.9595 24.1535C35.7391 23.9838 36.5424 23.8979 37.3457 23.8979H38.0009V20.4841H35.0433Z" fill="#378DE0"/>
<path d="M26.7306 25.7337L25.627 25.4139C25.2984 25.3189 24.9638 25.2472 24.6263 25.1875L24.0898 26.913C23.9941 27.2208 23.816 27.4942 23.5859 27.7245V29.5861H30.7928V26.1218C30.4764 26.1485 30.1601 26.1724 29.8421 26.1724C28.7828 26.1724 27.7358 26.0251 26.7306 25.7337Z" fill="#378DE0"/>
</g>
<defs>
<clipPath id="clip0">
<rect width="38" height="33" fill="white"/>
</clipPath>
</defs>
</svg>
