<svg width="43" height="41" viewBox="0 0 43 41" fill="none" xmlns="http://www.w3.org/2000/svg">
<path d="M18.1305 22.4155H18.1406V21.1406H15.4531V22.4219H18.1265L18.1305 22.4155Z" fill="#509BE4"/>
<path d="M11.4219 21.1406H8.73438V21.4328V22.3975L8.75117 22.4219H11.4219V21.1406Z" fill="#509BE4"/>
<path d="M17.7464 23.7031H15.4533C14.7122 23.7031 14.1095 23.1285 14.1095 22.4219V21.7812H12.7658V22.4219C12.7658 23.1285 12.1631 23.7031 11.422 23.7031H9.12891C9.81892 25.6916 11.3871 27.3303 13.4376 28.1395C15.4882 27.3303 17.0557 25.6916 17.7464 23.7031Z" fill="#509BE4"/>
<path d="M21.9031 32.6197L17.2685 30.8522L16.6296 35.1162L13.4375 32.833L10.2454 35.1156L9.60647 30.8516L4.97187 32.6197C3.17595 33.3045 2.01562 34.9388 2.01562 36.7838V39.0791H4.70312V35.2354H6.04688V39.0791H20.8281V35.2354H22.1719V39.0791H24.8594V36.7838C24.8594 34.9388 23.6984 33.3045 21.9031 32.6197ZM14.1094 37.7979H12.7656V36.5166H14.1094V37.7979ZM14.1094 35.2354H12.7656V33.9541H14.1094V35.2354Z" fill="#509BE4"/>
<path d="M17.4688 19.2177H15.7703C13.8319 19.2177 11.8915 18.8083 10.1319 18.0312L9.03336 18.7295C8.84591 18.8487 8.73438 19.0479 8.73438 19.2625V19.8583H11.4219C11.917 19.8583 12.3457 20.1178 12.5788 20.4989H14.2962C14.5293 20.1178 14.958 19.8583 15.4531 19.8583H18.1406C18.1406 19.5053 17.8396 19.2177 17.4688 19.2177Z" fill="#509BE4"/>
<path d="M14.7812 29.2573V28.9453C14.4258 29.1292 14.0576 29.2932 13.674 29.4303L13.4375 29.5142L13.201 29.4303C12.8174 29.2932 12.4485 29.1285 12.0938 28.9453V29.2573L13.4375 30.9652L14.7812 29.2573Z" fill="#509BE4"/>
<path d="M15.9847 30.3614L15.6823 30.2461L14.3789 31.9034L15.6212 32.7919L15.9847 30.3614Z" fill="#509BE4"/>
<path d="M7.39062 19.2653C7.39062 18.6215 7.72589 18.0238 8.28825 17.6663L10.0298 16.5593L10.3791 16.7253C12.044 17.5196 13.9085 17.9392 15.7703 17.9392H17.4688C18.58 17.9392 19.4844 18.8015 19.4844 19.8611C19.9762 19.8611 20.431 19.9969 20.8281 20.2173V17.512C20.8281 16.0135 20.1643 14.6022 19.0282 13.599C18.1997 14.7432 16.2641 15.3767 13.4375 15.3767V14.0955C15.7111 14.0955 18.1406 13.5907 18.1406 12.1736C18.1406 11.1595 17.4096 10.3318 16.901 9.87891C15.5915 11.3235 13.6606 12.1736 11.6456 12.1736C8.55834 12.1736 6.04688 14.5683 6.04688 17.512V20.2173C6.44395 19.9969 6.89881 19.8611 7.39062 19.8611V19.2653Z" fill="#509BE4"/>
<path d="M19.4846 22.4219C19.4846 22.6378 19.4235 22.8376 19.324 23.0164C19.2777 23.2502 19.2065 23.4757 19.1406 23.7031H19.4846C20.2257 23.7031 20.8284 23.1285 20.8284 22.4219C20.8284 21.7153 20.2257 21.1406 19.4846 21.1406V22.4219Z" fill="#509BE4"/>
<path d="M10.8906 30.3614L11.2541 32.7919L12.4964 31.9034L11.193 30.2461L10.8906 30.3614Z" fill="#509BE4"/>
<path d="M7.39062 23.7031H7.73462C7.66878 23.4757 7.59689 23.2502 7.5512 23.0164C7.45177 22.8376 7.39062 22.6378 7.39062 22.4219V21.4328V21.1406C6.64955 21.1406 6.04688 21.7153 6.04688 22.4219C6.04688 23.1285 6.64955 23.7031 7.39062 23.7031Z" fill="#509BE4"/>
<path d="M28.8906 21.1406C33.3364 21.1406 36.9531 17.6921 36.9531 13.4531C36.9531 9.21411 33.3364 5.76562 28.8906 5.76562C24.4448 5.76562 20.8281 9.21411 20.8281 13.4531C20.8281 13.5069 20.8308 13.5607 20.8322 13.6139C21.6868 14.7325 22.1719 16.0893 22.1719 17.5102V17.6883C23.6722 19.8498 26.1668 21.1406 28.8906 21.1406ZM31.0534 10.6504L32.1029 9.85025L35.1256 13.4531L32.1029 17.0566L31.0534 16.2565L33.4056 13.4531L31.0534 10.6504ZM28.8973 8.87778L30.2277 9.05908L28.8839 18.0278L27.5536 17.8465L28.8973 8.87778ZM25.6784 9.84961L26.7279 10.6498L24.3756 13.4531L26.7279 16.2559L25.6784 17.056L22.6556 13.4531L25.6784 9.84961Z" fill="#509BE4"/>
<path d="M39.4449 11.5031L39.3602 11.1526C39.0942 10.0476 38.636 8.99566 37.999 8.02575L37.7988 7.72081L38.5271 6.33194L36.361 4.2672L34.905 4.961L34.5845 4.77009C33.5673 4.16214 32.4641 3.72588 31.3051 3.47219L30.9369 3.39211L30.4236 1.92188H27.3605L26.8466 3.39147L26.479 3.47219C25.3201 3.72588 24.2168 4.16278 23.1996 4.77009L22.8791 4.961L21.4232 4.2672L19.2577 6.33194L19.986 7.72081L19.7858 8.02575C19.372 8.65548 19.0367 9.32622 18.7773 10.02C19.1731 10.6036 19.4862 11.3314 19.4862 12.1719C19.4862 12.2122 19.4801 12.2494 19.4781 12.2891C19.507 12.3103 19.5359 12.3314 19.5641 12.3532C20.1359 7.92581 24.0972 4.48438 28.8924 4.48438C34.0793 4.48438 38.2987 8.5075 38.2987 13.4531C38.2987 18.3988 34.0793 22.4219 28.8924 22.4219C26.3212 22.4219 23.9239 21.4379 22.1737 19.7287V22.279L22.8832 21.9472L23.2003 22.1362C24.2175 22.7441 25.3207 23.1804 26.4797 23.4341L26.8479 23.5141L27.3612 24.9844H30.4243L30.9383 23.5148L31.3065 23.4347C32.4654 23.181 33.5687 22.7441 34.5859 22.1368L34.9064 21.9459L36.3623 22.6397L38.5284 20.575L37.8001 19.1861L38.0004 18.8811C38.6373 17.9112 39.0955 16.8593 39.3616 15.7542L39.4462 15.4038L40.9862 14.9131V11.9925L39.4449 11.5031Z" fill="#509BE4"/>
<path d="M27.5469 27.5469H39.6406V28.8281H27.5469V27.5469Z" fill="#509BE4"/>
<path d="M27.5469 30.1094H39.6406V31.3906H27.5469V30.1094Z" fill="#509BE4"/>
<path d="M27.5469 32.6719H34.2656V33.9531H27.5469V32.6719Z" fill="#509BE4"/>
<path d="M35.6094 32.6719H36.9531V33.9531H35.6094V32.6719Z" fill="#509BE4"/>
<path d="M38.2969 32.6719H39.6406V33.9531H38.2969V32.6719Z" fill="#509BE4"/>
</svg>
