<svg width="45" height="45" viewBox="0 0 45 45" fill="none" xmlns="http://www.w3.org/2000/svg">
<path d="M2.625 28.125H7.54688V8.4375H5.08594C4.43386 8.43917 3.80904 8.66194 3.34794 9.05717C2.88685 9.45239 2.62695 9.98795 2.625 10.5469V28.125Z" fill="#75AFEC"/>
<path d="M17.291 35.1562L16.6758 39.375H27.9469L27.3316 35.1562H17.291Z" fill="#75AFEC"/>
<path d="M42 29.5312H2.625V31.6406C2.62695 32.1996 2.88685 32.7351 3.34794 33.1303C3.80904 33.5256 4.43386 33.7483 5.08594 33.75H39.5391C40.1911 33.7483 40.816 33.5256 41.2771 33.1303C41.7382 32.7351 41.9981 32.1996 42 31.6406V29.5312ZM38.7188 32.3438H37.0781V30.9375H38.7188V32.3438Z" fill="#75AFEC"/>
<path d="M13.2891 40.7812H31.3359V42.1875H13.2891V40.7812Z" fill="#75AFEC"/>
<path d="M36.2578 7.03125C36.9105 7.03125 37.5364 6.80901 37.998 6.41343C38.4595 6.01784 38.7188 5.48132 38.7188 4.92188C38.7187 4.36243 38.4595 3.82591 37.998 3.43032C37.5364 3.03474 36.9105 2.8125 36.2578 2.8125H14.9297C15.4622 3.42104 15.75 4.1612 15.75 4.92188C15.75 5.68255 15.4622 6.42271 14.9297 7.03125H36.2578Z" fill="#75AFEC"/>
<path d="M42 10.5469C41.9981 9.98795 41.7382 9.45239 41.2771 9.05717C40.816 8.66194 40.1911 8.43917 39.5391 8.4375H37.0781V28.125H42V10.5469Z" fill="#75AFEC"/>
<path d="M9.1875 28.125H35.4375V8.4375H11.6484C11.4309 8.4375 11.2222 8.36342 11.0684 8.23156C10.9145 8.0997 10.8281 7.92086 10.8281 7.73438C10.8281 7.5479 10.9145 7.36905 11.0684 7.23719C11.2222 7.10533 11.4309 7.03125 11.6484 7.03125C12.1352 7.03125 12.611 6.90754 13.0157 6.67576C13.4204 6.44398 13.7358 6.11454 13.922 5.7291C14.1083 5.34366 14.157 4.91954 14.0621 4.51036C13.9671 4.10118 13.7328 3.72532 13.3886 3.43032C13.0444 3.13532 12.6059 2.93442 12.1285 2.85303C11.6512 2.77164 11.1564 2.81341 10.7067 2.97307C10.257 3.13272 9.87265 3.40308 9.60224 3.74997C9.33183 4.09685 9.1875 4.50468 9.1875 4.92188V28.125ZM13.7583 18.3755L15.1791 17.6723L15.9994 18.8902L14.5786 19.5933L13.7583 18.3755ZM17.2807 21.3947L15.8599 20.6916L16.6802 19.4738L18.101 20.1769L17.2807 21.3947ZM23.7037 18.8902L24.5241 17.6723L25.9448 18.3755L25.1245 19.5933L23.7037 18.8902ZM23.8432 20.6916L22.4224 21.3947L21.6021 20.1769L23.0229 19.4738L23.8432 20.6916ZM24.7734 16.875V15.4688H26.4141V16.875H24.7734ZM25.9448 13.9683L24.5241 14.6714L23.7037 13.4536L25.1245 12.7505L25.9448 13.9683ZM22.4224 10.9491L23.8432 11.6522L23.0229 12.87L21.6021 12.1669L22.4224 10.9491ZM19.0313 10.5469H20.6719V11.9531H19.0313V10.5469ZM19.0313 16.1719C19.0313 15.9854 19.1177 15.8066 19.2715 15.6747C19.4254 15.5428 19.634 15.4688 19.8516 15.4688H23.1328V16.875H20.6719V18.9844H19.0313V16.1719ZM19.0313 20.3906H20.6719V21.7969H19.0313V20.3906ZM19.0313 23.2031H20.6719V23.9063H28.875V16.875H28.0547V15.4688H29.6953C29.9129 15.4688 30.1215 15.5428 30.2754 15.6747C30.4292 15.8066 30.5156 15.9854 30.5156 16.1719V24.6094C30.5156 24.7959 30.4292 24.9747 30.2754 25.1066C30.1215 25.2384 29.9129 25.3125 29.6953 25.3125H19.8516C19.634 25.3125 19.4254 25.2384 19.2715 25.1066C19.1177 24.9747 19.0313 24.7959 19.0313 24.6094V23.2031ZM17.2807 10.9491L18.101 12.1669L16.6802 12.87L15.8599 11.6522L17.2807 10.9491ZM14.5786 12.7505L15.9994 13.4536L15.1791 14.6714L13.7583 13.9683L14.5786 12.7505ZM13.2891 15.4688H14.9297V16.875H13.2891V15.4688Z" fill="#75AFEC"/>
</svg>
