<svg width="35" height="35" viewBox="0 0 35 35" fill="none" xmlns="http://www.w3.org/2000/svg">
<g clip-path="url(#clip0)">
<path d="M15.6367 8.19141V9.43254H23.1316C24.6158 9.43224 25.8952 10.4701 26.1919 11.9148H34.9984V8.19141H15.6367ZM28.7527 11.2942H27.5036V8.81197H28.7527V11.2942ZM31.251 11.2942H30.0019V8.81197H31.251V11.2942ZM33.7493 11.2942H32.5001V8.81197H33.7493V11.2942Z" fill="#0570D8"/>
<path d="M17.8711 5.21094H19.3605V6.7003H17.8711V5.21094Z" fill="#0570D8"/>
<path d="M31.2773 5.21094H32.7667V6.7003H31.2773V5.21094Z" fill="#0570D8"/>
<path d="M24.5745 26.0625H0V26.8072C0 28.0409 0.825248 29.0412 1.84308 29.0412H22.7314C23.7492 29.0412 24.5745 28.0409 24.5745 26.8072V26.0625ZM22.117 28.2965H20.8883V26.8072H22.117V28.2965Z" fill="#0570D8"/>
<path d="M31.2773 12.6602H32.7667V14.1495H31.2773V12.6602Z" fill="#0570D8"/>
<path d="M26.0625 15.6367V19.3601H34.9987V15.6367H26.0625ZM28.6157 18.7396H27.3391V16.2573H28.6157V18.7396ZM31.1689 18.7396H29.8923V16.2573H31.1689V18.7396ZM33.7221 18.7396H32.4455V16.2573H33.7221V18.7396Z" fill="#0570D8"/>
<path d="M31.2773 27.5547H32.7667V28.2994H31.2773V27.5547Z" fill="#0570D8"/>
<path d="M34.9998 0.746094H16.3828V4.4695H34.9998V0.746094ZM18.8651 3.22836H17.6239V1.98723H18.8651V3.22836ZM21.3474 3.22836H20.1062V1.98723H21.3474V3.22836ZM23.8296 3.22836H22.5885V1.98723H23.8296V3.22836ZM28.7942 3.84893H27.553V1.36666H28.7942V3.84893ZM31.2764 3.84893H30.0353V1.36666H31.2764V3.84893ZM33.7587 3.84893H32.5176V1.36666H33.7587V3.84893Z" fill="#0570D8"/>
<path d="M31.2773 20.1055H32.7667V21.5948H31.2773V20.1055Z" fill="#0570D8"/>
<path d="M6.70312 33.5117H17.8733V35.0011H6.70312V33.5117Z" fill="#0570D8"/>
<path d="M26.0625 23.0859V26.0647H34.9987V23.0859H26.0625ZM28.6157 25.5682H27.3391V23.5824H28.6157V25.5682ZM31.1689 25.5682H29.8923V23.5824H31.1689V25.5682ZM33.7221 25.5682H32.4455V23.5824H33.7221V25.5682Z" fill="#0570D8"/>
<path d="M24.5745 12.2875C24.5745 11.2594 23.7492 10.4258 22.7314 10.4258H1.84308C0.825248 10.4258 0 11.2594 0 12.2875V25.3194H5.55985C3.42129 21.9435 4.06055 17.4935 7.06096 14.8707C10.0614 12.2481 14.5131 12.2481 17.5135 14.8707C20.5139 17.4935 21.1532 21.9435 19.0146 25.3194H24.5745V12.2875Z" fill="#0570D8"/>
<path d="M10.0919 29.7891L9.67969 32.7678H15.6371L15.2249 29.7891H10.0919Z" fill="#0570D8"/>
<path d="M5.95703 21.5847C6.07952 22.9567 6.608 24.2585 7.47258 25.3187H17.8457C18.7103 24.2585 19.2388 22.9567 19.3613 21.5847H18.7775V20.3401H19.3583C19.2878 19.564 19.0864 18.8061 18.7629 18.0996L18.2637 18.3929L17.6518 17.3151L18.1511 17.0218C17.7077 16.3855 17.1619 15.8304 16.5363 15.3794L16.2483 15.8875L15.1884 15.2652L15.4767 14.7571C14.7815 14.4268 14.0352 14.2208 13.271 14.1484V14.7392H12.0473V14.1484C11.2834 14.2198 10.5371 14.4247 9.84166 14.754L10.13 15.2618L9.06999 15.8841L8.782 15.3764C8.15642 15.8273 7.6106 16.3825 7.16726 17.0188L7.66647 17.3117L7.05463 18.3898L6.55542 18.0966C6.23188 18.8031 6.03052 19.5609 5.96002 20.337H6.54079V21.5817L5.95703 21.5847ZM13.4455 19.282L15.2858 17.4102L16.1509 18.2902L14.3112 20.1626C14.4307 20.4118 14.4935 20.6853 14.4947 20.9624C14.4947 21.9934 13.6728 22.8294 12.6592 22.8294C11.6455 22.8294 10.8236 21.9934 10.8236 20.9624C10.8236 19.9314 11.6455 19.0954 12.6592 19.0954C12.9316 19.0966 13.2005 19.1604 13.4455 19.282ZM12.6592 15.9838V17.2285C10.6324 17.2306 8.99023 18.9009 8.98813 20.9624H7.76446C7.76745 18.2142 9.95727 15.9868 12.6592 15.9838Z" fill="#0570D8"/>
<path d="M13.4034 20.8502C13.4034 21.2614 13.07 21.5948 12.6587 21.5948C12.2475 21.5948 11.9141 21.2614 11.9141 20.8502C11.9141 20.4389 12.2475 20.1055 12.6587 20.1055C13.07 20.1055 13.4034 20.4389 13.4034 20.8502Z" fill="#0570D8"/>
<path d="M27.1527 33.7227H20.8516V34.9993H27.7255C28.0419 34.9993 28.2984 34.7135 28.2984 34.361V30.5312H27.1527V33.7227Z" fill="#0570D8"/>
<path d="M29.7891 30.5312H31.2784V32.0206H29.7891V30.5312Z" fill="#0570D8"/>
<path d="M29.7891 33.5117H31.2784V34.2564H29.7891V33.5117Z" fill="#0570D8"/>
<path d="M3.48857 3.55825H14.1493V2.23438H2.86147C2.51516 2.23438 2.23438 2.53076 2.23438 2.89631V8.19182H3.48857V3.55825Z" fill="#0570D8"/>
<path d="M2.98047 0H3.72515V1.48936H2.98047V0Z" fill="#0570D8"/>
<path d="M5.21094 0H6.7003V1.48936H5.21094V0Z" fill="#0570D8"/>
<path d="M7.44531 0H8.93467V1.48936H7.44531V0Z" fill="#0570D8"/>
<path d="M10.4258 0H11.1705V1.48936H10.4258V0Z" fill="#0570D8"/>
</g>
<defs>
<clipPath id="clip0">
<rect width="35" height="35" fill="white"/>
</clipPath>
</defs>
</svg>
