<svg width="45" height="45" viewBox="0 0 45 45" fill="none" xmlns="http://www.w3.org/2000/svg">
<path d="M37.2291 23.2367C37.2417 22.9906 37.2656 22.7445 37.2656 22.4998C37.2656 15.4095 32.3452 9.48148 25.5762 8.06398L27.8909 6.32797L26.6984 5.43359C34.3891 7.33625 40.0781 14.3548 40.0781 22.4998C40.0781 23.0075 40.0493 23.5159 40.0057 24.0221C39.1563 23.5967 38.2205 23.3218 37.2291 23.2367Z" fill="#9BC6EF"/>
<path d="M35.8594 37.2241V30.9375H37.2656V37.2241C37.0343 37.2502 36.8002 37.2656 36.5625 37.2656C36.3248 37.2656 36.0907 37.2502 35.8594 37.2241Z" fill="#9BC6EF"/>
<path d="M38.6719 38.3711V40.78C38.6719 41.1674 38.3562 41.4831 37.9688 41.4831H35.1562C34.7688 41.4831 34.4531 41.1674 34.4531 40.78V38.3711C35.1246 38.5616 35.8305 38.6706 36.5625 38.6706C37.2945 38.6706 38.0004 38.5616 38.6719 38.3711Z" fill="#9BC6EF"/>
<path d="M17.5781 17.5781H16.1719V28.8281H17.5781V17.5781Z" fill="#9BC6EF"/>
<path d="M21.7964 7.73086L21.0237 7.8075C13.4475 8.55914 7.73391 14.876 7.73391 22.5C7.73391 24.7162 8.23664 26.8875 9.18305 28.8661C8.93766 28.8422 8.68875 28.8281 8.43703 28.8281C7.66992 28.8281 6.92953 28.9441 6.22992 29.153C5.36508 27.0429 4.92141 24.8091 4.92141 22.5C4.92141 13.3643 12.0483 5.66508 21.146 4.9732L21.7964 4.92328V3.51562L25.5469 6.32812L21.7964 9.14062V7.73086Z" fill="#9BC6EF"/>
<path d="M23.2031 20.3906H21.7969V28.8281H23.2031V20.3906Z" fill="#9BC6EF"/>
<path d="M22.5 35.8589H16.136C15.8583 32.7968 13.7883 30.2508 10.9863 29.2685C9.78188 27.2224 9.14062 24.8895 9.14062 22.4995C9.14062 15.8634 13.9247 10.3221 20.3906 9.30469V11.9527L24.0145 9.23438C30.7835 9.99586 35.8594 15.6483 35.8594 22.4995C35.8594 22.7456 35.8362 22.9924 35.8228 23.2399C33.5138 23.46 31.5014 24.701 30.2344 26.5038V21.7964H26.0156V28.8277H24.6094V18.9839H20.3906V28.8277H18.9844V16.1714H14.7656V30.2339H28.864C28.8429 30.4659 28.8281 30.6994 28.8281 30.937C28.8281 31.9924 29.0419 32.9979 29.4258 33.9155C27.341 35.1839 24.9616 35.8589 22.5 35.8589Z" fill="#9BC6EF"/>
<path d="M28.8281 23.2031H27.4219V28.8281H28.8281V23.2031Z" fill="#9BC6EF"/>
<path d="M8.4375 35.8594C7.66085 35.8594 7.03125 35.2298 7.03125 34.4531C7.03125 33.6765 7.66085 33.0469 8.4375 33.0469C9.21415 33.0469 9.84375 33.6765 9.84375 34.4531C9.84375 35.2298 9.21415 35.8594 8.4375 35.8594Z" fill="#9BC6EF"/>
<path d="M8.4375 30.2344C11.9264 30.2344 14.7656 33.0736 14.7656 36.5625C14.7656 38.1614 14.1645 39.6197 13.1829 40.7348L13.0866 39.9642C12.8862 38.3576 11.88 37.0223 10.5061 36.3431C10.9638 35.8425 11.25 35.183 11.25 34.4531C11.25 32.902 9.98859 31.6406 8.4375 31.6406C6.88641 31.6406 5.625 32.902 5.625 34.4531C5.625 35.183 5.91117 35.8425 6.3682 36.3424C4.9943 37.0216 3.98883 38.3569 3.78773 39.9635L3.69141 40.7341C2.71055 39.6197 2.10938 38.1614 2.10938 36.5625C2.10938 33.0736 4.94859 30.2344 8.4375 30.2344Z" fill="#9BC6EF"/>
<path d="M34.4531 36.8965C31.9992 36.0246 30.2344 33.6867 30.2344 30.9375C30.2344 27.4486 33.0736 24.6094 36.5625 24.6094C40.0514 24.6094 42.8906 27.4486 42.8906 30.9375C42.8906 33.686 41.1258 36.0246 38.6719 36.8965V32.2144C38.8927 32.2931 39.1275 32.3438 39.375 32.3438C40.538 32.3438 41.4844 31.3973 41.4844 30.2344C41.4844 29.0714 40.538 28.125 39.375 28.125C38.4595 28.125 37.6861 28.7149 37.395 29.5313H35.7293C35.4382 28.7149 34.6648 28.125 33.7493 28.125C32.5863 28.125 31.6399 29.0714 31.6399 30.2344C31.6399 31.3973 32.5863 32.3438 33.7493 32.3438C33.9968 32.3438 34.2316 32.2931 34.4524 32.2144V36.8965H34.4531Z" fill="#9BC6EF"/>
<path d="M8.43844 37.2656C10.0887 37.2656 11.4879 38.5003 11.6925 40.1379L11.9062 41.8493C10.9092 42.506 9.71883 42.8906 8.43844 42.8906C7.15805 42.8906 5.96766 42.506 4.97063 41.8493L5.18438 40.1379C5.38899 38.5003 6.78821 37.2656 8.43844 37.2656Z" fill="#9BC6EF"/>
<path d="M33.75 30.9375C33.3617 30.9375 33.0469 30.6227 33.0469 30.2344C33.0469 29.846 33.3617 29.5312 33.75 29.5312C34.1383 29.5312 34.4531 29.846 34.4531 30.2344C34.4531 30.6227 34.1383 30.9375 33.75 30.9375Z" fill="#9BC6EF"/>
<path d="M22.502 37.2674C25.1963 37.2674 27.8021 36.5355 30.0915 35.1602C30.6202 35.9687 31.2966 36.6698 32.082 37.2309C29.2309 39.0913 25.9437 40.0799 22.502 40.0799H15.3202C15.7604 39.2214 16.0473 38.2729 16.1387 37.2674H22.502Z" fill="#9BC6EF"/>
<path d="M39.375 30.9375C38.9867 30.9375 38.6719 30.6227 38.6719 30.2344C38.6719 29.846 38.9867 29.5312 39.375 29.5312C39.7633 29.5312 40.0781 29.846 40.0781 30.2344C40.0781 30.6227 39.7633 30.9375 39.375 30.9375Z" fill="#9BC6EF"/>
</svg>
