<svg width="31" height="28" viewBox="0 0 31 28" fill="none" xmlns="http://www.w3.org/2000/svg">
<g clip-path="url(#clip0)">
<path d="M30.0286 8.75H17.7578C17.2231 8.75 16.7891 9.142 16.7891 9.625C16.7891 10.108 17.2231 10.5 17.7578 10.5H30.0286C30.5634 10.5 30.9974 10.108 30.9974 9.625C30.9974 9.142 30.5634 8.75 30.0286 8.75Z" fill="#69A9E8"/>
<path d="M30.0286 12.25H17.7578C17.2231 12.25 16.7891 12.642 16.7891 13.125C16.7891 13.608 17.2231 14 17.7578 14H30.0286C30.5634 14 30.9974 13.608 30.9974 13.125C30.9974 12.642 30.5634 12.25 30.0286 12.25Z" fill="#69A9E8"/>
<path d="M30.0286 15.75H17.7578C17.2231 15.75 16.7891 16.142 16.7891 16.625C16.7891 17.108 17.2231 17.5 17.7578 17.5H30.0286C30.5634 17.5 30.9974 17.108 30.9974 16.625C30.9974 16.142 30.5634 15.75 30.0286 15.75Z" fill="#69A9E8"/>
<path d="M30.0286 19.25H17.7578C17.2231 19.25 16.7891 19.642 16.7891 20.125C16.7891 20.608 17.2231 21 17.7578 21H30.0286C30.5634 21 30.9974 20.608 30.9974 20.125C30.9974 19.642 30.5634 19.25 30.0286 19.25Z" fill="#69A9E8"/>
<path d="M30.0286 22.75H17.7578C17.2231 22.75 16.7891 23.142 16.7891 23.625C16.7891 24.108 17.2231 24.5 17.7578 24.5H30.0286C30.5634 24.5 30.9974 24.108 30.9974 23.625C30.9974 23.142 30.5634 22.75 30.0286 22.75Z" fill="#69A9E8"/>
<path d="M2.26042 17.5H11.9479C13.1944 17.5 14.2083 16.5842 14.2083 15.4583V10.7917C14.2083 9.66583 13.1944 8.75 11.9479 8.75H2.26042C1.01396 8.75 0 9.66583 0 10.7917V15.4583C0 16.5842 1.01396 17.5 2.26042 17.5Z" fill="#69A9E8"/>
<path d="M2.26042 28H11.9479C13.1944 28 14.2083 27.0842 14.2083 25.9583V21.2917C14.2083 20.1658 13.1944 19.25 11.9479 19.25H2.26042C1.01396 19.25 0 20.1658 0 21.2917V25.9583C0 27.0842 1.01396 28 2.26042 28Z" fill="#69A9E8"/>
<path d="M30.0286 26.25H17.7578C17.2231 26.25 16.7891 26.642 16.7891 27.125C16.7891 27.608 17.2231 28 17.7578 28H30.0286C30.5634 28 30.9974 27.608 30.9974 27.125C30.9974 26.642 30.5634 26.25 30.0286 26.25Z" fill="#69A9E8"/>
<path d="M28.7422 0H12.5964C11.3499 0 10.3359 0.915833 10.3359 2.04167V4.95833C10.3359 6.08417 11.3499 7 12.5964 7H28.7422C29.9886 7 31.0026 6.08417 31.0026 4.95833V2.04167C31.0026 0.915833 29.9886 0 28.7422 0Z" fill="#69A9E8"/>
<path d="M3.875 7C6.0151 7 7.75 5.433 7.75 3.5C7.75 1.567 6.0151 0 3.875 0C1.7349 0 0 1.567 0 3.5C0 5.433 1.7349 7 3.875 7Z" fill="#69A9E8"/>
</g>
<defs>
<clipPath id="clip0">
<rect width="31" height="28" fill="white"/>
</clipPath>
</defs>
</svg>
