<svg width="76" height="71" viewBox="0 0 76 71" fill="none" xmlns="http://www.w3.org/2000/svg">
<path d="M0.996094 35.5C0.996094 55.1061 17.7854 71 38.4961 71C59.2068 71 75.9961 55.1061 75.9961 35.5C75.9961 15.8939 59.2068 0 38.4961 0C17.7854 0 0.996094 15.8939 0.996094 35.5Z" fill="#69A9E8"/>
<g clip-path="url(#clip0)">
<path d="M54.901 28.9375H41.0469C40.4431 28.9375 39.9531 29.4275 39.9531 30.0312C39.9531 30.635 40.4431 31.125 41.0469 31.125H54.901C55.5048 31.125 55.9948 30.635 55.9948 30.0312C55.9948 29.4275 55.5048 28.9375 54.901 28.9375Z" fill="white"/>
<path d="M54.901 33.3125H41.0469C40.4431 33.3125 39.9531 33.8025 39.9531 34.4062C39.9531 35.01 40.4431 35.5 41.0469 35.5H54.901C55.5048 35.5 55.9948 35.01 55.9948 34.4062C55.9948 33.8025 55.5048 33.3125 54.901 33.3125Z" fill="white"/>
<path d="M54.901 37.6875H41.0469C40.4431 37.6875 39.9531 38.1775 39.9531 38.7812C39.9531 39.385 40.4431 39.875 41.0469 39.875H54.901C55.5048 39.875 55.9948 39.385 55.9948 38.7812C55.9948 38.1775 55.5048 37.6875 54.901 37.6875Z" fill="white"/>
<path d="M54.901 42.0625H41.0469C40.4431 42.0625 39.9531 42.5525 39.9531 43.1562C39.9531 43.76 40.4431 44.25 41.0469 44.25H54.901C55.5048 44.25 55.9948 43.76 55.9948 43.1562C55.9948 42.5525 55.5048 42.0625 54.901 42.0625Z" fill="white"/>
<path d="M54.901 46.4375H41.0469C40.4431 46.4375 39.9531 46.9275 39.9531 47.5312C39.9531 48.135 40.4431 48.625 41.0469 48.625H54.901C55.5048 48.625 55.9948 48.135 55.9948 47.5312C55.9948 46.9275 55.5048 46.4375 54.901 46.4375Z" fill="white"/>
<path d="M23.5482 39.875H34.4857C35.893 39.875 37.0378 38.7302 37.0378 37.3229V31.4896C37.0378 30.0823 35.893 28.9375 34.4857 28.9375H23.5482C22.1409 28.9375 20.9961 30.0823 20.9961 31.4896V37.3229C20.9961 38.7302 22.1409 39.875 23.5482 39.875Z" fill="white"/>
<path d="M23.5482 53H34.4857C35.893 53 37.0378 51.8552 37.0378 50.4479V44.6146C37.0378 43.2073 35.893 42.0625 34.4857 42.0625H23.5482C22.1409 42.0625 20.9961 43.2073 20.9961 44.6146V50.4479C20.9961 51.8552 22.1409 53 23.5482 53Z" fill="white"/>
<path d="M54.901 50.8125H41.0469C40.4431 50.8125 39.9531 51.3025 39.9531 51.9062C39.9531 52.51 40.4431 53 41.0469 53H54.901C55.5048 53 55.9948 52.51 55.9948 51.9062C55.9948 51.3025 55.5048 50.8125 54.901 50.8125Z" fill="white"/>
<path d="M53.4453 18H35.2161C33.8089 18 32.6641 19.1448 32.6641 20.5521V24.1979C32.6641 25.6052 33.8089 26.75 35.2161 26.75H53.4453C54.8526 26.75 55.9974 25.6052 55.9974 24.1979V20.5521C55.9974 19.1448 54.8526 18 53.4453 18Z" fill="white"/>
<path d="M25.3711 26.75C27.7873 26.75 29.7461 24.7912 29.7461 22.375C29.7461 19.9588 27.7873 18 25.3711 18C22.9548 18 20.9961 19.9588 20.9961 22.375C20.9961 24.7912 22.9548 26.75 25.3711 26.75Z" fill="white"/>
</g>
<defs>
<clipPath id="clip0">
<rect width="35" height="35" fill="white" transform="translate(20.9961 18)"/>
</clipPath>
</defs>
</svg>
