<svg width="76" height="75" viewBox="0 0 76 75" fill="none" xmlns="http://www.w3.org/2000/svg">
<path d="M0.996094 37.5C0.996094 58.2107 17.7854 75 38.4961 75C59.2068 75 75.9961 58.2107 75.9961 37.5C75.9961 16.7893 59.2068 0 38.4961 0C17.7854 0 0.996094 16.7893 0.996094 37.5Z" fill="#509BE4"/>
<path d="M34.9699 39.6373H34.9805V38.293H32.168V39.6441H34.9657L34.9699 39.6373Z" fill="white"/>
<path d="M27.9492 38.293H25.1367V38.601V39.6184L25.1543 39.6441H27.9492V38.293Z" fill="white"/>
<path d="M34.5691 40.9954H32.1693C31.3938 40.9954 30.763 40.3894 30.763 39.6443V38.9688H29.3568V39.6443C29.3568 40.3894 28.7261 40.9954 27.9505 40.9954H25.5508C26.2729 43.0923 27.914 44.8204 30.0599 45.6736C32.2059 44.8204 33.8463 43.0923 34.5691 40.9954Z" fill="white"/>
<path d="M38.918 50.3958L34.0678 48.5319L33.3991 53.0284L30.0586 50.6207L26.718 53.0277L26.0494 48.5312L21.1992 50.3958C19.3198 51.1179 18.1055 52.8413 18.1055 54.7869V57.2074H20.918V53.154H22.3242V57.2074H37.793V53.154H39.1992V57.2074H42.0117V54.7869C42.0117 52.8413 40.7967 51.1179 38.918 50.3958ZM30.7617 55.8563H29.3555V54.5052H30.7617V55.8563ZM30.7617 53.154H29.3555V51.8029H30.7617V53.154Z" fill="white"/>
<path d="M34.2773 36.2667H32.4998C30.4713 36.2667 28.4407 35.8351 26.5992 35.0156L25.4496 35.752C25.2534 35.8776 25.1367 36.0877 25.1367 36.314V36.9423H27.9492C28.4674 36.9423 28.916 37.2159 29.16 37.6178H30.9572C31.2012 37.2159 31.6498 36.9423 32.168 36.9423H34.9805C34.9805 36.5701 34.6655 36.2667 34.2773 36.2667Z" fill="white"/>
<path d="M31.4648 46.8524V46.5234C31.0929 46.7173 30.7076 46.8903 30.3061 47.0348L30.0586 47.1233L29.8111 47.0348C29.4096 46.8903 29.0236 46.7166 28.6523 46.5234V46.8524L30.0586 48.6535L31.4648 46.8524Z" fill="white"/>
<path d="M32.7234 48.0161L32.407 47.8945L31.043 49.6422L32.343 50.5792L32.7234 48.0161Z" fill="white"/>
<path d="M23.7305 36.3161C23.7305 35.6372 24.0813 35.0069 24.6698 34.63L26.4923 33.4626L26.858 33.6376C28.6003 34.4753 30.5515 34.9178 32.4998 34.9178H34.2773C35.4403 34.9178 36.3867 35.827 36.3867 36.9444C36.9014 36.9444 37.3774 37.0876 37.793 37.32V34.4672C37.793 32.887 37.0983 31.3988 35.9093 30.3409C35.0423 31.5474 33.0166 32.2156 30.0586 32.2156V30.8644C32.438 30.8644 34.9805 30.3321 34.9805 28.8378C34.9805 27.7684 34.2155 26.8956 33.6832 26.418C32.3128 27.9413 30.292 28.8378 28.1834 28.8378C24.9525 28.8378 22.3242 31.363 22.3242 34.4672V37.32C22.7398 37.0876 23.2158 36.9444 23.7305 36.9444V36.3161Z" fill="white"/>
<path d="M36.3873 39.6441C36.3873 39.8717 36.3234 40.0825 36.2193 40.271C36.1708 40.5176 36.0963 40.7554 36.0273 40.9952H36.3873C37.1629 40.9952 37.7936 40.3892 37.7936 39.6441C37.7936 38.8989 37.1629 38.293 36.3873 38.293V39.6441Z" fill="white"/>
<path d="M27.3945 48.0161L27.7749 50.5792L29.075 49.6422L27.7109 47.8945L27.3945 48.0161Z" fill="white"/>
<path d="M23.7305 40.9952H24.0905C24.0216 40.7554 23.9463 40.5176 23.8985 40.271C23.7945 40.0825 23.7305 39.8717 23.7305 39.6441V38.601V38.293C22.9549 38.293 22.3242 38.8989 22.3242 39.6441C22.3242 40.3892 22.9549 40.9952 23.7305 40.9952Z" fill="white"/>
<path d="M46.2305 38.2953C50.883 38.2953 54.668 34.6588 54.668 30.1886C54.668 25.7185 50.883 22.082 46.2305 22.082C41.5779 22.082 37.793 25.7185 37.793 30.1886C37.793 30.2454 37.7958 30.3021 37.7972 30.3582C38.6916 31.5377 39.1992 32.9685 39.1992 34.4669V34.6547C40.7693 36.934 43.38 38.2953 46.2305 38.2953ZM48.4938 27.2331L49.5921 26.3893L52.7555 30.1886L49.5921 33.9886L48.4938 33.1449L50.9555 30.1886L48.4938 27.2331ZM46.2375 25.3639L47.6297 25.555L46.2234 35.0128L44.8312 34.8216L46.2375 25.3639ZM42.8688 26.3887L43.9671 27.2324L41.5055 30.1886L43.9671 33.1442L42.8688 33.988L39.7055 30.1886L42.8688 26.3887Z" fill="white"/>
<path d="M57.2734 28.1309L57.1848 27.7614C56.9063 26.596 56.4268 25.4868 55.7602 24.464L55.5507 24.1424L56.3129 22.6778L54.046 20.5005L52.5223 21.2322L52.187 21.0308C51.1224 20.3897 49.9679 19.9297 48.755 19.6622L48.3697 19.5777L47.8325 18.0273H44.627L44.0891 19.5771L43.7045 19.6622C42.4916 19.9297 41.337 20.3904 40.2725 21.0308L39.9371 21.2322L38.4134 20.5005L36.1473 22.6778L36.9095 24.1424L36.6999 24.464C36.2668 25.1281 35.9159 25.8354 35.6445 26.567C36.0587 27.1824 36.3863 27.9498 36.3863 28.8362C36.3863 28.8787 36.38 28.9179 36.3779 28.9598C36.4081 28.9821 36.4384 29.0044 36.4679 29.0274C37.0662 24.3586 41.2119 20.7295 46.2301 20.7295C51.6582 20.7295 56.0738 24.972 56.0738 30.1873C56.0738 35.4025 51.6582 39.645 46.2301 39.645C43.5392 39.645 41.0305 38.6073 39.1988 36.805V39.4943L39.9413 39.1444L40.2732 39.3437C41.3377 39.9848 42.4923 40.4448 43.7052 40.7124L44.0905 40.7968L44.6277 42.3472H47.8332L48.3711 40.7975L48.7564 40.713C49.9693 40.4455 51.1238 39.9848 52.1884 39.3444L52.5238 39.1431L54.0474 39.8747L56.3143 37.6974L55.5521 36.2328L55.7616 35.9112C56.4282 34.8884 56.9077 33.7792 57.1862 32.6139L57.2748 32.2443L58.8863 31.7269V28.647L57.2734 28.1309Z" fill="white"/>
<path d="M44.8242 45.0469H57.4805V46.398H44.8242V45.0469Z" fill="white"/>
<path d="M44.8242 47.75H57.4805V49.1011H44.8242V47.75Z" fill="white"/>
<path d="M44.8242 50.4531H51.8555V51.8042H44.8242V50.4531Z" fill="white"/>
<path d="M53.2617 50.4531H54.668V51.8042H53.2617V50.4531Z" fill="white"/>
<path d="M56.0742 50.4531H57.4805V51.8042H56.0742V50.4531Z" fill="white"/>
</svg>
