<svg width="76" height="75" viewBox="0 0 76 75" fill="none" xmlns="http://www.w3.org/2000/svg">
<path d="M0.996094 37.5C0.996094 58.2107 17.7854 75 38.4961 75C59.2068 75 75.9961 58.2107 75.9961 37.5C75.9961 16.7893 59.2068 0 38.4961 0C17.7854 0 0.996094 16.7893 0.996094 37.5Z" fill="#9BC6EF"/>
<path d="M54.0234 35.7906C54.0367 35.5311 54.0619 35.2716 54.0619 35.0136C54.0619 27.5378 48.8739 21.2875 41.7369 19.7929L44.1775 17.9625L42.9201 17.0195C51.0291 19.0256 57.0273 26.4258 57.0273 35.0136C57.0273 35.5489 56.9969 36.0849 56.951 36.6187C56.0554 36.1701 55.0687 35.8803 54.0234 35.7906Z" fill="white"/>
<path d="M52.5876 50.5425V43.9141H54.0703V50.5425C53.8264 50.5699 53.5795 50.5862 53.329 50.5862C53.0784 50.5862 52.8315 50.5699 52.5876 50.5425Z" fill="white"/>
<path d="M55.5547 51.75V54.2899C55.5547 54.6984 55.2218 55.0312 54.8133 55.0312H51.8479C51.4394 55.0312 51.1066 54.6984 51.1066 54.2899V51.75C51.8146 51.9509 52.5589 52.0658 53.3306 52.0658C54.1024 52.0658 54.8467 51.9509 55.5547 51.75Z" fill="white"/>
<path d="M33.3047 29.8242H31.822V41.6859H33.3047V29.8242Z" fill="white"/>
<path d="M37.7527 19.4444L36.9379 19.5252C28.9498 20.3177 22.9256 26.978 22.9256 35.0165C22.9256 37.3533 23.4557 39.6426 24.4535 41.7287C24.1948 41.7035 23.9324 41.6887 23.667 41.6887C22.8581 41.6887 22.0775 41.811 21.3399 42.0312C20.428 39.8064 19.9602 37.4511 19.9602 35.0165C19.9602 25.3841 27.4745 17.2663 37.0669 16.5368L37.7527 16.4842V15L41.707 17.9654L37.7527 20.9308V19.4444Z" fill="white"/>
<path d="M39.2383 32.793H37.7556V41.6892H39.2383V32.793Z" fill="white"/>
<path d="M38.4963 49.1072H31.7864C31.4935 45.8786 29.311 43.1942 26.3567 42.1585C25.0868 40.0012 24.4106 37.5414 24.4106 35.0215C24.4106 28.0246 29.4548 22.182 36.2723 21.1093V23.9012L40.0932 21.0352C47.2302 21.838 52.582 27.7978 52.582 35.0215C52.582 35.281 52.5576 35.5412 52.5435 35.8022C50.1089 36.0342 47.9871 37.3427 46.6512 39.2435V34.2802H42.2031V41.6937H40.7204V31.3148H36.2723V41.6937H34.7896V28.3493H30.3415V43.1764H45.2063C45.1841 43.421 45.1685 43.6672 45.1685 43.9177C45.1685 45.0305 45.3939 46.0906 45.7987 47.0581C43.6005 48.3955 41.0918 49.1072 38.4963 49.1072Z" fill="white"/>
<path d="M45.1719 35.7578H43.6892V41.6886H45.1719V35.7578Z" fill="white"/>
<path d="M23.6735 49.0982C22.8547 49.0982 22.1908 48.4344 22.1908 47.6155C22.1908 46.7966 22.8547 46.1328 23.6735 46.1328C24.4924 46.1328 25.1562 46.7966 25.1562 47.6155C25.1562 48.4344 24.4924 49.0982 23.6735 49.0982Z" fill="white"/>
<path d="M23.6677 43.1719C27.3463 43.1719 30.3398 46.1655 30.3398 49.844C30.3398 51.5299 29.706 53.0674 28.6711 54.2432L28.5695 53.4307C28.3582 51.7367 27.2973 50.3289 25.8487 49.6127C26.3314 49.0849 26.6331 48.3895 26.6331 47.62C26.6331 45.9846 25.3031 44.6546 23.6677 44.6546C22.0322 44.6546 20.7023 45.9846 20.7023 47.62C20.7023 48.3895 21.004 49.0849 21.4859 49.612C20.0373 50.3282 18.9771 51.736 18.7651 53.43L18.6635 54.2425C17.6294 53.0674 16.9955 51.5299 16.9955 49.844C16.9955 46.1655 19.9891 43.1719 23.6677 43.1719Z" fill="white"/>
<path d="M51.0999 50.1934C48.5125 49.2741 46.6517 46.8091 46.6517 43.9105C46.6517 40.2319 49.6453 37.2383 53.3239 37.2383C57.0025 37.2383 59.9961 40.2319 59.9961 43.9105C59.9961 46.8084 58.1353 49.2741 55.548 50.1934V45.2568C55.7808 45.3398 56.0284 45.3932 56.2893 45.3932C57.5155 45.3932 58.5134 44.3953 58.5134 43.1691C58.5134 41.9429 57.5155 40.945 56.2893 40.945C55.3241 40.945 54.5086 41.567 54.2017 42.4277H52.4454C52.1385 41.567 51.323 40.945 50.3578 40.945C49.1316 40.945 48.1337 41.9429 48.1337 43.1691C48.1337 44.3953 49.1316 45.3932 50.3578 45.3932C50.6187 45.3932 50.8663 45.3398 51.0991 45.2568V50.1934H51.0999Z" fill="white"/>
<path d="M23.6718 50.582C25.4117 50.582 26.887 51.8838 27.1028 53.6105L27.3281 55.4149C26.2769 56.1073 25.0218 56.5129 23.6718 56.5129C22.3218 56.5129 21.0667 56.1073 20.0154 55.4149L20.2408 53.6105C20.4565 51.8838 21.9318 50.582 23.6718 50.582Z" fill="white"/>
<path d="M50.3563 43.9085C49.9469 43.9085 49.615 43.5766 49.615 43.1671C49.615 42.7577 49.9469 42.4258 50.3563 42.4258C50.7657 42.4258 51.0977 42.7577 51.0977 43.1671C51.0977 43.5766 50.7657 43.9085 50.3563 43.9085Z" fill="white"/>
<path d="M38.4967 50.589C41.3376 50.589 44.085 49.8173 46.4989 48.3672C47.0564 49.2197 47.7696 49.9589 48.5977 50.5505C45.5915 52.5121 42.1256 53.5544 38.4967 53.5544H30.9246C31.3886 52.6492 31.6911 51.6492 31.7875 50.589H38.4967Z" fill="white"/>
<path d="M56.286 43.9085C55.8766 43.9085 55.5446 43.5766 55.5446 43.1671C55.5446 42.7577 55.8766 42.4258 56.286 42.4258C56.6954 42.4258 57.0273 42.7577 57.0273 43.1671C57.0273 43.5766 56.6954 43.9085 56.286 43.9085Z" fill="white"/>
</svg>
