<svg width="76" height="75" viewBox="0 0 76 75" fill="none" xmlns="http://www.w3.org/2000/svg">
<path d="M0.996094 37.5C0.996094 58.2107 17.7854 75 38.4961 75C59.2068 75 75.9961 58.2107 75.9961 37.5C75.9961 16.7893 59.2068 0 38.4961 0C17.7854 0 0.996094 16.7893 0.996094 37.5Z" fill="#378DE0"/>
<g clip-path="url(#clip0)">
<path d="M48.4908 25.3277C48.517 25.2311 48.5302 25.1311 48.5302 25.031C48.5302 24.4044 48.0207 23.8945 47.3937 23.8945H47.1701C46.6579 23.8945 46.2066 24.24 46.0729 24.7347L45.2812 27.6641L47.6469 28.4524L48.4908 25.3277Z" fill="white"/>
<path d="M47.2856 29.7883L44.9199 29L44.5391 30.4076L46.9047 31.1959L47.2856 29.7883Z" fill="white"/>
<path d="M20.7539 28.0325H35.9263V23.8945H20.7539V28.0325ZM33.1677 25.2738H34.547V26.6532H33.1677V25.2738ZM30.4091 25.2738H31.7884V26.6532H30.4091V25.2738ZM27.6505 25.2738H29.0298V26.6532H27.6505V25.2738ZM24.8918 25.2738H26.2711V26.6532H24.8918V25.2738ZM22.1332 25.2738H23.5125V26.6532H22.1332V25.2738Z" fill="white"/>
<path d="M42.823 31.471L44.7401 24.3764C45.0361 23.282 46.0349 22.5172 47.169 22.5172H47.3926C48.7804 22.5172 49.9085 23.6463 49.9085 25.0331C49.9085 25.2553 49.8795 25.4766 49.8216 25.6904L46.9512 36.3103H47.0044C47.6873 36.3103 48.3487 36.511 48.9168 36.8895L50.4092 37.8843V17H26.9609V19.7586H42.823V31.471Z" fill="white"/>
<path d="M44.1771 31.7422L41.2656 42.5174H43.8441L46.5434 32.5305L44.1771 31.7422Z" fill="white"/>
<path d="M45.7705 42.516C46.1507 42.516 46.4601 42.2062 46.4601 41.8264C46.4601 41.4465 46.1507 41.1367 45.7705 41.1367H45.6466L45.2734 42.516H45.7705Z" fill="white"/>
<path d="M41.141 37.6914H40.0156C39.4708 37.6914 38.9384 37.912 38.5528 38.2969L33.5824 43.2679C33.4363 43.4141 33.3555 43.608 33.3555 43.8148C33.3555 44.2411 33.7023 44.5879 34.1293 44.5879C34.3327 44.5879 34.5321 44.5051 34.6762 44.361L38.2672 40.7699C38.8879 40.1493 39.7058 39.8045 40.5783 39.7728L41.141 37.6914Z" fill="white"/>
<path d="M40.7928 51.4815L40.5783 52.3389L39.2404 52.0042L39.4569 51.1394C38.7009 50.705 38.1857 49.8988 38.1857 48.9664C38.1857 48.7441 38.2146 48.5229 38.2726 48.3091L38.5332 47.3436H36.116C35.3553 47.3436 34.7367 46.725 34.7367 45.9643C34.7367 45.9306 34.7458 45.8986 34.7472 45.8643C34.5485 45.9236 34.3438 45.9643 34.1313 45.9643C32.9442 45.9643 31.9781 44.9988 31.9781 43.8118C31.9781 43.2367 32.2024 42.6962 32.6092 42.2891L33.7622 41.1367H31.0995V39.7574H35.1415L36.5208 38.3781H31.0995V36.9988H37.9692C38.5601 36.558 39.267 36.3091 40.0176 36.3091H41.4444V21.1367H17.9961V56.9988H41.4444V51.4209C41.2753 51.4566 41.1029 51.4815 40.9251 51.4815H40.7928ZM40.0651 35.6195H31.0995V34.2402H40.0651V35.6195ZM19.3754 22.516H37.3064V29.4126H19.3754V22.516ZM23.5133 39.3533L21.6464 37.4864L22.6216 36.5112L23.5133 37.4029L29.9223 30.9939L30.8975 31.9692L23.5133 39.3533ZM30.8975 43.6933L23.5133 51.0774L21.6464 49.2105L22.6216 48.2353L23.5133 49.127L29.9223 42.7181L30.8975 43.6933ZM19.3754 33.5505H24.8926V34.9298H20.7547V40.4471H26.272V37.6884H27.6513V41.8264H19.3754V33.5505ZM27.6513 53.5505H19.3754V45.2746H24.8926V46.654H20.7547V52.1712H26.272V49.4126H27.6513V53.5505ZM37.3064 54.9298H29.7202V53.5505H37.3064V54.9298ZM40.0651 54.9298H38.6857V53.5505H40.0651V54.9298Z" fill="white"/>
<path d="M39.9638 47.3438L39.6058 48.6685C39.5795 48.7652 39.5664 48.8652 39.5664 48.9652C39.5664 49.5919 40.0762 50.1017 40.7029 50.1017H40.9265C41.4391 50.1017 41.89 49.7562 42.0236 49.2608L42.5375 47.3589C42.4038 47.3542 42.2698 47.3438 42.1354 47.3438H39.9638Z" fill="white"/>
<path d="M39.8395 42.5158L40.1921 41.2109C39.8375 41.3035 39.5065 41.4813 39.2458 41.742L38.4727 42.5158H39.8395Z" fill="white"/>
<path d="M54.884 41.8293C54.2014 41.8293 53.5401 41.6286 52.971 41.2501L48.1545 38.0389C47.813 37.8113 47.416 37.6914 47.0062 37.6914H46.5799L46.0145 39.7846C47.0405 39.9058 47.8413 40.7706 47.8413 41.8293C47.8413 42.9699 46.9133 43.8983 45.7724 43.8983H38.1862C37.0456 43.8983 36.1172 44.8267 36.1172 45.9673H42.1352C43.2505 45.9673 44.3523 46.1458 45.4104 46.499L46.5725 46.8866C48.1841 47.4237 49.9386 47.4907 51.5876 47.0789L54.7958 46.2771C55.6164 46.0713 56.462 45.9673 57.3076 45.9673H57.9972V41.8293H54.884Z" fill="white"/>
<path d="M46.1344 48.1933L44.9727 47.8057C44.6268 47.6905 44.2746 47.6037 43.9193 47.5312L43.3546 49.6228C43.2539 49.9959 43.0663 50.3273 42.8242 50.6064V52.8629H50.4104V48.6637C50.0774 48.6961 49.7443 48.725 49.4096 48.725C48.2946 48.725 47.1925 48.5465 46.1344 48.1933Z" fill="white"/>
</g>
<defs>
<clipPath id="clip0">
<rect width="40" height="40" fill="white" transform="translate(17.9961 17)"/>
</clipPath>
</defs>
</svg>
