<svg width="76" height="75" viewBox="0 0 76 75" fill="none" xmlns="http://www.w3.org/2000/svg">
<path d="M0.996094 37.5C0.996094 58.2107 17.7854 75 38.4961 75C59.2068 75 75.9961 58.2107 75.9961 37.5C75.9961 16.7893 59.2068 0 38.4961 0C17.7854 0 0.996094 16.7893 0.996094 37.5Z" fill="#1E7EDC"/>
<path d="M21.9094 33.7945C22.6597 33.2656 23.475 32.8355 24.3352 32.5148C23.9749 30.9194 23.777 29.2916 23.7445 27.6562H18.8438C19.0291 30.023 20.1287 32.2246 21.9094 33.7945Z" fill="white"/>
<path d="M24.3352 21.393C23.475 21.0723 22.6597 20.6422 21.9094 20.1133C20.1287 21.6833 19.0291 23.8848 18.8438 26.2516H23.7445C23.777 24.6163 23.9749 22.9884 24.3352 21.393Z" fill="white"/>
<path d="M25.5656 18.1367C24.694 18.3738 23.8623 18.7387 23.0977 19.2195C23.6109 19.5441 24.155 19.8173 24.7219 20.0352C24.9343 19.374 25.2172 18.7375 25.5656 18.1367Z" fill="white"/>
<path d="M30.7453 26.2492C30.7171 24.7445 30.538 23.2464 30.2109 21.7773C29.4676 21.9433 28.7085 22.0281 27.9469 22.0305C27.1853 22.0281 26.4261 21.9433 25.6828 21.7773C25.3557 23.2464 25.1767 24.7445 25.1484 26.2492H30.7453Z" fill="white"/>
<path d="M23.0977 34.6867C23.8623 35.1675 24.694 35.5324 25.5656 35.7695C25.2172 35.1688 24.9343 34.5323 24.7219 33.8711C24.155 34.0889 23.6109 34.3621 23.0977 34.6867Z" fill="white"/>
<path d="M30.7453 27.6562H25.1484C25.1767 29.161 25.3557 30.6591 25.6828 32.1281C27.1733 31.7906 28.7204 31.7906 30.2109 32.1281C30.538 30.6591 30.7171 29.161 30.7453 27.6562Z" fill="white"/>
<path d="M30.332 35.7695C31.2036 35.5324 32.0353 35.1675 32.8 34.6867C32.2867 34.3621 31.7427 34.0889 31.1758 33.8711C30.9633 34.5323 30.6805 35.1688 30.332 35.7695Z" fill="white"/>
<path d="M27.9516 33.2812C27.3203 33.2815 26.6908 33.3499 26.0742 33.4852C26.6367 35.1516 27.3609 36.0938 27.9516 36.0938C28.5422 36.0938 29.2664 35.1516 29.8289 33.4852C29.2123 33.3499 28.5829 33.2815 27.9516 33.2812Z" fill="white"/>
<path d="M31.5625 32.5148C32.4227 32.8355 33.238 33.2656 33.9883 33.7945C35.769 32.2246 36.8685 30.023 37.0539 27.6562H32.1531C32.1206 29.2916 31.9228 30.9194 31.5625 32.5148Z" fill="white"/>
<path d="M32.8 19.2195C32.0353 18.7387 31.2036 18.3738 30.332 18.1367C30.6805 18.7375 30.9633 19.374 31.1758 20.0352C31.7427 19.8173 32.2867 19.5441 32.8 19.2195Z" fill="white"/>
<path d="M29.8289 20.4211C29.2664 18.7547 28.5422 17.8125 27.9516 17.8125C27.3609 17.8125 26.6367 18.7547 26.0742 20.4211C26.6908 20.5564 27.3203 20.6248 27.9516 20.625C28.5829 20.6248 29.2123 20.5564 29.8289 20.4211Z" fill="white"/>
<path d="M33.9883 20.1133C33.238 20.6422 32.4227 21.0723 31.5625 21.393C31.9228 22.9884 32.1206 24.6163 32.1531 26.2516H37.0539C36.8685 23.8848 35.769 21.6833 33.9883 20.1133Z" fill="white"/>
<path d="M40.6055 41.7188C40.419 41.7188 40.2401 41.7928 40.1083 41.9247C39.9764 42.0566 39.9023 42.2354 39.9023 42.4219V52.9688H56.7773V42.4219C56.7773 42.2354 56.7033 42.0566 56.5714 41.9247C56.4395 41.7928 56.2607 41.7188 56.0742 41.7188H40.6055Z" fill="white"/>
<path d="M38.4961 54.375V56.4844C38.4961 56.6709 38.5702 56.8497 38.702 56.9816C38.8339 57.1134 39.0127 57.1875 39.1992 57.1875H57.4805C57.6669 57.1875 57.8458 57.1134 57.9777 56.9816C58.1095 56.8497 58.1836 56.6709 58.1836 56.4844V54.375H38.4961Z" fill="white"/>
<path d="M48.3398 28.3594C49.1165 28.3594 49.7461 27.7298 49.7461 26.9531C49.7461 26.1765 49.1165 25.5469 48.3398 25.5469C47.5632 25.5469 46.9336 26.1765 46.9336 26.9531C46.9336 27.7298 47.5632 28.3594 48.3398 28.3594Z" fill="white"/>
<path d="M39.9023 26.25H41.3086V27.6562H39.9023V26.25Z" fill="white"/>
<path d="M42.7148 26.25H44.1211V27.6562H42.7148V26.25Z" fill="white"/>
<path d="M47.6367 30.4688H49.043V31.875H47.6367V30.4688Z" fill="white"/>
<path d="M47.6367 33.2812H49.043V34.6875H47.6367V33.2812Z" fill="white"/>
<path d="M47.6367 36.0938H49.043V37.5H47.6367V36.0938Z" fill="white"/>
<path d="M27.9492 50.8594C28.7259 50.8594 29.3555 50.2298 29.3555 49.4531C29.3555 48.6765 28.7259 48.0469 27.9492 48.0469C27.1726 48.0469 26.543 48.6765 26.543 49.4531C26.543 50.2298 27.1726 50.8594 27.9492 50.8594Z" fill="white"/>
<path d="M34.9805 48.75H36.3867V50.1562H34.9805V48.75Z" fill="white"/>
<path d="M32.168 48.75H33.5742V50.1562H32.168V48.75Z" fill="white"/>
<path d="M27.2461 44.5312H28.6523V45.9375H27.2461V44.5312Z" fill="white"/>
<path d="M27.2461 41.7188H28.6523V43.125H27.2461V41.7188Z" fill="white"/>
<path d="M27.2461 38.9062H28.6523V40.3125H27.2461V38.9062Z" fill="white"/>
<path d="M54.668 37.5H56.0742V20.625C56.0742 20.4385 56.0001 20.2597 55.8683 20.1278C55.7364 19.996 55.5576 19.9219 55.3711 19.9219H38.4961V21.3281H54.668V37.5Z" fill="white"/>
<path d="M22.3242 37.5H20.918V54.375C20.918 54.5615 20.992 54.7403 21.1239 54.8722C21.2558 55.004 21.4346 55.0781 21.6211 55.0781H35.6836V53.6719H22.3242V37.5Z" fill="white"/>
</svg>
