<svg width="76" height="75" viewBox="0 0 76 75" fill="none" xmlns="http://www.w3.org/2000/svg">
<path d="M2.99609 37.5C2.99609 57.1061 18.89 73 38.4961 73C58.1022 73 73.9961 57.1061 73.9961 37.5C73.9961 17.8939 58.1022 2 38.4961 2C18.89 2 2.99609 17.8939 2.99609 37.5Z" fill="#0570D8" stroke="#0570D8" stroke-width="4"/>
<g clip-path="url(#clip0)">
<path d="M35.8672 26.3633V27.7817H44.4327C46.129 27.7814 47.5911 28.9674 47.9303 30.6186H57.9948V26.3633H35.8672ZM50.8569 29.9094H49.4293V27.0725H50.8569V29.9094ZM53.7121 29.9094H52.2845V27.0725H53.7121V29.9094ZM56.5673 29.9094H55.1397V27.0725H56.5673V29.9094Z" fill="white"/>
<path d="M38.4219 22.957H40.124V24.6592H38.4219V22.957Z" fill="white"/>
<path d="M53.7422 22.957H55.4443V24.6592H53.7422V22.957Z" fill="white"/>
<path d="M46.0812 46.7891H17.9961V47.6401C17.9961 49.0501 18.9392 50.1933 20.1025 50.1933H43.9748C45.1381 50.1933 46.0812 49.0501 46.0812 47.6401V46.7891ZM43.2727 49.3423H41.8684V47.6401H43.2727V49.3423Z" fill="white"/>
<path d="M53.7422 31.4688H55.4443V33.1709H53.7422V31.4688Z" fill="white"/>
<path d="M47.7852 34.8711V39.1264H57.9979V34.8711H47.7852ZM50.7031 38.4172H49.2441V35.5803H50.7031V38.4172ZM53.621 38.4172H52.1621V35.5803H53.621V38.4172ZM56.539 38.4172H55.08V35.5803H56.539V38.4172Z" fill="white"/>
<path d="M53.7422 48.4883H55.4443V49.3393H53.7422V48.4883Z" fill="white"/>
<path d="M57.9953 17.8516H36.7188V22.1069H57.9953V17.8516ZM39.5556 20.6884H38.1372V19.27H39.5556V20.6884ZM42.3925 20.6884H40.9741V19.27H42.3925V20.6884ZM45.2294 20.6884H43.8109V19.27H45.2294V20.6884ZM50.9031 21.3977H49.4847V18.5608H50.9031V21.3977ZM53.74 21.3977H52.3216V18.5608H53.74V21.3977ZM56.5769 21.3977H55.1585V18.5608H56.5769V21.3977Z" fill="white"/>
<path d="M53.7422 39.9805H55.4443V41.6826H53.7422V39.9805Z" fill="white"/>
<path d="M25.6562 55.2969H38.4222V56.999H25.6562V55.2969Z" fill="white"/>
<path d="M47.7852 43.3828V46.7871H57.9979V43.3828H47.7852ZM50.7031 46.2197H49.2441V43.9502H50.7031V46.2197ZM53.621 46.2197H52.1621V43.9502H53.621V46.2197ZM56.539 46.2197H55.08V43.9502H56.539V46.2197Z" fill="white"/>
<path d="M46.0812 31.0417C46.0812 29.8667 45.1381 28.9141 43.9748 28.9141H20.1025C18.9392 28.9141 17.9961 29.8667 17.9961 31.0417V45.9353H24.3502C21.9061 42.0772 22.6367 36.9915 26.0658 33.9939C29.4948 30.9967 34.5825 30.9967 38.0115 33.9939C41.4406 36.9915 42.1712 42.0772 39.7271 45.9353H46.0812V31.0417Z" fill="white"/>
<path d="M29.5297 51.043L29.0586 54.4472H35.8671L35.396 51.043H29.5297Z" fill="white"/>
<path d="M24.8047 41.6705C24.9447 43.2384 25.5487 44.7262 26.5367 45.9378H38.3918C39.3799 44.7262 39.9838 43.2384 40.1238 41.6705H39.4567V40.248H40.1204C40.0398 39.3611 39.8097 38.495 39.44 37.6875L38.8694 38.0227L38.1702 36.7909L38.7407 36.4557C38.234 35.7285 37.6102 35.0941 36.8953 34.5787L36.5662 35.1593L35.3548 34.4481L35.6843 33.8675C34.8898 33.49 34.0369 33.2545 33.1635 33.1719V33.847H31.765V33.1719C30.892 33.2535 30.0391 33.4876 29.2443 33.864L29.5737 34.4443L28.3624 35.1555L28.0332 34.5752C27.3183 35.0906 26.6945 35.7251 26.1878 36.4523L26.7583 36.787L26.0591 38.0192L25.4886 37.6841C25.1188 38.4915 24.8887 39.3576 24.8081 40.2445H25.4718V41.667L24.8047 41.6705ZM33.3629 39.0388L35.4661 36.8996L36.4549 37.9053L34.3524 40.0452C34.4889 40.33 34.5606 40.6425 34.562 40.9592C34.562 42.1376 33.6227 43.0929 32.4643 43.0929C31.3058 43.0929 30.3665 42.1376 30.3665 40.9592C30.3665 39.7809 31.3058 38.8256 32.4643 38.8256C32.7756 38.827 33.0829 38.8999 33.3629 39.0388ZM32.4643 35.2694V36.6919C30.148 36.6943 28.2712 38.6033 28.2688 40.9592H26.8703C26.8737 37.8185 29.3764 35.2729 32.4643 35.2694Z" fill="white"/>
<path d="M33.3154 40.8315C33.3154 41.3015 32.9343 41.6826 32.4643 41.6826C31.9943 41.6826 31.6133 41.3015 31.6133 40.8315C31.6133 40.3615 31.9943 39.9805 32.4643 39.9805C32.9343 39.9805 33.3154 40.3615 33.3154 40.8315Z" fill="white"/>
<path d="M49.0255 55.5419H41.8242V57.0009H49.6802C50.0417 57.0009 50.3349 56.6743 50.3349 56.2714V51.8945H49.0255V55.5419Z" fill="white"/>
<path d="M52.0391 51.8945H53.7412V53.5967H52.0391V51.8945Z" fill="white"/>
<path d="M52.0391 55.2969H53.7412V56.1479H52.0391V55.2969Z" fill="white"/>
<path d="M21.9842 21.0677H34.1678V19.5547H21.2675C20.8717 19.5547 20.5508 19.8934 20.5508 20.3112V26.3632H21.9842V21.0677Z" fill="white"/>
<path d="M21.3984 17H22.2495V18.7021H21.3984V17Z" fill="white"/>
<path d="M23.9531 17H25.6553V18.7021H23.9531V17Z" fill="white"/>
<path d="M26.5078 17H28.2099V18.7021H26.5078V17Z" fill="white"/>
<path d="M29.9102 17H30.7612V18.7021H29.9102V17Z" fill="white"/>
</g>
<defs>
<clipPath id="clip0">
<rect width="40" height="40" fill="white" transform="translate(17.9961 17)"/>
</clipPath>
</defs>
</svg>
