<svg width="76" height="75" viewBox="0 0 76 75" fill="none" xmlns="http://www.w3.org/2000/svg">
<path d="M0.996094 37.5C0.996094 58.2107 17.7854 75 38.4961 75C59.2068 75 75.9961 58.2107 75.9961 37.5C75.9961 16.7893 59.2068 0 38.4961 0C17.7854 0 0.996094 16.7893 0.996094 37.5Z" fill="#82B8EC"/>
<path d="M20.9961 43.2487H25.3711V22.832H23.1836C22.604 22.8338 22.0486 23.0648 21.6387 23.4746C21.2288 23.8845 20.9978 24.4399 20.9961 25.0195V43.2487Z" fill="white"/>
<path d="M34.0352 50.543L33.4883 54.918H43.507L42.9602 50.543H34.0352Z" fill="white"/>
<path d="M55.9961 44.707H20.9961V46.8945C20.9978 47.4742 21.2288 48.0296 21.6387 48.4394C22.0486 48.8493 22.604 49.0803 23.1836 49.082H53.8086C54.3882 49.0803 54.9436 48.8493 55.3535 48.4394C55.7633 48.0296 55.9944 47.4742 55.9961 46.8945V44.707ZM53.0794 47.6237H51.6211V46.1654H53.0794V47.6237Z" fill="white"/>
<path d="M30.4766 56.375H46.5182V57.8333H30.4766V56.375Z" fill="white"/>
<path d="M50.8919 21.375C51.4721 21.375 52.0285 21.1445 52.4387 20.7343C52.849 20.3241 53.0794 19.7677 53.0794 19.1875C53.0794 18.6073 52.849 18.0509 52.4387 17.6407C52.0285 17.2305 51.4721 17 50.8919 17H31.9336C32.4069 17.6311 32.6628 18.3987 32.6628 19.1875C32.6628 19.9763 32.4069 20.7439 31.9336 21.375H50.8919Z" fill="white"/>
<path d="M55.9961 25.0195C55.9944 24.4399 55.7633 23.8845 55.3535 23.4746C54.9436 23.0648 54.3882 22.8338 53.8086 22.832H51.6211V43.2487H55.9961V25.0195Z" fill="white"/>
<path d="M26.8281 43.25H50.1615V22.8333H29.0156C28.8222 22.8333 28.6368 22.7565 28.5 22.6198C28.3633 22.483 28.2865 22.2976 28.2865 22.1042C28.2865 21.9108 28.3633 21.7253 28.5 21.5886C28.6368 21.4518 28.8222 21.375 29.0156 21.375C29.4483 21.375 29.8712 21.2467 30.2309 21.0063C30.5907 20.766 30.871 20.4243 31.0366 20.0246C31.2022 19.6249 31.2455 19.1851 31.1611 18.7607C31.0767 18.3364 30.8683 17.9466 30.5624 17.6407C30.2565 17.3348 29.8667 17.1264 29.4424 17.042C29.0181 16.9576 28.5782 17.0009 28.1785 17.1665C27.7788 17.3321 27.4372 17.6125 27.1968 17.9722C26.9564 18.3319 26.8281 18.7549 26.8281 19.1875V43.25ZM30.891 33.1394L32.154 32.4102L32.8831 33.6731L31.6202 34.4023L30.891 33.1394ZM34.0221 36.2704L32.7592 35.5413L33.4883 34.2783L34.7512 35.0075L34.0221 36.2704ZM39.7315 33.6731L40.4606 32.4102L41.7235 33.1394L40.9944 34.4023L39.7315 33.6731ZM39.8554 35.5413L38.5925 36.2704L37.8633 35.0075L39.1263 34.2783L39.8554 35.5413ZM40.6823 31.5833V30.125H42.1406V31.5833H40.6823ZM41.7235 28.569L40.4606 29.2981L39.7315 28.0352L40.9944 27.306L41.7235 28.569ZM38.5925 25.4379L39.8554 26.1671L39.1263 27.43L37.8633 26.7008L38.5925 25.4379ZM35.5781 25.0208H37.0365V26.4792H35.5781V25.0208ZM35.5781 30.8542C35.5781 30.6608 35.6549 30.4753 35.7917 30.3386C35.9284 30.2018 36.1139 30.125 36.3073 30.125H39.224V31.5833H37.0365V33.7708H35.5781V30.8542ZM35.5781 35.2292H37.0365V36.6875H35.5781V35.2292ZM35.5781 38.1458H37.0365V38.875H44.3281V31.5833H43.599V30.125H45.0573C45.2507 30.125 45.4361 30.2018 45.5729 30.3386C45.7096 30.4753 45.7865 30.6608 45.7865 30.8542V39.6042C45.7865 39.7976 45.7096 39.983 45.5729 40.1198C45.4361 40.2565 45.2507 40.3333 45.0573 40.3333H36.3073C36.1139 40.3333 35.9284 40.2565 35.7917 40.1198C35.6549 39.983 35.5781 39.7976 35.5781 39.6042V38.1458ZM34.0221 25.4379L34.7512 26.7008L33.4883 27.43L32.7592 26.1671L34.0221 25.4379ZM31.6202 27.306L32.8831 28.0352L32.154 29.2981L30.891 28.569L31.6202 27.306ZM30.474 30.125H31.9323V31.5833H30.474V30.125Z" fill="white"/>
</svg>
