<svg width="88" height="88" viewBox="0 0 88 88" fill="none" xmlns="http://www.w3.org/2000/svg">
<g opacity="0.2" filter="url(#filter0_f)">
<circle cx="44" cy="44" r="20" fill="#0570D8"/>
</g>
<path d="M29.9375 42.75C30.8829 42.75 31.7386 42.3707 32.371 41.7615L35.8399 43.4958C35.8225 43.6371 35.7969 43.776 35.7969 43.9219C35.7969 45.8604 37.374 47.4375 39.3125 47.4375C41.251 47.4375 42.8281 45.8604 42.8281 43.9219C42.8281 43.3808 42.6951 42.8742 42.4756 42.4158L47.1815 37.71C47.6398 37.9294 48.1464 38.0625 48.6875 38.0625C50.626 38.0625 52.2031 36.4854 52.2031 34.5469C52.2031 34.1819 52.1314 33.8367 52.0276 33.5056L56.1164 30.4398C56.6743 30.8124 57.3429 31.0312 58.0625 31.0312C60.001 31.0312 61.5781 29.4541 61.5781 27.5156C61.5781 25.5771 60.001 24 58.0625 24C56.124 24 54.5469 25.5771 54.5469 27.5156C54.5469 27.8806 54.6186 28.2258 54.7224 28.5569L50.6336 31.6227C50.0757 31.2501 49.4071 31.0312 48.6875 31.0312C46.749 31.0312 45.1719 32.6084 45.1719 34.5469C45.1719 35.088 45.3049 35.5945 45.5244 36.0529L40.8185 40.7587C40.3602 40.5393 39.8536 40.4062 39.3125 40.4062C38.3671 40.4062 37.5114 40.7856 36.879 41.3947L33.4101 39.6604C33.4275 39.5191 33.4531 39.3802 33.4531 39.2344C33.4531 37.2959 31.876 35.7188 29.9375 35.7188C27.999 35.7188 26.4219 37.2959 26.4219 39.2344C26.4219 41.1729 27.999 42.75 29.9375 42.75Z" fill="#0570D8"/>
<path d="M62.8281 61.6562H61.5781V36.8906C61.5781 36.243 61.0538 35.7188 60.4062 35.7188H55.7188C55.0712 35.7188 54.5469 36.243 54.5469 36.8906V61.6562H52.2031V43.9219C52.2031 43.2743 51.6788 42.75 51.0312 42.75H46.3438C45.6962 42.75 45.1719 43.2743 45.1719 43.9219V61.6562H42.8281V53.2969C42.8281 52.6493 42.3038 52.125 41.6562 52.125H36.9688C36.3212 52.125 35.7969 52.6493 35.7969 53.2969V61.6562H33.4531V48.6094C33.4531 47.9618 32.9288 47.4375 32.2812 47.4375H27.5938C26.9462 47.4375 26.4219 47.9618 26.4219 48.6094V61.6562H25.1719C24.5243 61.6562 24 62.1805 24 62.8281C24 63.4757 24.5243 64 25.1719 64H62.8281C63.4757 64 64 63.4757 64 62.8281C64 62.1805 63.4757 61.6562 62.8281 61.6562Z" fill="#0570D8"/>
<defs>
<filter id="filter0_f" x="0" y="0" width="88" height="88" filterUnits="userSpaceOnUse" color-interpolation-filters="sRGB">
<feFlood flood-opacity="0" result="BackgroundImageFix"/>
<feBlend mode="normal" in="SourceGraphic" in2="BackgroundImageFix" result="shape"/>
<feGaussianBlur stdDeviation="12" result="effect1_foregroundBlur"/>
</filter>
</defs>
</svg>
