<svg width="139" height="71" viewBox="0 0 139 71" fill="none" xmlns="http://www.w3.org/2000/svg">
<mask id="mask0" mask-type="alpha" maskUnits="userSpaceOnUse" x="0" y="0" width="139" height="71">
<rect width="139" height="71" rx="15" fill="white"/>
</mask>
<g mask="url(#mask0)">
<path opacity="0.2" fill-rule="evenodd" clip-rule="evenodd" d="M117.437 35.9916C128.095 31.6827 143.639 50.0741 151.184 41.4058C159.207 32.1889 140.849 17.7866 143.633 5.89742C145.691 -2.89175 159.239 -4.13251 163.687 -11.992C168.36 -20.2482 175.316 -32.2161 169.39 -39.6136C161.951 -48.9002 145.888 -43.1911 134.942 -47.8748C129.197 -50.3326 124.833 -55.261 121.107 -60.2718C115.201 -68.2169 116.2 -83.2746 106.652 -85.9255C97.7737 -88.3907 92.4965 -73.9626 83.9118 -70.5991C76.8554 -67.8344 68.2318 -71.7084 61.4967 -68.2336C54.7647 -64.7605 51.2374 -57.3247 46.5918 -51.345C41.8256 -45.2101 37.5704 -38.9173 33.5553 -32.2682C28.6392 -24.127 18.8974 -16.8388 20.0605 -7.40863C21.2258 2.03892 33.7468 5.65874 39.196 13.4634C44 20.3442 43.4709 30.8954 50.2557 35.8391C57.1558 40.867 67.9565 35.5512 75.3565 39.812C84.733 45.2108 86.7855 64.0611 97.5702 63.082C108.821 62.0605 106.962 40.2268 117.437 35.9916Z" fill="#1CD8D2"/>
</g>
</svg>
