<svg width="45" height="45" viewBox="0 0 45 45" fill="none" xmlns="http://www.w3.org/2000/svg">
<path d="M6.68164 21.0938C7.74525 21.0938 8.70793 20.667 9.4193 19.9817L13.3218 21.9328C13.3023 22.0918 13.2734 22.248 13.2734 22.4121C13.2734 24.5929 15.0477 26.3672 17.2285 26.3672C19.4093 26.3672 21.1836 24.5929 21.1836 22.4121C21.1836 21.8034 21.0339 21.2335 20.7871 20.7178L26.0811 15.4238C26.5968 15.6706 27.1667 15.8203 27.7754 15.8203C29.9562 15.8203 31.7305 14.046 31.7305 11.8652C31.7305 11.4546 31.6498 11.0663 31.5331 10.6938L36.1329 7.2448C36.7605 7.66399 37.5127 7.91016 38.3223 7.91016C40.5031 7.91016 42.2773 6.13586 42.2773 3.95508C42.2773 1.77429 40.5031 0 38.3223 0C36.1415 0 34.3672 1.77429 34.3672 3.95508C34.3672 4.36569 34.4479 4.75399 34.5646 5.1265L29.9648 8.57552C29.3372 8.15632 28.5849 7.91016 27.7754 7.91016C25.5946 7.91016 23.8203 9.68445 23.8203 11.8652C23.8203 12.4739 23.97 13.0439 24.2169 13.5595L18.9228 18.8536C18.4071 18.6067 17.8372 18.457 17.2285 18.457C16.1649 18.457 15.2022 18.8838 14.4909 19.5691L10.5883 17.618C10.6079 17.459 10.6367 17.3028 10.6367 17.1387C10.6367 14.9579 8.86243 13.1836 6.68164 13.1836C4.50085 13.1836 2.72656 14.9579 2.72656 17.1387C2.72656 19.3195 4.50085 21.0938 6.68164 21.0938Z" fill="#0570D8"/>
<path d="M43.6816 42.3633H42.2754V14.502C42.2754 13.7734 41.6856 13.1836 40.957 13.1836H35.6836C34.9551 13.1836 34.3652 13.7734 34.3652 14.502V42.3633H31.7285V22.4121C31.7285 21.6836 31.1387 21.0938 30.4102 21.0938H25.1367C24.4082 21.0938 23.8184 21.6836 23.8184 22.4121V42.3633H21.1816V32.959C21.1816 32.2305 20.5918 31.6406 19.8633 31.6406H14.5898C13.8613 31.6406 13.2715 32.2305 13.2715 32.959V42.3633H10.6348V27.6855C10.6348 26.957 10.0449 26.3672 9.31641 26.3672H4.04297C3.31444 26.3672 2.72461 26.957 2.72461 27.6855V42.3633H1.31836C0.589829 42.3633 0 42.9531 0 43.6816C0 44.4102 0.589829 45 1.31836 45H43.6816C44.4102 45 45 44.4102 45 43.6816C45 42.9531 44.4102 42.3633 43.6816 42.3633Z" fill="#0570D8"/>
</svg>
