<svg width="88" height="88" viewBox="0 0 88 88" fill="none" xmlns="http://www.w3.org/2000/svg">
<circle opacity="0.1" cx="44" cy="44" r="44" fill="#1CD8D2"/>
<g clip-path="url(#clip0)">
<path d="M48.698 39.5359C49.8299 39.5359 50.7475 38.6552 50.7475 37.5687C50.7475 36.4823 49.8299 35.6016 48.698 35.6016C47.566 35.6016 46.6484 36.4823 46.6484 37.5687C46.6484 38.6552 47.566 39.5359 48.698 39.5359Z" fill="#2F2E41"/>
<path d="M49.2681 35.6532C49.6228 35.6532 49.9714 35.7416 50.2798 35.9097C50.5883 36.0778 50.846 36.3198 51.0278 36.6122C51.2097 36.9045 51.3093 37.2371 51.3171 37.5775C51.3249 37.9178 51.2406 38.2543 51.0723 38.554C51.25 38.3406 51.3794 38.094 51.4523 37.83C51.5252 37.5659 51.5401 37.2902 51.4958 37.0204C51.4516 36.7505 51.3492 36.4925 51.1953 36.2627C51.0415 36.0329 50.8394 35.8364 50.602 35.6857C50.3646 35.535 50.0971 35.4334 49.8166 35.3874C49.536 35.3415 49.2486 35.3521 48.9726 35.4186C48.6965 35.4852 48.438 35.6062 48.2134 35.7739C47.9887 35.9417 47.803 36.1525 47.668 36.393C47.8596 36.1621 48.1029 35.9757 48.38 35.8476C48.657 35.7195 48.9606 35.6531 49.2681 35.6532Z" fill="#2F2E41"/>
<path d="M44.8682 37.565C48.1932 37.565 50.8887 34.9779 50.8887 31.7864C50.8887 28.595 48.1932 26.0078 44.8682 26.0078C41.5431 26.0078 38.8477 28.595 38.8477 31.7864C38.8477 34.9779 41.5431 37.565 44.8682 37.565Z" fill="#2F2E41"/>
<path d="M40.1414 28.1987C41.1788 27.0789 42.6288 26.3898 44.1856 26.2767C45.7423 26.1637 47.2839 26.6356 48.485 27.5928C48.4358 27.5479 48.3871 27.5026 48.3359 27.459C47.1425 26.4411 45.5768 25.9199 43.983 26.01C42.3893 26.1001 40.8981 26.794 39.8374 27.9393C38.7766 29.0845 38.2333 30.5873 38.3267 32.117C38.4202 33.6467 39.1429 35.0782 40.3358 36.0965C40.387 36.1402 40.4396 36.1813 40.4918 36.223C39.3607 35.1902 38.6918 33.776 38.6264 32.2788C38.561 30.7817 39.1042 29.3187 40.1414 28.1987Z" fill="#2F2E41"/>
<path d="M44.819 37.514C46.9606 37.514 48.6966 35.8476 48.6966 33.7921C48.6966 31.7366 46.9606 30.0703 44.819 30.0703C42.6775 30.0703 40.9414 31.7366 40.9414 33.7921C40.9414 35.8476 42.6775 37.514 44.819 37.514Z" fill="#FFB8B8"/>
<path d="M42.0605 34.9688C42.0605 34.9688 42.5707 39.4741 41.7544 39.9638C40.938 40.4535 46.4484 41.1391 46.4484 41.1391C46.4484 41.1391 45.632 36.242 47.6729 34.9688H42.0605Z" fill="#FFB8B8"/>
<path d="M46.9599 39.1805C46.9599 39.1805 48.4793 38.4994 46.291 38.742C44.1027 38.9846 42.2147 38.0541 42.2147 38.0541C42.2147 38.0541 41.5516 37.4175 41.4496 38.1031C41.3475 38.7887 41.7557 40.062 39.5108 40.2578C37.2658 40.4537 35.225 39.8661 34.4086 41.3352C33.5923 42.8043 34.0005 49.1706 34.0005 49.1706C34.0005 49.1706 35.5311 54.4595 36.7556 55.243C37.9801 56.0266 48.6946 54.9492 48.6946 54.9492L51.7559 49.6603V43.4899C51.7559 43.4899 51.3477 41.3352 48.4905 41.9229C48.4905 41.9229 46.6537 41.5311 46.7558 40.6496C46.8578 39.7681 46.9599 39.1805 46.9599 39.1805Z" fill="#D0CDE1"/>
<path d="M37.1627 58.987C37.2258 58.7233 37.268 58.5741 37.268 58.5741L37.2353 58.3595L36.8992 56.1683L36.7578 55.2441C37.982 54.7544 38.2884 52.5016 38.2884 52.5016L38.3346 52.4751L38.5435 52.3551V52.3546L39.2936 51.9227L39.3088 51.9141L39.6117 52.1076L40.2272 52.5016C42.3806 54.0215 44.5734 53.9944 45.9266 53.755C46.7538 53.6085 47.268 53.3831 47.268 53.3831L48.7524 52.908L48.7985 52.8934L48.8441 52.8999L49.7147 53.0264L49.7305 53.0291L49.8026 53.0394L49.601 54.3771L49.3087 56.3213C50.0808 56.7137 50.7672 57.4509 51.3675 58.3595C51.5004 58.5606 51.6292 58.7698 51.7538 58.987C51.916 59.2681 52.0708 59.5605 52.2184 59.8599C52.2364 59.8956 52.2539 59.9318 52.2713 59.968C52.3282 60.0853 52.3845 60.2037 52.4391 60.3226H36.8924C36.9127 60.2032 36.9329 60.0891 36.9527 59.9794C36.9537 59.9757 36.9544 59.9719 36.9549 59.968C36.9622 59.9313 36.969 59.8956 36.9752 59.8599C37.0439 59.5032 37.1103 59.2054 37.1627 58.987Z" fill="#2F2E41"/>
<path d="M36.5508 40.1596C36.5508 40.1596 37.6732 42.1185 37.2651 44.567C36.8569 47.0156 38.4896 53.088 38.4896 53.088L39.7141 52.7942C39.7141 52.7942 38.8978 47.7012 39.1018 46.5259C39.3059 45.3506 39.3059 40.7473 38.2855 40.1596C37.2651 39.572 36.5508 40.1596 36.5508 40.1596Z" fill="#2F2E41"/>
<path d="M48.4187 42.1954L48.8476 53.0392L49.664 53.5289C49.664 53.5289 50.8374 41.6289 50.2252 41.6289H48.9794C48.9033 41.6289 48.8279 41.6438 48.7579 41.6726C48.688 41.7014 48.6248 41.7436 48.5724 41.7966C48.5199 41.8496 48.4793 41.9123 48.4528 41.9809C48.4264 42.0494 48.4148 42.1224 48.4187 42.1954Z" fill="#2F2E41"/>
<path d="M39.0532 52.8427C39.335 52.8427 39.5634 52.6234 39.5634 52.353C39.5634 52.0825 39.335 51.8633 39.0532 51.8633C38.7714 51.8633 38.543 52.0825 38.543 52.353C38.543 52.6234 38.7714 52.8427 39.0532 52.8427Z" fill="#6C63FF"/>
<path d="M49.2563 53.331C49.5381 53.331 49.7665 53.1118 49.7665 52.8413C49.7665 52.5708 49.5381 52.3516 49.2563 52.3516C48.9745 52.3516 48.7461 52.5708 48.7461 52.8413C48.7461 53.1118 48.9745 53.331 49.2563 53.331Z" fill="#6C63FF"/>
<path d="M41.5 29.1406V32.8624H42.398L43.5409 31.6871L43.3878 32.8624H47.3572L47.1123 31.6871L47.6021 32.8624H48.2347V29.1406H41.5Z" fill="#2F2E41"/>
<path d="M40.8882 33.5461C41.0572 33.5461 41.1943 33.3049 41.1943 33.0074C41.1943 32.7099 41.0572 32.4688 40.8882 32.4688C40.7191 32.4688 40.582 32.7099 40.582 33.0074C40.582 33.3049 40.7191 33.5461 40.8882 33.5461Z" fill="#FFB8B8"/>
<path d="M48.7475 33.5461C48.9166 33.5461 49.0537 33.3049 49.0537 33.0074C49.0537 32.7099 48.9166 32.4688 48.7475 32.4688C48.5785 32.4688 48.4414 32.7099 48.4414 33.0074C48.4414 33.3049 48.5785 33.5461 48.7475 33.5461Z" fill="#FFB8B8"/>
<path d="M50.8365 52.7935C50.8365 52.7935 46.1935 51.9611 45.8874 53.4302C45.5813 54.8993 51.0406 54.2627 51.0406 54.2627L50.8365 52.7935Z" fill="#FFB8B8"/>
<path d="M50.7338 42.707C50.7338 42.707 61.8564 51.2281 59.8156 53.2849C57.7747 55.3417 50.0195 54.754 50.0195 54.754L50.5297 52.3054L55.0196 51.8157L52.7747 49.661L50.7338 49.8569V42.707Z" fill="#D0CDE1"/>
<path d="M34.3086 56.9063L35.7372 57.9837C35.7372 57.9837 36.7576 61.0199 38.2883 60.1384C39.8189 59.2569 36.8597 56.1228 36.8597 56.1228L35.1249 55.5352L34.3086 56.9063Z" fill="#FFB8B8"/>
<path d="M35.7357 41.1367L34.3109 41.5482C34.3109 41.5482 24.409 48.5804 24.0008 50.5392C23.5926 52.4981 25.9396 53.5754 25.9396 53.5754L34.8173 57.5911L35.7357 55.2405L31.5519 53.1837C31.5519 53.1837 31.8581 52.596 30.6335 52.4981C29.409 52.4001 29.205 51.1269 29.205 51.1269C29.205 51.1269 31.654 47.503 32.9805 48.2865C34.3071 49.0701 34.7152 49.6577 34.7152 49.6577L35.7357 41.1367Z" fill="#D0CDE1"/>
<path d="M56.0573 59.3193V59.6474C56.0575 59.7374 56.0401 59.8267 56.006 59.9106C55.9909 59.948 55.9726 59.9841 55.9514 60.0187C55.8843 60.1268 55.7891 60.2163 55.675 60.2785C55.561 60.3407 55.4321 60.3733 55.301 60.3733H30.1547C30.0236 60.3733 29.8947 60.3407 29.7807 60.2785C29.6667 60.2163 29.5714 60.1268 29.5043 60.0187C29.4831 59.9841 29.4648 59.948 29.4497 59.9106C29.4156 59.8267 29.3982 59.7374 29.3984 59.6474V59.3193C29.3984 59.2239 29.418 59.1295 29.456 59.0415C29.4939 58.9534 29.5497 58.8733 29.6199 58.8059C29.6901 58.7385 29.7735 58.6851 29.8653 58.6486C29.957 58.6121 30.0554 58.5934 30.1547 58.5934H31.6042V58.4404C31.6042 58.4364 31.605 58.4325 31.6066 58.4288C31.6082 58.4252 31.6105 58.4218 31.6134 58.419C31.6163 58.4162 31.6198 58.414 31.6237 58.4124C31.6275 58.4109 31.6316 58.4101 31.6357 58.4102H32.392C32.3961 58.4101 32.4003 58.4109 32.4041 58.4124C32.4079 58.414 32.4114 58.4162 32.4143 58.419C32.4172 58.4218 32.4196 58.4252 32.4212 58.4288C32.4227 58.4325 32.4235 58.4364 32.4235 58.4404V58.5934H32.896V58.4404C32.896 58.4364 32.8968 58.4325 32.8984 58.4288C32.9 58.4252 32.9023 58.4218 32.9052 58.419C32.9082 58.4162 32.9116 58.414 32.9155 58.4124C32.9193 58.4109 32.9234 58.4101 32.9275 58.4102H33.6838C33.688 58.4101 33.6921 58.4109 33.6959 58.4124C33.6997 58.414 33.7032 58.4162 33.7061 58.419C33.7091 58.4218 33.7114 58.4252 33.713 58.4288C33.7145 58.4325 33.7154 58.4364 33.7153 58.4404V58.5934H34.1884V58.4404C34.1884 58.4364 34.1892 58.4325 34.1908 58.4288C34.1923 58.4252 34.1947 58.4218 34.1976 58.419C34.2005 58.4162 34.204 58.414 34.2078 58.4124C34.2117 58.4109 34.2158 58.4101 34.2199 58.4102H34.9762C34.9803 58.4101 34.9844 58.4109 34.9883 58.4124C34.9921 58.414 34.9956 58.4162 34.9985 58.419C35.0014 58.4218 35.0037 58.4252 35.0053 58.4288C35.0069 58.4325 35.0077 58.4364 35.0077 58.4404V58.5934H35.4802V58.4404C35.4802 58.4364 35.481 58.4325 35.4826 58.4288C35.4841 58.4252 35.4865 58.4218 35.4894 58.419C35.4923 58.4162 35.4958 58.414 35.4996 58.4124C35.5035 58.4109 35.5076 58.4101 35.5117 58.4102H36.268C36.2721 58.4101 36.2762 58.4109 36.2801 58.4124C36.2839 58.414 36.2874 58.4162 36.2903 58.419C36.2932 58.4218 36.2956 58.4252 36.2971 58.4288C36.2987 58.4325 36.2995 58.4364 36.2995 58.4404V58.5934H36.772V58.4404C36.772 58.4364 36.7728 58.4325 36.7744 58.4288C36.7759 58.4252 36.7783 58.4218 36.7812 58.419C36.7841 58.4162 36.7876 58.414 36.7914 58.4124C36.7953 58.4109 36.7994 58.4101 36.8035 58.4102H37.5598C37.5639 58.4101 37.568 58.4109 37.5719 58.4124C37.5757 58.414 37.5792 58.4162 37.5821 58.419C37.585 58.4218 37.5874 58.4252 37.5889 58.4288C37.5905 58.4325 37.5913 58.4364 37.5913 58.4404V58.5934H38.0643V58.4404C38.0643 58.4364 38.0652 58.4325 38.0667 58.4288C38.0683 58.4252 38.0706 58.4218 38.0736 58.419C38.0765 58.4162 38.08 58.414 38.0838 58.4124C38.0876 58.4109 38.0917 58.4101 38.0959 58.4102H38.8522C38.8563 58.4101 38.8604 58.4109 38.8642 58.4124C38.8681 58.414 38.8715 58.4162 38.8745 58.419C38.8774 58.4218 38.8797 58.4252 38.8813 58.4288C38.8829 58.4325 38.8837 58.4364 38.8837 58.4404V58.5934H39.3562V58.4404C39.3561 58.4364 39.357 58.4325 39.3585 58.4288C39.3601 58.4252 39.3624 58.4218 39.3654 58.419C39.3683 58.4162 39.3718 58.414 39.3756 58.4124C39.3794 58.4109 39.3835 58.4101 39.3877 58.4102H45.3118C45.3159 58.4101 45.32 58.4109 45.3238 58.4124C45.3277 58.414 45.3311 58.4162 45.3341 58.419C45.337 58.4218 45.3393 58.4252 45.3409 58.4288C45.3425 58.4325 45.3433 58.4364 45.3433 58.4404V58.5934H45.8163V58.4404C45.8163 58.4364 45.8171 58.4325 45.8187 58.4288C45.8203 58.4252 45.8226 58.4218 45.8255 58.419C45.8285 58.4162 45.8319 58.414 45.8358 58.4124C45.8396 58.4109 45.8437 58.4101 45.8478 58.4102H46.6041C46.6125 58.4102 46.6204 58.4134 46.6263 58.4191C46.6322 58.4248 46.6356 58.4324 46.6357 58.4404V58.5934H47.1081V58.4404C47.1081 58.4364 47.1089 58.4325 47.1105 58.4288C47.1121 58.4252 47.1144 58.4218 47.1173 58.419C47.1203 58.4162 47.1237 58.414 47.1276 58.4124C47.1314 58.4109 47.1355 58.4101 47.1397 58.4102H47.8959C47.9001 58.4101 47.9042 58.4109 47.908 58.4124C47.9118 58.414 47.9153 58.4162 47.9182 58.419C47.9212 58.4218 47.9235 58.4252 47.9251 58.4288C47.9267 58.4325 47.9275 58.4364 47.9275 58.4404V58.5934H48.3999V58.4404C48.3999 58.4364 48.4007 58.4325 48.4023 58.4288C48.4039 58.4252 48.4062 58.4218 48.4091 58.419C48.4121 58.4162 48.4156 58.414 48.4194 58.4124C48.4232 58.4109 48.4273 58.4101 48.4315 58.4102H49.1877C49.1919 58.4101 49.196 58.4109 49.1998 58.4124C49.2036 58.414 49.2071 58.4162 49.21 58.419C49.213 58.4218 49.2153 58.4252 49.2169 58.4288C49.2185 58.4325 49.2193 58.4364 49.2193 58.4404V58.5934H49.6923V58.4404C49.6923 58.4364 49.6931 58.4325 49.6947 58.4288C49.6963 58.4252 49.6986 58.4218 49.7015 58.419C49.7044 58.4162 49.7079 58.414 49.7117 58.4124C49.7156 58.4109 49.7197 58.4101 49.7238 58.4102H50.4801C50.4884 58.4103 50.4963 58.4135 50.5021 58.4192C50.5079 58.4248 50.5111 58.4325 50.5111 58.4404V58.5934H50.9841V58.4404C50.9841 58.4364 50.9849 58.4325 50.9865 58.4288C50.9881 58.4252 50.9904 58.4218 50.9933 58.419C50.9962 58.4162 50.9997 58.414 51.0036 58.4124C51.0074 58.4109 51.0115 58.4101 51.0156 58.4102H51.7719C51.776 58.4101 51.7802 58.4109 51.784 58.4124C51.7878 58.414 51.7913 58.4162 51.7942 58.419C51.7971 58.4218 51.7995 58.4252 51.8011 58.4288C51.8026 58.4325 51.8034 58.4364 51.8034 58.4404V58.5934H52.2759V58.4404C52.2759 58.4364 52.2767 58.4325 52.2783 58.4288C52.2799 58.4252 52.2822 58.4218 52.2851 58.419C52.2881 58.4162 52.2915 58.414 52.2954 58.4124C52.2992 58.4109 52.3033 58.4101 52.3074 58.4102H53.0637C53.0679 58.4101 53.072 58.4109 53.0758 58.4124C53.0796 58.414 53.0831 58.4162 53.086 58.419C53.089 58.4218 53.0913 58.4252 53.0929 58.4288C53.0944 58.4325 53.0953 58.4364 53.0952 58.4404V58.5934H55.301C55.4003 58.5934 55.4987 58.6121 55.5904 58.6486C55.6822 58.6851 55.7656 58.7385 55.8358 58.8059C55.9061 58.8733 55.9618 58.9534 55.9998 59.0415C56.0378 59.1295 56.0573 59.2239 56.0573 59.3193Z" fill="#3F3D56"/>
<path d="M63.3669 59.9102H22.0898V60.0183H63.3669V59.9102Z" fill="#3F3D56"/>
<path d="M54.0315 45.5018H44.6587V45.3164H40.4087V45.5018H30.9973C30.8291 45.5018 30.6679 45.5659 30.549 45.6801C30.4301 45.7942 30.3633 45.949 30.3633 46.1104V58.429C30.3633 58.5903 30.4301 58.7451 30.549 58.8592C30.6679 58.9734 30.8291 59.0375 30.9973 59.0375H54.0315C54.1997 59.0375 54.3609 58.9734 54.4798 58.8592C54.5987 58.7451 54.6655 58.5903 54.6655 58.429V46.1104C54.6655 46.0304 54.6491 45.9513 54.6173 45.8775C54.5854 45.8037 54.5387 45.7366 54.4798 45.6801C54.421 45.6236 54.3511 45.5787 54.2741 45.5481C54.1972 45.5176 54.1148 45.5018 54.0315 45.5018Z" fill="#3F3D56"/>
<path d="M42.5328 51.1556C43.3103 51.1556 43.9406 50.5507 43.9406 49.8044C43.9406 49.0581 43.3103 48.4531 42.5328 48.4531C41.7553 48.4531 41.125 49.0581 41.125 49.8044C41.125 50.5507 41.7553 51.1556 42.5328 51.1556Z" stroke="#D0CDE1" stroke-width="2" stroke-miterlimit="10"/>
<path d="M42.0836 51.6439C42.8611 51.6439 43.4914 51.039 43.4914 50.2927C43.4914 49.5464 42.8611 48.9414 42.0836 48.9414C41.3061 48.9414 40.6758 49.5464 40.6758 50.2927C40.6758 51.039 41.3061 51.6439 42.0836 51.6439Z" fill="#D0CDE1"/>
<path d="M25.1079 61.8633H14.4648V61.9855H25.1079V61.8633Z" fill="#3F3D56"/>
<path d="M71.565 61.8633H60.9219V61.9855H71.565V61.8633Z" fill="#3F3D56"/>
<path d="M20.6668 57.9279C19.5455 59.6849 19.9313 61.8704 19.9313 61.8704C19.9313 61.8704 22.1349 61.2072 23.2562 59.4503C24.3774 57.6933 23.9916 55.5078 23.9916 55.5078C23.9916 55.5078 21.788 56.1709 20.6668 57.9279Z" fill="#3F3D56"/>
<path d="M19.8857 61.8863L19.8219 61.8766C19.7988 61.8731 17.5042 61.5081 16.1299 59.93C14.7557 58.3517 14.7887 56.1195 14.7892 56.0971L14.7906 56.0352L14.8543 56.0448C14.8774 56.0484 17.172 56.4133 18.5463 57.9915C19.9205 59.5697 19.8875 61.802 19.887 61.8243L19.8857 61.8863Z" fill="#6C63FF"/>
<path d="M19.9771 61.9402L19.9155 61.9217C19.8932 61.915 17.6787 61.2322 16.5594 59.4783C15.4401 57.7243 15.8125 55.5206 15.8164 55.4986L15.8272 55.4375L15.8888 55.456C15.911 55.4627 18.1255 56.1455 19.2449 57.8995C20.3642 59.6534 19.9917 61.8571 19.9879 61.8791L19.9771 61.9402ZM15.918 55.5798C15.867 55.9496 15.6639 57.868 16.6554 59.4218C17.6471 60.9756 19.5199 61.6735 19.8862 61.798C19.9372 61.4281 20.1404 59.5097 19.1488 57.9559C18.1572 56.4021 16.2844 55.7043 15.918 55.5798H15.918Z" fill="#3F3D56"/>
<path d="M20.0006 56.179C20.6848 56.179 21.2395 55.6466 21.2395 54.9899C21.2395 54.3332 20.6848 53.8008 20.0006 53.8008C19.3164 53.8008 18.7617 54.3332 18.7617 54.9899C18.7617 55.6466 19.3164 56.179 20.0006 56.179Z" fill="#3F3D56"/>
<path d="M35.513 39.96L28.406 33.0847H25.0508V32.9766H28.453L28.4696 32.9926L35.5931 39.884L35.513 39.96Z" fill="#3F3D56"/>
<path d="M52.2051 39.7412L59.312 32.8659H62.6673V32.7578H59.265L59.2485 32.7739L52.125 39.6652L52.2051 39.7412Z" fill="#3F3D56"/>
<path d="M21.2216 29.6953H13V31.2561H21.2216V29.6953Z" fill="#D0CDE1"/>
<path d="M21.2216 32.0898H13V33.6506H21.2216V32.0898Z" fill="#D0CDE1"/>
<path d="M21.2216 34.4844H13V36.0452H21.2216V34.4844Z" fill="#D0CDE1"/>
<path opacity="0.15" d="M16.4012 29.6953H13V31.2561H16.4012V29.6953Z" fill="black"/>
<path opacity="0.15" d="M14.1011 32.0898H13V33.6506H14.1011V32.0898Z" fill="black"/>
<path opacity="0.15" d="M18.4811 34.4844H13V36.0452H18.4811V34.4844Z" fill="black"/>
<path d="M74.9998 30.043H66.7656V30.7472H74.9998V30.043Z" fill="#D0CDE1"/>
<path d="M65.3102 29.9531H63.6797V31.5182H65.3102V29.9531Z" fill="#6C63FF"/>
<path d="M65.3102 32.3008H63.6797V33.8658H65.3102V32.3008Z" fill="#6C63FF"/>
<path d="M65.3102 34.6484H63.6797V36.2135H65.3102V34.6484Z" fill="#6C63FF"/>
<path d="M65.7626 31.1927H64.0195V29.5195H65.7626V31.1927ZM64.1322 31.0846H65.65V29.6276H64.1322V31.0846Z" fill="#3F3D56"/>
<path d="M74.9998 32.3906H66.7656V33.0949H74.9998V32.3906Z" fill="#D0CDE1"/>
<path d="M65.7626 33.5403H64.0195V31.8672H65.7626V33.5403ZM64.1322 33.4322H65.65V31.9753H64.1322V33.4322Z" fill="#3F3D56"/>
<path d="M74.9998 34.7383H66.7656V35.4425H74.9998V34.7383Z" fill="#D0CDE1"/>
<path d="M65.7626 35.888H64.0195V34.2148H65.7626V35.888ZM64.1322 35.7799H65.65V34.3229H64.1322V35.7799Z" fill="#3F3D56"/>
<path d="M23.6432 31.3546C24.1408 31.3546 24.5442 30.9674 24.5442 30.4898C24.5442 30.0122 24.1408 29.625 23.6432 29.625C23.1456 29.625 22.7422 30.0122 22.7422 30.4898C22.7422 30.9674 23.1456 31.3546 23.6432 31.3546Z" fill="#6C63FF"/>
<path d="M23.6432 33.9483C24.1408 33.9483 24.5442 33.5612 24.5442 33.0835C24.5442 32.6059 24.1408 32.2188 23.6432 32.2188C23.1456 32.2188 22.7422 32.6059 22.7422 33.0835C22.7422 33.5612 23.1456 33.9483 23.6432 33.9483Z" fill="#6C63FF"/>
<path d="M23.6432 36.2726C24.1408 36.2726 24.5442 35.8854 24.5442 35.4078C24.5442 34.9301 24.1408 34.543 23.6432 34.543C23.1456 34.543 22.7422 34.9301 22.7422 35.4078C22.7422 35.8854 23.1456 36.2726 23.6432 36.2726Z" fill="#6C63FF"/>
<path d="M23.1917 31.1932C23.0023 31.1932 22.8173 31.1393 22.6598 31.0383C22.5024 30.9374 22.3797 30.7938 22.3072 30.6259C22.2348 30.4581 22.2158 30.2733 22.2528 30.0951C22.2897 29.9168 22.3809 29.7531 22.5148 29.6246C22.6486 29.4961 22.8192 29.4086 23.0049 29.3731C23.1906 29.3377 23.3831 29.3559 23.558 29.4254C23.733 29.495 23.8825 29.6127 23.9877 29.7638C24.0928 29.9149 24.149 30.0926 24.149 30.2743C24.1487 30.5179 24.0478 30.7515 23.8683 30.9237C23.6888 31.096 23.4455 31.1929 23.1917 31.1932ZM23.1917 29.4636C23.0246 29.4636 22.8613 29.5111 22.7224 29.6002C22.5835 29.6893 22.4752 29.8159 22.4113 29.9641C22.3474 30.1122 22.3306 30.2752 22.3632 30.4325C22.3958 30.5898 22.4763 30.7342 22.5944 30.8476C22.7125 30.961 22.863 31.0382 23.0269 31.0695C23.1907 31.1008 23.3606 31.0847 23.5149 31.0234C23.6693 30.962 23.8012 30.8581 23.894 30.7247C23.9868 30.5914 24.0364 30.4347 24.0364 30.2743C24.0361 30.0594 23.947 29.8533 23.7887 29.7013C23.6303 29.5493 23.4156 29.4638 23.1917 29.4636Z" fill="#3F3D56"/>
<path d="M23.1917 33.7869C23.0023 33.7869 22.8173 33.733 22.6598 33.6321C22.5024 33.5311 22.3797 33.3876 22.3072 33.2197C22.2348 33.0518 22.2158 32.867 22.2528 32.6888C22.2897 32.5106 22.3809 32.3468 22.5148 32.2183C22.6486 32.0898 22.8192 32.0023 23.0049 31.9669C23.1906 31.9314 23.3831 31.9496 23.558 32.0192C23.733 32.0887 23.8825 32.2065 23.9877 32.3576C24.0928 32.5087 24.149 32.6863 24.149 32.8681C24.1487 33.1117 24.0478 33.3452 23.8683 33.5175C23.6888 33.6897 23.4455 33.7866 23.1917 33.7869ZM23.1917 32.0573C23.0246 32.0573 22.8613 32.1049 22.7224 32.194C22.5835 32.283 22.4752 32.4097 22.4113 32.5578C22.3474 32.706 22.3306 32.869 22.3632 33.0262C22.3958 33.1835 22.4763 33.328 22.5944 33.4414C22.7125 33.5547 22.863 33.632 23.0269 33.6632C23.1907 33.6945 23.3606 33.6785 23.5149 33.6171C23.6693 33.5557 23.8012 33.4518 23.894 33.3185C23.9868 33.1852 24.0364 33.0284 24.0364 32.8681C24.0361 32.6531 23.947 32.447 23.7887 32.295C23.6303 32.1431 23.4156 32.0576 23.1917 32.0573Z" fill="#3F3D56"/>
<path d="M23.1917 36.1111C23.0023 36.1111 22.8173 36.0572 22.6598 35.9563C22.5024 35.8553 22.3797 35.7118 22.3072 35.5439C22.2348 35.376 22.2158 35.1913 22.2528 35.013C22.2897 34.8348 22.3809 34.6711 22.5148 34.5426C22.6486 34.4141 22.8192 34.3265 23.0049 34.2911C23.1906 34.2556 23.3831 34.2738 23.558 34.3434C23.733 34.4129 23.8825 34.5307 23.9877 34.6818C24.0928 34.8329 24.149 35.0106 24.149 35.1923C24.1487 35.4359 24.0478 35.6695 23.8683 35.8417C23.6888 36.014 23.4455 36.1109 23.1917 36.1111ZM23.1917 34.3815C23.0246 34.3815 22.8613 34.4291 22.7224 34.5182C22.5835 34.6073 22.4752 34.7339 22.4113 34.882C22.3474 35.0302 22.3306 35.1932 22.3632 35.3505C22.3958 35.5077 22.4763 35.6522 22.5944 35.7656C22.7125 35.879 22.863 35.9562 23.0269 35.9875C23.1907 36.0187 23.3606 36.0027 23.5149 35.9413C23.6693 35.88 23.8012 35.776 23.894 35.6427C23.9868 35.5094 24.0364 35.3526 24.0364 35.1923C24.0361 34.9773 23.947 34.7713 23.7887 34.6193C23.6303 34.4673 23.4156 34.3818 23.1917 34.3815Z" fill="#3F3D56"/>
<path d="M68.6915 58.2168H68.5789V57.406C68.5789 57.363 68.5968 57.3218 68.6284 57.2914C68.6601 57.261 68.703 57.2439 68.7478 57.2439H69.0294C69.0443 57.2439 69.0586 57.2382 69.0692 57.228C69.0798 57.2179 69.0857 57.2041 69.0857 57.1898V56.6493C69.0857 56.635 69.0798 56.6212 69.0692 56.6111C69.0586 56.601 69.0443 56.5953 69.0294 56.5953H68.7478C68.703 56.5952 68.6601 56.5781 68.6284 56.5477C68.5968 56.5173 68.5789 56.4761 68.5789 56.4331V56.1629C68.5789 56.1485 68.573 56.1348 68.5624 56.1247C68.5518 56.1145 68.5375 56.1088 68.5226 56.1088H68.0158C67.971 56.1088 67.928 56.0917 67.8964 56.0613C67.8647 56.0309 67.8469 55.9897 67.8468 55.9467V55.8926C67.8468 55.8783 67.8409 55.8645 67.8303 55.8544C67.8198 55.8443 67.8055 55.8386 67.7905 55.8386H65.7633C65.7483 55.8386 65.734 55.8443 65.7235 55.8544C65.7129 55.8645 65.707 55.8783 65.707 55.8926V55.9467C65.7069 55.9897 65.6891 56.0309 65.6574 56.0613C65.6258 56.0917 65.5828 56.1088 65.538 56.1088H65.0312C65.0163 56.1088 65.002 56.1145 64.9914 56.1247C64.9809 56.1348 64.9749 56.1485 64.9749 56.1629V56.4331C64.9749 56.4761 64.957 56.5173 64.9254 56.5477C64.8937 56.5781 64.8508 56.5952 64.806 56.5953H64.5244C64.5095 56.5953 64.4952 56.601 64.4846 56.6111C64.474 56.6212 64.4681 56.635 64.4681 56.6493V57.1898C64.4681 57.2041 64.474 57.2179 64.4846 57.228C64.4952 57.2382 64.5095 57.2439 64.5244 57.2439H64.8623C64.9071 57.2439 64.95 57.261 64.9817 57.2914C65.0134 57.3218 65.0312 57.363 65.0312 57.406V58.2168H64.9186V57.406C64.9186 57.3917 64.9126 57.3779 64.9021 57.3678C64.8915 57.3577 64.8772 57.352 64.8623 57.352H64.5244C64.4796 57.3519 64.4367 57.3348 64.405 57.3044C64.3733 57.274 64.3555 57.2328 64.3555 57.1898V56.6493C64.3555 56.6063 64.3733 56.5651 64.405 56.5347C64.4367 56.5043 64.4796 56.4872 64.5244 56.4872H64.806C64.8209 56.4872 64.8352 56.4815 64.8458 56.4713C64.8563 56.4612 64.8623 56.4474 64.8623 56.4331V56.1629C64.8623 56.1199 64.8801 56.0787 64.9118 56.0483C64.9435 56.0179 64.9864 56.0008 65.0312 56.0007H65.538C65.553 56.0007 65.5673 55.995 65.5778 55.9849C65.5884 55.9747 65.5943 55.961 65.5943 55.9467V55.8926C65.5944 55.8496 65.6122 55.8084 65.6439 55.778C65.6755 55.7476 65.7185 55.7305 65.7633 55.7305H67.7905C67.8353 55.7305 67.8783 55.7476 67.9099 55.778C67.9416 55.8084 67.9594 55.8496 67.9595 55.8926V55.9467C67.9595 55.961 67.9654 55.9747 67.976 55.9849C67.9865 55.995 68.0008 56.0007 68.0158 56.0007H68.5226C68.5674 56.0008 68.6103 56.0179 68.642 56.0483C68.6737 56.0787 68.6915 56.1199 68.6915 56.1629V56.4331C68.6915 56.4474 68.6975 56.4612 68.708 56.4713C68.7186 56.4815 68.7329 56.4872 68.7478 56.4872H69.0294C69.0742 56.4872 69.1171 56.5043 69.1488 56.5347C69.1805 56.5651 69.1983 56.6063 69.1983 56.6493V57.1898C69.1983 57.2328 69.1805 57.274 69.1488 57.3044C69.1171 57.3348 69.0742 57.3519 69.0294 57.352H68.7478C68.7329 57.352 68.7186 57.3577 68.708 57.3678C68.6975 57.3779 68.6915 57.3917 68.6915 57.406V58.2168Z" fill="#3F3D56"/>
<path d="M68.5259 61.998H65.0908C65.046 61.998 65.0031 61.9809 64.9714 61.9505C64.9397 61.9201 64.9219 61.8789 64.9219 61.8359V59.5117H65.0345V61.8359C65.0345 61.8502 65.0404 61.8639 65.051 61.8741C65.0616 61.8842 65.0759 61.8899 65.0908 61.8899H68.5259C68.5408 61.8899 68.5551 61.8842 68.5657 61.8741C68.5762 61.8639 68.5822 61.8502 68.5822 61.8359V59.5117H68.6948V61.8359C68.6948 61.8789 68.6769 61.9201 68.6453 61.9505C68.6136 61.9809 68.5707 61.998 68.5259 61.998Z" fill="#3F3D56"/>
<path d="M69.2579 58.5938H65.0345C64.9723 58.5938 64.9219 58.6421 64.9219 58.7018V59.7828C64.9219 59.8425 64.9723 59.8909 65.0345 59.8909H69.2579C69.3201 59.8909 69.3706 59.8425 69.3706 59.7828V58.7018C69.3706 58.6421 69.3201 58.5938 69.2579 58.5938Z" fill="#6C63FF"/>
<path d="M68.8885 59.5694H64.665C64.6202 59.5693 64.5773 59.5522 64.5456 59.5218C64.514 59.4914 64.4961 59.4502 64.4961 59.4072V58.3262C64.4961 58.2832 64.514 58.242 64.5456 58.2116C64.5773 58.1812 64.6202 58.1641 64.665 58.1641H68.8885C68.9333 58.1641 68.9762 58.1812 69.0079 58.2116C69.0395 58.242 69.0574 58.2832 69.0574 58.3262V59.4072C69.0574 59.4502 69.0395 59.4914 69.0079 59.5218C68.9762 59.5522 68.9333 59.5693 68.8885 59.5694ZM64.665 58.2722C64.6501 58.2722 64.6358 58.2779 64.6252 58.288C64.6147 58.2981 64.6087 58.3119 64.6087 58.3262V59.4072C64.6087 59.4215 64.6147 59.4353 64.6252 59.4454C64.6358 59.4556 64.6501 59.4612 64.665 59.4613H68.8885C68.9034 59.4612 68.9177 59.4556 68.9283 59.4454C68.9388 59.4353 68.9448 59.4215 68.9448 59.4072V58.3262C68.9448 58.3119 68.9388 58.2981 68.9283 58.288C68.9177 58.2779 68.9034 58.2722 68.8885 58.2722H64.665Z" fill="#3F3D56"/>
<path d="M66.6646 55.3527C66.5149 54.3848 66.4754 53.4041 66.5466 52.428L66.6646 50.8125C66.0146 52.0538 66.1615 53.6875 66.6646 55.3527V55.3527Z" fill="#D0CDE1"/>
<path d="M67.1736 55.6205C67.1016 55.0429 67.0826 54.4603 67.1169 53.8796L67.1736 52.918C66.8611 53.6568 66.9317 54.6293 67.1736 55.6205Z" fill="#D0CDE1"/>
</g>
<defs>
<clipPath id="clip0">
<rect width="62" height="36" fill="white" transform="translate(13 26)"/>
</clipPath>
</defs>
</svg>
