<svg width="45" height="45" viewBox="0 0 45 45" fill="none" xmlns="http://www.w3.org/2000/svg">
<g clip-path="url(#clip0)">
<path d="M2.95432 16.4853C3.19086 17.2963 3.51913 18.0783 3.93428 18.8121L2.75157 20.3038C2.36538 20.7913 2.40882 21.4865 2.84329 21.9258L4.88045 23.9629C5.31975 24.4022 6.01489 24.4408 6.50246 24.0546L7.98447 22.8815C8.7472 23.3209 9.5582 23.6636 10.403 23.905L10.6251 25.8118C10.6975 26.4297 11.2188 26.8931 11.8367 26.8931H14.7187C15.3366 26.8931 15.858 26.4296 15.9304 25.8118L16.1428 23.9725C17.0503 23.736 17.9193 23.3836 18.7351 22.925L20.1688 24.0594C20.6564 24.4456 21.3515 24.4022 21.7908 23.9677L23.828 21.9305C24.2673 21.4913 24.3059 20.7961 23.9197 20.3085L22.8046 18.8941C23.268 18.0927 23.6301 17.2383 23.8714 16.3452L25.59 16.1473C26.2079 16.0749 26.6713 15.5536 26.6713 14.9356V12.0537C26.6713 11.4358 26.2079 10.9144 25.59 10.842L23.8956 10.6441C23.6638 9.76068 23.3163 8.91588 22.8722 8.12419L23.9149 6.80631C24.3011 6.31874 24.2577 5.62359 23.8232 5.1843L21.7909 3.15197C21.3516 2.71267 20.6564 2.67405 20.1689 3.06025L18.8896 4.074C18.0593 3.58643 17.171 3.21472 16.2394 2.9637L16.0463 1.3079C15.9739 0.689993 15.4525 0.226562 14.8346 0.226562H11.9526C11.3347 0.226562 10.8134 0.689993 10.741 1.3079L10.5479 2.9637C9.59204 3.21955 8.67966 3.60574 7.83004 4.11262L6.50251 3.06025C6.01494 2.67405 5.31979 2.7175 4.8805 3.15197L2.84334 5.18913C2.40404 5.62842 2.36543 6.32357 2.75162 6.81113L3.86192 8.21591C3.4178 9.01726 3.07988 9.87171 2.85782 10.7599L1.08134 10.9627C0.46343 11.0351 0 11.5565 0 12.1744V15.0563C0 15.6742 0.46343 16.1956 1.08134 16.268L2.95432 16.4853ZM13.396 8.68904C16.0221 8.68904 18.1606 10.8276 18.1606 13.4537C18.1606 16.0798 16.0221 18.2183 13.396 18.2183C10.7699 18.2183 8.63134 16.0798 8.63134 13.4537C8.63134 10.8276 10.7699 8.68904 13.396 8.68904Z" fill="#E6E6E6"/>
<path d="M41.8864 17.1964L40.3658 15.9123C39.8976 15.5164 39.2072 15.5358 38.7632 15.9557L37.9232 16.7426C37.2136 16.3999 36.4605 16.1585 35.6833 16.0185L35.4468 14.8599C35.3261 14.2613 34.771 13.8462 34.1626 13.8944L32.1786 14.0634C31.5703 14.1165 31.0924 14.6137 31.0731 15.2268L31.0345 16.4047C30.2718 16.6798 29.5525 17.0564 28.896 17.5295L27.8919 16.8633C27.3801 16.5254 26.6995 16.6219 26.3037 17.0902L25.0196 18.6205C24.6237 19.0887 24.643 19.779 25.063 20.2232L25.9416 21.1596C25.6374 21.8451 25.4202 22.5645 25.2947 23.303L24.0396 23.5588C23.441 23.6795 23.0259 24.2347 23.0741 24.843L23.2431 26.827C23.2962 27.4353 23.7934 27.9132 24.4065 27.9325L25.763 27.9759C26.0093 28.6228 26.3327 29.2359 26.7236 29.8103L25.9658 30.9544C25.6279 31.4661 25.7244 32.1468 26.1926 32.5426L27.7132 33.8267C28.1816 34.2226 28.8718 34.2033 29.316 33.7833L30.3104 32.8516C30.9621 33.1557 31.6476 33.3826 32.3524 33.5178L32.6276 34.8791C32.7483 35.4777 33.3034 35.8929 33.9117 35.8446L35.8957 35.6756C36.504 35.6225 36.9819 35.1254 37.0012 34.5122L37.0447 33.1798C37.7688 32.924 38.4542 32.5764 39.0866 32.1468L40.1825 32.8709C40.6942 33.2088 41.3748 33.1123 41.7707 32.644L43.0548 31.1234C43.4506 30.6551 43.4312 29.9648 43.0113 29.5207L42.1278 28.5842C42.4513 27.8987 42.6879 27.1746 42.823 26.4312L44.0298 26.185C44.6284 26.0643 45.0436 25.5091 44.9953 24.9008L44.8264 22.9168C44.7733 22.3085 44.276 21.8306 43.663 21.8113L42.4513 21.7727C42.2002 21.0679 41.8623 20.4017 41.4424 19.7838L42.1037 18.7893C42.4513 18.2777 42.3547 17.5922 41.8864 17.1964ZM34.4089 28.6662C32.2655 28.8497 30.3731 27.2518 30.1945 25.1085C30.011 22.9651 31.609 21.0727 33.7523 20.8941C35.8956 20.7107 37.7881 22.3086 37.9666 24.4519C38.1501 26.5953 36.5522 28.4877 34.4089 28.6662Z" fill="#E6E6E6"/>
<path d="M9.89675 34.0064C9.2885 34.0691 8.82024 34.5808 8.81541 35.1939L8.80093 36.4152C8.79128 37.0283 9.24505 37.5497 9.85331 37.627L10.7512 37.7428C10.9009 38.2883 11.1133 38.8097 11.3884 39.3021L10.8091 40.0165C10.4229 40.4944 10.4519 41.1799 10.8815 41.6192L11.736 42.493C12.1656 42.9323 12.8511 42.9805 13.3387 42.604L14.0579 42.0489C14.5648 42.3482 15.1007 42.5847 15.6606 42.7488L15.7572 43.6757C15.8199 44.2839 16.3316 44.7522 16.9447 44.757L18.1661 44.7715C18.7791 44.7812 19.3005 44.3274 19.3778 43.7191L19.4888 42.8405C20.0971 42.6909 20.6764 42.464 21.2267 42.1647L21.9025 42.7102C22.3804 43.0964 23.0659 43.0674 23.5052 42.6378L24.379 41.7833C24.8183 41.3538 24.8666 40.6682 24.4901 40.1807L23.9734 39.5096C24.2921 38.9786 24.5383 38.4138 24.7073 37.82L25.5086 37.7379C26.1169 37.6752 26.5851 37.1635 26.5899 36.5504L26.6044 35.329C26.6141 34.716 26.1603 34.1946 25.5521 34.1173L24.77 34.016C24.6203 33.427 24.3983 32.8574 24.1087 32.3264L24.5962 31.7278C24.9824 31.2499 24.9535 30.5644 24.5238 30.1251L23.6694 29.2513C23.2398 28.812 22.5542 28.7637 22.0667 29.1403L21.4825 29.5893C20.9322 29.2562 20.3432 29.0003 19.7254 28.8265L19.6481 28.0686C19.5853 27.4603 19.0737 26.9921 18.4606 26.9873L17.2392 26.9728C16.6261 26.9632 16.1048 27.4169 16.0275 28.0252L15.931 28.7783C15.2938 28.9424 14.6807 29.1935 14.1111 29.5217L13.5076 29.0293C13.0297 28.6431 12.3442 28.6721 11.9049 29.1017L11.0263 29.961C10.587 30.3906 10.5387 31.0761 10.9153 31.5637L11.4318 32.2299C11.1325 32.7609 10.896 33.3257 10.7415 33.9195L9.89675 34.0064ZM17.7799 32.6257C19.5322 32.645 20.937 34.0884 20.9177 35.8408C20.8984 37.5931 19.455 38.9978 17.7026 38.9786C15.9503 38.9593 14.5455 37.5159 14.5648 35.7635C14.5842 34.0112 16.0275 32.6064 17.7799 32.6257Z" fill="#E6E6E6"/>
</g>
<defs>
<clipPath id="clip0">
<rect width="45" height="45" fill="white"/>
</clipPath>
</defs>
</svg>
