<svg width="45" height="45" viewBox="0 0 45 45" fill="none" xmlns="http://www.w3.org/2000/svg">
<path d="M12.0424 16.8748C11.9351 16.4592 11.9244 16.0246 12.011 15.6042C12.0976 15.1838 12.2793 14.7888 12.5422 14.4494C12.805 14.1101 13.1421 13.8354 13.5275 13.6465C13.9129 13.4575 14.3364 13.3593 14.7656 13.3593C15.1949 13.3593 15.6184 13.4575 16.0038 13.6465C16.3892 13.8354 16.7262 14.1101 16.9891 14.4494C17.2519 14.7888 17.4336 15.1838 17.5203 15.6042C17.6069 16.0246 17.5961 16.4592 17.4888 16.8748H21.7969V11.4116C21.7969 11.2755 21.8365 11.1424 21.9107 11.0284C21.9849 10.9143 22.0906 10.8243 22.215 10.7691C22.3393 10.714 22.477 10.6961 22.6114 10.7176C22.7457 10.7392 22.8709 10.7993 22.9718 10.8905C23.228 11.122 23.561 11.2501 23.9062 11.2498C24.2792 11.2498 24.6369 11.1017 24.9006 10.838C25.1643 10.5742 25.3125 10.2166 25.3125 9.84359C25.3125 9.47063 25.1643 9.11295 24.9006 8.84923C24.6369 8.5855 24.2792 8.43734 23.9062 8.43734C23.561 8.43709 23.228 8.56515 22.9718 8.79664C22.8709 8.88793 22.7457 8.948 22.6114 8.96955C22.477 8.9911 22.3393 8.97322 22.215 8.91807C22.0906 8.86291 21.9849 8.77286 21.9107 8.65883C21.8365 8.54479 21.7969 8.41168 21.7969 8.27563V2.83203C18.1933 3.01089 14.7966 4.56857 12.3097 7.18261C9.82291 9.79666 8.43649 13.2669 8.4375 16.8748H12.0424Z" fill="#0570D8"/>
<path d="M28.8281 34.4531H16.1719C15.7835 34.4531 15.4688 34.7679 15.4688 35.1562V37.9688C15.4688 38.3571 15.7835 38.6719 16.1719 38.6719H28.8281C29.2165 38.6719 29.5312 38.3571 29.5312 37.9688V35.1562C29.5312 34.7679 29.2165 34.4531 28.8281 34.4531Z" fill="#0570D8"/>
<path d="M26.0156 40.0781H18.9844V41.4844C18.9844 41.6709 19.0585 41.8497 19.1903 41.9816C19.3222 42.1134 19.501 42.1875 19.6875 42.1875H25.3125C25.499 42.1875 25.6778 42.1134 25.8097 41.9816C25.9415 41.8497 26.0156 41.6709 26.0156 41.4844V40.0781Z" fill="#0570D8"/>
<path d="M15.178 28.8844C15.9001 29.3155 16.4997 29.9245 16.9196 30.6531C17.3394 31.3818 17.5656 32.206 17.5764 33.0469H21.7952V28.0357C21.3796 28.143 20.9449 28.1538 20.5245 28.0671C20.1041 27.9805 19.7091 27.7988 19.3698 27.536C19.0304 27.2731 18.7558 26.9361 18.5668 26.5507C18.3778 26.1653 18.2796 25.7417 18.2796 25.3125C18.2796 24.8833 18.3778 24.4597 18.5668 24.0743C18.7558 23.6889 19.0304 23.3519 19.3698 23.089C19.7091 22.8262 20.1041 22.6445 20.5245 22.5579C20.9449 22.4712 21.3796 22.482 21.7952 22.5893V18.2813H16.3319C16.1958 18.2812 16.0627 18.2417 15.9487 18.1674C15.8346 18.0932 15.7446 17.9875 15.6894 17.8632C15.6343 17.7388 15.6164 17.6011 15.6379 17.4667C15.6595 17.3324 15.7196 17.2072 15.8109 17.1063C16.0424 16.8502 16.1705 16.5171 16.1702 16.1719C16.1702 15.7989 16.022 15.4412 15.7583 15.1775C15.4946 14.9138 15.1369 14.7656 14.7639 14.7656C14.3909 14.7656 14.0333 14.9138 13.7695 15.1775C13.5058 15.4412 13.3577 15.7989 13.3577 16.1719C13.3573 16.5171 13.4854 16.8502 13.717 17.1063C13.8082 17.2072 13.8683 17.3324 13.8899 17.4667C13.9114 17.6011 13.8935 17.7388 13.8384 17.8632C13.7832 17.9875 13.6932 18.0932 13.5791 18.1674C13.4651 18.2417 13.332 18.2812 13.1959 18.2813H8.51172C8.71977 20.4459 9.43088 22.5319 10.5883 24.3728C11.7458 26.2138 13.3175 27.7587 15.178 28.8844Z" fill="#0570D8"/>
<path d="M36.5449 16.1612C36.3443 12.705 34.8862 9.44158 32.4455 6.98625C30.0048 4.53093 26.7502 3.05333 23.2952 2.83203C23.2643 2.83203 23.2341 2.83203 23.2031 2.83203V7.12109C23.6187 7.01379 24.0534 7.00304 24.4738 7.08966C24.8942 7.17628 25.2892 7.35798 25.6285 7.62083C25.9679 7.88369 26.2425 8.22072 26.4315 8.60612C26.6205 8.99152 26.7187 9.41506 26.7187 9.8443C26.7187 10.2735 26.6205 10.6971 26.4315 11.0825C26.2425 11.4679 25.9679 11.8049 25.6285 12.0678C25.2892 12.3306 24.8942 12.5123 24.4738 12.5989C24.0534 12.6856 23.6187 12.6748 23.2031 12.5675V16.8727H28.6664C28.8025 16.8728 28.9356 16.9123 29.0496 16.9865C29.1636 17.0608 29.2537 17.1665 29.3088 17.2908C29.364 17.4152 29.3819 17.5529 29.3603 17.6872C29.3388 17.8216 29.2787 17.9468 29.1874 18.0477C28.9559 18.3038 28.8278 18.6368 28.8281 18.9821C28.8281 19.3551 28.9763 19.7128 29.24 19.9765C29.5037 20.2402 29.8614 20.3884 30.2344 20.3884C30.6073 20.3884 30.965 20.2402 31.2287 19.9765C31.4925 19.7128 31.6406 19.3551 31.6406 18.9821C31.6409 18.6368 31.5129 18.3038 31.2813 18.0477C31.19 17.9468 31.13 17.8216 31.1084 17.6872C31.0869 17.5529 31.1047 17.4152 31.1599 17.2908C31.2151 17.1665 31.3051 17.0608 31.4191 16.9865C31.5332 16.9123 31.6663 16.8728 31.8023 16.8727H36.5555C36.5555 16.6358 36.5562 16.3995 36.5449 16.1612Z" fill="#0570D8"/>
<path d="M32.9576 18.2812C33.0649 18.6969 33.0756 19.1315 32.989 19.5519C32.9024 19.9723 32.7207 20.3673 32.4578 20.7066C32.195 21.046 31.8579 21.3207 31.4725 21.5096C31.0871 21.6986 30.6636 21.7968 30.2344 21.7968C29.8051 21.7968 29.3816 21.6986 28.9962 21.5096C28.6108 21.3207 28.2738 21.046 28.0109 20.7066C27.7481 20.3673 27.5664 19.9723 27.4797 19.5519C27.3931 19.1315 27.4039 18.6969 27.5112 18.2812H23.2031V23.7445C23.2031 23.8806 23.1635 24.0137 23.0893 24.1277C23.0151 24.2418 22.9094 24.3318 22.785 24.387C22.6607 24.4421 22.523 24.46 22.3886 24.4385C22.2543 24.4169 22.1291 24.3568 22.0282 24.2655C21.772 24.0341 21.439 23.906 21.0938 23.9063C20.7208 23.9063 20.3631 24.0544 20.0994 24.3181C19.8357 24.5819 19.6875 24.9395 19.6875 25.3125C19.6875 25.6855 19.8357 26.0431 20.0994 26.3069C20.3631 26.5706 20.7208 26.7188 21.0938 26.7188C21.439 26.719 21.772 26.5909 22.0282 26.3595C22.1291 26.2682 22.2543 26.2081 22.3886 26.1865C22.523 26.165 22.6607 26.1829 22.785 26.238C22.9094 26.2932 23.0151 26.3832 23.0893 26.4973C23.1635 26.6113 23.2031 26.7444 23.2031 26.8805V33.0469H27.4219C27.4348 32.204 27.663 31.3785 28.0849 30.6487C28.5067 29.9189 29.1082 29.3092 29.8322 28.8773C31.6832 27.7438 33.2469 26.1975 34.401 24.3593C35.5552 22.5211 36.2685 20.4409 36.4852 18.2812H32.9576Z" fill="#0570D8"/>
</svg>
