<svg width="70" height="38" viewBox="0 0 70 38" fill="none" xmlns="http://www.w3.org/2000/svg">
<g clip-path="url(#clip0)">
<g opacity="0.1">
<path opacity="0.1" d="M10.9508 4.00781V38.3399L8.10532 38.3709C7.49808 38.3778 6.8934 38.291 6.3125 38.1136V8.18463H6.31721C7.71476 6.46338 9.28171 5.02709 10.9508 4.00781Z" fill="#6C63FF"/>
<path opacity="0.1" d="M69.7692 8.93003H5.73047C5.92093 8.67673 6.11453 8.42971 6.31127 8.18898V8.18359H69.6099C69.6713 8.42747 69.7244 8.67628 69.7692 8.93003Z" fill="#6C63FF"/>
<path opacity="0.1" d="M64.6342 2.28779V31.0539H64.401C64.28 31.3086 64.1605 31.5583 64.0427 31.8031C63.9902 31.9115 63.9378 32.018 63.8867 32.1244V2.01562C64.1453 2.09916 64.3945 2.18988 64.6342 2.28779Z" fill="#6C63FF"/>
<path opacity="0.1" d="M46.8452 1.95703V37.9484L46.0977 37.9565V2.11063C46.3457 2.05808 46.5944 2.00621 46.8452 1.95703Z" fill="#6C63FF"/>
<path opacity="0.1" d="M28.8992 5.29742V38.1447L28.1523 38.1528V5.26172C28.4017 5.27789 28.6511 5.28732 28.8992 5.29742Z" fill="#6C63FF"/>
<path opacity="0.1" d="M64.4007 31.0547C64.2797 31.3093 64.1603 31.559 64.0424 31.8038H0.976375C0.889883 31.5573 0.809216 31.3075 0.734375 31.0547H64.4007Z" fill="#6C63FF"/>
</g>
<path d="M15.4999 18.9453H14.2227V22.8298H15.4999V18.9453Z" fill="#3F3D56"/>
<path d="M49.8749 18.7422H48.5977V22.8516H49.8749V18.7422Z" fill="#3F3D56"/>
<path d="M58.0202 36.9864V37.8622L47.8077 37.9565L47.6988 37.9585L43.8174 37.9942L43.7246 37.9956L42.5449 38.0057H42.5099L35.3185 38.0724L23.5136 38.1822H23.5035L20.502 38.2105L20.4697 38.2111L7.13281 38.3338V37.3232L10.2687 35.4369L16.5608 35.3844L16.6952 35.3837L16.7396 35.383L16.874 35.381L19.895 35.3561L20.0301 35.3554L20.0731 35.3547L20.2076 35.3541L21.1762 35.346L21.2018 35.3453L23.5915 35.3251H23.611L42.2585 35.1675L42.715 35.1641H42.7607L43.1089 35.1607L45.6398 35.1398L45.7743 35.1378L45.8986 35.1365H45.9632L46.7503 35.1304L46.9063 35.1284L47.1153 35.127L47.7708 35.121L48.8107 35.1122L48.9451 35.1109L49.1791 35.1095H49.2228L54.245 35.0664L58.0202 36.9864Z" fill="#65617D"/>
<path opacity="0.2" d="M58.0202 36.9864V37.8622L47.8077 37.9565L47.6988 37.9585L43.8174 37.9942L43.7246 37.9956L42.5449 38.0057H42.5099L35.3185 38.0724L23.5136 38.1822H23.5035L20.502 38.2105L20.4697 38.2111L7.13281 38.3338V37.3232L10.2687 35.4369L16.5608 35.3844L16.6952 35.3837L16.7396 35.383L16.874 35.381L19.895 35.3561L20.0301 35.3554L20.0731 35.3547L20.2076 35.3541L21.1762 35.346L21.2018 35.3453L23.5915 35.3251H23.611L42.2585 35.1675L42.715 35.1641H42.7607L43.1089 35.1607L45.6398 35.1398L45.7743 35.1378L45.8986 35.1365H45.9632L46.7503 35.1304L46.9063 35.1284L47.1153 35.127L47.7708 35.121L48.8107 35.1122L48.9451 35.1109L49.1791 35.1095H49.2228L54.245 35.0664L58.0202 36.9864Z" fill="black"/>
<path d="M19.9053 33.6211V35.2709C19.9053 35.3491 19.8832 35.4256 19.8416 35.4917C19.7999 35.5578 19.7404 35.6106 19.67 35.6442C19.6175 35.6696 19.5602 35.6834 19.5019 35.6846L17.1559 35.7344C17.0932 35.7359 17.0311 35.7228 16.9744 35.696C16.9027 35.6631 16.842 35.6102 16.7994 35.5437C16.7569 35.4772 16.7343 35.3998 16.7344 35.3208V33.6211H19.9053Z" fill="#3F3D56"/>
<path opacity="0.1" d="M19.9053 33.6211V35.2709C19.9053 35.3491 19.8832 35.4256 19.8416 35.4917C19.7999 35.5578 19.7404 35.6106 19.67 35.6442C19.6175 35.6696 19.5602 35.6834 19.5019 35.6846L17.1559 35.7344C17.0932 35.7359 17.0311 35.7228 16.9744 35.696C16.9027 35.6631 16.842 35.6102 16.7994 35.5437C16.7569 35.4772 16.7343 35.3998 16.7344 35.3208V33.6211H19.9053Z" fill="black"/>
<path d="M20.0381 33.6211V35.2709C20.0381 35.3491 20.016 35.4256 19.9744 35.4917C19.9327 35.5578 19.8732 35.6106 19.8028 35.6442C19.7503 35.6696 19.693 35.6834 19.6347 35.6846L17.2887 35.7344C17.226 35.7359 17.1639 35.7228 17.1072 35.696C17.0355 35.6631 16.9748 35.6102 16.9322 35.5437C16.8897 35.4772 16.8671 35.3998 16.8672 35.3208V33.6211H20.0381Z" fill="#3F3D56"/>
<path d="M48.9443 33.6211H45.7734V35.7432H48.9443V33.6211Z" fill="#3F3D56"/>
<path opacity="0.1" d="M48.9443 33.6211H45.7734V35.7432H48.9443V33.6211Z" fill="black"/>
<path d="M48.8115 33.6211H45.6406V35.7432H48.8115V33.6211Z" fill="#3F3D56"/>
<path opacity="0.1" d="M15.4999 18.9453V19.3313L14.2227 19.2983V18.9453H15.4999Z" fill="black"/>
<path d="M23.9095 8.06847L22.3748 19.1168C22.3651 19.1874 22.3297 19.2519 22.2756 19.298C22.2214 19.3441 22.1521 19.3686 22.0811 19.3668L9.79281 19.0474L9.55955 19.0414C9.51894 19.0404 9.47898 19.0309 9.44229 19.0134C9.4056 18.9959 9.373 18.9709 9.34661 18.9399C9.32023 18.909 9.30065 18.8728 9.28915 18.8337C9.27766 18.7947 9.27451 18.7536 9.27991 18.7133L11.0028 7.14755C11.0139 7.07591 11.0514 7.01105 11.1079 6.96577C11.1644 6.9205 11.2358 6.8981 11.308 6.90301L23.6406 7.73972C23.6804 7.74203 23.7193 7.75258 23.7548 7.77071C23.7903 7.78883 23.8217 7.81414 23.847 7.84503C23.8722 7.87592 23.8908 7.91173 23.9016 7.95019C23.9124 7.98864 23.9151 8.02892 23.9095 8.06847Z" fill="#65617D"/>
<path d="M11.8268 7.71875L10.5273 17.9135L21.8207 18.2726L23.2095 8.43689L11.8268 7.71875Z" fill="#6C63FF"/>
<path d="M39.2556 7.55859H26.2138C26.0159 7.55859 25.8555 7.71936 25.8555 7.91767V18.8764C25.8555 19.0747 26.0159 19.2355 26.2138 19.2355H39.2556C39.4535 19.2355 39.6139 19.0747 39.6139 18.8764V7.91767C39.6139 7.71936 39.4535 7.55859 39.2556 7.55859Z" fill="#65617D"/>
<path d="M39.0073 8.34766H26.5039V18.0709H39.0073V8.34766Z" fill="#6C63FF"/>
<path opacity="0.1" d="M49.8749 18.7422V18.9975L48.5977 19.0238V18.7422H49.8749Z" fill="black"/>
<path d="M55.6373 18.5274C55.6391 18.5554 55.6352 18.5834 55.626 18.6097C55.6167 18.6361 55.6023 18.6604 55.5834 18.681C55.5646 18.7017 55.5418 18.7183 55.5164 18.7299C55.491 18.7414 55.4635 18.7477 55.4356 18.7484L42.8515 19.0091C42.7993 19.0102 42.7485 18.9914 42.7095 18.9566C42.6705 18.9217 42.6461 18.8733 42.6411 18.8212L41.5595 7.55185C41.5569 7.52389 41.5599 7.49568 41.5684 7.46892C41.5769 7.44217 41.5908 7.41743 41.6092 7.3962C41.6275 7.37497 41.65 7.3577 41.6752 7.34543C41.7004 7.33316 41.7278 7.32615 41.7558 7.32482L54.2444 6.70234L54.3789 6.6956C54.4323 6.69278 54.4847 6.71087 54.5251 6.74607C54.5655 6.78126 54.5907 6.8308 54.5953 6.88423L55.6373 18.5274Z" fill="#65617D"/>
<path d="M42.2773 7.98763L53.683 7.42578L54.6463 17.6657L43.3307 17.9352L42.2773 7.98763Z" fill="#6C63FF"/>
<path opacity="0.1" d="M55.639 18.5274C55.6408 18.5554 55.6369 18.5833 55.6277 18.6097C55.6184 18.6361 55.604 18.6604 55.5851 18.681C55.5663 18.7017 55.5435 18.7183 55.5181 18.7298C55.4927 18.7414 55.4652 18.7477 55.4373 18.7484L54.2461 6.70234L54.3805 6.6956C54.434 6.69278 54.4864 6.71087 54.5268 6.74607C54.5672 6.78126 54.5924 6.8308 54.597 6.88423L55.639 18.5274Z" fill="black"/>
<path opacity="0.1" d="M11.31 6.90314L9.79281 19.0482L9.55955 19.0422C9.51894 19.0412 9.47898 19.0317 9.44229 19.0142C9.4056 18.9967 9.373 18.9717 9.34661 18.9407C9.32023 18.9098 9.30065 18.8736 9.28915 18.8345C9.27766 18.7955 9.27451 18.7545 9.27991 18.7141L11.0028 7.14836C11.0138 7.07623 11.0515 7.0109 11.1085 6.96544C11.1654 6.91998 11.2374 6.89773 11.31 6.90314Z" fill="black"/>
<path opacity="0.1" d="M15.4999 21.6797H14.2227V22.8303H15.4999V21.6797Z" fill="black"/>
<path opacity="0.1" d="M20.0381 33.6211V33.9559L16.8672 34.0408V33.6211H20.0381Z" fill="black"/>
<path d="M25.6335 22.0786V33.4099C25.6327 33.4791 25.6054 33.5453 25.5572 33.5948C25.509 33.6443 25.4437 33.6734 25.3747 33.676L12.4915 34.0196H12.4882C12.418 34.0187 12.351 33.9904 12.3014 33.9407C12.2518 33.891 12.2235 33.8238 12.2227 33.7535V22.0786C12.2235 22.0083 12.2518 21.9411 12.3014 21.8914C12.351 21.8417 12.418 21.8134 12.4882 21.8125H25.368C25.4381 21.8134 25.5052 21.8417 25.5548 21.8914C25.6044 21.9411 25.6327 22.0083 25.6335 22.0786Z" fill="#65617D"/>
<path opacity="0.1" d="M12.4916 21.8125V34.0196H12.4882C12.418 34.0187 12.351 33.9904 12.3014 33.9407C12.2518 33.891 12.2235 33.8238 12.2227 33.7535V22.0786C12.2235 22.0083 12.2518 21.9411 12.3014 21.8914C12.351 21.8417 12.418 21.8134 12.4882 21.8125H12.4916Z" fill="black"/>
<path d="M13.082 22.5391H25.014V32.5264L13.082 32.7958V22.5391Z" fill="#D4DFEC"/>
<path opacity="0.1" d="M49.8749 21.6797H48.5977V22.8532H49.8749V21.6797Z" fill="black"/>
<path opacity="0.1" d="M48.8115 33.6211V34.0529L45.6406 33.968V33.6211H48.8115Z" fill="black"/>
<path d="M52.9956 22.0786V33.7535C52.9947 33.8244 52.966 33.892 52.9156 33.9419C52.8653 33.9917 52.7974 34.0196 52.7267 34.0196L39.8408 33.676C39.7719 33.6734 39.7065 33.6443 39.6583 33.5948C39.6102 33.5453 39.5828 33.4791 39.582 33.4099V22.0786C39.5829 22.0083 39.6112 21.9411 39.6608 21.8914C39.7104 21.8417 39.7774 21.8134 39.8476 21.8125H52.7274C52.798 21.8127 52.8657 21.8407 52.9159 21.8905C52.9661 21.9403 52.9947 22.0078 52.9956 22.0786Z" fill="#65617D"/>
<path opacity="0.1" d="M52.9955 22.0786V33.7535C52.9946 33.8244 52.9659 33.892 52.9155 33.9419C52.8652 33.9917 52.7973 34.0196 52.7266 34.0196V21.8125C52.7973 21.8125 52.8652 21.8404 52.9155 21.8902C52.9659 21.94 52.9946 22.0077 52.9955 22.0786Z" fill="black"/>
<path d="M52.139 22.5391H40.207V32.5264L52.139 32.7958V22.5391Z" fill="#D4DFEC"/>
<path d="M39.2468 22.0786V33.4099C39.246 33.4791 39.2187 33.5453 39.1705 33.5948C39.1223 33.6443 39.057 33.6734 38.988 33.676L26.1048 34.0196C26.0341 34.0196 25.9662 33.9917 25.9159 33.9419C25.8655 33.892 25.8368 33.8244 25.8359 33.7535V22.0786C25.8368 22.0083 25.8651 21.9411 25.9147 21.8914C25.9643 21.8417 26.0313 21.8134 26.1015 21.8125H38.9813C39.0514 21.8134 39.1184 21.8417 39.1681 21.8914C39.2177 21.9411 39.2459 22.0083 39.2468 22.0786Z" fill="#65617D"/>
<path d="M26.6953 22.5391H38.6273V32.5264L26.6953 32.7958V22.5391Z" fill="#D4DFEC"/>
<path opacity="0.1" d="M58.0202 36.9883V37.8641L47.8077 37.9584L47.6988 37.9604L43.8174 37.9961L43.7246 37.9975L42.5449 38.0076H42.5099L35.3185 38.0743L23.5136 38.1841H23.5035L20.502 38.2124L20.4697 38.213L7.13281 38.3356V37.3251L20.746 37.2355H20.7783L23.5337 37.2167H23.5465L42.5758 37.0907H42.5953L42.6067 37.09H42.6383L42.9603 37.088H43.0585L48.0659 37.0543L48.3616 37.053L48.4275 37.0523L58.0202 36.9883Z" fill="black"/>
<path d="M32.7552 22.8301C34.6609 22.8301 36.2057 21.2819 36.2057 19.3721C36.2057 17.4623 34.6609 15.9141 32.7552 15.9141C30.8495 15.9141 29.3047 17.4623 29.3047 19.3721C29.3047 21.2819 30.8495 22.8301 32.7552 22.8301Z" fill="#FBBEBE"/>
<path d="M36.2063 26.4475C36.2063 26.4475 29.5177 27.256 30.1563 26.4475C30.3875 26.1552 30.4514 25.2888 30.4386 24.3019C30.4346 24.0021 30.4238 23.6915 30.4083 23.3823C30.3344 21.9002 30.1563 20.4518 30.1563 20.4518C30.1563 20.4518 36.0046 17.6897 35.3324 19.8792C35.0635 20.7637 35.1516 22.006 35.3559 23.1721C35.4157 23.5123 35.485 23.8458 35.5576 24.1624C35.7348 24.9347 35.9513 25.6974 36.2063 26.4475Z" fill="#FBBEBE"/>
<path opacity="0.1" d="M36.2063 26.4452C36.2063 26.4452 29.5177 27.2536 30.1563 26.4452C30.3875 26.1528 30.4514 25.2864 30.4386 24.2995C31.4584 23.8629 32.7558 24.1883 32.7558 24.1883C34.1217 23.9155 34.9976 23.9687 35.5576 24.16C35.7348 24.9323 35.9513 25.695 36.2063 26.4452Z" fill="black"/>
<path d="M23.5111 38.2599V38.2033L35.3167 38.0746L42.5095 38.0073H42.5297L42.5223 38.107L42.5324 38.0073H42.5452V37.9958L42.6372 37.0897L42.6722 36.7468L42.683 36.6397L42.6924 36.5501L43.1078 35.1616L43.5232 33.7752L43.8728 32.6077L44.4065 30.8238C44.4065 30.8238 44.104 30.1164 43.936 29.9143C43.7679 29.7122 43.5999 28.3312 43.5999 28.3312C43.5999 28.3312 42.1653 26.9616 41.5382 26.804C41.2753 26.7366 40.7564 26.647 40.2051 26.5345C39.9988 26.4927 39.787 26.4483 39.5833 26.3997C39.4684 26.3735 39.3555 26.3459 39.2472 26.3182C39.0366 26.2655 38.829 26.2012 38.6254 26.1256C38.5187 26.0867 38.4171 26.0349 38.3229 25.9713C37.8288 25.6082 36.5906 25.5671 36.5429 25.5671C36.5427 25.5655 36.5427 25.5639 36.5429 25.5624V25.5563C36.5446 25.528 36.5446 25.4997 36.5429 25.4714C36.5429 25.4445 36.5429 25.4128 36.5368 25.3771C36.5368 25.3663 36.5368 25.3549 36.5321 25.3434C36.5288 25.3192 36.5247 25.2936 36.5187 25.2666C36.5166 25.2546 36.5139 25.2427 36.5106 25.2309C36.4911 25.1497 36.4629 25.0709 36.4266 24.9958C36.4219 24.985 36.4158 24.9736 36.4104 24.9628C36.3775 24.9006 36.3393 24.8413 36.2962 24.7856C36.2874 24.7742 36.278 24.762 36.2679 24.7506C36.2129 24.6855 36.1516 24.6259 36.0851 24.5727C36.0669 24.5586 36.0481 24.5438 36.0286 24.5303C36.0177 24.5214 36.0063 24.5133 35.9943 24.506L35.9345 24.467L35.8787 24.4346C35.8296 24.4077 35.7779 24.3814 35.7214 24.3565C35.7039 24.3484 35.6851 24.341 35.6663 24.3336C35.6475 24.3262 35.6179 24.3147 35.593 24.3053H35.589L35.5386 24.2851C35.5002 24.2723 35.4613 24.2608 35.4203 24.2494L35.3577 24.2332L35.2905 24.2177L35.2233 24.2035C35.1561 24.1901 35.0841 24.178 35.0089 24.1685L34.9322 24.1591L34.8536 24.151L34.7722 24.1443L34.6566 24.1375L34.5222 24.1328C33.9292 24.1328 33.3379 24.1958 32.7583 24.3208C32.3555 24.231 31.9431 24.1929 31.5308 24.2076H31.4723L31.4051 24.2116H31.362L31.2753 24.2197C31.2464 24.2197 31.2168 24.2258 31.1879 24.2298C31.159 24.2339 31.1288 24.2372 31.0999 24.2419L31.0555 24.2494C31.0118 24.2568 30.9674 24.2649 30.9211 24.2743C30.9063 24.277 30.8915 24.2803 30.8767 24.2844C30.8182 24.2972 30.7597 24.3127 30.7019 24.3302C30.673 24.3383 30.6441 24.3477 30.6152 24.3578C30.6004 24.3619 30.5863 24.3673 30.5722 24.3726L30.5292 24.3881L30.4868 24.405L30.4364 24.4252C30.4108 24.436 30.386 24.4474 30.3611 24.4595C30.347 24.4656 30.3329 24.4723 30.3194 24.4798C30.306 24.4872 30.2919 24.4932 30.2791 24.5006C30.1271 24.5794 29.9866 24.6786 29.8616 24.7957L29.8274 24.8287L29.7937 24.8631C29.7823 24.8745 29.7716 24.8867 29.7608 24.8988C29.717 24.9468 29.6761 24.9974 29.6385 25.0504C29.6277 25.0645 29.6176 25.0787 29.6075 25.0935C29.5649 25.1565 29.5263 25.2222 29.4919 25.2902C29.4832 25.3064 29.4751 25.3232 29.467 25.3394C29.4122 25.4532 29.3672 25.5715 29.3326 25.6931C29.3201 25.738 29.3086 25.7829 29.2983 25.8278C29.2983 25.8278 27.8752 26.457 26.6948 26.9124C26.3809 27.0337 26.0851 27.1435 25.8377 27.2264C25.7658 27.2506 25.6986 27.2728 25.636 27.2937C25.5004 27.3429 25.3593 27.3754 25.2159 27.3907C25.1483 27.3918 25.0809 27.3981 25.0142 27.4096C24.4718 27.4978 23.5421 27.8812 23.4406 28.2658C23.4323 28.2966 23.43 28.3286 23.4338 28.3602C23.4338 28.3602 23.4338 28.3649 23.4338 28.3676C23.5011 28.8391 23.0305 28.7718 23.0305 28.7718C23.0305 28.7718 22.8624 30.0181 22.6272 30.3549C22.4571 30.5974 22.3408 31.1384 22.326 31.5467C22.3176 31.6739 22.3275 31.8016 22.3556 31.9259C22.3556 31.9293 22.3556 31.9327 22.3556 31.9354C22.3825 32.0256 22.3179 32.2722 22.2084 32.5882C22.0894 32.9351 21.916 33.3663 21.7492 33.7732C21.4978 34.3876 21.2612 34.9454 21.2464 35.068C21.2404 35.1226 21.2229 35.2202 21.1987 35.3462C21.1005 35.8596 20.8827 36.8371 20.7752 37.2325C20.6952 37.5276 20.5789 37.9318 20.4989 38.2094C20.4989 38.2174 20.4942 38.2255 20.4922 38.2329L23.5058 38.2033V38.2599H23.5152H23.5111Z" fill="#6C63FF"/>
<path opacity="0.1" d="M24.6094 30.3203C24.6094 30.3203 28.4411 32.3077 29.8191 32.0719L24.6094 30.3203Z" fill="black"/>
<path opacity="0.1" d="M32.4062 29.5117C32.4062 29.5117 36.1371 30.7243 37.3807 30.8928C38.6243 31.0612 32.4062 29.5117 32.4062 29.5117Z" fill="black"/>
<path opacity="0.1" d="M36.5461 25.6086C34.5966 25.9684 30.9263 25.8909 29.3398 25.8363C29.9213 23.7479 32.7568 24.458 32.7568 24.458C36.2664 23.756 36.5353 25.2125 36.5461 25.6086Z" fill="black"/>
<path d="M36.5461 25.4758C34.5966 25.8356 30.9263 25.7581 29.3398 25.7035C29.9213 23.6151 32.7568 24.3252 32.7568 24.3252C36.2664 23.6232 36.5353 25.0797 36.5461 25.4758Z" fill="#6C63FF"/>
<path d="M46.8945 34.6811C46.8945 34.6811 49.1909 34.3274 49.2359 35.3379C49.2809 36.3484 48.0649 37.0544 48.0649 37.0544L46.8945 34.6811Z" fill="#FBBEBE"/>
<path opacity="0.1" d="M35.356 23.1721C35.2573 23.2163 35.1563 23.2555 35.0535 23.2893C34.3289 23.5399 33.5982 23.7926 32.8352 23.8842C32.0722 23.9758 31.2716 23.895 30.6061 23.5137C30.5362 23.4741 30.4689 23.4302 30.4044 23.3823C30.3305 21.9002 30.1523 20.4518 30.1523 20.4518C30.1523 20.4518 36.0007 17.6897 35.3285 19.8792C35.0609 20.7637 35.1517 22.006 35.356 23.1721Z" fill="black"/>
<path d="M31.8066 13.9687C31.7106 13.9941 31.6101 13.9966 31.513 13.9762C31.4159 13.9557 31.3249 13.9127 31.2473 13.8508L31.3871 14.0455C31.3047 14.055 31.2212 14.0464 31.1425 14.0202C31.0638 13.994 30.9917 13.9509 30.9313 13.8939C30.9187 14.0682 30.9259 14.2433 30.9528 14.416C30.7215 14.4272 30.4937 14.3555 30.3102 14.2139C30.3066 14.2747 30.3217 14.3351 30.3534 14.387C30.3852 14.4389 30.432 14.4798 30.4877 14.5042C30.2553 14.4764 30.0207 14.5343 29.8277 14.667C29.6348 14.7998 29.4966 14.9984 29.439 15.2258L29.7899 15.2581C29.5141 15.3171 29.2666 15.4685 29.0881 15.6872C28.9805 15.822 28.8985 15.9944 28.9456 16.1588C28.9926 16.3232 29.2198 16.4283 29.3435 16.3111C29.1676 16.5215 29.0397 16.768 28.9689 17.0332C28.898 17.2984 28.886 17.576 28.9335 17.8464C28.9654 17.9616 28.9759 18.0817 28.9644 18.2007C28.9422 18.3119 28.8723 18.4082 28.8374 18.5167C28.7701 18.7134 28.834 18.927 28.8938 19.123L29.2091 20.1618C29.3234 20.537 29.437 20.913 29.5862 21.2761C29.6919 21.5056 29.7817 21.7422 29.8551 21.9841C29.9398 22.3102 29.9432 22.6672 30.124 22.9522C30.2479 23.1315 30.4136 23.2779 30.6066 23.3786C31.2715 23.7599 32.0748 23.8408 32.8357 23.7492C33.5967 23.6575 34.3267 23.4049 35.0507 23.1543C35.2116 23.1057 35.3659 23.0379 35.5105 22.9522C36.0113 22.6234 36.1229 21.9511 36.2164 21.3589C36.3205 20.6987 36.4597 20.0399 36.7064 19.4187C36.8529 19.0489 37.0425 18.6736 37.0102 18.2775C36.9692 17.7514 36.5538 17.3249 36.451 16.8076C36.4165 16.6346 36.4181 16.4564 36.4557 16.2841C36.4876 16.1815 36.5054 16.0749 36.5088 15.9675C36.4973 15.7506 36.3199 15.5835 36.1532 15.444C35.7915 15.1413 35.4182 14.8552 35.0332 14.5858C35.0137 14.451 35.1966 14.3931 35.2793 14.2866C35.3962 14.1364 35.2752 13.8979 35.0978 13.8279C34.9203 13.7578 34.7213 13.8036 34.5365 13.8501C34.5485 13.7553 34.5297 13.6591 34.4828 13.5758C34.4359 13.4926 34.3635 13.4267 34.2762 13.388C34.189 13.3494 34.0917 13.3399 33.9987 13.3612C33.9057 13.3824 33.822 13.4331 33.76 13.5058C33.711 13.393 33.6325 13.2955 33.533 13.2234C33.4334 13.1514 33.3163 13.1075 33.194 13.0963C32.7483 13.0612 32.7396 13.4028 32.4546 13.5907C32.1696 13.7787 31.9343 13.5308 31.7151 13.3502C31.6749 13.4523 31.6621 13.5632 31.6782 13.6717C31.6942 13.7803 31.7385 13.8827 31.8066 13.9687Z" fill="#3F3D56"/>
<path d="M48.5974 36.7028C48.5974 36.7028 48.5376 36.8456 48.4274 37.0524C48.2606 37.3706 48.0576 37.6683 47.8224 37.9396L47.8042 37.9592H47.6953L43.8139 37.9949H43.7211L43.7097 37.9814L42.9568 37.0861L42.6731 36.7486L42.6617 36.7344L42.6375 36.7061L42.6241 36.69L42.6066 36.6691L42.0547 36.0129L42.2564 35.1708L42.5999 33.752L42.6086 33.7177L42.6758 33.4482L42.7236 33.2461L42.8835 32.5872L43.4321 30.3203L44.4068 30.8256L45.4346 32.6445L45.9865 33.6213H46.289C46.3462 33.6213 46.4773 33.7318 46.609 33.8592C46.6561 33.9043 46.7031 33.9521 46.7435 33.9939C46.8631 34.1178 46.9579 34.2243 46.9579 34.2243C46.9579 34.2243 47.4479 34.2351 47.5797 34.6218C47.5865 34.6405 47.5921 34.6596 47.5965 34.679C47.6402 34.831 47.6971 34.9789 47.7666 35.121C47.8533 35.3103 47.9622 35.5252 48.0724 35.7401C48.2775 36.1342 48.4859 36.5094 48.5625 36.6455L48.5719 36.6623L48.5974 36.7028Z" fill="#6C63FF"/>
<path opacity="0.1" d="M42.8236 33.659L42.8169 33.7554V33.7621L42.8055 33.9171L42.7161 35.164L42.6078 36.6663L42.5769 37.0894L42.5097 37.9948V38.0063L35.3169 38.0737L23.5133 38.2017V38.2582H23.5039V38.2017V38.1828L23.5342 37.2154L23.592 35.325L23.6417 33.7224L23.6464 33.5627C23.6494 33.4663 23.6719 33.3716 23.7126 33.2842C23.7533 33.1969 23.8113 33.1187 23.8832 33.0546C23.955 32.9905 24.0392 32.9417 24.1304 32.9113C24.2217 32.8808 24.3182 32.8694 24.4141 32.8776C24.7314 32.9045 25.1435 32.9375 25.6362 32.9726L25.8379 32.9874C28.6834 33.1854 33.9422 33.4414 39.2487 33.1221C39.3603 33.116 39.4726 33.1093 39.5848 33.1012C40.4076 33.0494 41.2298 32.9827 42.0438 32.8991C42.1468 32.8883 42.2508 32.9003 42.3486 32.9341C42.4464 32.9679 42.5356 33.0228 42.61 33.095C42.6843 33.1671 42.742 33.2547 42.7789 33.3516C42.8158 33.4484 42.8311 33.5522 42.8236 33.6557V33.659Z" fill="black"/>
<path d="M23.5117 38.2601V38.2036L35.3173 38.0749L42.5101 38.0075H42.5303V37.9961L42.5975 37.0906L42.6264 36.6864L42.7366 35.1632L42.8233 33.9574V33.9277C42.8274 33.8721 42.8249 33.8163 42.8159 33.7613C42.8163 33.7591 42.8163 33.7568 42.8159 33.7546C42.7975 33.6409 42.7513 33.5335 42.6815 33.442C42.6075 33.3469 42.5105 33.2722 42.3997 33.2251C42.2889 33.1779 42.168 33.1598 42.0483 33.1725C41.2342 33.256 40.4121 33.3227 39.5893 33.3746C39.477 33.3827 39.3648 33.3894 39.2532 33.3955C33.9466 33.7115 28.6878 33.4555 25.8423 33.2608L25.6407 33.2459C25.1479 33.2109 24.7358 33.1786 24.4185 33.151C24.244 33.1362 24.0702 33.1868 23.9307 33.2929C23.7911 33.399 23.6958 33.5532 23.663 33.7256C23.6562 33.7621 23.6521 33.799 23.6509 33.8361L23.6052 35.329L23.5426 37.22L23.5131 38.1874V38.2063V38.2628L23.5117 38.2601Z" fill="#3F3D56"/>
<path opacity="0.1" d="M42.8422 34.1346L42.7595 35.1674L42.6365 36.7068L42.6056 37.0921L42.5383 37.9551L42.5343 37.9982V38.0097L42.5242 38.1094L42.5316 38.0097H42.5121L35.3193 38.077L23.5117 38.205V38.1862L23.5447 37.2188L23.6119 35.3284L23.6549 34.072C23.657 34.0005 23.6769 33.9307 23.7129 33.8689C23.7488 33.8072 23.7996 33.7554 23.8606 33.7183C23.9367 33.6716 24.0257 33.6503 24.1147 33.6577C24.2559 33.6691 24.4293 33.6826 24.6316 33.6974C24.9604 33.7217 25.3657 33.75 25.8376 33.7796C26.7115 33.8349 27.8079 33.8941 29.0643 33.9426C32.5599 34.0774 37.2789 34.1225 41.7613 33.7291C41.9629 33.7116 42.1713 33.692 42.375 33.6725C42.4556 33.6644 42.5368 33.6799 42.6089 33.717C42.6293 33.7272 42.6487 33.7393 42.6667 33.7533C42.7253 33.7958 42.7716 33.853 42.8012 33.9191C42.808 33.9322 42.8137 33.946 42.818 33.9602C42.8382 34.016 42.8464 34.0754 42.8422 34.1346Z" fill="black"/>
<path opacity="0.1" d="M20.0381 35.0547V35.2696C20.0381 35.3477 20.016 35.4243 19.9744 35.4904C19.9327 35.5564 19.8732 35.6093 19.8028 35.6428L17.1072 35.6947C17.0355 35.6618 16.9748 35.6089 16.9322 35.5424C16.8897 35.4758 16.8671 35.3985 16.8672 35.3194V35.1173L20.0381 35.0547Z" fill="black"/>
<path d="M20.071 35.7716L16.5586 35.8389V35.2549L20.071 35.1875V35.7716Z" fill="#3F3D56"/>
<path opacity="0.1" d="M20.071 35.7716L16.5586 35.8389V35.2549L20.071 35.1875V35.7716Z" fill="black"/>
<path d="M20.2077 35.7716L16.6953 35.8389V35.2549L20.2077 35.1875V35.7716Z" fill="#3F3D56"/>
<g opacity="0.1">
<path opacity="0.1" d="M31.8339 13.7455C31.7682 13.66 31.7246 13.5596 31.7068 13.4531C31.6906 13.5572 31.7003 13.6636 31.7351 13.763C31.7684 13.7599 31.8015 13.7541 31.8339 13.7455Z" fill="black"/>
<path opacity="0.1" d="M30.9819 14.1946C30.9692 14.112 30.9609 14.0288 30.957 13.9453C30.957 14.0282 30.957 14.1117 30.957 14.1952L30.9819 14.1946Z" fill="black"/>
<path opacity="0.1" d="M36.4577 16.4409C36.4615 16.3809 36.4696 16.3212 36.482 16.2624C36.5138 16.1599 36.5318 16.0536 36.5357 15.9464C36.5342 15.9223 36.5306 15.8984 36.525 15.875C36.5135 15.937 36.4954 15.999 36.482 16.0603C36.4551 16.1852 36.4469 16.3135 36.4577 16.4409Z" fill="black"/>
<path opacity="0.1" d="M35.06 14.3611L35.1333 14.4143C35.1951 14.3695 35.2529 14.3195 35.3061 14.2648C35.3314 14.2297 35.347 14.1886 35.3515 14.1456C35.356 14.1025 35.3491 14.0591 35.3316 14.0195C35.3249 14.0349 35.3163 14.0494 35.3061 14.0626C35.2234 14.1691 35.0405 14.2277 35.06 14.3611Z" fill="black"/>
<path opacity="0.1" d="M29.539 15.0078C29.5144 15.0569 29.4948 15.1084 29.4805 15.1614C29.5856 15.1026 29.6989 15.0597 29.8166 15.0341L29.539 15.0078Z" fill="black"/>
<path opacity="0.1" d="M30.4629 14.2743C30.4187 14.2499 30.3765 14.2222 30.3365 14.1914C30.3348 14.2181 30.3369 14.2448 30.3426 14.2709C30.3827 14.269 30.4229 14.2701 30.4629 14.2743Z" fill="black"/>
<path opacity="0.1" d="M37.0368 18.2422C37.0092 18.5689 36.8573 18.8835 36.7343 19.1934C36.4876 19.8146 36.3484 20.4734 36.2442 21.1343C36.1508 21.7265 36.0426 22.3988 35.5384 22.7269C35.3943 22.8131 35.2401 22.881 35.0793 22.929C34.3546 23.1803 33.6239 23.4322 32.8609 23.5238C32.0979 23.6155 31.2973 23.5353 30.6318 23.154C30.4389 23.0531 30.2732 22.9068 30.1492 22.7276C29.9697 22.4426 29.9663 22.0855 29.8803 21.7595C29.8069 21.5174 29.7171 21.2806 29.6114 21.0508C29.4628 20.6883 29.3485 20.3097 29.2349 19.9372C29.1296 19.5909 29.0245 19.2444 28.9197 18.8977C28.8851 18.7934 28.8595 18.6863 28.843 18.5777C28.8168 18.7501 28.8679 18.9307 28.9197 19.0998C29.0245 19.447 29.1296 19.7934 29.2349 20.1393C29.3485 20.5145 29.4628 20.8904 29.6114 21.2529C29.7171 21.4827 29.8069 21.7195 29.8803 21.9616C29.965 22.2876 29.9683 22.6447 30.1492 22.9297C30.2732 23.1089 30.4389 23.2552 30.6318 23.3561C31.2973 23.7374 32.1 23.8176 32.8609 23.7259C33.6219 23.6343 34.3519 23.3824 35.0793 23.1311C35.2401 23.0831 35.3943 23.0152 35.5384 22.929C36.0392 22.6009 36.1508 21.9286 36.2442 21.3364C36.3484 20.6755 36.4876 20.0167 36.7343 19.3955C36.8808 19.0264 37.0704 18.6511 37.0381 18.2543C37.0381 18.2503 37.0368 18.2462 37.0368 18.2422Z" fill="black"/>
<path opacity="0.1" d="M28.9895 17.9832C28.9895 17.9832 28.9895 17.9785 28.9895 17.9758C29.0017 17.857 28.9912 17.737 28.9586 17.6221C28.9452 17.5482 28.9365 17.4735 28.9324 17.3984C28.9247 17.5409 28.9335 17.6838 28.9586 17.8242C28.9694 17.8768 28.9815 17.93 28.9895 17.9832Z" fill="black"/>
<path opacity="0.1" d="M29.1966 16.3356C29.2483 16.2486 29.307 16.1659 29.3721 16.0884C29.2491 16.2063 29.0219 16.1012 28.9741 15.9375C28.9565 16.0037 28.9565 16.0734 28.9741 16.1396C28.9907 16.189 29.02 16.2332 29.0591 16.2676C29.0981 16.3021 29.1456 16.3255 29.1966 16.3356Z" fill="black"/>
</g>
<path opacity="0.1" d="M45.9853 33.6211C45.9853 33.6211 46.1984 34.3958 45.9853 35.0695C45.7723 35.7432 45.9853 33.6211 45.9853 33.6211Z" fill="black"/>
<path opacity="0.1" d="M46.8947 34.4102C46.8947 34.4102 46.9841 35.3937 46.7824 35.5682C46.5808 35.7427 46.8947 34.4102 46.8947 34.4102Z" fill="black"/>
<path d="M13.375 24.1338L20.2055 24.0664" stroke="#6C63FF" stroke-width="2" stroke-miterlimit="10"/>
<path d="M13.375 24.9729L20.2055 24.9062" stroke="#6C63FF" stroke-width="2" stroke-miterlimit="10"/>
<path d="M13.375 25.8174L20.2055 25.75" stroke="#6C63FF" stroke-width="2" stroke-miterlimit="10"/>
</g>
<defs>
<clipPath id="clip0">
<rect width="70" height="37.3333" fill="white"/>
</clipPath>
</defs>
</svg>
