<svg width="45" height="45" viewBox="0 0 45 45" fill="none" xmlns="http://www.w3.org/2000/svg">
<path d="M13.3594 32.3438H6.32812V30.9375H11.9531V28.125H13.3594V32.3438Z" fill="#0570D8"/>
<path d="M11.9531 28.125H6.74016L4.63078 26.0156H2.10938V24.6094H5.21297L7.32234 26.7188H11.9531V28.125Z" fill="#0570D8"/>
<path d="M10.5469 35.8594H14.7656V37.2656H10.5469V35.8594Z" fill="#0570D8"/>
<path d="M20.3906 40.7812H18.9844V33.4589L20.3906 32.0527V27.4219H21.7969V32.6348L20.3906 34.0411V40.7812Z" fill="#0570D8"/>
<path d="M19.1904 34.2471L16.1719 31.2286V22.5H17.5781V30.6464L20.1846 33.2529L19.1904 34.2471Z" fill="#0570D8"/>
<path d="M11.9531 22.5H13.3594V26.7188H11.9531V22.5Z" fill="#0570D8"/>
<path d="M33.338 29.5312H28.125V28.125H32.7558L34.8652 26.0156H40.0781V27.4219H35.4473L33.338 29.5312Z" fill="#0570D8"/>
<path d="M32.3438 38.6719H30.9375V33.0469H37.2656V34.4531H32.3438V38.6719Z" fill="#0570D8"/>
<path d="M26.7188 40.0781H25.3125V34.162L26.7188 32.7558V29.5312H28.125V33.338L26.7188 34.7442V40.0781Z" fill="#0570D8"/>
<path d="M28.125 28.126H26.7188V25.0224L30.4404 21.3008L31.4346 22.295L28.125 25.6046V28.126Z" fill="#0570D8"/>
<path d="M40.0781 22.5H41.4844V26.0156H40.0781V22.5Z" fill="#0570D8"/>
<path d="M20.3906 22.5H21.7969V26.0156H20.3906V22.5Z" fill="#0570D8"/>
<path d="M12.6562 28.8281C13.4329 28.8281 14.0625 28.1985 14.0625 27.4219C14.0625 26.6452 13.4329 26.0156 12.6562 26.0156C11.8796 26.0156 11.25 26.6452 11.25 27.4219C11.25 28.1985 11.8796 28.8281 12.6562 28.8281Z" fill="#0570D8"/>
<path d="M21.0938 28.125C21.8704 28.125 22.5 27.4954 22.5 26.7188C22.5 25.9421 21.8704 25.3125 21.0938 25.3125C20.3171 25.3125 19.6875 25.9421 19.6875 26.7188C19.6875 27.4954 20.3171 28.125 21.0938 28.125Z" fill="#0570D8"/>
<path d="M27.4219 30.2344C28.1985 30.2344 28.8281 29.6048 28.8281 28.8281C28.8281 28.0515 28.1985 27.4219 27.4219 27.4219C26.6452 27.4219 26.0156 28.0515 26.0156 28.8281C26.0156 29.6048 26.6452 30.2344 27.4219 30.2344Z" fill="#0570D8"/>
<path d="M26.0156 42.1875C26.7923 42.1875 27.4219 41.5579 27.4219 40.7812C27.4219 40.0046 26.7923 39.375 26.0156 39.375C25.239 39.375 24.6094 40.0046 24.6094 40.7812C24.6094 41.5579 25.239 42.1875 26.0156 42.1875Z" fill="#0570D8"/>
<path d="M40.7812 28.125C41.5579 28.125 42.1875 27.4954 42.1875 26.7188C42.1875 25.9421 41.5579 25.3125 40.7812 25.3125C40.0046 25.3125 39.375 25.9421 39.375 26.7188C39.375 27.4954 40.0046 28.125 40.7812 28.125Z" fill="#0570D8"/>
<path d="M37.9688 35.1562C38.7454 35.1562 39.375 34.5267 39.375 33.75C39.375 32.9733 38.7454 32.3438 37.9688 32.3438C37.1921 32.3438 36.5625 32.9733 36.5625 33.75C36.5625 34.5267 37.1921 35.1562 37.9688 35.1562Z" fill="#0570D8"/>
<path d="M31.6406 40.7812C32.4173 40.7812 33.0469 40.1517 33.0469 39.375C33.0469 38.5983 32.4173 37.9688 31.6406 37.9688C30.864 37.9688 30.2344 38.5983 30.2344 39.375C30.2344 40.1517 30.864 40.7812 31.6406 40.7812Z" fill="#0570D8"/>
<path d="M19.6875 42.8906C20.4642 42.8906 21.0938 42.261 21.0938 41.4844C21.0938 40.7077 20.4642 40.0781 19.6875 40.0781C18.9108 40.0781 18.2812 40.7077 18.2812 41.4844C18.2812 42.261 18.9108 42.8906 19.6875 42.8906Z" fill="#0570D8"/>
<path d="M5.625 33.0469C6.40165 33.0469 7.03125 32.4173 7.03125 31.6406C7.03125 30.864 6.40165 30.2344 5.625 30.2344C4.84835 30.2344 4.21875 30.864 4.21875 31.6406C4.21875 32.4173 4.84835 33.0469 5.625 33.0469Z" fill="#0570D8"/>
<path d="M9.84375 37.9688C10.6204 37.9688 11.25 37.3392 11.25 36.5625C11.25 35.7858 10.6204 35.1562 9.84375 35.1562C9.0671 35.1562 8.4375 35.7858 8.4375 36.5625C8.4375 37.3392 9.0671 37.9688 9.84375 37.9688Z" fill="#0570D8"/>
<path d="M15.4688 37.9688C16.2454 37.9688 16.875 37.3392 16.875 36.5625C16.875 35.7858 16.2454 35.1562 15.4688 35.1562C14.6921 35.1562 14.0625 35.7858 14.0625 36.5625C14.0625 37.3392 14.6921 37.9688 15.4688 37.9688Z" fill="#0570D8"/>
<path d="M31.2815 7.6825C29.575 5.48383 27.4895 3.91023 25.1875 3.21484C26.0038 4.41719 26.6887 6.15531 27.2357 8.23235C28.6898 8.10227 30.044 7.91453 31.2815 7.6825Z" fill="#0570D8"/>
<path d="M27.0574 15.2931C26.8345 13.1929 26.5202 11.3282 26.1497 9.71875C24.9389 9.80172 23.7141 9.84461 22.4991 9.84461C21.2841 9.84461 20.0592 9.80172 18.8491 9.71875C18.4786 11.3282 18.1643 13.1936 17.9414 15.2931C19.4215 15.4077 20.9452 15.4696 22.4991 15.4696C24.053 15.4696 25.5766 15.4077 27.0574 15.2931Z" fill="#0570D8"/>
<path d="M17.2416 2.79688C14.4453 3.54148 11.8866 4.86547 9.69922 6.63313C10.4544 6.89891 11.2981 7.1457 12.2312 7.36578C13.655 5.39211 15.3573 3.82906 17.2416 2.79688Z" fill="#0570D8"/>
<path d="M22.5 16.8757C20.8927 16.8757 19.3275 16.8131 17.8109 16.6992C17.6625 18.4887 17.5781 20.4251 17.5781 22.5007H27.4219C27.4219 20.4251 27.3375 18.4887 27.1891 16.6992C25.6725 16.8131 24.1073 16.8757 22.5 16.8757Z" fill="#0570D8"/>
<path d="M13.7188 7.6793C14.9562 7.91203 16.3105 8.09906 17.7645 8.22914C18.3116 6.15211 18.9964 4.41398 19.8127 3.21094C17.5114 3.90633 15.4252 5.48063 13.7188 7.6793Z" fill="#0570D8"/>
<path d="M16.5554 15.1713C16.7649 13.2005 17.0588 11.3147 17.4364 9.60469C15.8375 9.45141 14.2843 9.22641 12.838 8.92969C11.8466 10.4625 11.0197 12.2281 10.4023 14.1673C12.3078 14.6067 14.3757 14.9491 16.5554 15.1713Z" fill="#0570D8"/>
<path d="M22.5011 8.4375C23.6444 8.4375 24.7455 8.40164 25.803 8.33766C24.8186 4.78195 23.5537 2.8125 22.5011 2.8125C21.4485 2.8125 20.1836 4.78195 19.1992 8.33766C20.2567 8.40164 21.3578 8.4375 22.5011 8.4375Z" fill="#0570D8"/>
<path d="M4.12805 13.6445C2.835 16.3227 2.10938 19.3265 2.10938 22.5004H7.73438C7.73438 19.9361 8.05711 17.4773 8.64633 15.202C6.99117 14.7583 5.47945 14.2338 4.12805 13.6445Z" fill="#0570D8"/>
<path d="M28.582 16.5801C28.7459 18.5228 28.8295 20.5239 28.8295 22.5018H35.8608C35.8608 20.0521 35.5535 17.7079 34.9959 15.543C33.0152 16.0021 30.8637 16.3537 28.582 16.5801Z" fill="#0570D8"/>
<path d="M36.4998 7.68359C35.6258 8.03094 34.6484 8.3382 33.5938 8.60328C34.5507 10.1607 35.3495 11.9192 35.9548 13.8296C37.5109 13.4148 38.9389 12.9324 40.2066 12.3938C39.2061 10.6445 37.9545 9.0582 36.4998 7.68359Z" fill="#0570D8"/>
<path d="M36.3516 15.202C36.9408 17.4773 37.2635 19.9361 37.2635 22.5004H42.8885C42.8885 19.3265 42.1629 16.3227 40.8698 13.6445C39.5184 14.2338 38.0067 14.7583 36.3516 15.202Z" fill="#0570D8"/>
<path d="M32.1648 8.92578C30.7185 9.2225 29.1653 9.4475 27.5664 9.60078C27.944 11.3101 28.2379 13.1966 28.4474 15.1674C30.6278 14.9452 32.695 14.6028 34.6005 14.1641C33.9831 12.2241 33.157 10.4586 32.1648 8.92578Z" fill="#0570D8"/>
<path d="M27.7617 2.79688C29.6461 3.82906 31.3484 5.39211 32.7722 7.36508C33.7052 7.1457 34.549 6.8982 35.3041 6.63242C33.1174 4.86617 30.558 3.54219 27.7617 2.79688Z" fill="#0570D8"/>
<path d="M16.4194 16.5801C14.1377 16.3537 11.9862 16.0021 10.0055 15.543C9.44789 17.7079 9.14062 20.0521 9.14062 22.5018H16.1719C16.1719 20.5239 16.2555 18.5228 16.4194 16.5801Z" fill="#0570D8"/>
<path d="M11.4059 8.60328C10.3519 8.3382 9.37383 8.03094 8.49984 7.68359C7.04508 9.05891 5.79352 10.6452 4.79297 12.3945C6.0607 12.9331 7.48875 13.4155 9.04477 13.8303C9.65016 11.9192 10.4489 10.1607 11.4059 8.60328Z" fill="#0570D8"/>
</svg>
