<svg width="429" height="331" viewBox="0 0 429 331" fill="none" xmlns="http://www.w3.org/2000/svg">
<path opacity="0.2" fill-rule="evenodd" clip-rule="evenodd" d="M67.2196 2.56827C111.331 7.64959 147.172 38.4013 189.755 50.9798C238.698 65.4367 302.404 45.8094 337.862 82.5119C372.924 118.804 347.89 181.95 362.847 230.145C377.579 277.617 443.749 317.721 425.163 363.821C403.629 417.236 314.082 403.654 275.616 446.517C247.4 477.957 268.445 534.092 242.462 567.4C216.062 601.244 174.818 632.734 131.943 630.7C86.277 628.532 63.8011 560.196 18.2131 556.757C-37.6441 552.544 -92.2135 640.816 -139.155 610.25C-184.587 580.668 -123.414 498.636 -146.43 449.551C-166.702 406.318 -236.199 403.48 -256.397 360.213C-276.064 318.084 -271.129 264.916 -252.514 222.312C-234.023 179.993 -185.531 160.764 -154.36 126.688C-123.434 92.8808 -108.539 43.6151 -68.5647 21.2229C-28.2653 -1.35129 21.3318 -2.71774 67.2196 2.56827Z" fill="#F47116"/>
</svg>
