<svg width="45" height="45" viewBox="0 0 45 45" fill="none" xmlns="http://www.w3.org/2000/svg">
<g clip-path="url(#clip0)">
<path d="M8.14744 17.3226L8.53462 17.5464V20.0036L6.77036 20.4446L10.8622 22.8316L10.8327 24.2663L10.7698 24.486L13.1898 23.9473V23.3726C13.1898 22.3297 13.6111 21.3746 14.3009 20.6688L11.6388 20.0036L11.6358 17.5483L12.0237 17.3241C13.2216 16.6304 13.9656 15.3439 13.9656 13.9668V12.6106C13.9656 10.4273 12.2791 8.60016 10.2057 8.53803C9.15515 8.49712 8.14441 8.89414 7.38484 9.6306C6.62527 10.3674 6.20703 11.357 6.20703 12.4151V13.9668C6.20703 15.3439 6.95031 16.6304 8.14744 17.3226Z" fill="#0570D8"/>
<path d="M13.9291 8.65723C15.7524 5.72198 18.993 3.87931 22.4999 3.87931C25.9818 3.87931 29.2133 5.70494 31.042 8.61139C31.073 8.58032 31.1003 8.54623 31.1321 8.51516C31.6155 8.04578 32.1709 7.68399 32.7699 7.42638L33.6499 5.36587L31.1742 2.8894L28.9925 4.30929L28.575 4.0532C27.529 3.4122 26.3986 2.94282 25.2154 2.65983L24.7373 2.54466L24.1983 0H20.8008L20.2625 2.54466L19.7852 2.65869C18.602 2.94206 17.4716 3.41144 16.4256 4.05244L16.0081 4.30854L13.8264 2.88865L11.3477 5.36739L12.2182 7.44267C12.8607 7.7321 13.4411 8.14655 13.9291 8.65723Z" fill="#0570D8"/>
<path d="M0 17.8438V32.0256L3.32999 33.136L6.14552 21.8742L0 17.8438Z" fill="#0570D8"/>
<path d="M31.8089 18.4159C30.3629 17.4059 29.4814 15.7402 29.4814 13.9642V12.4124C29.4814 11.5574 29.6821 10.7372 30.0515 9.99659C28.5835 7.21175 25.6634 5.42969 22.4986 5.42969C19.3035 5.42969 16.3709 7.23599 14.9139 10.0591C15.2961 10.8281 15.5158 11.6949 15.5158 12.6079V13.9642C15.5158 15.7402 14.6335 17.4074 13.1875 18.4167V18.7883L16.2917 19.5653L19.3952 18.7883V18.4159C17.9491 17.4059 17.0676 15.7402 17.0676 13.9642V12.4124C17.0676 10.9304 17.6533 9.54653 18.717 8.51457C19.7801 7.48262 21.1802 6.94125 22.6653 6.98368C25.568 7.07158 27.9296 9.59388 27.9296 12.6079V13.9642C27.9296 15.7402 27.0473 17.4074 25.6013 18.4167V18.7883L28.7055 19.5653L31.8089 18.7883V18.4159Z" fill="#0570D8"/>
<path d="M9.30946 23.7195L7.5399 22.6875L4.80469 33.6272L6.33179 34.136H6.39695L9.30946 23.9411V23.7195Z" fill="#0570D8"/>
<path d="M16.5049 21.114C15.4677 21.3739 14.7422 22.3028 14.7422 23.3726V23.6022L15.1869 23.5037C16.8254 23.1408 18.5579 23.2173 20.1584 23.7302L23.6707 24.8527C24.0594 24.8675 24.4465 24.9103 24.8216 25.0175L29.5923 26.3806H30.0677L30.2594 26.2798V23.3726C30.2594 22.3028 29.534 21.3739 28.4967 21.114L24.0533 20.0036L24.0503 17.5483L24.4382 17.3241C25.6361 16.6304 26.3801 15.3439 26.3801 13.9668V12.6106C26.3801 10.4273 24.6935 8.60016 22.6201 8.53803C21.573 8.49712 20.5589 8.89414 19.7993 9.6306C19.0397 10.3674 18.6215 11.357 18.6215 12.4151V13.9668C18.6215 15.3439 19.3648 16.6304 20.5619 17.3226L20.9491 17.5464V20.0036L16.5049 21.114Z" fill="#0570D8"/>
<path d="M31.0345 12.4151V13.9668C31.0345 15.3439 31.7778 16.6304 32.9749 17.3225L33.3621 17.5464V20.0036L30.6992 20.6688C31.3883 21.3746 31.8104 22.3289 31.8104 23.3726V25.4627L40.3426 20.9719L36.4663 20.0036L36.4633 17.5483L36.8512 17.3241C38.0491 16.6304 38.7931 15.3439 38.7931 13.9668V12.6105C38.7931 10.4273 37.1065 8.60016 35.0331 8.53803C33.9803 8.49712 32.9726 8.89414 32.2123 9.6306C31.4527 10.3674 31.0345 11.357 31.0345 12.4151Z" fill="#0570D8"/>
<path d="M24.2013 30.6634C23.7001 30.2125 22.9212 30.1356 22.3408 30.4842L19.4514 32.2166C19.0498 32.4587 18.5865 32.5867 18.1156 32.5867C16.6824 32.5867 15.5164 31.4207 15.5164 29.9875V29.8341C15.5164 28.8438 16.0664 27.9532 16.9533 27.5095L20.8281 25.5721L19.6851 25.2066C18.3444 24.7777 16.8957 24.711 15.5224 25.0183L10.2846 26.1828L8.19531 33.4952L10.579 34.9253C10.6472 34.8336 10.7146 34.7412 10.796 34.6597L12.1599 33.2959C12.6092 32.8451 13.2331 32.5867 13.8707 32.5867C15.1766 32.5867 16.2381 33.6278 16.2835 34.923C17.5492 34.9677 18.5664 35.9849 18.6111 37.2506C19.8768 37.2953 20.894 38.3125 20.9387 39.5782C21.8566 39.6108 22.6404 40.1544 23.0219 40.9341L24.7536 42.3774C24.9813 42.5672 25.2715 42.6729 25.5692 42.6729C26.0155 42.6729 26.3784 42.31 26.3784 41.8637C26.3784 41.6224 26.272 41.3959 26.0875 41.2421L22.0017 37.8378L22.9958 36.6452L27.21 40.1567C27.3551 40.2787 27.5392 40.3453 27.7275 40.3453H27.8968C28.3431 40.3453 28.706 39.9824 28.706 39.5361C28.706 39.2948 28.5996 39.0683 28.4151 38.9145L24.3293 35.5102L25.3234 34.3176L29.5308 37.8238C29.6796 37.9488 29.8706 38.0178 30.0645 38.0178H30.1987C30.6597 38.0178 31.0336 37.6438 31.0336 37.1836C31.0336 36.9472 30.9328 36.7214 30.7574 36.563L24.2013 30.6634Z" fill="#0570D8"/>
<path d="M30.4517 27.9313L29.2716 27.9017L24.3959 26.5091C23.5977 26.2796 22.7184 26.3633 21.9778 26.7334L17.6499 28.8973C17.2923 29.0765 17.0703 29.4349 17.0703 29.8338V29.9872C17.0703 30.5646 17.5397 31.0347 18.1178 31.0347C18.3072 31.0347 18.4925 30.9836 18.6546 30.8866L21.5448 29.1534C22.0312 28.861 22.5858 28.7072 23.1522 28.7072C23.9258 28.7072 24.6683 28.992 25.2426 29.5095L31.7969 35.4092C31.8435 35.4509 31.8878 35.4937 31.9303 35.5388L45.0013 29.0034V20.2734L30.4517 27.9313Z" fill="#0570D8"/>
<path d="M23.0557 42.9805C22.9364 43.2468 22.775 43.4934 22.567 43.7014L21.9844 44.2841L22.5648 44.7959C22.7121 44.9266 22.9023 44.9986 23.0993 44.9986H23.2429C23.6891 44.9986 24.0521 44.6356 24.0521 44.1893C24.0521 43.948 23.9456 43.7215 23.7611 43.5677L23.0557 42.9805Z" fill="#0570D8"/>
<path d="M20.8547 41.1211C20.6259 41.1211 20.4016 41.2135 20.2395 41.3757L18.8757 42.7395C18.7135 42.9016 18.6211 43.1259 18.6211 43.3547C18.6211 43.8343 19.0113 44.2245 19.4909 44.2245C19.7197 44.2245 19.944 44.1321 20.1061 43.97L21.47 42.6061C21.6321 42.444 21.7245 42.2197 21.7245 41.9909C21.7245 41.5113 21.3343 41.1211 20.8547 41.1211Z" fill="#0570D8"/>
<path d="M17.0683 37.3347C17.0683 36.855 16.6781 36.4648 16.1985 36.4648C15.9697 36.4648 15.7454 36.5573 15.5832 36.7194L14.2194 38.0832C14.0573 38.2454 13.9648 38.4697 13.9648 38.6985C13.9648 39.1781 14.355 39.5683 14.8347 39.5683C15.0635 39.5683 15.2877 39.4759 15.4499 39.3137L16.8137 37.9499C16.9759 37.7877 17.0683 37.5635 17.0683 37.3347Z" fill="#0570D8"/>
<path d="M19.3964 39.6628C19.3964 39.1832 19.0062 38.793 18.5266 38.793C18.2978 38.793 18.0735 38.8854 17.9114 39.0475L16.5475 40.4114C16.3854 40.5735 16.293 40.7978 16.293 41.0266C16.293 41.5062 16.6832 41.8964 17.1628 41.8964C17.3916 41.8964 17.6159 41.804 17.778 41.6418L19.1418 40.278C19.304 40.1159 19.3964 39.8916 19.3964 39.6628Z" fill="#0570D8"/>
<path d="M14.7402 35.0065C14.7402 34.5269 14.35 34.1367 13.8704 34.1367C13.6415 34.1367 13.4173 34.2292 13.2551 34.3913L11.8913 35.7551C11.7292 35.9173 11.6367 36.1415 11.6367 36.3704C11.6367 36.85 12.0269 37.2402 12.5065 37.2402C12.7354 37.2402 12.9596 37.1477 13.1218 36.9856L14.4856 35.6218C14.6477 35.4596 14.7402 35.2354 14.7402 35.0065Z" fill="#0570D8"/>
</g>
<defs>
<clipPath id="clip0">
<rect width="45" height="45" fill="white"/>
</clipPath>
</defs>
</svg>
