<svg width="41" height="40" viewBox="0 0 41 40" fill="none" xmlns="http://www.w3.org/2000/svg">
<g clip-path="url(#clip0)">
<path d="M21.294 22.2734H18.9399V29.2991H16.5859V36.3304H23.648V29.2991H21.294V22.2734Z" fill="#0570D8"/>
<path d="M40.2064 22.2712V15.2344H34.6814C34.4306 14.4618 34.1172 13.7099 33.7441 12.9852L37.5965 9.14953L30.9383 2.52039L27.0859 6.35602C26.358 5.98453 25.6028 5.6725 24.8268 5.42273V0C23.6876 0 16.5574 0 15.4108 0V5.42273C14.6348 5.6725 13.8797 5.98453 13.1517 6.35602L9.2993 2.52039L2.64114 9.14953L6.49356 12.9852C6.12045 13.7099 5.80705 14.4618 5.55619 15.2344H0.03125V22.2712H9.52576V33.9844H7.09328V31.6406H0.03125V38.6719H7.09328V36.3281H11.8798V22.2712H13.0568V18.75C13.0568 14.873 16.2248 11.7188 20.1188 11.7188C24.0128 11.7188 27.1808 14.873 27.1808 18.75V22.2712H28.3578V37.6562H33.1443V40H40.2064V32.9688H33.1443V35.3125H30.7119V22.2712H40.2064Z" fill="#0570D8"/>
<path d="M20.1182 14.0625C17.5222 14.0625 15.4102 16.1653 15.4102 18.75V19.9274H24.8262V18.75C24.8262 16.1653 22.7142 14.0625 20.1182 14.0625Z" fill="#0570D8"/>
</g>
<defs>
<clipPath id="clip0">
<rect width="40.1751" height="40" fill="white" transform="translate(0.03125)"/>
</clipPath>
</defs>
</svg>
