<svg width="88" height="88" viewBox="0 0 88 88" fill="none" xmlns="http://www.w3.org/2000/svg">
<circle opacity="0.1" cx="44" cy="44" r="44" fill="#0570D8"/>
<g clip-path="url(#clip0)">
<g opacity="0.1">
<path opacity="0.1" d="M19.9508 29.0078V63.3399L17.1053 63.3709C16.4981 63.3778 15.8934 63.291 15.3125 63.1136V33.1846H15.3172C16.7148 31.4634 18.2817 30.0271 19.9508 29.0078Z" fill="#6C63FF"/>
<path opacity="0.1" d="M78.7692 33.93H14.7305C14.9209 33.6767 15.1145 33.4297 15.3113 33.189V33.1836H78.6099C78.6713 33.4275 78.7244 33.6763 78.7692 33.93Z" fill="#6C63FF"/>
<path opacity="0.1" d="M73.6342 27.2878V56.0539H73.401C73.28 56.3086 73.1605 56.5583 73.0427 56.8031C72.9902 56.9115 72.9378 57.018 72.8867 57.1244V27.0156C73.1453 27.0992 73.3945 27.1899 73.6342 27.2878Z" fill="#6C63FF"/>
<path opacity="0.1" d="M55.8452 26.957V62.9484L55.0977 62.9565V27.1106C55.3457 27.0581 55.5944 27.0062 55.8452 26.957Z" fill="#6C63FF"/>
<path opacity="0.1" d="M37.8992 30.2974V63.1447L37.1523 63.1528V30.2617C37.4017 30.2779 37.6511 30.2873 37.8992 30.2974Z" fill="#6C63FF"/>
<path opacity="0.1" d="M73.4007 56.0547C73.2797 56.3093 73.1603 56.559 73.0424 56.8038H9.97638C9.88988 56.5573 9.80922 56.3075 9.73438 56.0547H73.4007Z" fill="#6C63FF"/>
</g>
<path d="M24.4999 43.9453H23.2227V47.8298H24.4999V43.9453Z" fill="#3F3D56"/>
<path d="M58.8749 43.7422H57.5977V47.8516H58.8749V43.7422Z" fill="#3F3D56"/>
<path d="M67.0202 61.9864V62.8622L56.8077 62.9565L56.6988 62.9585L52.8174 62.9942L52.7246 62.9956L51.5449 63.0057H51.5099L44.3185 63.0724L32.5136 63.1822H32.5035L29.502 63.2105L29.4697 63.2111L16.1328 63.3338V62.3232L19.2687 60.4369L25.5608 60.3844L25.6952 60.3837L25.7396 60.383L25.874 60.381L28.895 60.3561L29.0301 60.3554L29.0731 60.3547L29.2076 60.3541L30.1762 60.346L30.2018 60.3453L32.5915 60.3251H32.611L51.2585 60.1675L51.715 60.1641H51.7607L52.1089 60.1607L54.6398 60.1398L54.7743 60.1378L54.8986 60.1365H54.9632L55.7503 60.1304L55.9063 60.1284L56.1153 60.127L56.7708 60.121L57.8107 60.1122L57.9451 60.1109L58.1791 60.1095H58.2228L63.245 60.0664L67.0202 61.9864Z" fill="#65617D"/>
<path opacity="0.2" d="M67.0202 61.9864V62.8622L56.8077 62.9565L56.6988 62.9585L52.8174 62.9942L52.7246 62.9956L51.5449 63.0057H51.5099L44.3185 63.0724L32.5136 63.1822H32.5035L29.502 63.2105L29.4697 63.2111L16.1328 63.3338V62.3232L19.2687 60.4369L25.5608 60.3844L25.6952 60.3837L25.7396 60.383L25.874 60.381L28.895 60.3561L29.0301 60.3554L29.0731 60.3547L29.2076 60.3541L30.1762 60.346L30.2018 60.3453L32.5915 60.3251H32.611L51.2585 60.1675L51.715 60.1641H51.7607L52.1089 60.1607L54.6398 60.1398L54.7743 60.1378L54.8986 60.1365H54.9632L55.7503 60.1304L55.9063 60.1284L56.1153 60.127L56.7708 60.121L57.8107 60.1122L57.9451 60.1109L58.1791 60.1095H58.2228L63.245 60.0664L67.0202 61.9864Z" fill="black"/>
<path d="M28.9053 58.6211V60.2709C28.9053 60.3491 28.8832 60.4256 28.8416 60.4917C28.7999 60.5578 28.7404 60.6106 28.67 60.6442C28.6175 60.6696 28.5602 60.6834 28.5019 60.6846L26.1559 60.7344C26.0932 60.7359 26.0311 60.7228 25.9744 60.696C25.9027 60.6631 25.842 60.6102 25.7994 60.5437C25.7569 60.4772 25.7343 60.3998 25.7344 60.3208V58.6211H28.9053Z" fill="#3F3D56"/>
<path opacity="0.1" d="M28.9053 58.6211V60.2709C28.9053 60.3491 28.8832 60.4256 28.8416 60.4917C28.7999 60.5578 28.7404 60.6106 28.67 60.6442C28.6175 60.6696 28.5602 60.6834 28.5019 60.6846L26.1559 60.7344C26.0932 60.7359 26.0311 60.7228 25.9744 60.696C25.9027 60.6631 25.842 60.6102 25.7994 60.5437C25.7569 60.4772 25.7343 60.3998 25.7344 60.3208V58.6211H28.9053Z" fill="black"/>
<path d="M29.0381 58.6211V60.2709C29.0381 60.3491 29.016 60.4256 28.9744 60.4917C28.9327 60.5578 28.8732 60.6106 28.8028 60.6442C28.7503 60.6696 28.693 60.6834 28.6347 60.6846L26.2887 60.7344C26.226 60.7359 26.1639 60.7228 26.1072 60.696C26.0355 60.6631 25.9748 60.6102 25.9322 60.5437C25.8897 60.4772 25.8671 60.3998 25.8672 60.3208V58.6211H29.0381Z" fill="#3F3D56"/>
<path d="M57.9443 58.6211H54.7734V60.7432H57.9443V58.6211Z" fill="#3F3D56"/>
<path opacity="0.1" d="M57.9443 58.6211H54.7734V60.7432H57.9443V58.6211Z" fill="black"/>
<path d="M57.8115 58.6211H54.6406V60.7432H57.8115V58.6211Z" fill="#3F3D56"/>
<path opacity="0.1" d="M24.4999 43.9453V44.3313L23.2227 44.2983V43.9453H24.4999Z" fill="black"/>
<path d="M32.9095 33.0685L31.3748 44.1168C31.3651 44.1874 31.3297 44.2519 31.2756 44.298C31.2214 44.3441 31.1521 44.3686 31.0811 44.3668L18.7928 44.0474L18.5596 44.0414C18.5189 44.0404 18.479 44.0309 18.4423 44.0134C18.4056 43.9959 18.373 43.9709 18.3466 43.9399C18.3202 43.909 18.3006 43.8728 18.2892 43.8337C18.2777 43.7947 18.2745 43.7536 18.2799 43.7133L20.0028 32.1476C20.0139 32.0759 20.0514 32.011 20.1079 31.9658C20.1644 31.9205 20.2358 31.8981 20.308 31.903L32.6406 32.7397C32.6804 32.742 32.7193 32.7526 32.7548 32.7707C32.7903 32.7888 32.8217 32.8141 32.847 32.845C32.8722 32.8759 32.8908 32.9117 32.9016 32.9502C32.9124 32.9886 32.9151 33.0289 32.9095 33.0685Z" fill="#65617D"/>
<path d="M20.8268 32.7188L19.5273 42.9135L30.8207 43.2726L32.2095 33.4369L20.8268 32.7188Z" fill="#6C63FF"/>
<path d="M48.2556 32.5586H35.2138C35.0159 32.5586 34.8555 32.7194 34.8555 32.9177V43.8764C34.8555 44.0747 35.0159 44.2355 35.2138 44.2355H48.2556C48.4535 44.2355 48.6139 44.0747 48.6139 43.8764V32.9177C48.6139 32.7194 48.4535 32.5586 48.2556 32.5586Z" fill="#65617D"/>
<path d="M48.0073 33.3477H35.5039V43.0709H48.0073V33.3477Z" fill="#6C63FF"/>
<path opacity="0.1" d="M58.8749 43.7422V43.9975L57.5977 44.0238V43.7422H58.8749Z" fill="black"/>
<path d="M64.6373 43.5274C64.6391 43.5554 64.6352 43.5834 64.626 43.6097C64.6167 43.6361 64.6023 43.6604 64.5834 43.681C64.5646 43.7017 64.5418 43.7183 64.5164 43.7299C64.491 43.7414 64.4635 43.7477 64.4356 43.7484L51.8515 44.0091C51.7993 44.0102 51.7485 43.9914 51.7095 43.9566C51.6705 43.9217 51.6461 43.8733 51.6411 43.8212L50.5595 32.5518C50.5569 32.5239 50.5599 32.4957 50.5684 32.4689C50.5769 32.4422 50.5908 32.4174 50.6092 32.3962C50.6275 32.375 50.65 32.3577 50.6752 32.3454C50.7004 32.3332 50.7278 32.3261 50.7558 32.3248L63.2444 31.7023L63.3789 31.6956C63.4323 31.6928 63.4847 31.7109 63.5251 31.7461C63.5655 31.7813 63.5907 31.8308 63.5953 31.8842L64.6373 43.5274Z" fill="#65617D"/>
<path d="M51.2773 32.9876L62.683 32.4258L63.6463 42.6657L52.3307 42.9352L51.2773 32.9876Z" fill="#6C63FF"/>
<path opacity="0.1" d="M64.639 43.5274C64.6408 43.5554 64.6369 43.5833 64.6277 43.6097C64.6184 43.6361 64.604 43.6604 64.5851 43.681C64.5663 43.7017 64.5435 43.7183 64.5181 43.7298C64.4927 43.7414 64.4652 43.7477 64.4373 43.7484L63.2461 31.7023L63.3805 31.6956C63.434 31.6928 63.4864 31.7109 63.5268 31.7461C63.5672 31.7813 63.5924 31.8308 63.597 31.8842L64.639 43.5274Z" fill="black"/>
<path opacity="0.1" d="M20.31 31.9031L18.7928 44.0482L18.5596 44.0422C18.5189 44.0412 18.479 44.0317 18.4423 44.0142C18.4056 43.9967 18.373 43.9717 18.3466 43.9407C18.3202 43.9098 18.3006 43.8736 18.2892 43.8345C18.2777 43.7955 18.2745 43.7545 18.2799 43.7141L20.0028 32.1484C20.0138 32.0762 20.0515 32.0109 20.1085 31.9654C20.1654 31.92 20.2374 31.8977 20.31 31.9031Z" fill="black"/>
<path opacity="0.1" d="M24.4999 46.6797H23.2227V47.8303H24.4999V46.6797Z" fill="black"/>
<path opacity="0.1" d="M29.0381 58.6211V58.9559L25.8672 59.0408V58.6211H29.0381Z" fill="black"/>
<path d="M34.6335 47.0786V58.4099C34.6327 58.4791 34.6054 58.5453 34.5572 58.5948C34.509 58.6443 34.4437 58.6734 34.3747 58.676L21.4915 59.0196H21.4882C21.418 59.0187 21.351 58.9904 21.3014 58.9407C21.2518 58.891 21.2235 58.8238 21.2227 58.7535V47.0786C21.2235 47.0083 21.2518 46.9411 21.3014 46.8914C21.351 46.8417 21.418 46.8134 21.4882 46.8125H34.368C34.4381 46.8134 34.5052 46.8417 34.5548 46.8914C34.6044 46.9411 34.6327 47.0083 34.6335 47.0786Z" fill="#65617D"/>
<path opacity="0.1" d="M21.4916 46.8125V59.0196H21.4882C21.418 59.0187 21.351 58.9904 21.3014 58.9407C21.2518 58.891 21.2235 58.8238 21.2227 58.7535V47.0786C21.2235 47.0083 21.2518 46.9411 21.3014 46.8914C21.351 46.8417 21.418 46.8134 21.4882 46.8125H21.4916Z" fill="black"/>
<path d="M22.082 47.5391H34.014V57.5264L22.082 57.7958V47.5391Z" fill="#D4DFEC"/>
<path opacity="0.1" d="M58.8749 46.6797H57.5977V47.8532H58.8749V46.6797Z" fill="black"/>
<path opacity="0.1" d="M57.8115 58.6211V59.0529L54.6406 58.968V58.6211H57.8115Z" fill="black"/>
<path d="M61.9956 47.0786V58.7535C61.9947 58.8244 61.966 58.892 61.9156 58.9419C61.8653 58.9917 61.7974 59.0196 61.7267 59.0196L48.8408 58.676C48.7719 58.6734 48.7065 58.6443 48.6583 58.5948C48.6102 58.5453 48.5828 58.4791 48.582 58.4099V47.0786C48.5829 47.0083 48.6112 46.9411 48.6608 46.8914C48.7104 46.8417 48.7774 46.8134 48.8476 46.8125H61.7274C61.798 46.8127 61.8657 46.8407 61.9159 46.8905C61.9661 46.9403 61.9947 47.0078 61.9956 47.0786Z" fill="#65617D"/>
<path opacity="0.1" d="M61.9955 47.0786V58.7535C61.9946 58.8244 61.9659 58.892 61.9155 58.9419C61.8652 58.9917 61.7973 59.0196 61.7266 59.0196V46.8125C61.7973 46.8125 61.8652 46.8404 61.9155 46.8902C61.9659 46.94 61.9946 47.0077 61.9955 47.0786Z" fill="black"/>
<path d="M61.139 47.5391H49.207V57.5264L61.139 57.7958V47.5391Z" fill="#D4DFEC"/>
<path d="M48.2468 47.0786V58.4099C48.246 58.4791 48.2187 58.5453 48.1705 58.5948C48.1223 58.6443 48.057 58.6734 47.988 58.676L35.1048 59.0196C35.0341 59.0196 34.9662 58.9917 34.9159 58.9419C34.8655 58.892 34.8368 58.8244 34.8359 58.7535V47.0786C34.8368 47.0083 34.8651 46.9411 34.9147 46.8914C34.9643 46.8417 35.0313 46.8134 35.1015 46.8125H47.9813C48.0514 46.8134 48.1184 46.8417 48.1681 46.8914C48.2177 46.9411 48.2459 47.0083 48.2468 47.0786Z" fill="#65617D"/>
<path d="M35.6953 47.5391H47.6273V57.5264L35.6953 57.7958V47.5391Z" fill="#D4DFEC"/>
<path opacity="0.1" d="M67.0202 61.9883V62.8641L56.8077 62.9584L56.6988 62.9604L52.8174 62.9961L52.7246 62.9975L51.5449 63.0076H51.5099L44.3185 63.0743L32.5136 63.1841H32.5035L29.502 63.2124L29.4697 63.213L16.1328 63.3356V62.3251L29.746 62.2355H29.7783L32.5337 62.2167H32.5465L51.5758 62.0907H51.5953L51.6067 62.09H51.6383L51.9603 62.088H52.0585L57.0659 62.0543L57.3616 62.053L57.4275 62.0523L67.0202 61.9883Z" fill="black"/>
<path d="M41.7552 47.8301C43.6609 47.8301 45.2057 46.2819 45.2057 44.3721C45.2057 42.4623 43.6609 40.9141 41.7552 40.9141C39.8495 40.9141 38.3047 42.4623 38.3047 44.3721C38.3047 46.2819 39.8495 47.8301 41.7552 47.8301Z" fill="#FBBEBE"/>
<path d="M45.2063 51.4475C45.2063 51.4475 38.5177 52.256 39.1563 51.4475C39.3875 51.1552 39.4514 50.2888 39.4386 49.3019C39.4346 49.0021 39.4238 48.6915 39.4083 48.3823C39.3344 46.9002 39.1563 45.4518 39.1563 45.4518C39.1563 45.4518 45.0046 42.6897 44.3324 44.8792C44.0635 45.7637 44.1516 47.006 44.3559 48.1721C44.4157 48.5123 44.485 48.8458 44.5576 49.1624C44.7348 49.9347 44.9513 50.6974 45.2063 51.4475Z" fill="#FBBEBE"/>
<path opacity="0.1" d="M45.2063 51.4452C45.2063 51.4452 38.5177 52.2536 39.1563 51.4452C39.3875 51.1528 39.4514 50.2864 39.4386 49.2995C40.4584 48.8629 41.7558 49.1883 41.7558 49.1883C43.1217 48.9155 43.9976 48.9687 44.5576 49.16C44.7348 49.9323 44.9513 50.695 45.2063 51.4452Z" fill="black"/>
<path d="M32.5111 63.2599V63.2033L44.3167 63.0746L51.5095 63.0073H51.5297L51.5223 63.107L51.5324 63.0073H51.5452V62.9958L51.6372 62.0897L51.6722 61.7468L51.683 61.6397L51.6924 61.5501L52.1078 60.1616L52.5232 58.7752L52.8728 57.6077L53.4065 55.8238C53.4065 55.8238 53.104 55.1164 52.936 54.9143C52.7679 54.7122 52.5999 53.3312 52.5999 53.3312C52.5999 53.3312 51.1653 51.9616 50.5382 51.804C50.2753 51.7366 49.7564 51.647 49.2051 51.5345C48.9988 51.4927 48.787 51.4483 48.5833 51.3997C48.4684 51.3735 48.3555 51.3459 48.2472 51.3182C48.0366 51.2655 47.829 51.2012 47.6254 51.1256C47.5187 51.0867 47.4171 51.0349 47.3229 50.9713C46.8288 50.6082 45.5906 50.5671 45.5429 50.5671C45.5427 50.5655 45.5427 50.5639 45.5429 50.5624V50.5563C45.5446 50.528 45.5446 50.4997 45.5429 50.4714C45.5429 50.4445 45.5429 50.4128 45.5368 50.3771C45.5368 50.3663 45.5368 50.3549 45.5321 50.3434C45.5288 50.3192 45.5247 50.2936 45.5187 50.2666C45.5166 50.2546 45.5139 50.2427 45.5106 50.2309C45.4911 50.1497 45.4629 50.0709 45.4266 49.9958C45.4219 49.985 45.4158 49.9736 45.4104 49.9628C45.3775 49.9006 45.3393 49.8413 45.2962 49.7856C45.2874 49.7742 45.278 49.762 45.2679 49.7506C45.2129 49.6855 45.1516 49.6259 45.0851 49.5727C45.0669 49.5586 45.0481 49.5438 45.0286 49.5303C45.0177 49.5214 45.0063 49.5133 44.9943 49.506L44.9345 49.467L44.8787 49.4346C44.8296 49.4077 44.7779 49.3814 44.7214 49.3565C44.7039 49.3484 44.6851 49.341 44.6663 49.3336C44.6475 49.3262 44.6179 49.3147 44.593 49.3053H44.589L44.5386 49.2851C44.5002 49.2723 44.4613 49.2608 44.4203 49.2494L44.3577 49.2332L44.2905 49.2177L44.2233 49.2035C44.1561 49.1901 44.0841 49.178 44.0089 49.1685L43.9322 49.1591L43.8536 49.151L43.7722 49.1443L43.6566 49.1375L43.5222 49.1328C42.9292 49.1328 42.3379 49.1958 41.7583 49.3208C41.3555 49.231 40.9431 49.1929 40.5308 49.2076H40.4723L40.4051 49.2116H40.362L40.2753 49.2197C40.2464 49.2197 40.2168 49.2258 40.1879 49.2298C40.159 49.2339 40.1288 49.2372 40.0999 49.2419L40.0555 49.2494C40.0118 49.2568 39.9674 49.2649 39.9211 49.2743C39.9063 49.277 39.8915 49.2803 39.8767 49.2844C39.8182 49.2972 39.7597 49.3127 39.7019 49.3302C39.673 49.3383 39.6441 49.3477 39.6152 49.3578C39.6004 49.3619 39.5863 49.3673 39.5722 49.3726L39.5292 49.3881L39.4868 49.405L39.4364 49.4252C39.4108 49.436 39.386 49.4474 39.3611 49.4595C39.347 49.4656 39.3329 49.4723 39.3194 49.4798C39.306 49.4872 39.2919 49.4932 39.2791 49.5006C39.1271 49.5794 38.9866 49.6786 38.8616 49.7957L38.8274 49.8287L38.7937 49.8631C38.7823 49.8745 38.7716 49.8867 38.7608 49.8988C38.717 49.9468 38.6761 49.9974 38.6385 50.0504C38.6277 50.0645 38.6176 50.0787 38.6075 50.0935C38.5649 50.1565 38.5263 50.2222 38.4919 50.2902C38.4832 50.3064 38.4751 50.3232 38.467 50.3394C38.4122 50.4532 38.3672 50.5715 38.3326 50.6931C38.3201 50.738 38.3086 50.7829 38.2983 50.8278C38.2983 50.8278 36.8752 51.457 35.6948 51.9124C35.3809 52.0337 35.0851 52.1435 34.8377 52.2264C34.7658 52.2506 34.6986 52.2728 34.636 52.2937C34.5004 52.3429 34.3593 52.3754 34.2159 52.3907C34.1483 52.3918 34.0809 52.3981 34.0142 52.4096C33.4718 52.4978 32.5421 52.8812 32.4406 53.2658C32.4323 53.2966 32.43 53.3286 32.4338 53.3602C32.4338 53.3602 32.4338 53.3649 32.4338 53.3676C32.5011 53.8391 32.0305 53.7718 32.0305 53.7718C32.0305 53.7718 31.8624 55.0181 31.6272 55.3549C31.4571 55.5974 31.3408 56.1384 31.326 56.5467C31.3176 56.6739 31.3275 56.8016 31.3556 56.9259C31.3556 56.9293 31.3556 56.9327 31.3556 56.9354C31.3825 57.0256 31.3179 57.2722 31.2084 57.5882C31.0894 57.9351 30.916 58.3663 30.7492 58.7732C30.4978 59.3876 30.2612 59.9454 30.2464 60.068C30.2404 60.1226 30.2229 60.2202 30.1987 60.3462C30.1005 60.8596 29.8827 61.8371 29.7752 62.2325C29.6952 62.5276 29.5789 62.9318 29.4989 63.2094C29.4989 63.2174 29.4942 63.2255 29.4922 63.2329L32.5058 63.2033V63.2599H32.5152H32.5111Z" fill="#6C63FF"/>
<path opacity="0.1" d="M33.6094 55.3203C33.6094 55.3203 37.4411 57.3077 38.8191 57.0719L33.6094 55.3203Z" fill="black"/>
<path opacity="0.1" d="M41.4062 54.5117C41.4062 54.5117 45.1371 55.7243 46.3807 55.8928C47.6243 56.0612 41.4062 54.5117 41.4062 54.5117Z" fill="black"/>
<path opacity="0.1" d="M45.5461 50.6086C43.5966 50.9684 39.9263 50.8909 38.3398 50.8363C38.9213 48.7479 41.7568 49.458 41.7568 49.458C45.2664 48.756 45.5353 50.2125 45.5461 50.6086Z" fill="black"/>
<path d="M45.5461 50.4758C43.5966 50.8356 39.9263 50.7581 38.3398 50.7035C38.9213 48.6151 41.7568 49.3252 41.7568 49.3252C45.2664 48.6232 45.5353 50.0797 45.5461 50.4758Z" fill="#6C63FF"/>
<path d="M55.8945 59.6811C55.8945 59.6811 58.1909 59.3274 58.2359 60.3379C58.2809 61.3484 57.0649 62.0544 57.0649 62.0544L55.8945 59.6811Z" fill="#FBBEBE"/>
<path opacity="0.1" d="M44.356 48.1721C44.2573 48.2163 44.1563 48.2555 44.0535 48.2893C43.3289 48.5399 42.5982 48.7926 41.8352 48.8842C41.0722 48.9758 40.2716 48.895 39.6061 48.5137C39.5362 48.4741 39.4689 48.4302 39.4044 48.3823C39.3305 46.9002 39.1523 45.4518 39.1523 45.4518C39.1523 45.4518 45.0007 42.6897 44.3285 44.8792C44.0609 45.7637 44.1517 47.006 44.356 48.1721Z" fill="black"/>
<path d="M40.8066 38.9687C40.7106 38.9941 40.6101 38.9966 40.513 38.9762C40.4159 38.9557 40.3249 38.9127 40.2473 38.8508L40.3871 39.0455C40.3047 39.055 40.2212 39.0464 40.1425 39.0202C40.0638 38.994 39.9917 38.9509 39.9313 38.8939C39.9187 39.0682 39.9259 39.2433 39.9528 39.416C39.7215 39.4272 39.4937 39.3555 39.3102 39.2139C39.3066 39.2747 39.3217 39.3351 39.3534 39.387C39.3852 39.4389 39.432 39.4798 39.4877 39.5042C39.2553 39.4764 39.0207 39.5343 38.8277 39.667C38.6348 39.7998 38.4966 39.9984 38.439 40.2258L38.7899 40.2581C38.5141 40.3171 38.2666 40.4685 38.0881 40.6872C37.9805 40.822 37.8985 40.9944 37.9456 41.1588C37.9926 41.3232 38.2198 41.4283 38.3435 41.3111C38.1676 41.5215 38.0397 41.768 37.9689 42.0332C37.898 42.2984 37.886 42.576 37.9335 42.8464C37.9654 42.9616 37.9759 43.0817 37.9644 43.2007C37.9422 43.3119 37.8723 43.4082 37.8374 43.5167C37.7701 43.7134 37.834 43.927 37.8938 44.123L38.2091 45.1618C38.3234 45.537 38.437 45.913 38.5862 46.2761C38.6919 46.5056 38.7817 46.7422 38.8551 46.9841C38.9398 47.3102 38.9432 47.6672 39.124 47.9522C39.2479 48.1315 39.4136 48.2779 39.6066 48.3786C40.2715 48.7599 41.0748 48.8408 41.8357 48.7492C42.5967 48.6575 43.3267 48.4049 44.0507 48.1543C44.2116 48.1057 44.3659 48.0379 44.5105 47.9522C45.0113 47.6234 45.1229 46.9511 45.2164 46.3589C45.3205 45.6987 45.4597 45.0399 45.7064 44.4187C45.8529 44.0489 46.0425 43.6736 46.0102 43.2775C45.9692 42.7514 45.5538 42.3249 45.451 41.8076C45.4165 41.6346 45.4181 41.4564 45.4557 41.2841C45.4876 41.1815 45.5054 41.0749 45.5088 40.9675C45.4973 40.7506 45.3199 40.5835 45.1532 40.444C44.7915 40.1413 44.4182 39.8552 44.0332 39.5858C44.0137 39.451 44.1966 39.3931 44.2793 39.2866C44.3962 39.1364 44.2752 38.8979 44.0978 38.8279C43.9203 38.7578 43.7213 38.8036 43.5365 38.8501C43.5485 38.7553 43.5297 38.6591 43.4828 38.5758C43.4359 38.4926 43.3635 38.4267 43.2762 38.388C43.189 38.3494 43.0917 38.3399 42.9987 38.3612C42.9057 38.3824 42.822 38.4331 42.76 38.5058C42.711 38.393 42.6325 38.2955 42.533 38.2234C42.4334 38.1514 42.3163 38.1075 42.194 38.0963C41.7483 38.0612 41.7396 38.4028 41.4546 38.5907C41.1696 38.7787 40.9343 38.5308 40.7151 38.3502C40.6749 38.4523 40.6621 38.5632 40.6782 38.6717C40.6942 38.7803 40.7385 38.8827 40.8066 38.9687Z" fill="#3F3D56"/>
<path d="M57.5974 61.7028C57.5974 61.7028 57.5376 61.8456 57.4274 62.0524C57.2606 62.3706 57.0576 62.6683 56.8224 62.9396L56.8042 62.9592H56.6953L52.8139 62.9949H52.7211L52.7097 62.9814L51.9568 62.0861L51.6731 61.7486L51.6617 61.7344L51.6375 61.7061L51.6241 61.69L51.6066 61.6691L51.0547 61.0129L51.2564 60.1708L51.5999 58.752L51.6086 58.7177L51.6758 58.4482L51.7236 58.2461L51.8835 57.5872L52.4321 55.3203L53.4068 55.8256L54.4346 57.6445L54.9865 58.6213H55.289C55.3462 58.6213 55.4773 58.7318 55.609 58.8592C55.6561 58.9043 55.7031 58.9521 55.7435 58.9939C55.8631 59.1178 55.9579 59.2243 55.9579 59.2243C55.9579 59.2243 56.4479 59.2351 56.5797 59.6218C56.5865 59.6405 56.5921 59.6596 56.5965 59.679C56.6402 59.831 56.6971 59.9789 56.7666 60.121C56.8533 60.3103 56.9622 60.5252 57.0724 60.7401C57.2775 61.1342 57.4859 61.5094 57.5625 61.6455L57.5719 61.6623L57.5974 61.7028Z" fill="#6C63FF"/>
<path opacity="0.1" d="M51.8236 58.659L51.8169 58.7554V58.7621L51.8055 58.9171L51.7161 60.164L51.6078 61.6663L51.5769 62.0894L51.5097 62.9948V63.0063L44.3169 63.0737L32.5133 63.2017V63.2582H32.5039V63.2017V63.1828L32.5342 62.2154L32.592 60.325L32.6417 58.7224L32.6464 58.5627C32.6494 58.4663 32.6719 58.3716 32.7126 58.2842C32.7533 58.1969 32.8113 58.1187 32.8832 58.0546C32.955 57.9905 33.0392 57.9417 33.1304 57.9113C33.2217 57.8808 33.3182 57.8694 33.4141 57.8776C33.7314 57.9045 34.1435 57.9375 34.6362 57.9726L34.8379 57.9874C37.6834 58.1854 42.9422 58.4414 48.2487 58.1221C48.3603 58.116 48.4726 58.1093 48.5848 58.1012C49.4076 58.0494 50.2298 57.9827 51.0438 57.8991C51.1468 57.8883 51.2508 57.9003 51.3486 57.9341C51.4464 57.9679 51.5356 58.0228 51.61 58.095C51.6843 58.1671 51.742 58.2547 51.7789 58.3516C51.8158 58.4484 51.8311 58.5522 51.8236 58.6557V58.659Z" fill="black"/>
<path d="M32.5117 63.2601V63.2036L44.3173 63.0749L51.5101 63.0075H51.5303V62.9961L51.5975 62.0906L51.6264 61.6864L51.7366 60.1632L51.8233 58.9574V58.9277C51.8274 58.8721 51.8249 58.8163 51.8159 58.7613C51.8163 58.7591 51.8163 58.7568 51.8159 58.7546C51.7975 58.6409 51.7513 58.5335 51.6815 58.442C51.6075 58.3469 51.5105 58.2722 51.3997 58.2251C51.2889 58.1779 51.168 58.1598 51.0483 58.1725C50.2342 58.256 49.4121 58.3227 48.5893 58.3746C48.477 58.3827 48.3648 58.3894 48.2532 58.3955C42.9466 58.7115 37.6878 58.4555 34.8423 58.2608L34.6407 58.2459C34.1479 58.2109 33.7358 58.1786 33.4185 58.151C33.244 58.1362 33.0702 58.1868 32.9307 58.2929C32.7911 58.399 32.6958 58.5532 32.663 58.7256C32.6562 58.7621 32.6521 58.799 32.6509 58.8361L32.6052 60.329L32.5426 62.22L32.5131 63.1874V63.2063V63.2628L32.5117 63.2601Z" fill="#3F3D56"/>
<path opacity="0.1" d="M51.8422 59.1346L51.7595 60.1674L51.6365 61.7068L51.6056 62.0921L51.5383 62.9551L51.5343 62.9982V63.0097L51.5242 63.1094L51.5316 63.0097H51.5121L44.3193 63.077L32.5117 63.205V63.1862L32.5447 62.2188L32.6119 60.3284L32.6549 59.072C32.657 59.0005 32.6769 58.9307 32.7129 58.8689C32.7488 58.8072 32.7996 58.7554 32.8606 58.7183C32.9367 58.6716 33.0257 58.6503 33.1147 58.6577C33.2559 58.6691 33.4293 58.6826 33.6316 58.6974C33.9604 58.7217 34.3657 58.75 34.8376 58.7796C35.7115 58.8349 36.8079 58.8941 38.0643 58.9426C41.5599 59.0774 46.2789 59.1225 50.7613 58.7291C50.9629 58.7116 51.1713 58.692 51.375 58.6725C51.4556 58.6644 51.5368 58.6799 51.6089 58.717C51.6293 58.7272 51.6487 58.7393 51.6667 58.7533C51.7253 58.7958 51.7716 58.853 51.8012 58.9191C51.808 58.9322 51.8137 58.946 51.818 58.9602C51.8382 59.016 51.8464 59.0754 51.8422 59.1346Z" fill="black"/>
<path opacity="0.1" d="M29.0381 60.0547V60.2696C29.0381 60.3477 29.016 60.4243 28.9744 60.4904C28.9327 60.5564 28.8732 60.6093 28.8028 60.6428L26.1072 60.6947C26.0355 60.6618 25.9748 60.6089 25.9322 60.5424C25.8897 60.4758 25.8671 60.3985 25.8672 60.3194V60.1173L29.0381 60.0547Z" fill="black"/>
<path d="M29.071 60.7716L25.5586 60.8389V60.2549L29.071 60.1875V60.7716Z" fill="#3F3D56"/>
<path opacity="0.1" d="M29.071 60.7716L25.5586 60.8389V60.2549L29.071 60.1875V60.7716Z" fill="black"/>
<path d="M29.2077 60.7716L25.6953 60.8389V60.2549L29.2077 60.1875V60.7716Z" fill="#3F3D56"/>
<g opacity="0.1">
<path opacity="0.1" d="M40.8339 38.7455C40.7682 38.66 40.7246 38.5596 40.7068 38.4531C40.6906 38.5572 40.7003 38.6636 40.7351 38.763C40.7684 38.7599 40.8015 38.7541 40.8339 38.7455Z" fill="black"/>
<path opacity="0.1" d="M39.9819 39.1946C39.9692 39.112 39.9609 39.0288 39.957 38.9453C39.957 39.0282 39.957 39.1117 39.957 39.1952L39.9819 39.1946Z" fill="black"/>
<path opacity="0.1" d="M45.4577 41.4409C45.4615 41.3809 45.4696 41.3212 45.482 41.2624C45.5138 41.1599 45.5318 41.0536 45.5357 40.9464C45.5342 40.9223 45.5306 40.8984 45.525 40.875C45.5135 40.937 45.4954 40.999 45.482 41.0603C45.4551 41.1852 45.4469 41.3135 45.4577 41.4409Z" fill="black"/>
<path opacity="0.1" d="M44.06 39.3611L44.1333 39.4143C44.1951 39.3695 44.2529 39.3195 44.3061 39.2648C44.3314 39.2297 44.347 39.1886 44.3515 39.1456C44.356 39.1025 44.3491 39.0591 44.3316 39.0195C44.3249 39.0349 44.3163 39.0494 44.3061 39.0626C44.2234 39.1691 44.0405 39.2277 44.06 39.3611Z" fill="black"/>
<path opacity="0.1" d="M38.539 40.0078C38.5144 40.0569 38.4948 40.1084 38.4805 40.1614C38.5856 40.1026 38.6989 40.0597 38.8166 40.0341L38.539 40.0078Z" fill="black"/>
<path opacity="0.1" d="M39.4629 39.2743C39.4187 39.2499 39.3765 39.2222 39.3365 39.1914C39.3348 39.2181 39.3369 39.2448 39.3426 39.2709C39.3827 39.269 39.4229 39.2701 39.4629 39.2743Z" fill="black"/>
<path opacity="0.1" d="M46.0368 43.2422C46.0092 43.5689 45.8573 43.8835 45.7343 44.1934C45.4876 44.8146 45.3484 45.4734 45.2442 46.1343C45.1508 46.7265 45.0426 47.3988 44.5384 47.7269C44.3943 47.8131 44.2401 47.881 44.0793 47.929C43.3546 48.1803 42.6239 48.4322 41.8609 48.5238C41.0979 48.6155 40.2973 48.5353 39.6318 48.154C39.4389 48.0531 39.2732 47.9068 39.1492 47.7276C38.9697 47.4426 38.9663 47.0855 38.8803 46.7595C38.8069 46.5174 38.7171 46.2806 38.6114 46.0508C38.4628 45.6883 38.3485 45.3097 38.2349 44.9372C38.1296 44.5909 38.0245 44.2444 37.9197 43.8977C37.8851 43.7934 37.8595 43.6863 37.843 43.5777C37.8168 43.7501 37.8679 43.9307 37.9197 44.0998C38.0245 44.447 38.1296 44.7934 38.2349 45.1393C38.3485 45.5145 38.4628 45.8904 38.6114 46.2529C38.7171 46.4827 38.8069 46.7195 38.8803 46.9616C38.965 47.2876 38.9683 47.6447 39.1492 47.9297C39.2732 48.1089 39.4389 48.2552 39.6318 48.3561C40.2973 48.7374 41.1 48.8176 41.8609 48.7259C42.6219 48.6343 43.3519 48.3824 44.0793 48.1311C44.2401 48.0831 44.3943 48.0152 44.5384 47.929C45.0392 47.6009 45.1508 46.9286 45.2442 46.3364C45.3484 45.6755 45.4876 45.0167 45.7343 44.3955C45.8808 44.0264 46.0704 43.6511 46.0381 43.2543C46.0381 43.2503 46.0368 43.2462 46.0368 43.2422Z" fill="black"/>
<path opacity="0.1" d="M37.9895 42.9832C37.9895 42.9832 37.9895 42.9785 37.9895 42.9758C38.0017 42.857 37.9912 42.737 37.9586 42.6221C37.9452 42.5482 37.9365 42.4735 37.9324 42.3984C37.9247 42.5409 37.9335 42.6838 37.9586 42.8242C37.9694 42.8768 37.9815 42.93 37.9895 42.9832Z" fill="black"/>
<path opacity="0.1" d="M38.1966 41.3356C38.2483 41.2486 38.307 41.1659 38.3721 41.0884C38.2491 41.2063 38.0219 41.1012 37.9741 40.9375C37.9565 41.0037 37.9565 41.0734 37.9741 41.1396C37.9907 41.189 38.02 41.2332 38.0591 41.2676C38.0981 41.3021 38.1456 41.3255 38.1966 41.3356Z" fill="black"/>
</g>
<path opacity="0.1" d="M54.9853 58.6211C54.9853 58.6211 55.1984 59.3958 54.9853 60.0695C54.7723 60.7432 54.9853 58.6211 54.9853 58.6211Z" fill="black"/>
<path opacity="0.1" d="M55.8947 59.4102C55.8947 59.4102 55.9841 60.3937 55.7824 60.5682C55.5808 60.7427 55.8947 59.4102 55.8947 59.4102Z" fill="black"/>
<path d="M22.375 49.1338L29.2055 49.0664" stroke="#6C63FF" stroke-width="2" stroke-miterlimit="10"/>
<path d="M22.375 49.9729L29.2055 49.9062" stroke="#6C63FF" stroke-width="2" stroke-miterlimit="10"/>
<path d="M22.375 50.8174L29.2055 50.75" stroke="#6C63FF" stroke-width="2" stroke-miterlimit="10"/>
</g>
<defs>
<clipPath id="clip0">
<rect width="70" height="37.3333" fill="white" transform="translate(9 25)"/>
</clipPath>
</defs>
</svg>
