<svg width="42" height="40" viewBox="0 0 42 40" fill="none" xmlns="http://www.w3.org/2000/svg">
<g clip-path="url(#clip0)">
<path d="M21.0066 23.7447C18.3173 23.7447 15.6167 23.261 13.9258 22.3203V25.4582C13.9258 25.6964 14.396 26.2202 15.6895 26.6862C17.0963 27.193 18.9849 27.472 21.0066 27.472C23.0283 27.472 24.9169 27.193 26.3235 26.6862C27.6174 26.2202 28.0874 25.6964 28.0874 25.4582V22.3203C26.3965 23.261 23.6959 23.7447 21.0066 23.7447ZM22.3805 26.3156H19.6327C19.1658 26.3156 18.7872 25.9387 18.7872 25.4738C18.7872 25.009 19.1658 24.6321 19.6327 24.6321H22.3805C22.8474 24.6321 23.2259 25.009 23.2259 25.4738C23.2259 25.9387 22.8474 26.3156 22.3805 26.3156Z" fill="#0570D8"/>
<path d="M21.0066 34.5651C18.3173 34.5651 15.6167 34.0813 13.9258 33.1406V36.316C13.9258 36.5543 14.396 37.0781 15.6895 37.5442C17.0963 38.0509 18.9849 38.3299 21.0066 38.3299C22.1972 38.3345 23.3856 38.2288 24.5565 38.0142C27.198 37.51 28.0874 36.6367 28.0874 36.316V33.1406C26.3965 34.0813 23.6959 34.5651 21.0066 34.5651ZM22.3805 37.3627H19.6327C19.1658 37.3627 18.7872 36.9858 18.7872 36.5209C18.7872 36.056 19.1658 35.6791 19.6327 35.6791H22.3805C22.8474 35.6791 23.2259 36.056 23.2259 36.5209C23.2259 36.9858 22.8474 37.3627 22.3805 37.3627Z" fill="#0570D8"/>
<path d="M21.0066 29.1549C18.3173 29.1549 15.6167 28.6711 13.9258 27.7305V30.8681C13.9258 31.1065 14.396 31.6303 15.6895 32.0963C17.0962 32.6031 18.9849 32.8822 21.0068 32.8822C23.0287 32.8822 24.9171 32.6031 26.3237 32.0963C27.6174 31.6303 28.0874 31.1065 28.0874 30.8681V27.7305C26.3965 28.6711 23.6959 29.1549 21.0066 29.1549ZM22.3805 31.8917H19.6327C19.1658 31.8917 18.7872 31.5148 18.7872 31.0499C18.7872 30.5851 19.1658 30.2082 19.6327 30.2082H22.3805C22.8474 30.2082 23.2259 30.5851 23.2259 31.0499C23.2259 31.5148 22.8474 31.8917 22.3805 31.8917Z" fill="#0570D8"/>
<path d="M26.326 18.8175C24.9189 18.3104 23.0308 18.0312 21.0095 18.0312C18.9882 18.0312 17.1002 18.3104 15.6931 18.8175C14.3993 19.2836 13.9297 19.8071 13.9297 20.0452C13.9297 20.2833 14.3993 20.8067 15.6931 21.2729C17.1002 21.7799 18.9882 22.0591 21.0095 22.0591C23.0308 22.0591 24.9189 21.7799 26.326 21.2729C27.6197 20.8067 28.0894 20.2832 28.0894 20.0452C28.0894 19.8072 27.6197 19.2836 26.326 18.8175Z" fill="#0570D8"/>
<path d="M37.2314 14.9335L36.7103 14.674L36.7833 13.9486C36.8411 13.4643 36.8739 12.9775 36.8813 12.4899C36.8837 6.51771 32.0232 1.6743 26.0248 1.67188C23.9117 1.67103 21.8442 2.28385 20.0758 3.43541C18.3571 4.56246 16.9888 6.14533 16.1256 8.00546L15.8455 8.6066L15.1927 8.47655C14.6298 8.3688 14.0579 8.31566 13.4847 8.31787C11.6661 8.31566 9.89805 8.91354 8.45694 10.018C7.03328 11.1051 5.98321 12.6051 5.4512 14.3111L5.34076 14.6672L5.00056 14.8233C4.24239 15.1684 3.5509 15.6431 2.95727 16.2259C0.249869 18.9125 0.242471 23.2756 2.94079 25.9714C4.24439 27.2737 6.01681 28.0033 7.86353 27.9978H12.2372V20.0459C12.2372 17.6184 16.6505 16.3484 21.009 16.3484C25.3675 16.3484 29.7807 17.6184 29.7807 20.0459V27.9978H34.1545C37.9735 28.0129 41.0818 24.9426 41.0969 21.14C41.1074 18.5053 39.6066 16.0954 37.2314 14.9335Z" fill="#0570D8"/>
</g>
<defs>
<clipPath id="clip0">
<rect width="40.1751" height="40" fill="white" transform="translate(0.921875)"/>
</clipPath>
</defs>
</svg>
