<svg width="41" height="40" viewBox="0 0 41 40" fill="none" xmlns="http://www.w3.org/2000/svg">
<g clip-path="url(#clip0)">
<path d="M26.4607 40C28.4108 40 29.9917 38.426 29.9917 36.4844C29.9917 34.5427 28.4108 32.9688 26.4607 32.9688C24.5106 32.9688 22.9297 34.5427 22.9297 36.4844C22.9297 38.426 24.5106 40 26.4607 40Z" fill="#0570D8"/>
<path d="M37.4478 17.9688H35.0938V27.3438H37.4478C38.9645 27.3438 40.1941 26.1195 40.1941 24.6094V20.7031C40.1941 19.193 38.9645 17.9688 37.4478 17.9688Z" fill="#0570D8"/>
<path d="M20.1834 2.34375C27.9559 2.34375 34.3933 8.14375 35.3592 15.625H37.7301C37.2936 11.6685 35.5352 8.00375 32.6675 5.14852C29.3328 1.82844 24.8993 0 20.1834 0C15.4676 0 11.034 1.82844 7.69941 5.14852C4.83168 8.00375 3.07331 11.6685 2.63672 15.625H5.00768C5.97361 8.14375 12.411 2.34375 20.1834 2.34375V2.34375Z" fill="#0570D8"/>
<path d="M0.175781 20.7031V24.6094C0.175781 26.1195 1.40536 27.3438 2.92213 27.3438H5.27614V17.9688H2.92213C1.40536 17.9688 0.175781 19.193 0.175781 20.7031Z" fill="#0570D8"/>
<path d="M32.7423 17.9688C32.7423 16.4586 31.5127 15.2344 29.9959 15.2344H10.3792C8.86239 15.2344 7.63281 16.4586 7.63281 17.9688V27.3438C7.63281 28.8539 8.86239 30.0781 10.3792 30.0781H29.9959C31.5127 30.0781 32.7423 28.8539 32.7423 27.3438V17.9688ZM28.0342 23.8281H24.7407L22.7361 26.8219C22.5167 27.1495 22.1483 27.3438 21.757 27.3438C21.7238 27.3438 21.6904 27.3423 21.6571 27.3395C21.2295 27.3033 20.8555 27.0383 20.6812 26.6478L18.4111 21.5623L17.2435 23.3063C17.0252 23.6323 16.6577 23.8281 16.2642 23.8281H12.3408C11.6908 23.8281 11.1638 23.3034 11.1638 22.6562C11.1638 22.0091 11.6908 21.4844 12.3408 21.4844H15.6343L17.6389 18.4906C17.8769 18.1351 18.2913 17.9371 18.718 17.973C19.1456 18.0092 19.5195 18.2742 19.6938 18.6647L21.9639 23.7502L23.1317 22.0062C23.3499 21.6802 23.7175 21.4844 24.111 21.4844H28.0343C28.6843 21.4844 29.2113 22.0091 29.2113 22.6562C29.2113 23.3034 28.6843 23.8281 28.0342 23.8281V23.8281Z" fill="#0570D8"/>
<path d="M35.4876 29.6884V34.1415C35.4876 34.7877 34.9596 35.3134 34.3106 35.3134H32.2305C32.308 35.6921 32.3489 36.084 32.3489 36.4852C32.3489 36.8865 32.308 37.2784 32.2305 37.6571H34.3106C36.2576 37.6571 37.8416 36.08 37.8416 34.1415V29.6719C37.7119 29.6817 37.5814 29.6884 37.4492 29.6884H35.4876Z" fill="#0570D8"/>
</g>
<defs>
<clipPath id="clip0">
<rect width="40.1751" height="40" fill="white" transform="translate(0.0976562)"/>
</clipPath>
</defs>
</svg>
