<svg width="41" height="40" viewBox="0 0 41 40" fill="none" xmlns="http://www.w3.org/2000/svg">
<g clip-path="url(#clip0)">
<path d="M10.8086 18.5737C10.8086 18.968 11.13 19.288 11.526 19.288C11.922 19.288 12.2434 18.968 12.2434 18.5737C12.2427 18.1794 11.922 17.8594 11.526 17.8594C11.13 17.8594 10.8086 18.1794 10.8086 18.5737Z" fill="#0570D8"/>
<path d="M19.417 27.8565H13.5486L13.0836 30.1693C14.0414 30.5686 14.5722 31.5957 14.342 32.6043C14.1117 33.6129 13.187 34.31 12.1496 34.2579C11.113 34.205 10.2635 33.4186 10.1365 32.3922C10.0096 31.3658 10.6416 30.3979 11.6352 30.0965L12.1417 27.5758C12.2772 26.9094 12.8648 26.4294 13.5485 26.4279H19.4169V23.5708H17.8501C17.5007 24.5551 16.4899 25.1451 15.4568 24.9687C14.4237 24.7923 13.6683 23.9001 13.6683 22.8566C13.6683 21.813 14.4237 20.9209 15.4568 20.7445C16.4899 20.5681 17.5007 21.1581 17.8501 22.1424H19.4169V19.2853H13.5457C13.1962 20.2696 12.1854 20.8596 11.1523 20.6832C10.1193 20.5068 9.36385 19.6146 9.36385 18.5711C9.36385 17.5276 10.1193 16.6354 11.1523 16.459C12.1854 16.2826 13.1962 16.8726 13.5457 17.8569H19.4169V12.2283L17.4706 14.9426C17.1987 15.3183 16.7625 15.5405 16.2976 15.5397C16.101 15.5397 15.9066 15.499 15.7265 15.4204L13.1208 14.2818C12.4185 15.0597 11.2591 15.2261 10.3645 14.6782C9.46994 14.1303 9.09691 13.0239 9.47779 12.0496C9.85867 11.0754 10.8846 10.5118 11.9155 10.7096C12.9464 10.9075 13.6882 11.8111 13.6775 12.8568C13.6775 12.8925 13.6689 12.926 13.6667 12.961L16.3018 14.1124L19.4168 9.77036V5.35654C19.4182 2.45867 17.1038 0.0858622 14.1947 0.00226876C11.2857 -0.0813247 8.83711 2.15515 8.67139 5.04795C10.7023 5.28084 12.5031 6.45435 13.5311 8.21294C13.6596 8.43364 13.6596 8.70583 13.5318 8.92723C13.4034 9.14864 13.1667 9.28512 12.9106 9.28512C12.6537 9.28512 12.417 9.14942 12.2885 8.92872C11.1522 6.96873 8.83562 6.01373 6.63965 6.59873C4.44368 7.18373 2.91703 9.16512 2.91632 11.428C2.91421 12.0744 3.03975 12.7144 3.28653 13.3123C4.08571 13.013 4.93229 12.858 5.78601 12.8566C6.18203 12.8566 6.50343 13.1766 6.50343 13.5709C6.50343 13.9652 6.18203 14.2852 5.78601 14.2852C4.87062 14.2852 3.9695 14.5045 3.15745 14.9259C2.98027 15.0173 2.80804 15.1166 2.64161 15.2252C2.55122 15.2845 2.46585 15.3488 2.37906 15.4123C2.26999 15.493 2.16312 15.5752 2.06057 15.6623C1.96727 15.7416 1.87617 15.823 1.78868 15.908C1.72198 15.9723 1.65952 16.0401 1.59573 16.108C1.43362 16.2809 1.28225 16.4637 1.14235 16.6551C1.09786 16.7172 1.05054 16.7765 1.00817 16.8401C0.934961 16.9494 0.867558 17.0637 0.801568 17.1787C0.752055 17.2651 0.706152 17.3523 0.661662 17.4408C0.60854 17.5465 0.553299 17.6515 0.50669 17.7608C0.42634 17.9487 0.356034 18.1415 0.296478 18.3372C0.272074 18.4158 0.25489 18.4972 0.234097 18.5772C0.193215 18.7351 0.158062 18.8951 0.131541 19.0572C0.119378 19.1322 0.106431 19.2072 0.0970937 19.2829C0.0655501 19.52 0.0489936 19.76 0.046875 19.9993C0.0497783 21.6122 0.736283 23.1486 1.9358 24.2322C2.74001 23.3965 3.7458 22.7801 4.85712 22.4408C5.23588 22.3251 5.63763 22.5365 5.75392 22.9137C5.87012 23.2908 5.65779 23.6908 5.27896 23.8066C4.22005 24.1301 3.28818 24.7722 2.61093 25.6451C2.60662 25.6515 2.60591 25.6594 2.60089 25.6658C2.07791 26.3365 1.72638 27.1237 1.57572 27.9594C1.56999 27.9901 1.55854 28.0187 1.55351 28.0494C1.50541 28.3401 1.4818 28.6337 1.4818 28.928C1.47175 31.2101 2.92307 33.2459 5.0904 33.9894C5.08248 33.8501 5.0689 33.7123 5.0689 33.5708C5.06388 31.8694 5.6184 30.2129 6.64647 28.8536C6.88541 28.5393 7.33376 28.4765 7.65014 28.7129C7.96652 28.9493 8.03039 29.3965 7.79366 29.7115C6.68955 31.1772 6.2663 33.0415 6.63 34.8372C6.64004 34.8872 6.65369 34.9351 6.66515 34.9843C6.6996 35.135 6.73687 35.285 6.78136 35.4322C6.79784 35.4872 6.81792 35.5401 6.83589 35.5936C6.88321 35.7343 6.93272 35.8736 6.98945 36.01C7.01025 36.06 7.03253 36.1093 7.05474 36.1586C7.1157 36.2965 7.18099 36.4322 7.2513 36.565C7.27429 36.6086 7.2979 36.6521 7.32231 36.695C7.39905 36.8314 7.48089 36.965 7.56697 37.095C7.59066 37.1307 7.61358 37.1671 7.63798 37.2021C7.73198 37.3392 7.83242 37.4714 7.93639 37.6C7.95718 37.6257 7.97656 37.6521 7.99806 37.6779C8.11788 37.8208 8.24272 37.9579 8.374 38.09C8.38333 38.0993 8.39118 38.1093 8.40052 38.1186C8.68535 38.4007 8.99522 38.6565 9.32745 38.8815C9.37476 38.9136 9.42498 38.9422 9.47308 38.9729C9.58788 39.0465 9.70338 39.1179 9.82249 39.1843C9.8928 39.2236 9.96522 39.2586 10.037 39.295C10.1389 39.3464 10.2422 39.3971 10.347 39.4436C10.4273 39.4793 10.5098 39.5129 10.5923 39.545C10.6935 39.585 10.7961 39.6221 10.9001 39.6571C10.9862 39.6864 11.0722 39.7142 11.1598 39.7392C11.2674 39.7706 11.3772 39.7978 11.4869 39.8235C11.5723 39.8435 11.657 39.8642 11.743 39.8806C11.8686 39.9042 11.9963 39.922 12.1247 39.9385C12.1979 39.9485 12.2696 39.9606 12.3428 39.9678C12.5465 39.9871 12.7517 39.9992 12.9605 39.9992C16.5246 39.9949 19.4129 37.1192 19.4172 33.5707V27.8565H19.417Z" fill="#0570D8"/>
<path d="M15.1133 22.8549C15.1133 23.2492 15.4347 23.5692 15.8307 23.5692C16.2267 23.5692 16.5481 23.2492 16.5481 22.8549C16.5474 22.4606 16.2267 22.1406 15.8307 22.1406C15.4347 22.1406 15.1133 22.4606 15.1133 22.8549Z" fill="#0570D8"/>
<path d="M10.8086 12.8549C10.8086 13.2492 11.13 13.5692 11.526 13.5692C11.922 13.5685 12.2427 13.2492 12.2434 12.8549C12.2434 12.4606 11.922 12.1406 11.526 12.1406C11.13 12.1406 10.8086 12.4606 10.8086 12.8549Z" fill="#0570D8"/>
<path d="M20.8516 16.5V23.4986C22.5217 23.1593 23.7212 21.6965 23.7212 19.9993C23.7212 18.3021 22.5216 16.8392 20.8516 16.5Z" fill="#0570D8"/>
<path d="M20.8516 28.5355C25.3117 28.1676 28.743 24.4562 28.743 20.0005C28.743 15.5448 25.3117 11.8334 20.8516 11.4648V15.0577C23.3216 15.4098 25.156 17.5163 25.156 20.0006C25.156 22.4849 23.3216 24.5913 20.8516 24.9435V28.5355V28.5355Z" fill="#0570D8"/>
<path d="M11.5273 32.144C11.5273 32.5383 11.8487 32.8583 12.2448 32.8583C12.6408 32.8583 12.9622 32.5383 12.9622 32.144C12.9622 31.7497 12.6408 31.4297 12.2448 31.4297C11.8487 31.4297 11.528 31.7497 11.5273 32.144Z" fill="#0570D8"/>
<path d="M40.0111 17.145H36.2303C35.8932 17.145 35.6019 16.9114 35.5302 16.585C35.1399 14.8071 34.434 13.1129 33.4461 11.5821C33.2632 11.2992 33.3034 10.9285 33.5422 10.6907L36.2175 8.02715C35.0704 6.49075 33.7029 5.12927 32.1598 3.98716L29.4845 6.65075C29.2456 6.88864 28.8733 6.92864 28.5892 6.74645C27.0518 5.76286 25.3501 5.06005 23.5645 4.67146C23.2359 4.59935 23.0013 4.30935 23.0013 3.97357V0.209367C21.4517 -0.0120387 19.8813 -0.0513354 18.323 0.0929609C19.92 1.37866 20.849 3.31435 20.849 5.35935V10.0379C26.1026 10.4071 30.1754 14.7586 30.1754 20.0021C30.1754 25.2456 26.1026 29.5964 20.849 29.9657V33.5735C20.8469 36.0399 19.679 38.3621 17.6953 39.8421C19.4587 40.0614 21.2429 40.045 23.0013 39.795V36.0307C23.0013 35.695 23.2359 35.405 23.5638 35.3336C25.3494 34.945 27.0511 34.2422 28.5885 33.2586C28.8727 33.0772 29.245 33.1172 29.4838 33.3543L32.1591 36.0179C33.7029 34.8758 35.0696 33.5143 36.2167 31.9779L33.5415 29.3143C33.3034 29.0764 33.2632 28.7057 33.4454 28.4229C34.4333 26.8922 35.1392 25.1979 35.5295 23.4201C35.6019 23.093 35.8932 22.8594 36.2304 22.8594H40.0112C40.2887 20.9643 40.2887 19.0393 40.0111 17.145Z" fill="#0570D8"/>
</g>
<defs>
<clipPath id="clip0">
<rect width="40.1751" height="40" fill="white" transform="translate(0.046875)"/>
</clipPath>
</defs>
</svg>
