<svg width="41" height="40" viewBox="0 0 41 40" fill="none" xmlns="http://www.w3.org/2000/svg">
<g clip-path="url(#clip0)">
<path d="M2.53437 24.1292V15.8708C1.1907 15.5829 0.180359 14.3913 0.180359 12.9688C0.180359 10.6186 2.80084 9.21398 4.76479 10.4655L10.6917 4.56445C9.43452 2.60883 10.8457 0 13.2059 0C15.0564 0 16.4757 1.67391 16.1381 3.50547L23.0365 6.35961L24.8249 4.57891C23.5599 2.63711 24.95 0 27.3299 0C29.6873 0 31.1031 2.60594 29.8441 4.56453L35.771 10.4656C37.7355 9.21367 40.3555 10.6193 40.3555 12.9688C40.3555 14.8148 38.6711 16.2234 36.8347 15.8882L35.1185 20L36.8347 24.1118C38.6778 23.7751 40.3555 25.1923 40.3555 27.0312C40.3555 29.3814 37.735 30.786 35.771 29.5345L29.8441 35.4355C31.1015 37.3914 29.6897 40 27.3299 40C25.9011 40 24.7044 38.9941 24.4153 37.6562H16.1206C15.8315 38.9941 14.6347 40 13.206 40C11.5618 40 10.2242 38.6682 10.2242 37.0312C10.2242 35.3943 11.5618 34.0625 13.206 34.0625C14.6348 34.0625 15.8315 35.0684 16.1206 36.4062H24.1843L5.61232 28.7223C3.96545 31.0955 0.180359 29.9414 0.180359 27.0312C0.180359 25.6087 1.1907 24.4172 2.53437 24.1292ZM34.4402 26.5015L32.703 25.7874L29.1082 34.4004L34.8778 28.6559C34.4554 28.016 34.305 27.2461 34.4402 26.5015ZM18.0733 13.069L20.7487 19.5215L32.0242 24.1561L33.7589 20L29.7983 10.5107L23.3306 7.83445L18.0733 13.069ZM12.0499 17.2983L8.51159 15.8439L4.95712 24.3602L12.0499 17.2983ZM7.35107 15.3669L5.61671 14.654C5.18632 15.2779 4.53371 15.7125 3.78984 15.8706V23.8993L7.35107 15.3669ZM6.0956 13.4985L7.83285 14.2126L11.4277 5.59969L5.65806 11.3441C6.08045 11.984 6.23087 12.7539 6.0956 13.4985ZM13.7377 5.88945C13.3913 5.95188 13.0355 5.95555 12.6668 5.8882L8.99338 14.6896L13.0113 16.3411L16.5929 12.7751L13.7377 5.88945ZM14.268 16.8577L19.1113 18.8484L17.1118 14.0263L14.268 16.8577ZM21.4247 21.1516L26.7979 34.1106C27.1556 34.0462 27.511 34.0465 27.869 34.1119L31.5425 25.3105L21.4247 21.1516ZM24.8808 35.3407C25.0857 35.0476 25.3428 34.7922 25.6379 34.5887L19.7872 20.4787L13.3066 17.8149L5.66709 25.4212C6.08814 26.0675 6.2293 26.8355 6.09418 27.5682L24.8808 35.3407ZM15.6552 4.65922C15.4502 4.95242 15.1929 5.20797 14.8977 5.41141L17.5544 11.8177L22.0763 7.31547L15.6552 4.65922ZM29.1155 8.87477L27.869 5.88812C27.1317 6.02289 26.3606 5.88117 25.7127 5.46281L24.2908 6.87852L29.1155 8.87477ZM34.7313 11.1983L29.1082 5.59969L30.7589 9.55477L34.7313 11.1983ZM35.6753 15.4084C34.7157 14.7484 34.2283 13.5894 34.4414 12.432L31.4417 11.1908L34.4387 18.3713L35.6753 15.4084ZM33.1848 24.6331L34.9205 25.3466C35.1249 25.0528 35.3814 24.7967 35.6758 24.5927L34.4387 21.6287L33.1848 24.6331Z" fill="white"/>
</g>
<defs>
<clipPath id="clip0">
<rect width="40.1751" height="40" fill="white" transform="matrix(-1 0 0 1 40.3555 0)"/>
</clipPath>
</defs>
</svg>
