<svg width="35" height="35" viewBox="0 0 35 35" fill="none" xmlns="http://www.w3.org/2000/svg">
<path d="M33.871 13.5484H28.2258C27.6031 13.5484 27.0968 14.0547 27.0968 14.6774V15.8065H25.7831C25.4845 14.3439 24.8087 13.0194 23.861 11.9373L26.9352 8.86301C27.1566 8.96858 27.4005 9.03226 27.6613 9.03226C28.5949 9.03226 29.3548 8.27231 29.3548 7.33871C29.3548 6.40511 28.5949 5.64516 27.6613 5.64516C26.7277 5.64516 25.9677 6.40511 25.9677 7.33871C25.9677 7.59947 26.0314 7.84341 26.1375 8.0642L23.0649 11.1368C21.9822 10.1889 20.6556 9.51711 19.1935 9.21859V7.90323H20.3226C20.9453 7.90323 21.4516 7.39687 21.4516 6.77419V1.12903C21.4516 0.506356 20.9453 0 20.3226 0H14.6774C14.0547 0 13.5484 0.506356 13.5484 1.12903V6.77419C13.5484 7.39687 14.0547 7.90323 14.6774 7.90323H15.8065V9.22025C14.3444 9.51877 13.0167 10.1889 11.9345 11.1362L8.86301 8.06475C8.96858 7.84341 9.03226 7.59947 9.03226 7.33871C9.03226 6.40511 8.27231 5.64516 7.33871 5.64516C6.40511 5.64516 5.64516 6.40511 5.64516 7.33871C5.64516 8.27231 6.40511 9.03226 7.33871 9.03226C7.59947 9.03226 7.84341 8.96858 8.0642 8.86246L11.139 11.9373C10.1913 13.0194 9.51546 14.3433 9.21639 15.8059H7.90323V14.6769C7.90323 14.0542 7.39687 13.5478 6.77419 13.5478H1.12903C0.506356 13.5478 0 14.0542 0 14.6769V20.322C0 20.9447 0.506356 21.4511 1.12903 21.4511H6.77419C7.39687 21.4511 7.90323 20.9447 7.90323 20.322V19.193H9.21914C9.51766 20.6556 10.1883 21.9828 11.1357 23.0655L8.0642 26.137C7.84341 26.0314 7.59947 25.9677 7.33871 25.9677C6.40511 25.9677 5.64516 26.7277 5.64516 27.6613C5.64516 28.5949 6.40511 29.3548 7.33871 29.3548C8.27231 29.3548 9.03226 28.5949 9.03226 27.6613C9.03226 27.4005 8.96858 27.1566 8.86246 26.9358L11.9367 23.8616C13.0189 24.8095 14.3439 25.484 15.8065 25.7831V27.0968H14.6774C14.0547 27.0968 13.5484 27.6031 13.5484 28.2258V33.871C13.5484 34.4936 14.0547 35 14.6774 35H20.3226C20.9453 35 21.4516 34.4936 21.4516 33.871V28.2258C21.4516 27.6031 20.9453 27.0968 20.3226 27.0968H19.1935V25.7842C20.6561 25.4851 21.9817 24.8111 23.0644 23.8627L26.137 26.9352C26.0314 27.1566 25.9677 27.4005 25.9677 27.6613C25.9677 28.5949 26.7277 29.3548 27.6613 29.3548C28.5949 29.3548 29.3548 28.5949 29.3548 27.6613C29.3548 26.7277 28.5949 25.9677 27.6613 25.9677C27.4005 25.9677 27.1566 26.0314 26.9358 26.1375L23.866 23.0677C24.8145 21.985 25.4884 20.6572 25.7872 19.1941H27.0968V20.3231C27.0968 20.9458 27.6031 21.4522 28.2258 21.4522H33.871C34.4936 21.4522 35 20.9458 35 20.3231V14.6774C35 14.0547 34.4936 13.5484 33.871 13.5484V13.5484ZM24.8387 18.0645C24.5272 18.0645 24.2742 17.8115 24.2742 17.5C24.2742 17.1885 24.5272 16.9355 24.8387 16.9355H28.7903C29.1018 16.9355 29.3548 17.1885 29.3548 17.5C29.3548 17.8115 29.1018 18.0645 28.7903 18.0645H24.8387ZM27.6613 6.77419C27.9728 6.77419 28.2258 7.02723 28.2258 7.33871C28.2258 7.65019 27.9728 7.90323 27.6613 7.90323C27.3498 7.90323 27.0968 7.65019 27.0968 7.33871C27.0968 7.02723 27.3498 6.77419 27.6613 6.77419ZM18.0645 10.1613C18.0645 10.4728 17.8115 10.7258 17.5 10.7258C17.1885 10.7258 16.9355 10.4728 16.9355 10.1613V6.20968C16.9355 5.8982 17.1885 5.64516 17.5 5.64516C17.8115 5.64516 18.0645 5.8982 18.0645 6.20968V10.1613ZM6.77419 7.33871C6.77419 7.02723 7.02723 6.77419 7.33871 6.77419C7.65019 6.77419 7.90323 7.02723 7.90323 7.33871C7.90323 7.65019 7.65019 7.90323 7.33871 7.90323C7.02723 7.90323 6.77419 7.65019 6.77419 7.33871ZM10.1613 16.9355C10.4728 16.9355 10.7258 17.1885 10.7258 17.5C10.7258 17.8115 10.4728 18.0645 10.1613 18.0645H6.20968C5.8982 18.0645 5.64516 17.8115 5.64516 17.5C5.64516 17.1885 5.8982 16.9355 6.20968 16.9355H10.1613ZM7.33871 28.2258C7.02723 28.2258 6.77419 27.9728 6.77419 27.6613C6.77419 27.3498 7.02723 27.0968 7.33871 27.0968C7.65019 27.0968 7.90323 27.3498 7.90323 27.6613C7.90323 27.9728 7.65019 28.2258 7.33871 28.2258ZM16.9355 24.8387C16.9355 24.5272 17.1885 24.2742 17.5 24.2742C17.8115 24.2742 18.0645 24.5272 18.0645 24.8387V28.7903C18.0645 29.1018 17.8115 29.3548 17.5 29.3548C17.1885 29.3548 16.9355 29.1018 16.9355 28.7903V24.8387ZM16.6532 16.9355H18.3468C19.4364 16.9355 20.3226 17.8217 20.3226 18.9113C20.3226 20.0009 19.4364 20.8871 18.3468 20.8871H18.0645V22.0161H16.9355V20.8871H16.6532C15.5636 20.8871 14.6774 20.0009 14.6774 18.9113H15.8065C15.8065 19.3782 16.1863 19.7581 16.6532 19.7581H18.3468C18.8137 19.7581 19.1935 19.3782 19.1935 18.9113C19.1935 18.4444 18.8137 18.0645 18.3468 18.0645H16.6532C15.5636 18.0645 14.6774 17.1783 14.6774 16.0887C14.6774 14.9991 15.5636 14.1129 16.6532 14.1129H16.9355V12.9839H18.0645V14.1129H18.3468C19.4364 14.1129 20.3226 14.9991 20.3226 16.0887H19.1935C19.1935 15.6218 18.8137 15.2419 18.3468 15.2419H16.6532C16.1863 15.2419 15.8065 15.6218 15.8065 16.0887C15.8065 16.5556 16.1863 16.9355 16.6532 16.9355ZM28.2258 27.6613C28.2258 27.9728 27.9728 28.2258 27.6613 28.2258C27.3498 28.2258 27.0968 27.9728 27.0968 27.6613C27.0968 27.3498 27.3498 27.0968 27.6613 27.0968C27.9728 27.0968 28.2258 27.3498 28.2258 27.6613Z" fill="#0570D8"/>
</svg>
