<svg width="123" height="82" viewBox="0 0 123 82" fill="none" xmlns="http://www.w3.org/2000/svg">
<mask id="mask0" mask-type="alpha" maskUnits="userSpaceOnUse" x="0" y="0" width="123" height="82">
<rect width="123" height="82" rx="15" fill="white"/>
</mask>
<g mask="url(#mask0)">
<path opacity="0.2" fill-rule="evenodd" clip-rule="evenodd" d="M98.4908 -47.2505C86.9958 -47.3867 79.7502 -70.351 69.4448 -65.2647C58.4871 -59.8565 69.8677 -39.4868 62.7128 -29.592C57.4234 -22.2771 44.4456 -26.359 37.3097 -20.8239C29.8137 -15.0094 18.7785 -6.65178 21.392 2.45927C24.6729 13.897 41.6944 14.8265 49.9869 23.3707C54.3385 27.8544 56.4637 34.085 57.9676 40.1451C60.3521 49.7539 53.6207 63.2603 61.4068 69.3894C68.6471 75.089 79.082 63.8137 88.2998 64.0224C95.8765 64.194 102.338 71.095 109.892 70.4875C117.443 69.8803 123.566 64.3809 130.159 60.6563C136.923 56.835 143.276 52.671 149.546 48.0856C157.222 42.4712 169.021 39.5053 171.586 30.3565C174.156 21.1907 164 13.0207 161.984 3.718C160.206 -4.48346 164.765 -14.0137 160.413 -21.1923C155.986 -28.4929 143.971 -27.7553 138.788 -34.5411C132.22 -43.1393 137.598 -61.3222 127.271 -64.5794C116.497 -67.9776 109.789 -47.1166 98.4908 -47.2505Z" fill="#0570D8"/>
</g>
</svg>
