<svg width="60" height="51" viewBox="0 0 60 51" fill="none" xmlns="http://www.w3.org/2000/svg">
<path opacity="0.2" fill-rule="evenodd" clip-rule="evenodd" d="M28.4664 1.80161C33.7616 1.23653 39.0144 -1.15666 44.0112 0.684802C49.8276 2.82834 55.1506 6.93268 57.7097 12.5787C60.4072 18.5302 60.9631 25.8406 58.068 31.6985C55.2978 37.3036 48.3211 38.786 43.0757 42.1885C38.1996 45.3515 34.262 50.463 28.4664 50.9002C22.5011 51.3502 17.0843 47.9211 12.1627 44.5204C7.13077 41.0435 1.01364 37.3454 0.0971666 31.2981C-0.808496 25.3222 4.84074 20.6491 7.74132 15.3464C9.9967 11.2233 11.2246 6.33492 15.1586 3.76384C19.0061 1.24929 23.8959 2.28935 28.4664 1.80161Z" fill="#0570D8"/>
</svg>
