<svg width="40" height="40" viewBox="0 0 40 40" fill="none" xmlns="http://www.w3.org/2000/svg">
<path d="M27.5 14.375V5H12.5V14.375C12.5 14.5408 12.5658 14.6997 12.6831 14.8169C12.8003 14.9342 12.9592 15 13.125 15H26.875C27.0408 15 27.1997 14.9342 27.3169 14.8169C27.4342 14.6997 27.5 14.5408 27.5 14.375ZM17.9419 11.4331C18.0016 11.4908 18.0492 11.5597 18.0819 11.636C18.1147 11.7122 18.1319 11.7943 18.1327 11.8772C18.1334 11.9602 18.1176 12.0425 18.0861 12.1193C18.0547 12.1962 18.0083 12.2659 17.9496 12.3246C17.8909 12.3833 17.8212 12.4297 17.7443 12.4611C17.6675 12.4926 17.5852 12.5084 17.5022 12.5077C17.4193 12.5069 17.3372 12.4897 17.261 12.4569C17.1847 12.4242 17.1158 12.3766 17.0581 12.3169L15.1831 10.4419C15.066 10.3247 15.0001 10.1657 15.0001 10C15.0001 9.83427 15.066 9.67533 15.1831 9.55813L17.0581 7.68313C17.176 7.56928 17.3339 7.50628 17.4978 7.5077C17.6616 7.50913 17.8184 7.57486 17.9343 7.69074C18.0501 7.80662 18.1159 7.96338 18.1173 8.12725C18.1187 8.29112 18.0557 8.449 17.9419 8.56687L16.5087 10L17.9419 11.4331ZM21.2313 7.65188L19.9812 12.6519C19.9474 12.787 19.8693 12.907 19.7595 12.9927C19.6497 13.0784 19.5143 13.125 19.375 13.125C19.3236 13.1252 19.2723 13.1189 19.2225 13.1062C19.0617 13.066 18.9235 12.9635 18.8383 12.8213C18.7531 12.6791 18.7278 12.5089 18.7681 12.3481L20.0181 7.34812C20.0594 7.18837 20.1621 7.05141 20.3039 6.9671C20.4457 6.88279 20.6151 6.85797 20.7752 6.89806C20.9352 6.93816 21.0729 7.0399 21.1582 7.18112C21.2435 7.32233 21.2696 7.49155 21.2306 7.65188H21.2313ZM24.8169 10.4419L22.9419 12.3169C22.824 12.4307 22.6661 12.4937 22.5022 12.4923C22.3384 12.4909 22.1816 12.4251 22.0657 12.3093C21.9499 12.1934 21.8841 12.0366 21.8827 11.8728C21.8813 11.7089 21.9443 11.551 22.0581 11.4331L23.4912 10L22.0581 8.56687C21.9443 8.449 21.8813 8.29112 21.8827 8.12725C21.8841 7.96338 21.9499 7.80662 22.0657 7.69074C22.1816 7.57486 22.3384 7.50913 22.5022 7.5077C22.6661 7.50628 22.824 7.56928 22.9419 7.68313L24.8169 9.55813C24.934 9.67533 24.9999 9.83427 24.9999 10C24.9999 10.1657 24.934 10.3247 24.8169 10.4419Z" fill="#0570D8"/>
<path d="M27.5 3.125C27.5 2.95924 27.4342 2.80027 27.3169 2.68306C27.1997 2.56585 27.0408 2.5 26.875 2.5H13.125C12.9592 2.5 12.8003 2.56585 12.6831 2.68306C12.5658 2.80027 12.5 2.95924 12.5 3.125V3.75H27.5V3.125Z" fill="#0570D8"/>
<path d="M2.5 25.625V26.25H17.5V25.625C17.5 25.4592 17.4342 25.3003 17.3169 25.1831C17.1997 25.0658 17.0408 25 16.875 25H3.125C2.95924 25 2.80027 25.0658 2.68306 25.1831C2.56585 25.3003 2.5 25.4592 2.5 25.625Z" fill="#0570D8"/>
<path d="M2.5 36.875C2.5 37.0408 2.56585 37.1997 2.68306 37.3169C2.80027 37.4342 2.95924 37.5 3.125 37.5H16.875C17.0408 37.5 17.1997 37.4342 17.3169 37.3169C17.4342 37.1997 17.5 37.0408 17.5 36.875V27.5H2.5V36.875ZM12.0581 31.0669C11.9443 30.949 11.8813 30.7911 11.8827 30.6272C11.8841 30.4634 11.9499 30.3066 12.0657 30.1907C12.1816 30.0749 12.3384 30.0091 12.5022 30.0077C12.6661 30.0063 12.824 30.0693 12.9419 30.1831L14.8169 32.0581C14.934 32.1753 14.9999 32.3343 14.9999 32.5C14.9999 32.6657 14.934 32.8247 14.8169 32.9419L12.9419 34.8169C12.824 34.9307 12.6661 34.9937 12.5022 34.9923C12.3384 34.9909 12.1816 34.9251 12.0657 34.8093C11.9499 34.6934 11.8841 34.5366 11.8827 34.3728C11.8813 34.2089 11.9443 34.051 12.0581 33.9331L13.4913 32.5L12.0581 31.0669ZM8.76875 34.8481L10.0188 29.8481C10.06 29.6884 10.1627 29.5514 10.3045 29.4671C10.4464 29.3828 10.6158 29.358 10.7758 29.3981C10.9358 29.4382 11.0735 29.5399 11.1589 29.6811C11.2442 29.8223 11.2702 29.9916 11.2312 30.1519L9.98125 35.1519C9.94739 35.287 9.86935 35.407 9.7595 35.4927C9.64966 35.5784 9.51433 35.625 9.375 35.625C9.32358 35.6252 9.27234 35.6189 9.2225 35.6063C9.06183 35.5658 8.92378 35.4633 8.8387 35.3211C8.75361 35.179 8.72845 35.0088 8.76875 34.8481ZM5.18313 32.0581L7.05813 30.1831C7.176 30.0693 7.33388 30.0063 7.49775 30.0077C7.66162 30.0091 7.81838 30.0749 7.93426 30.1907C8.05014 30.3066 8.11587 30.4634 8.1173 30.6272C8.11872 30.7911 8.05572 30.949 7.94187 31.0669L6.50875 32.5L7.94187 33.9331C8.00157 33.9908 8.04918 34.0597 8.08194 34.136C8.11469 34.2122 8.13194 34.2943 8.13266 34.3772C8.13338 34.4602 8.11756 34.5425 8.08614 34.6193C8.05471 34.6962 8.0083 34.7659 7.94962 34.8246C7.89094 34.8833 7.82116 34.9297 7.74435 34.9611C7.66754 34.9926 7.58524 35.0084 7.50225 35.0077C7.41926 35.0069 7.33725 34.9897 7.261 34.9569C7.18474 34.9242 7.11578 34.8766 7.05813 34.8169L5.18313 32.9419C5.06596 32.8247 5.00013 32.6657 5.00013 32.5C5.00013 32.3343 5.06596 32.1753 5.18313 32.0581Z" fill="#0570D8"/>
<path d="M23.125 36.875C23.125 37.0408 23.1908 37.1997 23.3081 37.3169C23.4253 37.4342 23.5842 37.5 23.75 37.5H37.5C37.6658 37.5 37.8247 37.4342 37.9419 37.3169C38.0592 37.1997 38.125 37.0408 38.125 36.875V27.5H23.125V36.875ZM32.6831 31.0669C32.5693 30.949 32.5063 30.7911 32.5077 30.6272C32.5091 30.4634 32.5749 30.3066 32.6907 30.1907C32.8066 30.0749 32.9634 30.0091 33.1272 30.0077C33.2911 30.0063 33.449 30.0693 33.5669 30.1831L35.4419 32.0581C35.559 32.1753 35.6249 32.3343 35.6249 32.5C35.6249 32.6657 35.559 32.8247 35.4419 32.9419L33.5669 34.8169C33.449 34.9307 33.2911 34.9937 33.1272 34.9923C32.9634 34.9909 32.8066 34.9251 32.6907 34.8093C32.5749 34.6934 32.5091 34.5366 32.5077 34.3728C32.5063 34.2089 32.5693 34.051 32.6831 33.9331L34.1162 32.5L32.6831 31.0669ZM29.3937 34.8481L30.6437 29.8481C30.6632 29.768 30.6983 29.6925 30.7471 29.626C30.7959 29.5596 30.8573 29.5034 30.9279 29.4607C30.9984 29.4181 31.0768 29.3898 31.1583 29.3776C31.2398 29.3654 31.323 29.3694 31.403 29.3894C31.4829 29.4094 31.5582 29.4451 31.6243 29.4943C31.6904 29.5436 31.7462 29.6054 31.7883 29.6763C31.8305 29.7472 31.8581 29.8257 31.8698 29.9073C31.8815 29.9889 31.8769 30.072 31.8563 30.1519L30.6063 35.1519C30.5724 35.287 30.4943 35.407 30.3845 35.4927C30.2747 35.5784 30.1393 35.625 30 35.625C29.9486 35.6252 29.8973 35.6189 29.8475 35.6063C29.6868 35.5658 29.5488 35.4633 29.4637 35.3211C29.3786 35.179 29.3535 35.0088 29.3937 34.8481ZM25.8081 32.0581L27.6831 30.1831C27.801 30.0693 27.9589 30.0063 28.1228 30.0077C28.2866 30.0091 28.4434 30.0749 28.5593 30.1907C28.6751 30.3066 28.7409 30.4634 28.7423 30.6272C28.7437 30.7911 28.6807 30.949 28.5669 31.0669L27.1338 32.5L28.5669 33.9331C28.6266 33.9908 28.6742 34.0597 28.7069 34.136C28.7397 34.2122 28.7569 34.2943 28.7577 34.3772C28.7584 34.4602 28.7426 34.5425 28.7111 34.6193C28.6797 34.6962 28.6333 34.7659 28.5746 34.8246C28.5159 34.8833 28.4462 34.9297 28.3693 34.9611C28.2925 34.9926 28.2102 35.0084 28.1272 35.0077C28.0443 35.0069 27.9622 34.9897 27.886 34.9569C27.8097 34.9242 27.7408 34.8766 27.6831 34.8169L25.8081 32.9419C25.691 32.8247 25.6251 32.6657 25.6251 32.5C25.6251 32.3343 25.691 32.1753 25.8081 32.0581Z" fill="#0570D8"/>
<path d="M37.5 25H23.75C23.5842 25 23.4253 25.0658 23.3081 25.1831C23.1908 25.3003 23.125 25.4592 23.125 25.625V26.25H38.125V25.625C38.125 25.4592 38.0592 25.3003 37.9419 25.1831C37.8247 25.0658 37.6658 25 37.5 25Z" fill="#0570D8"/>
<path d="M31.875 21.25C31.875 20.7527 31.6775 20.2758 31.3258 19.9242C30.9742 19.5725 30.4973 19.375 30 19.375H20.625V16.25H19.375V19.375H11.25C10.7527 19.375 10.2758 19.5725 9.92417 19.9242C9.57254 20.2758 9.375 20.7527 9.375 21.25V23.75H10.625V21.25C10.625 21.0842 10.6908 20.9253 10.8081 20.8081C10.9253 20.6908 11.0842 20.625 11.25 20.625H30C30.1658 20.625 30.3247 20.6908 30.4419 20.8081C30.5592 20.9253 30.625 21.0842 30.625 21.25V23.75H31.875V21.25Z" fill="#0570D8"/>
</svg>
