<svg width="40" height="39" viewBox="0 0 40 39" fill="none" xmlns="http://www.w3.org/2000/svg">
<path d="M14.8896 22.5975L11.1774 16.4258H3.71218L0 22.5975L3.71218 28.7614H11.1774L14.8896 22.5975Z" fill="#0570D8"/>
<path d="M23.7111 9.5H16.2868L12.5664 15.6639L16.2868 21.8356H23.7111L27.456 15.6639L23.7111 9.5Z" fill="#0570D8"/>
<path d="M16.2868 23.3555L12.5664 29.5194L16.2868 35.7146H23.7111L27.456 29.5194L23.7111 23.3555H16.2868Z" fill="#0570D8"/>
<path d="M11.1774 14.906L14.8896 8.74207L11.1774 2.54688H3.71218L0 8.74207L3.71218 14.906H11.1774Z" fill="#0570D8"/>
<path d="M28.8216 2.54688L25.1094 8.71078L28.8216 14.906H36.2868L39.999 8.74207L36.2868 2.54688H28.8216Z" fill="#0570D8"/>
</svg>
