<svg width="40" height="40" viewBox="0 0 40 40" fill="none" xmlns="http://www.w3.org/2000/svg">
<g clip-path="url(#clip0)">
<path d="M1.66023 29.5954L2.65266 29.4051C3.11794 29.3157 3.48426 29.0113 3.65745 28.5693C3.83133 28.1281 3.76948 27.656 3.48907 27.2738L2.86571 26.4244C2.66503 26.1508 2.69389 25.7715 2.93444 25.5316L4.28081 24.1859C4.51379 23.9536 4.88011 23.9186 5.15227 24.1028L5.98868 24.6691C6.21617 24.823 6.47665 24.9048 6.744 24.9048C7.32406 24.9048 7.97216 24.5089 8.0883 23.7529L8.24844 22.7117C8.29999 22.377 8.58864 22.1289 8.92747 22.1289H10.8312C11.1604 22.1289 11.4443 22.3633 11.5061 22.687L11.7522 23.9687C11.8903 24.6911 12.5288 25.0691 13.0868 25.0691C13.3542 25.0691 13.6154 24.988 13.8422 24.834L14.9226 24.1028C15.1954 23.9186 15.561 23.9536 15.794 24.1859L17.1404 25.5316C17.3809 25.7715 17.4098 26.1501 17.2091 26.4244L16.5858 27.2738C16.3053 27.656 16.2435 28.1281 16.4174 28.5693C16.5906 29.0113 16.9569 29.3157 17.4222 29.4051L18.4146 29.5954C18.7383 29.658 18.9727 29.9411 18.9727 30.2703V32.1741C18.9727 32.5129 18.7252 32.8016 18.3898 32.8531L17.3486 33.0133C16.8792 33.0854 16.5019 33.3761 16.3122 33.8105C16.1225 34.2455 16.1665 34.7198 16.4325 35.1129L16.9988 35.9493C17.1837 36.2214 17.1486 36.5878 16.9156 36.8207L15.57 38.1671C15.3308 38.407 14.9521 38.4352 14.6772 38.2358L13.8277 37.6125C13.5927 37.4393 13.3178 37.3479 13.0332 37.3479C12.4745 37.3479 11.836 37.7266 11.6972 38.4489L11.5068 39.4413C11.4443 39.765 11.1611 39.9994 10.8319 39.9994H8.92815C8.58933 39.9994 8.30067 39.752 8.24913 39.4166L8.13641 38.6846C8.02026 37.9286 7.37148 37.5328 6.79073 37.5328C6.50689 37.5328 6.23198 37.6249 5.99625 37.7981L5.399 38.2365C5.12409 38.4379 4.74541 38.4083 4.50624 38.1678L3.16055 36.8214C2.92757 36.5884 2.89252 36.2228 3.07739 35.95L3.64371 35.1136C3.90968 34.7211 3.95367 34.2462 3.76398 33.8112C3.57498 33.3768 3.19698 33.0861 2.72757 33.0139L1.68635 32.8538C1.35165 32.8023 1.10354 32.5136 1.10354 32.1748V30.271C1.10286 29.9411 1.33653 29.658 1.66023 29.5954ZM2.47741 31.5844L2.93582 31.6552C3.86638 31.7982 4.64644 32.3988 5.02238 33.2614C5.399 34.1246 5.30828 35.1046 4.78046 35.8833L4.53235 36.2496L5.06018 36.7775L5.18182 36.6881C5.65536 36.341 6.21136 36.1575 6.79004 36.1575C8.15016 36.1575 9.28829 37.1321 9.49447 38.4743L9.51715 38.6242H10.2635L10.3467 38.1891C10.5934 36.9053 11.724 35.9727 13.0332 35.9727C13.6126 35.9727 14.1679 36.1568 14.6415 36.5025L15.0153 36.7768L15.5432 36.2489L15.2951 35.8826C14.7672 35.1033 14.6772 34.1232 15.0531 33.2607C15.4291 32.3981 16.2098 31.7975 17.1397 31.6545L17.5974 31.5844V30.838L17.1624 30.7549C16.2373 30.5769 15.4806 29.9473 15.137 29.0717C14.7933 28.1955 14.9205 27.2195 15.4765 26.4601L15.7507 26.0862L15.2229 25.5584L14.6119 25.9721C14.1569 26.28 13.6291 26.4436 13.0862 26.4436C11.7769 26.4436 10.6477 25.5124 10.401 24.2278L10.2622 23.5035H9.51577L9.44498 23.9619C9.23811 25.3041 8.10136 26.2787 6.74125 26.2787C6.19899 26.2787 5.67185 26.1158 5.21619 25.8065L4.84987 25.5584L4.32205 26.0862L4.59627 26.4601C5.15296 27.2189 5.27942 28.1948 4.93578 29.0717C4.59215 29.9473 3.83477 30.5769 2.91039 30.7549L2.47534 30.838V31.5844H2.47741Z" fill="#0570D8"/>
<path d="M10.0363 27.6289C11.9311 27.6289 13.4727 29.1705 13.4727 31.0653C13.4727 32.9601 11.9311 34.5016 10.0363 34.5016C8.14148 34.5016 6.59992 32.9601 6.59992 31.0653C6.59992 29.1705 8.14148 27.6289 10.0363 27.6289ZM10.0363 33.1271C11.173 33.1271 12.0981 32.202 12.0981 31.0653C12.0981 29.9285 11.173 29.0035 10.0363 29.0035C8.89954 29.0035 7.97447 29.9285 7.97447 31.0653C7.97447 32.202 8.89885 33.1271 10.0363 33.1271Z" fill="#0570D8"/>
<path d="M21.0332 29.6186V28.5671C21.0332 28.2379 20.7989 27.9541 20.4752 27.8922L18.9082 27.5912L19.9178 26.2166C20.1185 25.9431 20.0896 25.5637 19.8491 25.3239L17.0993 22.5755C18.0065 22.6442 18.9419 22.6992 19.9288 22.726C20.5267 22.7445 21.1246 22.7542 21.7198 22.7542C22.3171 22.7542 22.9171 22.7445 23.5164 22.7253C28.5616 22.5871 32.5822 21.8744 35.477 20.858C36.8378 20.4002 38.0027 19.86 38.9023 19.2422V24.1294V24.473V24.8167V25.7026C36.9464 27.7444 30.3843 29.6276 21.7205 29.6276C21.4875 29.6276 21.2628 29.6214 21.0332 29.6186Z" fill="#0570D8"/>
<path d="M23.3452 20.5957C23.1212 20.6019 22.8978 20.6081 22.6703 20.6115C22.3569 20.617 22.0401 20.6198 21.7205 20.6198C21.4009 20.6198 21.0841 20.617 20.77 20.6122C20.5432 20.6088 20.3192 20.6019 20.0951 20.5964C20.0154 20.5943 19.9343 20.593 19.8552 20.5909C12.1214 20.3442 6.3517 18.5875 4.53867 16.6954V15.8088V15.4652V15.1216V10.2344C7.88363 12.5319 14.955 13.747 21.7205 13.747C28.486 13.747 35.5574 12.5319 38.9023 10.2344V15.1216V15.4652V15.8088V16.6947C37.0893 18.5875 31.3197 20.3442 23.5858 20.5902C23.506 20.5923 23.4249 20.5936 23.3452 20.5957Z" fill="#0570D8"/>
<path d="M4.53867 7.77031V6.5291V6.18546C4.53867 6.07 4.57716 5.96622 4.63145 5.87069C5.40258 2.91473 11.3324 0 21.7205 0C32.0825 0 38.0061 2.90029 38.8013 5.8487C38.8597 5.94973 38.9023 6.06038 38.9023 6.18546V6.5291V7.77031C36.9525 9.80533 30.4372 11.6836 21.7205 11.6836C13.0038 11.6836 6.48778 9.80533 4.53867 7.77031Z" fill="#0570D8"/>
<path d="M19.6601 36.205L18.7645 34.8834L20.4504 34.6242C20.7851 34.5727 21.0332 34.284 21.0332 33.9452V31.7459C21.2628 31.748 21.4868 31.7542 21.7205 31.7542C30.2056 31.7542 36.0612 30.1803 38.9023 28.1797V33.816C38.9023 33.9274 38.8728 34.0325 38.8219 34.126C38.0103 37.4902 30.7485 40.0015 21.7205 40.0015C20.0436 40.0015 18.4285 39.9142 16.9034 39.752L19.5769 37.0764C19.8092 36.8435 19.8443 36.4778 19.6601 36.205Z" fill="#0570D8"/>
</g>
<defs>
<clipPath id="clip0">
<rect width="40" height="40" fill="white" transform="matrix(-1 0 0 1 40 0)"/>
</clipPath>
</defs>
</svg>
