<svg width="40" height="40" viewBox="0 0 40 40" fill="none" xmlns="http://www.w3.org/2000/svg">
<g clip-path="url(#clip0)">
<path d="M19.9988 10.668C25.1454 10.668 29.332 14.8545 29.332 20.0012C29.332 25.1478 25.1455 29.3344 19.9988 29.3344C14.8522 29.3344 10.6656 25.1478 10.6656 20.0012C10.6656 14.8545 14.8523 10.668 19.9988 10.668ZM23.5274 22.1964C23.2667 22.4571 23.2667 22.8785 23.5274 23.1391C23.6574 23.2691 23.8281 23.3344 23.9988 23.3344C24.1694 23.3344 24.3401 23.2691 24.4701 23.1391L27.1367 20.4725C27.3974 20.2118 27.3974 19.7905 27.1367 19.5298L24.4701 16.8633C24.2094 16.6026 23.7881 16.6026 23.5274 16.8633C23.2667 17.1239 23.2667 17.5453 23.5274 17.8059L25.7227 20.0012L23.5274 22.1964ZM18.0289 15.5305L20.6955 24.197C20.7834 24.4837 21.0475 24.6683 21.3321 24.6683C21.3974 24.6683 21.4634 24.6583 21.5281 24.6383C21.8801 24.5304 22.0774 24.157 21.9694 23.805L19.3028 15.1385C19.1949 14.7859 18.8195 14.5878 18.4695 14.6972C18.1175 14.8059 17.9203 15.1785 18.0289 15.5305ZM15.5276 23.1391C15.6576 23.2691 15.8283 23.3344 15.9989 23.3344C16.1696 23.3344 16.3402 23.2691 16.4702 23.1391C16.7308 22.8784 16.7308 22.4571 16.4702 22.1964L14.275 20.0012L16.4702 17.8059C16.7309 17.5452 16.7309 17.1239 16.4702 16.8633C16.2096 16.6026 15.7882 16.6026 15.5276 16.8633L12.861 19.5298C12.601 19.7905 12.601 20.2119 12.861 20.4725L15.5276 23.1391Z" fill="#0570D8"/>
<path d="M0.666706 16.6663H3.00002C3.76735 16.6663 4.44734 16.1771 4.65335 15.4757C4.97132 14.395 5.40537 13.3457 5.94536 12.3564C6.29739 11.7098 6.16536 10.8798 5.62404 10.3378L3.97274 8.68649C3.71204 8.42579 3.71204 8.00447 3.97274 7.74385L7.744 3.97259C8.0047 3.71189 8.42602 3.71189 8.68664 3.97259L10.3379 5.62389C10.8806 6.1652 11.7106 6.29723 12.3566 5.94521C13.3466 5.40522 14.3965 4.97124 15.4758 4.6532C16.1771 4.44656 16.6664 3.76657 16.6664 2.99987V0.666629C16.6664 0.298667 16.9651 0 17.3331 0H22.6663C23.0343 0 23.3329 0.298667 23.3329 0.666629V2.99995C23.3329 3.76728 23.8222 4.44727 24.5236 4.65328C25.6036 4.97124 26.6529 5.4053 27.6429 5.94529C28.2895 6.29731 29.1189 6.16528 29.6615 5.62396L31.3128 3.97266C31.5735 3.71197 31.9948 3.71197 32.2554 3.97266L36.0267 7.74377C36.2874 8.00447 36.2874 8.42579 36.0267 8.68641L34.3754 10.3377C33.8341 10.8797 33.7014 11.7097 34.0541 12.3563C34.5934 13.3456 35.0281 14.3956 35.3461 15.4756C35.5534 16.1769 36.2334 16.6663 37.0001 16.6663H39.3334C39.7013 16.6663 40 16.9649 40 17.3329V22.6662C40 23.0341 39.7013 23.3328 39.3334 23.3328H37.0001C36.2327 23.3328 35.5527 23.8221 35.3467 24.5235C35.0288 25.6035 34.5947 26.6527 34.0547 27.6427C33.7027 28.2893 33.8347 29.1193 34.376 29.6614L36.0274 31.3127C36.2881 31.5734 36.2881 31.9948 36.0274 32.2554L32.2562 36.0266C31.9955 36.2873 31.5741 36.2873 31.3135 36.0266L29.6622 34.3753C29.1202 33.8333 28.2902 33.7014 27.6436 34.054C26.6536 34.594 25.6036 35.028 24.5243 35.346C23.823 35.5527 23.3337 36.2326 23.3337 36.9994V39.3327C23.3337 39.7006 23.035 39.9993 22.667 39.9993H17.3338C16.9658 39.9993 16.6671 39.7006 16.6671 39.3327V36.9994C16.6671 36.232 16.1778 35.552 15.4764 35.346C14.3965 35.0281 13.3472 34.594 12.3572 34.054C11.7106 33.7027 10.8806 33.8333 10.3386 34.3753L8.68657 36.0266C8.42595 36.2873 8.00455 36.2873 7.74392 36.0266L3.97266 32.2554C3.71204 31.9947 3.71204 31.5734 3.97266 31.3127L5.62396 29.6614C6.16528 29.1194 6.29794 28.2894 5.94529 27.6428C5.4053 26.6528 4.97132 25.6028 4.65327 24.5236C4.44664 23.8222 3.76665 23.3329 2.99995 23.3329H0.666626C0.298664 23.3329 0 23.0343 0 22.6663V17.3331C0 16.965 0.298664 16.6663 0.666706 16.6663ZM19.9996 30.6661C25.8809 30.6661 30.6661 25.8809 30.6661 19.9996C30.6661 14.1184 25.8809 9.3332 19.9996 9.3332C14.1184 9.3332 9.33319 14.1184 9.33319 19.9996C9.33319 25.8809 14.1184 30.6661 19.9996 30.6661Z" fill="#0570D8"/>
</g>
<defs>
<clipPath id="clip0">
<rect width="40" height="40" fill="white" transform="matrix(-1 0 0 1 40 0)"/>
</clipPath>
</defs>
</svg>
