<svg width="109" height="82" viewBox="0 0 109 82" fill="none" xmlns="http://www.w3.org/2000/svg">
<mask id="mask0" mask-type="alpha" maskUnits="userSpaceOnUse" x="0" y="0" width="109" height="82">
<path d="M0 15C0 6.71573 6.71573 0 15 0H94C102.284 0 109 6.71573 109 15V67C109 75.2843 102.284 82 94 82H15C6.71573 82 0 75.2843 0 67V15Z" fill="#F9F9FA"/>
<path d="M15 0.5H94C102.008 0.5 108.5 6.99187 108.5 15V67C108.5 75.0081 102.008 81.5 94 81.5H15C6.99187 81.5 0.5 75.0081 0.5 67V15C0.5 6.99187 6.99187 0.5 15 0.5Z" stroke="#0570D8" stroke-opacity="0.1"/>
</mask>
<g mask="url(#mask0)">
<path fill-rule="evenodd" clip-rule="evenodd" d="M32.1761 -27.2829C39.1755 -37.2808 45.6793 -48.3322 56.9387 -53.0205C68.6555 -57.8994 82.6496 -58.5786 94.0492 -53.0465C104.885 -47.788 109.331 -35.3499 115.123 -24.7845C120.136 -15.6411 122.496 -6.05418 125.317 3.98945C129.446 18.6876 142.177 33.7953 135.431 47.5147C128.83 60.9385 109.79 61.2563 95.3197 64.9945C81.8271 68.4801 67.9265 72.6855 54.6926 68.3721C41.4796 64.0654 31.0346 53.7059 23.9668 41.7377C17.3437 30.5227 15.2933 17.2167 16.8339 4.26461C18.2489 -7.63242 25.3011 -17.4627 32.1761 -27.2829Z" fill="#F8DECC"/>
</g>
</svg>
