<svg width="40" height="40" viewBox="0 0 40 40" fill="none" xmlns="http://www.w3.org/2000/svg">
<g clip-path="url(#clip0)">
<path d="M25.0013 25H14.168C11.4113 25 9.16797 22.7567 9.16797 20C9.16797 17.5717 10.908 15.54 13.208 15.0933C14.0746 12.1283 16.838 10 20.0013 10C22.498 10 24.8096 11.3283 26.073 13.4383C28.7946 13.935 30.8346 16.325 30.8346 19.1667C30.8346 22.3833 28.218 25 25.0013 25Z" fill="#0570D8"/>
<path d="M37.1221 17.1211C36.4321 17.1211 35.8721 17.6811 35.8721 18.3711C35.8721 25.8461 30.6687 32.1144 23.6988 33.7878V32.2294C23.6988 31.1194 22.3537 30.5578 21.5654 31.3461L18.3037 34.6061C17.8154 35.0944 17.8154 35.8861 18.3037 36.3744L21.5654 39.6344C22.3471 40.4161 23.6988 39.8694 23.6988 38.7511V36.3661C32.0621 34.6511 38.3721 27.2344 38.3721 18.3711C38.3721 17.6811 37.8121 17.1211 37.1221 17.1211Z" fill="#0570D8"/>
<path d="M14.7056 33.3156C8.37891 31.099 4.12891 25.094 4.12891 18.3706C4.12891 16.4673 4.47224 14.619 5.11724 12.8823L6.61557 13.7456C7.57391 14.3006 8.73557 13.419 8.44891 12.339L7.18224 7.61563C7.00224 6.9523 6.33224 6.55897 5.64891 6.7323L0.923908 7.9973C-0.151092 8.28563 -0.336092 9.73397 0.623908 10.2873L2.92224 11.614C2.07557 13.7406 1.63057 16.0206 1.63057 18.3706C1.63057 26.1523 6.55224 33.1073 13.8806 35.6756C14.5422 35.904 15.2472 35.554 15.4739 34.909C15.7006 34.2573 15.3572 33.544 14.7056 33.3156Z" fill="#0570D8"/>
<path d="M38.4256 8.195L35.7372 8.915C32.4656 3.51 26.5022 0 19.9989 0C15.8122 0 11.8889 1.37667 8.65055 3.97667C8.11222 4.41 8.02722 5.19667 8.45889 5.735C8.89389 6.275 9.67889 6.35833 10.2172 5.92667C13.0072 3.685 16.3889 2.5 19.9989 2.5C25.3689 2.5 30.3072 5.27333 33.2006 9.59333L31.7439 9.98333C30.6706 10.2717 30.4806 11.7167 31.4422 12.2733L35.6772 14.72C35.9656 14.8867 36.3039 14.93 36.6256 14.845C36.9439 14.7583 37.2172 14.55 37.3839 14.2617L39.8322 10.0267C40.3839 9.06833 39.5089 7.90833 38.4256 8.195Z" fill="#0570D8"/>
</g>
<defs>
<clipPath id="clip0">
<rect width="40" height="40" fill="white"/>
</clipPath>
</defs>
</svg>
