<svg width="40" height="41" viewBox="0 0 40 41" fill="none" xmlns="http://www.w3.org/2000/svg">
<path d="M29.2857 38.5332C29.2857 38.9645 29.16 39.3862 28.9246 39.7449C28.6891 40.1036 28.3544 40.3832 27.9629 40.5483C27.5713 40.7133 27.1405 40.7565 26.7248 40.6724C26.3091 40.5882 25.9273 40.3805 25.6276 40.0754C25.3279 39.7704 25.1239 39.3818 25.0412 38.9587C24.9585 38.5356 25.0009 38.097 25.1631 37.6985C25.3253 37.2999 25.6 36.9593 25.9524 36.7196C26.3047 36.48 26.719 36.352 27.1429 36.352C27.711 36.3527 28.2556 36.5827 28.6574 36.9916C29.0591 37.4005 29.2851 37.9549 29.2857 38.5332ZM2.14286 29.8087C2.56667 29.8087 2.98097 29.6807 3.33336 29.4411C3.68576 29.2014 3.96041 28.8608 4.1226 28.4622C4.28479 28.0637 4.32722 27.6251 4.24454 27.202C4.16186 26.7789 3.95777 26.3903 3.65809 26.0853C3.3584 25.7802 2.97658 25.5725 2.56091 25.4883C2.14523 25.4042 1.71438 25.4474 1.32282 25.6125C0.931265 25.7775 0.596597 26.0571 0.361137 26.4158C0.125677 26.7745 0 27.1962 0 27.6275C0.000661647 28.2058 0.226639 28.7602 0.628359 29.1691C1.03008 29.578 1.57474 29.808 2.14286 29.8087ZM25 2.18112C25 2.61251 25.1257 3.03421 25.3611 3.39289C25.5966 3.75157 25.9313 4.03113 26.3228 4.19622C26.7144 4.3613 27.1452 4.40449 27.5609 4.32034C27.9766 4.23618 28.3584 4.02845 28.6581 3.72341C28.9578 3.41837 29.1619 3.02974 29.2445 2.60664C29.3272 2.18354 29.2848 1.74499 29.1226 1.34644C28.9604 0.947896 28.6858 0.607251 28.3334 0.367586C27.981 0.127922 27.5667 8.29919e-07 27.1429 8.29919e-07C26.5747 0.000674292 26.0301 0.230687 25.6284 0.63958C25.2266 1.04847 25.0007 1.60286 25 2.18112ZM12.8571 36.352C12.4333 36.352 12.019 36.48 11.6666 36.7196C11.3142 36.9593 11.0396 37.2999 10.8774 37.6985C10.7152 38.097 10.6728 38.5356 10.7555 38.9587C10.8381 39.3818 11.0422 39.7704 11.3419 40.0754C11.6416 40.3805 12.0234 40.5882 12.4391 40.6724C12.8548 40.7565 13.2856 40.7133 13.6772 40.5483C14.0687 40.3832 14.4034 40.1036 14.6389 39.7449C14.8743 39.3862 15 38.9645 15 38.5332C14.9993 37.9549 14.7734 37.4005 14.3716 36.9916C13.9699 36.5827 13.4253 36.3527 12.8571 36.352ZM2.14286 15.2679C2.56667 15.2679 2.98097 15.1399 3.33336 14.9003C3.68576 14.6606 3.96041 14.32 4.1226 13.9214C4.28479 13.5229 4.32722 13.0843 4.24454 12.6612C4.16186 12.2381 3.95777 11.8495 3.65809 11.5444C3.3584 11.2394 2.97658 11.0317 2.56091 10.9475C2.14523 10.8634 1.71438 10.9066 1.32282 11.0716C0.931265 11.2367 0.596597 11.5163 0.361137 11.875C0.125677 12.2337 0 12.6553 0 13.0867C0.000661647 13.665 0.226639 14.2194 0.628359 14.6283C1.03008 15.0372 1.57474 15.2672 2.14286 15.2679ZM2.85714 16.6492C3.78705 16.4543 4.6028 15.8914 5.125 15.0843L10.4491 17.252L10.9796 15.9019L5.65643 13.7343C5.8216 12.8134 5.62957 11.8633 5.12071 11.0836L10.8886 5.2127C11.6546 5.73065 12.5881 5.9261 13.4928 5.75798L13.9077 6.81392L15.2341 6.27391L14.8193 5.21652C15.6123 4.68507 16.1655 3.85473 16.3571 2.90816H23.6438C23.8353 3.85466 24.3883 4.68498 25.1812 5.21652L24.4801 7.00049L25.8064 7.5405L26.5071 5.75753C27.4118 5.92565 28.3453 5.73019 29.1113 5.21225L34.8792 11.0831C34.3703 11.8628 34.1783 12.813 34.3435 13.7338L29.0204 15.901L29.5509 17.2511L34.875 15.0834C35.1335 15.4832 35.4668 15.8272 35.8559 16.0959C36.245 16.3646 36.6823 16.5526 37.1429 16.6492V24.066C36.213 24.2609 35.3972 24.8238 34.875 25.6309L32.7652 24.7718L32.2346 26.1219L34.3435 26.9805C34.1783 27.9013 34.3703 28.8515 34.8792 29.6312L29.1113 35.502C28.6242 35.1736 28.0652 34.9719 27.4835 34.9148C26.9019 34.8576 26.3153 34.9467 25.7754 35.1742C25.2355 35.4017 24.7587 35.7607 24.387 36.2196C24.0152 36.6785 23.7598 37.2233 23.6433 37.8061H16.3571C16.1656 36.8596 15.6126 36.0293 14.8197 35.4978L15.2351 34.4408L13.9087 33.9008L13.4938 34.9568C12.5891 34.7886 11.6556 34.9841 10.8896 35.502L5.1217 29.6312C5.63055 28.8515 5.82258 27.9013 5.65741 26.9805L10.9805 24.8133L10.45 23.4632L5.125 25.6305C4.6028 24.8234 3.78705 24.2605 2.85714 24.0655V16.6492ZM12.1429 30.5357C12.1437 31.3067 12.445 32.0459 12.9806 32.5911C13.5163 33.1363 14.2425 33.443 15 33.4439H25.7143V32.7168C25.7143 32.604 25.6885 32.4926 25.6388 32.3917L25.3621 31.8282C25.0693 31.2304 24.9367 30.5645 24.9774 29.8978C25.0182 29.2311 25.2309 28.5872 25.5942 28.0309C25.6858 27.891 25.727 27.7232 25.7107 27.5559C25.6944 27.3886 25.6217 27.2323 25.5049 27.1134L23.0916 24.657C23.0172 24.5813 22.9582 24.4915 22.918 24.3926C22.8777 24.2937 22.857 24.1877 22.857 24.0806C22.857 23.9736 22.8777 23.8675 22.9179 23.7686C22.9582 23.6697 23.0172 23.5798 23.0915 23.5041C23.1659 23.4284 23.2542 23.3684 23.3513 23.3274C23.4485 23.2864 23.5527 23.2653 23.6578 23.2653C23.763 23.2653 23.8672 23.2864 23.9643 23.3273C24.0615 23.3683 24.1498 23.4284 24.2242 23.504L28.0662 27.4146L29.0763 26.3864L27.8571 25.1453V19.9313L29.1632 21.2606C29.4293 21.53 29.6403 21.8505 29.784 22.2034C29.9276 22.5564 30.001 22.9349 30 23.3169V31.2628H31.4286V23.3169C31.4301 22.7438 31.32 22.1761 31.1045 21.6467C30.889 21.1172 30.5725 20.6365 30.1733 20.2324L27.8571 17.8748V10.9056C27.8563 10.1346 27.555 9.39538 27.0194 8.85019C26.4837 8.30499 25.7575 7.99831 25 7.99745H15C14.2425 7.99831 13.5163 8.30499 12.9806 8.85019C12.445 9.39538 12.1437 10.1346 12.1429 10.9056V30.5357ZM13.5714 30.5357V10.9056C13.5719 10.5201 13.7225 10.1505 13.9903 9.87793C14.2582 9.60533 14.6213 9.45199 15 9.45153H16.7014L17.2183 10.5037C17.2776 10.6245 17.3688 10.7261 17.4816 10.797C17.5945 10.868 17.7245 10.9056 17.8571 10.9056H22.1429C22.2755 10.9056 22.4055 10.868 22.5184 10.797C22.6312 10.7261 22.7224 10.6245 22.7817 10.5037L23.2986 9.45153H25C25.3787 9.45199 25.7418 9.60533 26.0097 9.87793C26.2775 10.1505 26.4281 10.5201 26.4286 10.9056V23.6912L25.2346 22.4759C24.8159 22.0533 24.2498 21.8168 23.6601 21.8181C23.0705 21.8194 22.5053 22.0583 22.0884 22.4827C21.6714 22.9071 21.4366 23.4823 21.4353 24.0825C21.434 24.6827 21.6664 25.2589 22.0815 25.6852L24.1056 27.7454C23.7794 28.3977 23.5904 29.112 23.5509 29.8428C23.5114 30.5736 23.6222 31.3048 23.8763 31.9895H15C14.6213 31.9891 14.2582 31.8358 13.9904 31.5632C13.7226 31.2907 13.5719 30.9212 13.5714 30.5357ZM17.8571 22.5383H16.4286V23.9923H17.8571V22.5383ZM21.4286 29.0816H18.5714V30.5357H21.4286V29.0816ZM20.7143 23.9923V22.5383H19.2857V23.9923H20.7143ZM22.6479 19.116C21.9451 18.4022 20.9928 18.0014 20 18.0014C19.0072 18.0014 18.0549 18.4022 17.3521 19.116L18.3622 20.1442C18.7969 19.7027 19.3859 19.4548 20 19.4548C20.6141 19.4548 21.2031 19.7027 21.6378 20.1442L22.6479 19.116ZM15.2092 17.2878L16.2194 18.3159C16.7159 17.8105 17.3053 17.4097 17.9539 17.1362C18.6026 16.8627 19.2979 16.7219 20 16.7219C20.7021 16.7219 21.3974 16.8627 22.0461 17.1362C22.6947 17.4097 23.2841 17.8105 23.7806 18.3159L24.7908 17.2878C23.5192 15.9964 21.7963 15.2711 20 15.2711C18.2037 15.2711 16.4808 15.9964 15.2092 17.2878ZM37.8571 25.4464C37.4333 25.4464 37.019 25.5743 36.6666 25.814C36.3142 26.0537 36.0396 26.3943 35.8774 26.7929C35.7152 27.1914 35.6728 27.63 35.7555 28.0531C35.8381 28.4762 36.0422 28.8648 36.3419 29.1698C36.6416 29.4749 37.0234 29.6826 37.4391 29.7668C37.8548 29.8509 38.2856 29.8077 38.6772 29.6426C39.0687 29.4776 39.4034 29.198 39.6389 28.8393C39.8743 28.4806 40 28.0589 40 27.6275C39.9993 27.0493 39.7734 26.4949 39.3716 26.086C38.9699 25.6771 38.4253 25.4471 37.8571 25.4464ZM37.8571 10.9056C37.4333 10.9056 37.019 11.0335 36.6666 11.2732C36.3142 11.5129 36.0396 11.8535 35.8774 12.2521C35.7152 12.6506 35.6728 13.0892 35.7555 13.5123C35.8381 13.9353 36.0422 14.324 36.3419 14.629C36.6416 14.9341 37.0234 15.1418 37.4391 15.2259C37.8548 15.3101 38.2856 15.2669 38.6772 15.1018C39.0687 14.9367 39.4034 14.6572 39.6389 14.2985C39.8743 13.9398 40 13.5181 40 13.0867C39.9993 12.5085 39.7734 11.9541 39.3716 11.5452C38.9699 11.1363 38.4253 10.9063 37.8571 10.9056ZM12.8571 4.36225C13.281 4.36225 13.6953 4.23432 14.0477 3.99466C14.4 3.75499 14.6747 3.41435 14.8369 3.0158C14.9991 2.61725 15.0415 2.1787 14.9588 1.75561C14.8761 1.33251 14.6721 0.943872 14.3724 0.638837C14.0727 0.333801 13.6909 0.12607 13.2752 0.0419106C12.8595 -0.0422485 12.4287 0.00094505 12.0371 0.166029C11.6456 0.331113 11.3109 0.610673 11.0754 0.969356C10.84 1.32804 10.7143 1.74974 10.7143 2.18112C10.7149 2.75939 10.9409 3.31377 11.3426 3.72267C11.7444 4.13156 12.289 4.36157 12.8571 4.36225Z" fill="#0570D8"/>
</svg>
