<svg width="1440" height="125" viewBox="0 0 1440 125" fill="none" xmlns="http://www.w3.org/2000/svg">
<g opacity="0.08">
<path opacity="0.1" fill-rule="evenodd" clip-rule="evenodd" d="M1 37.6236L25 35.6117C49 33.3124 97 29.2885 145 41.6474C193 54.0063 241 83.0354 289 85.0473C337 87.3467 385 62.3414 433 60.3295C481 58.3176 529 79.0116 577 87.3467C625 95.3943 673 91.3705 721 81.0235C769 70.6765 817 54.0063 865 41.6474C913 29.2885 961 20.9534 1009 16.9296C1057 12.6184 1105 12.6184 1153 8.59453C1201 4.57069 1249 -3.76439 1297 4.57069C1345 12.6184 1393 37.6236 1417 49.9825L1441 62.3414V112.064H1417C1393 112.064 1345 112.064 1297 112.064C1249 112.064 1201 112.064 1153 112.064C1105 112.064 1057 112.064 1009 112.064C961 112.064 913 112.064 865 112.064C817 112.064 769 112.064 721 112.064C673 112.064 625 112.064 577 112.064C529 112.064 481 112.064 433 112.064C385 112.064 337 112.064 289 112.064C241 112.064 193 112.064 145 112.064C97 112.064 49 112.064 25 112.064H1V37.6236Z" stroke="black" stroke-width="2"/>
<path fill-rule="evenodd" clip-rule="evenodd" d="M1 49.983L25 47.9711C49 45.6717 97 41.6479 145 54.0068C193 66.3657 241 95.3948 289 97.4067C337 99.706 385 74.7008 433 72.6889C481 70.677 529 91.371 577 99.706C625 107.754 673 103.73 721 93.3829C769 83.0359 817 66.3657 865 54.0068C913 41.6479 961 33.3128 1009 29.289C1057 24.9777 1105 24.9777 1153 20.9539C1201 16.9301 1249 8.59499 1297 16.9301C1345 24.9777 1393 49.983 1417 62.3419L1441 74.7008V124.424H1417C1393 124.424 1345 124.424 1297 124.424C1249 124.424 1201 124.424 1153 124.424C1105 124.424 1057 124.424 1009 124.424C961 124.424 913 124.424 865 124.424C817 124.424 769 124.424 721 124.424C673 124.424 625 124.424 577 124.424C529 124.424 481 124.424 433 124.424C385 124.424 337 124.424 289 124.424C241 124.424 193 124.424 145 124.424C97 124.424 49 124.424 25 124.424H1V49.983Z" fill="url(#paint0_linear)"/>
</g>
<defs>
<linearGradient id="paint0_linear" x1="1" y1="68.8916" x2="1441" y2="68.8916" gradientUnits="userSpaceOnUse">
<stop stop-color="#1488CC"/>
<stop offset="1" stop-color="#2B32B2"/>
</linearGradient>
</defs>
</svg>
