<svg width="65" height="65" viewBox="0 0 65 65" fill="none" xmlns="http://www.w3.org/2000/svg">
<g clip-path="url(#clip0)">
<path d="M13.9427 62.9926L12.0314 60.3004C11.6257 59.7286 10.8331 59.5942 10.2613 60.0001C9.68963 60.4059 9.55506 61.1984 9.96105 61.7702L11.8723 64.4625C12.1199 64.8112 12.5112 64.9972 12.9086 64.9972C13.1628 64.9972 13.4194 64.921 13.6424 64.7627C14.2141 64.3568 14.3487 63.5644 13.9427 62.9926Z" fill="#F6821F"/>
<path d="M28.5904 63.4709L26.5104 53.5574C25.4989 48.7367 22.6907 44.5684 18.6034 41.82L14.1625 38.8338C12.3817 37.6366 9.98812 37.8941 8.49973 39.4118V24.1145C8.49973 22.1067 7.1308 20.4007 5.17065 19.9656C3.90557 19.6845 2.60075 19.989 1.59008 20.7998C0.579539 21.6107 0 22.8189 0 24.1145V43.7988C0 46.3776 0.789138 48.8523 2.28197 50.9552L4.54592 54.1444C4.79348 54.4932 5.18474 54.6791 5.58223 54.6791C5.83639 54.6791 6.09296 54.603 6.31602 54.4447C6.88769 54.0388 7.02226 53.2464 6.61626 52.6746L4.35232 49.4854C3.16607 47.8143 2.53905 45.8479 2.53905 43.7987V24.1145C2.53905 23.593 2.77239 23.1067 3.17915 22.7801C3.58578 22.4537 4.11098 22.3312 4.62057 22.4443C5.40958 22.6194 5.96068 23.3062 5.96068 24.1145V39.7317C5.96068 41.9425 6.77292 44.0488 8.24849 45.6875C8.31172 45.7633 8.37671 45.8383 8.4454 45.911C9.28849 46.8044 10.2797 47.8571 11.2133 48.8494L12.5203 50.2404C12.5245 50.2448 12.5291 50.2486 12.5334 50.2529C13.6515 51.4421 14.476 52.3202 14.4933 52.3385C14.973 52.8495 15.7767 52.8749 16.2878 52.3949C16.7989 51.9149 16.8241 51.1115 16.344 50.6004C16.3209 50.5758 14.8348 48.9933 13.1377 47.1894L10.2268 44.0914C10.2194 44.0836 10.2127 44.0753 10.2053 44.0674C9.52284 43.2511 9.53135 42.0675 10.2467 41.2599C10.8796 40.5456 11.9541 40.4085 12.7459 40.9408L17.1866 43.927C20.722 46.3042 23.1507 49.9094 24.0254 54.0788L26.1055 63.9924C26.2311 64.5907 26.7588 65.0014 27.3467 65.0014C27.4331 65.0014 27.5208 64.9925 27.6086 64.9741C28.2948 64.8302 28.7343 64.1571 28.5904 63.4709Z" fill="#F6821F"/>
<path d="M9.40882 56.6023L9.4007 56.5909C8.99318 56.0201 8.20049 55.8875 7.62983 56.2948C7.05918 56.7021 6.92664 57.4949 7.33378 58.0655L7.34191 58.077C7.58972 58.4242 7.9801 58.6093 8.37644 58.6093C8.63162 58.6093 8.8892 58.5326 9.11277 58.373C9.68329 57.9657 9.81596 57.1729 9.40882 56.6023Z" fill="#F6821F"/>
<path d="M63.4104 20.7996C62.3999 19.9887 61.0944 19.6848 59.83 19.9654C57.8698 20.4003 56.5008 22.1064 56.5008 24.1143V39.4116C55.0125 37.8939 52.6187 37.6364 50.838 38.8336L46.3971 41.8197C42.3096 44.5679 39.5015 48.7364 38.4901 53.5571L36.4101 63.4707C36.2662 64.1569 36.7057 64.8298 37.3918 64.9738C37.4797 64.9922 37.5675 65.0011 37.6537 65.0011C38.2418 65.0011 38.7694 64.5903 38.895 63.9919L40.975 54.0783C41.8498 49.9091 44.2784 46.3038 47.8138 43.9267L52.2547 40.9406C53.0462 40.4082 54.1208 40.5453 54.7539 41.2595C55.4684 42.0662 55.4779 43.2479 54.7979 44.0642C54.7898 44.0731 54.7821 44.0822 54.774 44.0911C54.774 44.0911 48.6796 50.5757 48.6566 50.6001C48.1766 51.1112 48.2019 51.9146 48.7128 52.3946C49.224 52.8746 50.0273 52.8493 50.5073 52.3382C50.5246 52.3199 55.7121 46.8042 56.5552 45.9108C56.6239 45.8381 56.6889 45.7631 56.7521 45.6873C58.2276 44.0486 59.0399 41.9423 59.0399 39.7315V24.1142C59.0399 23.3059 59.591 22.6191 60.3802 22.444C60.8896 22.331 61.4147 22.4535 61.8216 22.7798C62.2284 23.1062 62.4617 23.5926 62.4617 24.1142V43.7985C62.4617 45.8477 61.8347 47.8141 60.6484 49.4852L51.057 62.9964C50.6512 63.5681 50.7856 64.3606 51.3573 64.7665C51.5805 64.9248 51.8369 65.001 52.0911 65.001C52.4884 65.001 52.8798 64.8149 53.1274 64.4662L62.7188 50.955C64.2116 48.8521 65.0007 46.3774 65.0007 43.7986V24.1142C65.0004 22.8185 64.421 21.6104 63.4104 20.7996Z" fill="#F6821F"/>
<path d="M48.5788 24.3318L46.3202 23.7922V23.3872C47.7881 22.3589 48.7507 20.6561 48.7507 18.7318V15.7955C48.7507 12.6624 46.2019 10.1136 43.0688 10.1136C41.6628 10.1136 40.3755 10.628 39.3823 11.4771C38.2766 8.76915 35.6159 6.85547 32.5152 6.85547C29.4107 6.85547 26.7473 8.7741 25.644 11.4872C24.6494 10.6321 23.3574 10.1133 21.9457 10.1133C18.8126 10.1133 16.2638 12.6622 16.2638 15.7952V15.9903V18.7315C16.2638 20.6559 17.2263 22.3587 18.6943 23.387V23.792L16.4357 24.3315C13.7389 24.9758 11.8555 27.3621 11.8555 30.1348V32.5057C11.8555 33.2069 12.424 33.7753 13.125 33.7753H18.9587C18.9497 33.9293 18.9435 34.084 18.9435 34.24V38.805C18.9435 39.5062 19.512 40.0745 20.213 40.0745H27.8441C28.5452 40.0745 29.1137 39.5062 29.1137 38.805C29.1137 38.1038 28.5452 37.5355 27.8441 37.5355H26.5325V34.912C26.5325 34.2108 25.964 33.6425 25.2629 33.6425C24.5619 33.6425 23.9934 34.2108 23.9934 34.912V37.5357H21.4827V34.2403C21.4827 31.7918 23.1457 29.6832 25.5266 29.1127L29.0104 28.2778L31.3419 33.5822C31.5445 34.0431 32.0006 34.3408 32.5039 34.3408H32.5041C33.0076 34.3408 33.4636 34.0433 33.6662 33.5823L35.9953 28.2858L39.468 29.1155C41.8512 29.6849 43.5157 31.7937 43.5157 34.244V37.5357H41.0049V34.912C41.0049 34.2108 40.4364 33.6425 39.7354 33.6425C39.0344 33.6425 38.4659 34.2108 38.4659 34.912V37.5357H37.0271C36.3261 37.5357 35.7576 38.1041 35.7576 38.8053C35.7576 39.5064 36.3261 40.0748 37.0271 40.0748H44.7853C45.4864 40.0748 46.0549 39.5064 46.0549 38.8053V34.244C46.0549 34.0867 46.0485 33.9308 46.0394 33.7755H51.8896C52.5906 33.7755 53.1591 33.2072 53.1591 32.506V30.135C53.1591 27.3624 51.2757 24.9759 48.5788 24.3318ZM43.0688 12.6524C44.7321 12.6524 46.0976 13.9512 46.2048 15.5879H44.4398C42.9559 15.5879 41.4957 15.2307 40.1832 14.5504C40.666 13.4348 41.7778 12.6524 43.0688 12.6524ZM39.926 18.5462C39.9275 18.4843 39.9307 18.4228 39.9307 18.3605V17.2299C41.3552 17.8195 42.8871 18.127 44.4398 18.127H46.2116V18.7316C46.2116 20.4645 44.8018 21.8745 43.0688 21.8745C41.3358 21.8745 39.926 20.4645 39.926 18.7315V18.5462ZM27.639 14.2708C27.639 11.582 29.8264 9.39452 32.5152 9.39452C34.9404 9.39452 36.9576 11.1741 37.33 13.4959L35.1928 12.2402C34.6582 11.9261 33.9749 12.044 33.5767 12.5195C32.5322 13.7659 31.0006 14.4808 29.3743 14.4808H27.639V14.2708ZM21.9458 12.6524C23.2368 12.6524 24.3485 13.4349 24.8314 14.5503C23.5187 15.2305 22.0587 15.5878 20.5748 15.5878H18.8098C18.917 13.9512 20.2826 12.6524 21.9458 12.6524ZM18.803 18.1268H20.5748C22.1291 18.1268 23.6627 17.8187 25.0886 17.2279V18.7314C25.0886 20.4643 23.6788 21.8742 21.9458 21.8742C20.2128 21.8742 18.803 20.4645 18.803 18.7315V18.1268ZM24.935 26.6434C22.4374 27.2419 20.4744 28.9833 19.5402 31.2363H14.3945V30.1349C14.3945 28.5422 15.4764 27.1712 17.0256 26.8011L20.2588 26.0287C20.8303 25.8923 21.2335 25.3815 21.2335 24.794V24.3672C21.4671 24.3965 21.7045 24.4134 21.9458 24.4134C22.1853 24.4134 22.4211 24.3968 22.6529 24.3678V24.73C22.652 24.7489 22.6516 24.7678 22.6515 24.7868C22.6513 25.2033 22.856 25.6113 23.2321 25.8546C23.3738 25.9464 23.5269 26.006 23.6831 26.0359L25.5769 26.4896L24.935 26.6434ZM28.4762 24.6726C28.1501 24.5288 27.8101 24.4138 27.4597 24.3299L25.1918 23.7864V23.3908C25.6011 23.1048 25.9712 22.7667 26.2921 22.3856C26.8591 23.259 27.6041 24.0059 28.4762 24.5748V24.6726ZM33.99 26.5379L32.5044 29.9168L31.0154 26.5293V25.6234C31.5 25.7233 32.0016 25.776 32.5152 25.776C33.0201 25.776 33.5132 25.7248 33.99 25.6282V26.5379ZM32.5152 23.2368C29.8264 23.2369 27.639 21.0494 27.639 18.3605V17.0197H29.3743C31.3875 17.0197 33.3017 16.271 34.7688 14.9357L37.3868 16.4739V18.5463C37.2888 21.1492 35.1419 23.2368 32.5152 23.2368ZM36.5291 24.6767V24.5907C37.4084 24.0223 38.1599 23.2735 38.7313 22.3962C39.0501 22.773 39.417 23.1074 39.8224 23.3908V23.7864L37.5544 24.3299C37.2009 24.4147 36.858 24.5311 36.5291 24.6767ZM50.6199 31.2363H45.4568C44.5216 28.9833 42.5573 27.2429 40.0581 26.6459L39.4207 26.4936L41.3246 26.0374C41.483 26.0079 41.6387 25.9475 41.7823 25.8546C42.1577 25.6117 42.3618 25.2037 42.3618 24.7871C42.3618 24.7772 42.3617 24.7672 42.3614 24.7573V24.3678C42.5934 24.3968 42.829 24.4134 43.0685 24.4134C43.3099 24.4134 43.5473 24.3965 43.7809 24.3672V24.794C43.7809 25.3815 44.1841 25.8923 44.7555 26.0287L47.9887 26.8011C49.5379 27.1713 50.6199 28.5422 50.6199 30.1349V31.2363Z" fill="#F6821F"/>
<path d="M33.3974 37.9059C33.1601 37.6697 32.8339 37.5352 32.5 37.5352C32.1647 37.5352 31.8386 37.6697 31.6024 37.9059C31.365 38.1433 31.2305 38.4695 31.2305 38.8047C31.2305 39.1386 31.365 39.4648 31.6024 39.7022C31.8386 39.9384 32.1648 40.0742 32.5 40.0742C32.8339 40.0742 33.1601 39.9384 33.3974 39.7022C33.6336 39.4648 33.7695 39.1386 33.7695 38.8047C33.7695 38.4695 33.6337 38.1433 33.3974 37.9059Z" fill="#F6821F"/>
<path d="M32.5 0C31.799 0 31.2305 0.568367 31.2305 1.26953V3.16912C31.2305 3.87028 31.799 4.43864 32.5 4.43864C33.201 4.43864 33.7695 3.87028 33.7695 3.16912V1.26953C33.7695 0.568367 33.2012 0 32.5 0Z" fill="#F6821F"/>
<path d="M27.8227 4.14335L26.491 2.81289C25.995 2.31726 25.1913 2.31764 24.6956 2.81365C24.2 3.30965 24.2005 4.11352 24.6965 4.60901L26.0284 5.93948C26.2762 6.18716 26.6009 6.31094 26.9256 6.31094C27.2507 6.31094 27.5757 6.18678 27.8236 5.93872C28.319 5.44271 28.3187 4.63885 27.8227 4.14335Z" fill="#F6821F"/>
<path d="M40.2734 2.84407C39.7773 2.34858 38.9734 2.34883 38.478 2.84496L37.1565 4.16768C36.661 4.66369 36.6614 5.46755 37.1574 5.96305C37.4054 6.21073 37.73 6.33451 38.0547 6.33451C38.3798 6.33451 38.705 6.21035 38.9528 5.96216L40.2742 4.63944C40.7697 4.14343 40.7694 3.33957 40.2734 2.84407Z" fill="#F6821F"/>
</g>
<defs>
<clipPath id="clip0">
<rect width="65" height="65" fill="white"/>
</clipPath>
</defs>
</svg>
