<svg width="65" height="65" viewBox="0 0 65 65" fill="none" xmlns="http://www.w3.org/2000/svg">
<path d="M44.9721 45.5903C45.4968 45.5903 45.922 45.165 45.922 44.6404V37.153C45.922 36.6284 45.4967 36.2031 44.9721 36.2031H43.3717C42.847 36.2031 42.4219 36.6284 42.4219 37.153C42.4219 37.6776 42.8472 38.1029 43.3717 38.1029H44.0222V44.6404C44.0222 45.165 44.4475 45.5903 44.9721 45.5903Z" fill="#F6821F"/>
<path d="M21.1011 43.8786C20.6831 44.1923 20.5969 44.7855 20.9092 45.2053C21.0955 45.4559 21.3821 45.5883 21.672 45.5883C21.8691 45.5883 22.0679 45.5272 22.2381 45.4005C22.3008 45.354 22.3608 45.3036 22.4203 45.2532C24.1884 43.7555 25.9243 40.8144 25.1603 38.4195C25.0127 37.9569 24.7435 37.5457 24.4025 37.2023C23.8212 36.6169 23.0185 36.2812 22.1933 36.2812C20.4755 36.2812 19.0781 37.6786 19.0781 39.3964C19.0781 41.1142 20.4755 42.5116 22.1933 42.5116C22.2338 42.5116 22.2739 42.5101 22.314 42.5086C21.7264 43.3897 21.1227 43.8619 21.1011 43.8786ZM22.1933 40.6116C21.5231 40.6116 20.978 40.0665 20.978 39.3963C20.978 38.7261 21.5232 38.181 22.1933 38.181C22.8634 38.181 23.4085 38.7261 23.4085 39.3963C23.4085 40.0665 22.8635 40.6116 22.1933 40.6116Z" fill="#F6821F"/>
<path d="M26.793 39.0136V42.4763C26.793 44.1939 28.1903 45.5914 29.908 45.5914C31.6257 45.5914 33.0231 44.1941 33.0231 42.4763V39.0136C33.0231 37.2959 31.6257 35.8984 29.908 35.8984C28.1903 35.8984 26.793 37.2959 26.793 39.0136ZM31.1232 39.0136V42.4763C31.1232 43.1464 30.5781 43.6916 29.908 43.6916C29.238 43.6916 28.6928 43.1464 28.6928 42.4763V39.0136C28.6928 38.3434 29.238 37.7983 29.908 37.7983C30.5781 37.7983 31.1232 38.3436 31.1232 39.0136Z" fill="#F6821F"/>
<path d="M34.5898 39.0136V42.4763C34.5898 44.1939 35.9872 45.5914 37.7049 45.5914C39.4227 45.5914 40.8201 44.1941 40.8201 42.4763V39.0136C40.8201 37.2959 39.4227 35.8984 37.7049 35.8984C35.9872 35.8986 34.5898 37.2959 34.5898 39.0136ZM38.9202 39.0136V42.4763C38.9202 43.1464 38.3749 43.6916 37.7049 43.6916C37.0347 43.6916 36.4897 43.1464 36.4897 42.4763V39.0136C36.4897 38.3434 37.0348 37.7983 37.7049 37.7983C38.3751 37.7984 38.9202 38.3436 38.9202 39.0136Z" fill="#F6821F"/>
<path d="M61.6125 38.9389C63.7336 37.479 65 35.0718 65 32.5C65 29.9282 63.7336 27.521 61.6126 26.0611C60.7876 25.4931 60.5012 24.4244 60.9318 23.52C62.0387 21.1951 61.9318 18.4773 60.6459 16.25C59.3599 14.0229 57.0597 12.5714 54.4929 12.3674C53.4944 12.288 52.712 11.5058 52.6327 10.5074C52.6214 10.3647 52.6057 10.2185 52.586 10.0726C52.5156 9.55259 52.0358 9.18785 51.5171 9.25869C50.9972 9.32902 50.6328 9.80764 50.7032 10.3275C50.7183 10.4387 50.7302 10.5497 50.7388 10.6577C50.8925 12.5921 52.408 14.1078 54.3425 14.2614C56.2861 14.4158 58.0275 15.5143 59.0007 17.2C59.9739 18.8857 60.0545 20.9431 59.2165 22.7034C58.3823 24.4555 58.9371 26.5258 60.5356 27.626C62.1415 28.7314 63.1004 30.5536 63.1004 32.5C63.1004 34.4464 62.1415 36.2686 60.5354 37.374C58.9371 38.4742 58.3824 40.5445 59.2165 42.2966C60.0545 44.0569 59.9738 46.1143 59.0007 47.8C58.0274 49.4857 56.2861 50.5842 54.3425 50.7386C52.4079 50.8923 50.8925 52.4079 50.7388 54.3423C50.5843 56.2859 49.4858 58.0274 47.8001 59.0005C46.1146 59.9737 44.0574 60.0544 42.2968 59.2164C40.5449 58.3819 38.4745 58.9371 37.3742 60.5354C36.2687 62.1414 34.4467 63.1003 32.5003 63.1003C30.5538 63.1003 28.7318 62.1414 27.6263 60.5354C26.5261 58.9371 24.4559 58.3823 22.7037 59.2164C20.9433 60.0545 18.8859 59.9738 17.2004 59.0005C15.5148 58.0274 14.4162 56.2861 14.2617 54.3424C14.108 52.408 12.5926 50.8923 10.658 50.7386C8.71444 50.5842 6.97303 49.4857 5.9998 47.8C5.02658 46.1143 4.94597 44.0569 5.78398 42.2966C6.61819 40.5445 6.06341 38.4742 4.46494 37.374C2.85898 36.2686 1.90011 34.4464 1.90011 32.5C1.90011 30.5536 2.85898 28.7314 4.46507 27.626C6.06341 26.5258 6.61807 24.4555 5.78398 22.7034C4.94597 20.9431 5.02671 18.8857 5.9998 17.2C6.97315 15.5143 8.71444 14.4158 10.658 14.2614C12.5925 14.1078 14.108 12.5922 14.2617 10.6578C14.4162 8.71419 15.5147 6.97277 17.2004 5.99955C18.8858 5.02645 20.9433 4.94559 22.7037 5.78373C24.456 6.61781 26.5261 6.06303 27.6263 4.46469C28.7318 2.85873 30.5538 1.89985 32.5003 1.89985C34.4467 1.89985 36.2687 2.85873 37.3742 4.46469C38.4744 6.0629 40.5446 6.61781 42.2968 5.78373C44.0573 4.94559 46.1146 5.02633 47.8001 5.99955C48.286 6.28012 48.727 6.62505 49.1111 7.02482C49.4743 7.40302 50.0758 7.41533 50.4542 7.05187C50.8327 6.6884 50.8447 6.08715 50.4813 5.7087C49.9733 5.17981 49.3909 4.72405 48.75 4.35411C46.5226 3.0682 43.8048 2.96144 41.4802 4.06821C40.5757 4.49884 39.507 4.21256 38.9391 3.38736C37.479 1.26636 35.0717 0 32.5 0C29.9283 0 27.521 1.26636 26.0611 3.38736C25.493 4.21243 24.424 4.49858 23.52 4.06821C21.1952 2.96156 18.4775 3.0682 16.2501 4.35411C14.023 5.63989 12.5715 7.94003 12.3675 10.5073C12.2882 11.5058 11.5059 12.288 10.5074 12.3674C7.94041 12.5714 5.64015 14.0229 4.35411 16.25C3.0682 18.4773 2.96144 21.1951 4.06821 23.52C4.49871 24.4244 4.21243 25.4931 3.38749 26.0611C1.26636 27.521 0 29.9282 0 32.5C0 35.0718 1.26636 37.479 3.38736 38.9389C4.21243 39.5069 4.49884 40.5756 4.06821 41.48C2.96131 43.8049 3.0682 46.5227 4.35411 48.75C5.64015 50.9773 7.94028 52.4286 10.5071 52.6326C11.5056 52.712 12.288 53.4942 12.3673 54.4929C12.5714 57.06 14.0229 59.3601 16.2499 60.6458C18.477 61.9318 21.195 62.0386 23.5197 60.9317C24.4244 60.5013 25.4928 60.7876 26.0608 61.6125C27.521 63.7336 29.9283 65 32.5 65C35.0717 65 37.479 63.7336 38.9389 61.6126C39.507 60.7876 40.576 60.5014 41.48 60.9318C43.8048 62.0386 46.5226 61.9317 48.7499 60.6459C50.977 59.3601 52.4285 57.06 52.6325 54.4927C52.7118 53.4942 53.4941 52.712 54.4926 52.6326C57.0595 52.4287 59.3597 50.9773 60.6456 48.75C61.9315 46.5227 62.0383 43.8049 60.9315 41.48C60.5012 40.5756 60.7874 39.5069 61.6125 38.9389Z" fill="#F6821F"/>
<path d="M11.9454 40.1995C11.4628 40.4054 11.2386 40.9635 11.4446 41.4461C15.0501 49.894 23.3143 55.3526 32.4986 55.3526C45.1154 55.3526 55.38 45.0881 55.38 32.4712C55.38 19.8544 45.1154 9.58984 32.4986 9.58984C19.8817 9.58984 9.61719 19.8544 9.61719 32.4712C9.61719 34.0161 9.7722 35.5605 10.0778 37.0612C10.1825 37.5754 10.6844 37.9074 11.1983 37.8025C11.7123 37.6978 12.0442 37.1962 11.9395 36.6821C11.6591 35.3057 11.517 33.8891 11.517 32.4712C11.517 20.902 20.9293 11.4897 32.4987 11.4897C44.0681 11.4897 53.4804 20.902 53.4804 32.4712C53.4804 44.0405 44.0679 53.4529 32.4986 53.4529C24.0766 53.4529 16.4983 48.4473 13.1919 40.7005C12.9859 40.2179 12.4282 39.9938 11.9454 40.1995Z" fill="#F6821F"/>
<path d="M21.8452 29.8888V20.3014C21.8452 19.7769 21.42 19.3516 20.8953 19.3516C20.3706 19.3516 19.9453 19.7769 19.9453 20.3014V29.8888C19.9453 30.4134 20.3706 30.8387 20.8953 30.8387C21.42 30.8387 21.8452 30.4134 21.8452 29.8888Z" fill="#F6821F"/>
<path d="M28.3182 28.9355C27.2965 28.9355 26.3107 28.5208 25.6812 27.8263C25.3286 27.4374 24.7279 27.4081 24.3394 27.7604C23.9507 28.1127 23.9211 28.7134 24.2734 29.1021C25.2569 30.1873 26.769 30.8353 28.3182 30.8353C30.1875 30.8353 31.8167 29.6054 32.108 27.9744C32.3289 26.7368 31.7545 25.1152 29.4796 24.276C28.2617 23.8267 27.1308 23.3367 26.8277 23.2037C26.5559 22.9999 26.4243 22.6776 26.4745 22.3289C26.5392 21.8783 26.8894 21.5154 27.4113 21.3581C28.8987 20.9102 30.2489 21.9896 30.279 22.014C30.6807 22.348 31.277 22.2952 31.6136 21.8949C31.9511 21.4933 31.8993 20.8941 31.4976 20.5564C31.4113 20.4839 29.3548 18.7882 26.8633 19.539C25.6334 19.9095 24.7638 20.8752 24.5938 22.059C24.4352 23.1638 24.9139 24.2264 25.8429 24.832C25.8848 24.8592 25.9288 24.8832 25.9747 24.9037C26.0299 24.9283 27.3429 25.5128 28.8221 26.0584C29.8347 26.4319 30.3506 27.0086 30.2379 27.6404C30.1241 28.2771 29.3751 28.9355 28.3182 28.9355Z" fill="#F6821F"/>
<path d="M45.0538 25.0913C45.0538 21.9243 42.4772 19.3477 39.3101 19.3477C36.143 19.3477 33.5664 21.9243 33.5664 25.0913C33.5664 28.2582 36.143 30.8349 39.3101 30.8349C42.4772 30.8349 45.0538 28.2584 45.0538 25.0913ZM35.4664 25.0913C35.4664 22.9718 37.1907 21.2475 39.3103 21.2475C41.4296 21.2475 43.154 22.9718 43.154 25.0913C43.154 27.2108 41.4298 28.935 39.3103 28.935C37.1907 28.935 35.4664 27.2108 35.4664 25.0913Z" fill="#F6821F"/>
<path d="M15.4336 33.321C15.4336 33.8455 15.8588 34.2708 16.3835 34.2708H48.6144C49.1391 34.2708 49.5643 33.8455 49.5643 33.321C49.5643 32.7964 49.1391 32.3711 48.6144 32.3711H16.3836C15.8589 32.3711 15.4336 32.7964 15.4336 33.321Z" fill="#F6821F"/>
</svg>
