<svg width="65" height="65" viewBox="0 0 65 65" fill="none" xmlns="http://www.w3.org/2000/svg">
<rect width="65" height="65" fill="url(#paint0_linear)"/>
<path d="M21.3281 26.4062C21.889 26.4062 22.3438 25.9515 22.3438 25.3906C22.3438 24.8297 21.889 24.375 21.3281 24.375C20.7672 24.375 20.3125 24.8297 20.3125 25.3906C20.3125 25.9515 20.7672 26.4062 21.3281 26.4062Z" fill="#F6821F"/>
<path d="M25.3906 26.4062C25.9515 26.4062 26.4062 25.9515 26.4062 25.3906C26.4062 24.8297 25.9515 24.375 25.3906 24.375C24.8297 24.375 24.375 24.8297 24.375 25.3906C24.375 25.9515 24.8297 26.4062 25.3906 26.4062Z" fill="#F6821F"/>
<path d="M21.223 27.9844L19.4062 28.8928C19.7934 29.6737 20.3916 30.3306 21.1331 30.7888C21.8746 31.2471 22.7296 31.4884 23.6013 31.4854H25.3928V29.4542H23.6013C23.1071 29.4559 22.6224 29.319 22.202 29.0593C21.7817 28.7995 21.4425 28.4271 21.223 27.9844Z" fill="#F6821F"/>
<path d="M59.9219 41.6406H40.625C40.5267 41.6407 40.429 41.6551 40.3349 41.6834L34.8178 34.787C34.4231 34.294 33.9545 33.8651 33.4284 33.5156H33.5156V23.3594C33.5156 20.3964 32.3386 17.5548 30.2435 15.4597C28.1483 13.3645 25.3067 12.1875 22.3438 12.1875C19.3808 12.1875 16.5392 13.3645 14.4441 15.4597C12.3489 17.5548 11.1719 20.3964 11.1719 23.3594V32.5H10.0632C7.93371 32.5024 5.89216 33.3494 4.38642 34.8552C2.88067 36.3609 2.03368 38.4024 2.03126 40.5319C2.03126 40.563 2.03261 40.5939 2.03297 40.625H2.03126V42.2877C2.02808 44.682 2.5306 47.05 3.50592 49.2367C5.1216 52.8488 5.24364 56.9533 3.84543 60.655L3.11154 62.6121L5.01348 63.3254L5.74737 61.3683C7.33388 57.1678 7.19539 52.5104 5.36211 48.4117C5.19799 48.0424 5.04937 47.6689 4.91624 47.2912L11.1521 56.645C11.6151 57.3412 12.2433 57.912 12.9805 58.3066C13.7178 58.7011 14.5412 58.9072 15.3773 58.9062H16.25C16.2512 59.9833 16.6796 61.0159 17.4412 61.7775C18.2028 62.5391 19.2354 62.9675 20.3125 62.9688H51.7969C51.9967 62.9687 52.1922 62.9098 52.3587 62.7992C52.5252 62.6887 52.6554 62.5314 52.7329 62.3473L60.8579 43.0504C60.9229 42.896 60.9487 42.7279 60.933 42.5611C60.9174 42.3943 60.8606 42.234 60.768 42.0945C60.6753 41.9549 60.5496 41.8404 60.402 41.7613C60.2543 41.6821 60.0894 41.6406 59.9219 41.6406ZM13.2031 23.3594C13.2031 20.9351 14.1662 18.6102 15.8804 16.896C17.5946 15.1818 19.9195 14.2188 22.3438 14.2188C24.768 14.2188 27.093 15.1818 28.8072 16.896C30.5214 18.6102 31.4844 20.9351 31.4844 23.3594V32.6684C31.0176 32.5567 30.5393 32.5002 30.0593 32.5H28.415C29.0956 31.4395 29.456 30.2052 29.4533 28.9451L29.4531 21.3281C29.4531 21.1947 29.4269 21.0627 29.3758 20.9395C29.3248 20.8162 29.25 20.7043 29.1557 20.61C29.0614 20.5157 28.9494 20.4408 28.8262 20.3898C28.703 20.3388 28.5709 20.3125 28.4375 20.3125H24.5398C23.8176 20.3132 23.1135 20.0862 22.5276 19.6639C21.9417 19.2416 21.5038 18.6455 21.276 17.9601C21.1997 17.7313 21.0445 17.5371 20.8382 17.4123C20.6319 17.2875 20.3879 17.2402 20.1498 17.2788C19.9118 17.3174 19.6953 17.4395 19.539 17.6232C19.3827 17.8068 19.2969 18.0401 19.2969 18.2812V19.132C19.2976 19.8543 19.0706 20.5584 18.6483 21.1443C18.2261 21.7302 17.6299 22.1681 16.9445 22.3959C16.7423 22.4633 16.5664 22.5926 16.4417 22.7655C16.3171 22.9385 16.25 23.1462 16.25 23.3594V32.5H13.2031V23.3594ZM15.2344 34.5312H16.25C16.25 34.708 16.2961 34.8817 16.3838 35.0352L17.2566 36.5625H15.2344V34.5312ZM21.3281 39.5936L18.2813 34.2615V33.7022C19.508 34.8862 21.1467 35.5476 22.8516 35.5469C23.1253 35.5463 23.3987 35.529 23.6702 35.495L21.3281 39.5936ZM26.0834 32.177C25.4442 32.8162 24.6299 33.2514 23.7433 33.4278C22.8567 33.6042 21.9378 33.5136 21.1027 33.1677C20.2675 32.8218 19.5537 32.236 19.0515 31.4844C18.5493 30.7328 18.2813 29.8492 18.2813 28.9453V24.0376C19.5339 23.4198 20.5023 22.3457 20.9876 21.036C21.978 21.8813 23.2378 22.3451 24.5398 22.3438H27.4219L27.422 28.9451C27.4237 29.5456 27.3062 30.1404 27.0764 30.6951C26.8467 31.2499 26.5091 31.7535 26.0834 32.177ZM18.8901 39.4212L20.3125 41.9103V44.5652L17.5765 40.7348L18.8901 39.4212ZM22.3438 41.9103L23.7661 39.4212L25.0798 40.7348L22.3438 44.5652V41.9103ZM26.2724 35.0352C26.3601 34.8817 26.4063 34.708 26.4063 34.5312H27.4219V36.5625H25.3997L26.2724 35.0352ZM15.3773 56.875C14.8756 56.8755 14.3816 56.7519 13.9393 56.5152C13.4969 56.2785 13.12 55.936 12.8422 55.5182L5.07033 43.8604C4.46786 42.9567 4.12196 41.9064 4.06951 40.8216C4.01707 39.7367 4.26005 38.658 4.77254 37.7004C5.28503 36.7428 6.04782 35.9423 6.97956 35.3841C7.9113 34.826 8.97705 34.5312 10.0632 34.5312H13.2031V37.5781C13.2031 37.7115 13.2294 37.8436 13.2804 37.9668C13.3315 38.09 13.4063 38.202 13.5006 38.2963C13.5949 38.3906 13.7069 38.4654 13.8301 38.5164C13.9533 38.5675 14.0854 38.5938 14.2188 38.5938H16.845L15.5319 39.9069C15.3619 40.0769 15.2577 40.3016 15.2379 40.5412C15.218 40.7808 15.2838 41.0197 15.4236 41.2153L20.5017 48.3247C20.5957 48.4562 20.7197 48.5635 20.8634 48.6374C21.0072 48.7114 21.1665 48.75 21.3281 48.75C21.4898 48.75 21.6491 48.7114 21.7929 48.6374C21.9366 48.5635 22.0606 48.4562 22.1546 48.3247L27.2327 41.2153C27.3724 41.0197 27.4383 40.7808 27.4184 40.5412C27.3986 40.3016 27.2944 40.0769 27.1244 39.9069L25.8113 38.5938H28.4375C28.5709 38.5938 28.703 38.5675 28.8262 38.5164C28.9494 38.4654 29.0614 38.3906 29.1557 38.2963C29.25 38.202 29.3248 38.09 29.3758 37.9668C29.4269 37.8436 29.4531 37.7115 29.4531 37.5781V34.5312H30.0593C30.6688 34.5298 31.2708 34.6662 31.8201 34.9302C32.3695 35.1943 32.852 35.5791 33.2316 36.0559L39.1744 43.4844L36.7003 49.3601L32.4321 44.2383C32.471 43.5736 32.3979 42.9071 32.2158 42.2667L31.6671 40.346L29.7139 40.904L30.2627 42.8247C30.4122 43.348 30.4511 43.8967 30.377 44.4359C30.3028 44.9751 30.1173 45.4929 29.8321 45.9564C29.5469 46.42 29.1683 46.819 28.7204 47.1283C28.2726 47.4375 27.7652 47.6501 27.2307 47.7525C26.9988 47.797 26.7895 47.9209 26.639 48.1029C26.4886 48.285 26.4063 48.5138 26.4063 48.75V49.7107L26.2414 49.7656H17.7944L10.9883 40.0426L9.32425 41.2074L16.4336 51.3637C16.5273 51.4975 16.6518 51.6067 16.7966 51.6821C16.9415 51.7575 17.1024 51.7969 17.2656 51.7969H24.375V56.875H15.3773ZM33.5362 56.875H30.8894L32.9207 54.8438H34.3914L33.5362 56.875ZM35.2467 52.8125H32.5C32.3666 52.8125 32.2346 52.8388 32.1114 52.8898C31.9881 52.9408 31.8762 53.0157 31.7819 53.11L28.0169 56.875H26.4063V51.7969C26.5154 51.7969 26.6239 51.7793 26.7274 51.7447L31.2248 50.2456C31.6042 50.118 32.0051 50.0669 32.4044 50.0953C32.8037 50.1237 33.1934 50.231 33.5509 50.4109L35.7871 51.529L35.2467 52.8125ZM31.5621 47.0209C31.6407 46.8931 31.7124 46.762 31.7806 46.6295L33.0274 48.1256C32.2089 47.9881 31.3692 48.0544 30.5825 48.3186L30.4195 48.3729C30.8658 47.9818 31.2509 47.5261 31.5621 47.0209H31.5621ZM18.2813 58.9062H32.6809L31.8257 60.9375H20.3125C19.774 60.9369 19.2577 60.7227 18.8769 60.3419C18.4961 59.9611 18.2819 59.4448 18.2813 58.9062ZM51.1225 60.9375H34.0297L41.2994 43.6719H58.3923L51.1225 60.9375Z" fill="#F6821F"/>
<path d="M46.7188 54.8438C47.3214 54.8438 47.9105 54.6651 48.4115 54.3303C48.9126 53.9955 49.3031 53.5196 49.5337 52.9629C49.7643 52.4061 49.8247 51.7935 49.7071 51.2025C49.5895 50.6114 49.2993 50.0685 48.8732 49.6424C48.4471 49.2163 47.9042 48.9261 47.3132 48.8085C46.7221 48.691 46.1095 48.7513 45.5528 48.9819C44.996 49.2125 44.5202 49.6031 44.1854 50.1041C43.8506 50.6052 43.6719 51.1943 43.6719 51.7969C43.6728 52.6047 43.9941 53.3791 44.5653 53.9504C45.1365 54.5216 45.9109 54.8429 46.7188 54.8438ZM46.7188 50.7813C46.9196 50.7813 47.116 50.8408 47.283 50.9524C47.45 51.064 47.5802 51.2226 47.6571 51.4082C47.7339 51.5938 47.7541 51.798 47.7149 51.995C47.6757 52.192 47.5789 52.373 47.4369 52.515C47.2949 52.6571 47.1139 52.7538 46.9169 52.793C46.7199 52.8322 46.5157 52.8121 46.3301 52.7352C46.1445 52.6583 45.9859 52.5281 45.8743 52.3611C45.7627 52.1941 45.7031 51.9978 45.7031 51.7969C45.7034 51.5276 45.8105 51.2695 46.0009 51.0791C46.1913 50.8887 46.4495 50.7816 46.7188 50.7813Z" fill="#F6821F"/>
<path d="M61.9531 23.3594H38.5938C38.4604 23.3594 38.3283 23.3856 38.2051 23.4367C38.0819 23.4877 37.9699 23.5625 37.8756 23.6568C37.7813 23.7511 37.7065 23.8631 37.6554 23.9863C37.6044 24.1096 37.5781 24.2416 37.5781 24.375V36.5625C37.5781 36.6959 37.6044 36.8279 37.6554 36.9512C37.7065 37.0744 37.7813 37.1864 37.8756 37.2807C37.9699 37.375 38.0819 37.4498 38.2051 37.5008C38.3283 37.5519 38.4604 37.5781 38.5938 37.5781H61.9531C62.0865 37.5781 62.2186 37.5519 62.3418 37.5008C62.465 37.4498 62.577 37.375 62.6713 37.2807C62.7656 37.1864 62.8404 37.0744 62.8914 36.9512C62.9425 36.8279 62.9688 36.6959 62.9688 36.5625V24.375C62.9688 24.2416 62.9425 24.1096 62.8914 23.9863C62.8404 23.8631 62.7656 23.7511 62.6713 23.6568C62.577 23.5625 62.465 23.4877 62.3418 23.4367C62.2186 23.3856 62.0865 23.3594 61.9531 23.3594ZM60.9375 35.5469H39.6094V25.3906H60.9375V35.5469Z" fill="#F6821F"/>
<path d="M31.4844 4.0625H55.8594V19.2969H35.5469V21.3281H56.875C57.0084 21.3281 57.1404 21.3019 57.2637 21.2508C57.3869 21.1998 57.4989 21.125 57.5932 21.0307C57.6875 20.9364 57.7623 20.8244 57.8133 20.7012C57.8644 20.5779 57.8906 20.4459 57.8906 20.3125V3.04688C57.8906 2.9135 57.8644 2.78143 57.8133 2.65821C57.7623 2.53498 57.6875 2.42302 57.5932 2.32871C57.4989 2.2344 57.3869 2.15959 57.2637 2.10855C57.1404 2.05751 57.0084 2.03125 56.875 2.03125H30.4688C30.3354 2.03125 30.2033 2.05751 30.0801 2.10855C29.9569 2.15959 29.8449 2.2344 29.7506 2.32871C29.6563 2.42302 29.5815 2.53498 29.5304 2.65821C29.4794 2.78143 29.4531 2.9135 29.4531 3.04688V13.2031H31.4844V4.0625Z" fill="#F6821F"/>
<path d="M55.8594 33.5156C56.462 33.5156 57.0511 33.3369 57.5521 33.0021C58.0532 32.6673 58.4437 32.1915 58.6743 31.6347C58.9049 31.078 58.9653 30.4654 58.8477 29.8743C58.7301 29.2833 58.44 28.7404 58.0138 28.3143C57.5877 27.8882 57.0448 27.598 56.4538 27.4804C55.8628 27.3629 55.2501 27.4232 54.6934 27.6538C54.1366 27.8844 53.6608 28.2749 53.326 28.776C52.9912 29.2771 52.8125 29.8661 52.8125 30.4688C52.8134 31.2766 53.1347 32.051 53.7059 32.6222C54.2771 33.1934 55.0516 33.5147 55.8594 33.5156ZM55.8594 29.4531C56.0603 29.4531 56.2566 29.5127 56.4236 29.6243C56.5906 29.7359 56.7208 29.8945 56.7977 30.0801C56.8746 30.2657 56.8947 30.4699 56.8555 30.6669C56.8163 30.8639 56.7196 31.0449 56.5775 31.1869C56.4355 31.329 56.2545 31.4257 56.0575 31.4649C55.8605 31.5041 55.6563 31.4839 55.4707 31.4071C55.2851 31.3302 55.1265 31.2 55.0149 31.033C54.9033 30.866 54.8438 30.6696 54.8438 30.4688C54.8441 30.1995 54.9512 29.9413 55.1416 29.7509C55.332 29.5605 55.5901 29.4534 55.8594 29.4531Z" fill="#F6821F"/>
<path d="M39.6094 9.14063C39.6094 8.53801 39.4307 7.94893 39.0959 7.44787C38.7611 6.94682 38.2852 6.55629 37.7285 6.32568C37.1717 6.09507 36.5591 6.03473 35.9681 6.1523C35.3771 6.26986 34.8342 6.56005 34.408 6.98616C33.9819 7.41227 33.6917 7.95517 33.5742 8.54621C33.4566 9.13725 33.5169 9.74987 33.7476 10.3066C33.9782 10.8634 34.3687 11.3392 34.8698 11.674C35.3708 12.0088 35.9599 12.1875 36.5625 12.1875C37.3703 12.1866 38.1448 11.8653 38.716 11.2941C39.2872 10.7229 39.6085 9.94843 39.6094 9.14063ZM35.5469 9.14063C35.5469 8.93975 35.6064 8.74339 35.718 8.57637C35.8296 8.40936 35.9883 8.27918 36.1738 8.20231C36.3594 8.12544 36.5636 8.10533 36.7606 8.14452C36.9577 8.1837 37.1386 8.28043 37.2807 8.42247C37.4227 8.56451 37.5194 8.74548 37.5586 8.94249C37.5978 9.1395 37.5777 9.34371 37.5008 9.52929C37.4239 9.71487 37.2938 9.87349 37.1268 9.98509C36.9597 10.0967 36.7634 10.1563 36.5625 10.1563C36.2932 10.1559 36.0351 10.0488 35.8447 9.85844C35.6543 9.66804 35.5472 9.40989 35.5469 9.14063Z" fill="#F6821F"/>
<path d="M46.7188 27.4219H41.6406V29.4531H46.7188V27.4219Z" fill="#F6821F"/>
<path d="M51.7969 27.4219H48.75V29.4531H51.7969V27.4219Z" fill="#F6821F"/>
<path d="M51.7969 31.4844H44.6875V33.5156H51.7969V31.4844Z" fill="#F6821F"/>
<path d="M43.6719 7.10938H41.6406V9.14062H43.6719V7.10938Z" fill="#F6821F"/>
<path d="M53.8281 7.10938H45.7031V9.14062H53.8281V7.10938Z" fill="#F6821F"/>
<path d="M49.7656 11.1719H41.6406V13.2031H49.7656V11.1719Z" fill="#F6821F"/>
<path d="M45.7031 15.2344H41.6406V17.2656H45.7031V15.2344Z" fill="#F6821F"/>
<path d="M52.8125 15.2344H47.7344V17.2656H52.8125V15.2344Z" fill="#F6821F"/>
<defs>
<linearGradient id="paint0_linear" x1="32.5" y1="0" x2="32.5" y2="65" gradientUnits="userSpaceOnUse">
<stop stop-color="white"/>
<stop offset="1" stop-color="white" stop-opacity="0"/>
</linearGradient>
</defs>
</svg>
