<svg width="65" height="65" viewBox="0 0 65 65" fill="none" xmlns="http://www.w3.org/2000/svg">
<path d="M64.5948 48.75L51.7969 38.5115V44.6875H42.6441C44.3046 42.4775 45.5061 39.9577 46.153 37.2673L49.7656 36.333V28.662L46.1581 27.7489C45.6635 25.6892 44.848 23.728 43.7257 21.9009L45.6371 18.6946L40.2096 13.2681L37.0033 15.1785C35.1772 14.0573 33.216 13.2407 31.1563 12.7461L30.2433 9.14062H22.5682L21.6552 12.7481C19.5955 13.2427 17.6343 14.0583 15.8082 15.1805L12.6019 13.2702L7.17438 18.6966L9.08578 21.903C7.96453 23.7291 7.14797 25.6912 6.65336 27.7509L3.04688 28.663V36.336L6.65641 37.2572C7.31656 40.0075 8.54141 42.5181 10.1796 44.6875H1.01562V52.8125H26.4062H51.7969V58.9885L64.5948 48.75ZM3.04688 50.7812V46.7188H11.9458C13.588 48.3823 15.5045 49.7595 17.618 50.7812H3.04688ZM26.4062 50.7812C17.7785 50.7812 10.2507 44.658 8.50586 36.2223L8.37687 35.6007L5.07812 34.7577V30.2433L8.37484 29.4095L8.50383 28.7859C8.96695 26.5434 9.84953 24.4207 11.1272 22.4768L11.4766 21.9456L9.72969 19.0145L12.9208 15.8234L15.8519 17.5713L16.383 17.222C18.327 15.9443 20.4496 15.0617 22.6921 14.5986L23.3157 14.4696L24.1495 11.1719H28.662L29.4958 14.4686L30.1194 14.5976C32.3619 15.0607 34.4845 15.9433 36.4284 17.2209L36.9596 17.5703L39.8907 15.8224L43.0818 19.0135L41.3349 21.9446L41.6843 22.4758C42.962 24.4197 43.8445 26.5423 44.3077 28.7848L44.4366 29.4084L47.7344 30.2433V34.7598L44.4326 35.6139L44.3046 36.2324C43.6516 39.3768 42.1688 42.2866 40.0187 44.6865H33.6934C37.8371 42.2002 40.625 37.6756 40.625 32.5C40.625 24.6594 34.2469 18.2812 26.4062 18.2812C18.5656 18.2812 12.1875 24.6594 12.1875 32.5C12.1875 40.3406 18.5656 46.7188 26.4062 46.7188H53.8281V42.7385L61.3427 48.75L53.8281 54.7615V50.7812H26.4062ZM26.4062 44.6875C19.6859 44.6875 14.2188 39.2204 14.2188 32.5C14.2188 25.7796 19.6859 20.3125 26.4062 20.3125C33.1266 20.3125 38.5938 25.7796 38.5938 32.5C38.5938 39.2204 33.1266 44.6875 26.4062 44.6875Z" fill="#F6821F"/>
<path d="M18.8602 29.4763L16.9742 28.7227C16.6949 29.4214 16.4938 30.1516 16.375 30.893L18.3819 31.212C18.4753 30.6198 18.6368 30.0359 18.8602 29.4763Z" fill="#F6821F"/>
<path d="M18.2967 33.0156L16.2695 33.1405C16.3163 33.8931 16.4462 34.6396 16.6585 35.3607L18.6075 34.7899C18.4389 34.2141 18.3343 33.6169 18.2967 33.0156Z" fill="#F6821F"/>
<path d="M17.5312 37.4384C17.8979 38.0955 18.3377 38.712 18.8384 39.2716L20.3516 37.9168C19.9505 37.4689 19.598 36.9753 19.3055 36.4492L17.5312 37.4384Z" fill="#F6821F"/>
<path d="M29.4531 32.5C29.4531 31.1777 28.601 30.0605 27.4219 29.64V22.3438H25.3906V29.64C24.2115 30.0605 23.3594 31.1777 23.3594 32.5C23.3594 34.1798 24.7264 35.5469 26.4062 35.5469C26.8755 35.5469 27.3142 35.4321 27.7113 35.2412L30.7663 38.2962L32.2024 36.8601L29.1474 33.8051C29.3384 33.408 29.4531 32.9692 29.4531 32.5ZM26.4062 33.5156C25.8466 33.5156 25.3906 33.0596 25.3906 32.5C25.3906 31.9404 25.8466 31.4844 26.4062 31.4844C26.9659 31.4844 27.4219 31.9404 27.4219 32.5C27.4219 33.0596 26.9659 33.5156 26.4062 33.5156Z" fill="#F6821F"/>
</svg>
