<svg width="65" height="65" viewBox="0 0 65 65" fill="none" xmlns="http://www.w3.org/2000/svg">
<path d="M60.6667 3.25H10.8333C8.44011 3.25 6.5 5.19011 6.5 7.58333V42.25H1.08333C0.485062 42.25 0 42.7351 0 43.3333C0 45.7266 1.94011 47.6667 4.33333 47.6667H35.75V60.6667C35.7501 61.2649 36.2352 61.7499 36.8336 61.7497C37.1208 61.7497 37.3961 61.6356 37.5993 61.4326L43.3333 55.6985L49.0674 61.4326C49.2705 61.6357 49.546 61.75 49.8333 61.75C49.9758 61.7504 50.1168 61.7225 50.2483 61.6677C50.653 61.4999 50.9168 61.1047 50.9167 60.6667V47.6667H54.1667C56.5599 47.6667 58.5 45.7266 58.5 43.3333V8.66667H63.9167C64.5149 8.66667 65 8.1816 65 7.58333C65 5.19011 63.0599 3.25 60.6667 3.25ZM56.3333 7.58333V42.25H52V44.4167H56.0419C55.655 45.0867 54.9403 45.4996 54.1667 45.5H50.9167V44.4167H48.75V58.0515L44.0993 53.4007C43.6762 52.9778 42.9905 52.9778 42.5674 53.4007L37.9167 58.0515V44.4167H35.75V45.5H4.33333C3.5597 45.4996 2.84497 45.0867 2.45808 44.4167H7.58333H34.6667V42.25H8.66667V7.58333C8.66667 6.38666 9.63666 5.41667 10.8333 5.41667H56.9357C56.5458 6.07249 56.3378 6.8204 56.3333 7.58333ZM58.7914 6.5C59.3908 5.46433 60.7162 5.11063 61.752 5.71011C62.0799 5.89983 62.3522 6.17229 62.5419 6.5H58.7914Z" fill="#F6821F"/>
<path d="M53.5469 37.1525L52.1591 34.6663L53.5523 32.1822C53.8459 31.6608 53.6613 31.0003 53.1401 30.7067C53.1138 30.6919 53.0869 30.6781 53.0594 30.6655L50.4735 29.4814L50.1398 26.6539C50.0692 26.0599 49.5303 25.6355 48.9362 25.706C48.9086 25.7093 48.8811 25.7136 48.8539 25.719L46.061 26.2726L44.1295 24.1807C43.6971 23.7415 42.9906 23.736 42.5514 24.1684C42.5472 24.1724 42.5432 24.1766 42.5391 24.1807L40.6075 26.2726L37.8147 25.719C37.2278 25.603 36.6578 25.9847 36.5418 26.5716C36.5364 26.5988 36.532 26.6263 36.5288 26.6539L36.1951 29.4814L33.6092 30.6677C33.0652 30.9167 32.8261 31.5597 33.0751 32.1036C33.0877 32.1311 33.1014 32.1581 33.1163 32.1843L34.5095 34.6663L33.1163 37.1503C32.8227 37.6717 33.0073 38.3323 33.5285 38.6258C33.5548 38.6406 33.5817 38.6544 33.6092 38.667L36.1951 39.8533L36.5288 42.6829C36.5993 43.277 37.1383 43.7014 37.7324 43.6308C37.76 43.6276 37.7875 43.6233 37.8147 43.6178L40.6075 43.0643L42.5391 45.1562C42.9455 45.5953 43.6309 45.6219 44.07 45.2156C44.0906 45.1965 44.1104 45.1768 44.1295 45.1562L46.061 43.0643L48.8539 43.6178C49.1499 43.6784 49.4577 43.6107 49.701 43.4315C49.9432 43.253 50.1001 42.9818 50.1344 42.6829L50.468 39.8554L53.054 38.6692C53.5979 38.4201 53.8371 37.7772 53.588 37.2332C53.5754 37.2057 53.5616 37.1788 53.5469 37.1525ZM49.973 35.1949L51.0877 37.1839L49.0164 38.134C48.673 38.2916 48.4365 38.6168 48.3924 38.992L48.1259 41.2594L45.8866 40.8163C45.5176 40.7397 45.1356 40.8632 44.8813 41.1413L43.3343 42.8183L41.7873 41.1435C41.5823 40.9218 41.2941 40.7958 40.9921 40.7958C40.9214 40.7954 40.851 40.8027 40.782 40.8174L38.5427 41.2605L38.2762 38.9931C38.2321 38.6179 37.9956 38.2927 37.6522 38.1351L35.5809 37.185L36.6956 35.196C36.882 34.8656 36.8864 34.4644 36.6956 34.1365V34.1408L35.5809 32.1518L37.6522 31.2018C37.9956 31.0441 38.2321 30.719 38.2762 30.3438L38.5427 28.0763L40.782 28.5194C41.1508 28.5951 41.5324 28.4718 41.7873 28.1944L43.3343 26.5142L44.8813 28.189C45.1355 28.4673 45.5176 28.5908 45.8866 28.514L48.1259 28.0709L48.3924 30.3383C48.4365 30.7136 48.673 31.0387 49.0164 31.1963L51.0877 32.1464L49.973 34.1354C49.7885 34.4645 49.7885 34.8659 49.973 35.1949Z" fill="#F6821F"/>
<path d="M43.3346 29.25C40.3431 29.25 37.918 31.6752 37.918 34.6667C37.9215 37.6567 40.3446 40.0797 43.3346 40.0833C46.3261 40.0833 48.7513 37.6582 48.7513 34.6667C48.7513 31.6752 46.3261 29.25 43.3346 29.25ZM43.3346 37.9167C41.5397 37.9167 40.0846 36.4616 40.0846 34.6667C40.0846 32.8717 41.5397 31.4167 43.3346 31.4167C45.1296 31.4167 46.5846 32.8717 46.5846 34.6667C46.5846 36.4616 45.1296 37.9167 43.3346 37.9167Z" fill="#F6821F"/>
<path d="M41.1654 9.75H23.832V11.9167H41.1654V9.75Z" fill="#F6821F"/>
<path d="M52 16.25H13V18.4167H52V16.25Z" fill="#F6821F"/>
<path d="M52 20.582H13V22.7487H52V20.582Z" fill="#F6821F"/>
<path d="M28.1654 34.668H14.082V36.8346H28.1654V34.668Z" fill="#F6821F"/>
</svg>
