<svg width="65" height="65" viewBox="0 0 65 65" fill="none" xmlns="http://www.w3.org/2000/svg">
<path d="M64.0479 45.0044H36.8714L33.3342 38.5789C33.1668 38.2748 32.8472 38.0859 32.5001 38.0859C32.153 38.0859 31.8335 38.2748 31.666 38.5789L28.1289 45.0044H0.952148C0.426309 45.0044 0 45.4306 0 45.9565V64.0479C0 64.5738 0.426309 65 0.952148 65H64.0479C64.5737 65 65 64.5738 65 64.0479V45.9565C65 45.4307 64.5737 45.0044 64.0479 45.0044ZM63.0957 63.0957H1.9043V46.9087H28.6914C29.0385 46.9087 29.358 46.7198 29.5255 46.4157L32.5 41.0125L35.4745 46.4158C35.642 46.7199 35.9615 46.9088 36.3086 46.9088H63.0957V63.0957Z" fill="#F6821F"/>
<path d="M15.9109 52.8232L12.6014 52.3422L11.1212 49.3433C10.9608 49.0183 10.6298 48.8125 10.2674 48.8125C9.9049 48.8125 9.57393 49.0183 9.41346 49.3433L7.93332 52.3422L4.62378 52.8232C4.26513 52.8753 3.96717 53.1266 3.8552 53.4712C3.74323 53.8158 3.83667 54.1942 4.09616 54.4472L6.491 56.7815L5.92568 60.0778C5.86449 60.4349 6.01125 60.796 6.30451 61.009C6.59764 61.222 6.98625 61.2502 7.30718 61.0815L10.2674 59.5252L13.2275 61.0815C13.3669 61.1548 13.5189 61.1908 13.6705 61.1908C13.8679 61.1908 14.0644 61.1295 14.2302 61.0089C14.5235 60.7959 14.6702 60.4349 14.609 60.0777L14.0437 56.7813L16.4385 54.4471C16.698 54.194 16.7915 53.8156 16.6795 53.471C16.5675 53.1266 16.2696 52.8753 15.9109 52.8232ZM12.3561 55.7672C12.1317 55.9861 12.0292 56.3012 12.0823 56.6101L12.4061 58.4983L10.7105 57.6068C10.5718 57.5339 10.4196 57.4975 10.2675 57.4975C10.1154 57.4975 9.96317 57.5339 9.82441 57.6068L8.12882 58.4983L8.45268 56.6101C8.50562 56.3012 8.4033 55.9861 8.17884 55.7672L6.80712 54.4302L8.70291 54.1547C9.01305 54.1097 9.28105 53.9149 9.41981 53.6338L10.2676 51.916L11.1154 53.6338C11.2542 53.9149 11.5222 54.1096 11.8323 54.1547L13.7281 54.4302L12.3561 55.7672Z" fill="#F6821F"/>
<path d="M30.7312 52.8232L27.4217 52.3422L25.9415 49.3433C25.7811 49.0183 25.4501 48.8125 25.0877 48.8125C24.7252 48.8125 24.3942 49.0183 24.2338 49.3433L22.7536 52.3422L19.4441 52.8232C19.0854 52.8753 18.7875 53.1266 18.6755 53.4712C18.5635 53.8158 18.657 54.1942 18.9165 54.4472L21.3113 56.7815L20.746 60.0778C20.6848 60.4349 20.8316 60.796 21.1248 61.009C21.4181 61.222 21.8067 61.2502 22.1275 61.0815L25.0877 59.5252L28.0478 61.0815C28.1872 61.1548 28.3392 61.1908 28.4908 61.1908C28.6882 61.1908 28.8847 61.1295 29.0505 61.0089C29.3438 60.7959 29.4905 60.4349 29.4293 60.0777L28.864 56.7813L31.2589 54.4471C31.5183 54.194 31.6118 53.8156 31.4998 53.471C31.3878 53.1266 31.0899 52.8753 30.7312 52.8232ZM27.1764 55.7672C26.952 55.9861 26.8495 56.3012 26.9026 56.6101L27.2264 58.4983L25.5309 57.6068C25.3921 57.5339 25.2399 57.4975 25.0878 57.4975C24.9357 57.4975 24.7835 57.5339 24.6447 57.6068L22.9491 58.4983L23.273 56.6101C23.3259 56.3012 23.2236 55.9861 22.9992 55.7672L21.6274 54.4302L23.5232 54.1547C23.8334 54.1097 24.1014 53.9149 24.2401 53.6338L25.0879 51.916L25.9357 53.6338C26.0745 53.9149 26.3425 54.1096 26.6526 54.1547L28.5484 54.4302L27.1764 55.7672Z" fill="#F6821F"/>
<path d="M33.4997 53.4713C33.3878 53.816 33.4812 54.1943 33.7407 54.4473L36.1355 56.7816L35.5702 60.0779C35.509 60.4351 35.6558 60.7961 35.949 61.0091C36.2422 61.2222 36.6308 61.2504 36.9517 61.0816L39.9119 59.5253L42.872 61.0816C43.0114 61.1549 43.1634 61.1909 43.315 61.1909C43.5124 61.1909 43.7089 61.1296 43.8747 61.009C44.168 60.796 44.3147 60.4351 44.2536 60.0778L43.6882 56.7815L46.0831 54.4472C46.3426 54.1942 46.436 53.8157 46.324 53.4712C46.2121 53.1265 45.9141 52.8753 45.5555 52.8232L42.2459 52.3422L40.7658 49.3433C40.6053 49.0183 40.2743 48.8125 39.9119 48.8125C39.5494 48.8125 39.2185 49.0183 39.058 49.3433L37.5778 52.3422L34.2683 52.8232C33.9097 52.8754 33.6117 53.1267 33.4997 53.4713ZM38.3472 54.1548C38.6573 54.1099 38.9253 53.915 39.0641 53.6339L39.9119 51.9161L40.7597 53.6339C40.8984 53.915 41.1664 54.1097 41.4766 54.1548L43.3724 54.4303L42.0006 55.7674C41.7762 55.9862 41.6737 56.3013 41.7268 56.6102L42.0507 58.4984L40.3551 57.6069C40.2163 57.5341 40.0641 57.4976 39.912 57.4976C39.7599 57.4976 39.6077 57.5341 39.4689 57.6069L37.7734 58.4984L38.0972 56.6102C38.1502 56.3013 38.0478 55.9862 37.8234 55.7674L36.4516 54.4303L38.3472 54.1548Z" fill="#F6821F"/>
<path d="M50.9558 56.7816L50.3905 60.0779C50.3293 60.4351 50.4761 60.7961 50.7694 61.0091C51.0625 61.2222 51.4512 61.2504 51.772 61.0816L54.7322 59.5253L57.6924 61.0816C57.8318 61.1549 57.9837 61.1909 58.1353 61.1909C58.3327 61.1909 58.5292 61.1296 58.695 61.009C58.9883 60.796 59.1351 60.4351 59.0739 60.0778L58.5085 56.7815L60.9034 54.4472C61.1629 54.1942 61.2563 53.8157 61.1443 53.4712C61.0324 53.1265 60.7344 52.8753 60.3758 52.8232L57.0662 52.3422L55.5861 49.3433C55.4256 49.0183 55.0946 48.8125 54.7322 48.8125C54.3697 48.8125 54.0388 49.0183 53.8783 49.3433L52.3982 52.3422L49.0886 52.8232C48.73 52.8753 48.432 53.1266 48.32 53.4712C48.2081 53.8158 48.3015 54.1942 48.561 54.4472L50.9558 56.7816ZM53.1675 54.1547C53.4776 54.1097 53.7456 53.9149 53.8844 53.6338L54.7322 51.916L55.58 53.6338C55.7188 53.9149 55.9867 54.1096 56.2969 54.1547L58.1927 54.4302L56.821 55.7672C56.5965 55.9861 56.4941 56.3012 56.5471 56.6101L56.871 58.4983L55.1754 57.6068C55.0366 57.5339 54.8844 57.4975 54.7323 57.4975C54.5802 57.4975 54.428 57.5339 54.2893 57.6068L52.5937 58.4983L52.9175 56.6101C52.9705 56.3012 52.8681 55.9861 52.6437 55.7672L51.272 54.4302L53.1675 54.1547Z" fill="#F6821F"/>
<path d="M13.4561 36.1836H17.2646C17.7905 36.1836 18.2168 35.7574 18.2168 35.2314C18.2168 34.7055 17.7905 34.2793 17.2646 34.2793H14.4608C14.9359 30.0007 18.5742 26.6621 22.9775 26.6621H42.0205C46.4239 26.6621 50.0621 30.0007 50.5373 34.2793H21.0732C20.5474 34.2793 20.1211 34.7055 20.1211 35.2314C20.1211 35.7574 20.5474 36.1836 21.0732 36.1836H51.542C52.0678 36.1836 52.4941 35.7574 52.4941 35.2314C52.4941 29.4563 47.7957 24.7578 42.0205 24.7578H22.9775C17.2023 24.7578 12.5039 29.4563 12.5039 35.2314C12.5039 35.7574 12.9302 36.1836 13.4561 36.1836Z" fill="#F6821F"/>
<path d="M32.5 22.8516C38.8002 22.8516 43.9258 17.726 43.9258 11.4258C43.9258 5.12561 38.8002 0 32.5 0C26.1998 0 21.0742 5.12561 21.0742 11.4258C21.0742 17.726 26.1998 22.8516 32.5 22.8516ZM32.5 1.9043C37.7501 1.9043 42.0215 6.17563 42.0215 11.4258C42.0215 16.6759 37.7501 20.9473 32.5 20.9473C27.2499 20.9473 22.9785 16.6759 22.9785 11.4258C22.9785 6.17563 27.2499 1.9043 32.5 1.9043Z" fill="#F6821F"/>
</svg>
