<svg width="65" height="65" viewBox="0 0 65 65" fill="none" xmlns="http://www.w3.org/2000/svg">
<g clip-path="url(#clip0)">
<path d="M20.1654 51.602C21.4143 51.6777 22.5441 52.221 23.3754 53.0559C24.2787 53.9556 24.8365 55.2007 24.8365 56.5754V58.5116C26.3984 56.5071 27.3267 53.9844 27.3267 51.2458C27.3267 47.9744 25.9989 45.0092 23.854 42.8643C21.7092 40.7195 18.7475 39.3952 15.4727 39.3952C12.2015 39.3952 9.23983 40.7196 7.09509 42.8643C4.95021 45.0092 3.62241 47.9744 3.62241 51.2458C3.62241 53.9809 4.55082 56.5 6.10904 58.5079V56.5754C6.10904 55.2043 6.67056 53.9591 7.57027 53.0559C8.40512 52.221 9.53513 51.6775 10.7837 51.602C10.5607 51.0334 10.4383 50.418 10.4383 49.7739V46.7149V45.3978C10.4383 44.5053 10.8017 43.6956 11.3883 43.1091C11.9748 42.5226 12.7846 42.1591 13.677 42.1591H19.5572C20.0861 42.1591 20.5109 42.5838 20.5109 43.1128V46.7151V49.774C20.511 50.418 20.3886 51.0334 20.1654 51.602ZM12.3419 45.7648H18.6072V44.0626H13.6771C13.31 44.0626 12.979 44.2137 12.7342 44.4549C12.4931 44.6997 12.3419 45.0307 12.3419 45.3978V45.7648ZM18.6072 47.6685H12.3419V49.7738C12.3419 51.494 13.7526 52.9047 15.4727 52.9047C17.1965 52.9047 18.6071 51.494 18.6071 49.7738V47.6685H18.6072ZM52.6544 11.2604C51.5461 11.3827 49.8977 11.2963 48.4907 10.1196C47.9868 10.393 47.26 10.6666 46.389 10.6415V12.2859C46.389 13.146 46.7417 13.927 47.3103 14.4955C47.8789 15.0641 48.6598 15.4168 49.5236 15.4168C50.3836 15.4168 51.1646 15.0641 51.7331 14.4955C52.3017 13.9269 52.6544 13.146 52.6544 12.2859V11.2604ZM46.389 8.74123C46.9541 8.77728 47.5586 8.55778 47.9796 8.1834C48.3754 7.84151 48.9764 7.88468 49.3183 8.28064C50.3799 9.49698 51.8302 9.48619 52.6542 9.35302V7.90639C52.6542 7.54292 52.5032 7.20827 52.262 6.96719C52.0209 6.72242 51.6862 6.5749 51.3191 6.5749H47.724C47.3569 6.5749 47.0259 6.72242 46.7811 6.96719C46.5402 7.20827 46.3889 7.54292 46.3889 7.90639V8.74123H46.389ZM12.0901 53.4949H11.0932C10.2476 53.4949 9.47736 53.844 8.91953 54.4018C8.35814 54.9597 8.01283 55.7298 8.01283 56.5754V60.455C8.83688 61.1207 9.75095 61.6821 10.737 62.1103V58.3388C10.737 57.8098 11.1616 57.3851 11.687 57.3851C12.2124 57.3851 12.6407 57.8098 12.6407 58.3388V62.7545C13.5476 62.9776 14.4976 63.0963 15.4729 63.0963C16.4518 63.0963 17.4017 62.9775 18.3087 62.7545V58.3388C18.3087 57.8098 18.7369 57.3851 19.2624 57.3851C19.7879 57.3851 20.2123 57.8098 20.2123 58.3388V62.1103C21.1984 61.6821 22.1161 61.1207 22.9401 60.4514V56.5755C22.9401 55.7334 22.591 54.9633 22.0296 54.402C21.4719 53.8441 20.7017 53.495 19.856 53.495H18.8592C17.9668 54.3119 16.7756 54.8121 15.4729 54.8121C14.1737 54.812 12.9825 54.3118 12.0901 53.4949ZM54.558 12.2859C54.558 12.9266 54.4357 13.5455 54.2125 14.1105C55.4613 14.1897 56.5912 14.7295 57.4262 15.5643C58.3259 16.4677 58.8836 17.7129 58.8836 19.0875V21.0237C60.4455 19.0157 61.3739 16.493 61.3739 13.7542C61.3739 10.4829 60.046 7.52121 57.9012 5.37634C55.7563 3.23146 52.7947 1.90354 49.5236 1.90354C46.2487 1.90354 43.287 3.23146 41.1421 5.37634C38.9973 7.52121 37.6695 10.483 37.6695 13.7542C37.6695 16.4929 38.598 19.012 40.1562 21.0165V19.0875C40.1562 17.7129 40.7176 16.4677 41.6209 15.5643C42.4522 14.7295 43.5822 14.1897 44.8309 14.1105C44.6077 13.5455 44.4853 12.9266 44.4853 12.2859V7.90639C44.4853 7.01759 44.8488 6.20775 45.4353 5.62123C46.022 5.03458 46.8317 4.67111 47.724 4.67111H51.3191C52.2116 4.67111 53.0213 5.03458 53.6078 5.62123C54.1943 6.20775 54.5578 7.01759 54.5578 7.90639V12.2859H54.558ZM52.9062 16.007C52.0138 16.8204 50.8226 17.3207 49.5235 17.3207C48.2207 17.3207 47.0331 16.8205 46.137 16.007H45.1401C44.2945 16.007 43.5243 16.3527 42.9666 16.9104C42.4052 17.4718 42.0596 18.2419 42.0596 19.0875V22.9633C42.8837 23.6326 43.7977 24.1904 44.7838 24.6222V20.8472C44.7838 20.3219 45.2086 19.8936 45.7339 19.8936C46.2592 19.8936 46.6876 20.3219 46.6876 20.8472V25.2665C47.5944 25.4896 48.5444 25.6083 49.5233 25.6083C50.4986 25.6083 51.4486 25.4895 52.3555 25.2665V20.8472C52.3555 20.3219 52.7837 19.8936 53.3092 19.8936C53.8347 19.8936 54.2592 20.3219 54.2592 20.8472V24.6222C55.2488 24.1904 56.1628 23.629 56.9869 22.9596V19.0874C56.9869 18.2418 56.6378 17.4715 56.0764 16.9103C55.5186 16.3525 54.7486 16.0069 53.9028 16.0069H52.9062V16.007ZM26.6827 43.2674C27.5032 43.1091 28.3776 42.9795 29.2774 42.8788C30.0296 42.7996 30.7924 42.7421 31.5445 42.7169V33.4538H22.0259C22.0475 34.4075 22.0978 35.3467 22.177 36.2644C22.2742 37.38 22.411 38.4489 22.5801 39.4674C23.5374 40.0432 24.4154 40.7341 25.2 41.5186C25.7399 42.0582 26.2366 42.6447 26.6827 43.2674ZM33.4518 42.7131C36.2803 42.7995 38.9507 43.2745 41.3329 44.0518C42.2974 40.957 42.8875 37.3365 42.9704 33.4535H33.4518V42.7131ZM43.1142 44.714C44.9855 45.4986 46.6265 46.4845 47.9652 47.6255C49.3004 46.2615 50.4554 44.7177 51.3947 43.0408C51.6504 42.5836 52.2262 42.4182 52.6867 42.6736C53.1439 42.9254 53.3093 43.5049 53.0539 43.962C51.0063 47.629 48.0121 50.6844 44.3956 52.8077C40.9012 54.8589 36.8346 56.0357 32.4983 56.0357C31.6886 56.0357 30.8718 55.9925 30.0548 55.9098C29.5294 55.8523 29.0076 55.7838 28.4929 55.694C27.8091 57.7018 26.672 59.5051 25.2003 60.9733C22.7134 63.4597 19.2729 65 15.4729 65C11.8058 65 8.32945 63.5532 5.74926 60.973C3.25907 58.4826 1.71875 55.0423 1.71875 51.2456C1.71875 47.4453 3.25907 44.0087 5.74926 41.5184C6.90796 40.3561 8.27918 39.4023 9.79411 38.715C9.55658 37.8513 9.36945 36.9695 9.23272 36.0698C9.05639 34.9039 8.96282 33.7128 8.96282 32.5C8.96282 31.1505 9.07797 29.819 9.30115 28.5198C9.52776 27.1954 9.86254 25.9071 10.3015 24.6656C10.4779 24.169 11.0212 23.9098 11.5143 24.0863C12.0108 24.259 12.27 24.8025 12.0936 25.2991C11.6942 26.4362 11.3812 27.6203 11.1759 28.8403C11.0248 29.7219 10.9277 30.6252 10.8879 31.5501H20.1221C20.2048 27.4332 20.8383 23.5862 21.8818 20.2861C20.0105 19.5015 18.3695 18.5156 17.0308 17.3785C15.8037 18.6308 14.7276 20.0342 13.8352 21.5565C13.5688 22.0063 12.9895 22.1574 12.536 21.8947C12.0827 21.6284 11.9315 21.0455 12.1978 20.5957C14.278 17.0545 17.2576 14.1035 20.8202 12.0631C24.2645 10.0907 28.2481 8.96441 32.4982 8.96441C33.3079 8.96441 34.1247 9.00758 34.9416 9.09403C35.4671 9.14799 35.9889 9.21997 36.5035 9.3063C37.1873 7.29841 38.328 5.49897 39.7962 4.03051C42.2829 1.54032 45.7232 0 49.5235 0C53.32 0 56.7604 1.54032 59.2471 4.03051C61.7374 6.51739 63.2776 9.9577 63.2776 13.7544C63.2776 17.5547 61.7374 20.995 59.2471 23.4816C58.0882 24.6439 56.7171 25.5976 55.2022 26.2886C55.4397 27.1524 55.6269 28.034 55.7636 28.9302C55.9399 30.0961 56.0335 31.2872 56.0335 32.5C56.0335 33.7559 55.9327 35.0011 55.7348 36.2282C55.5367 37.4769 55.2417 38.6862 54.8602 39.8487C54.6983 40.3489 54.1621 40.6225 53.6619 40.4603C53.1617 40.2985 52.8918 39.7622 53.0538 39.262C53.4063 38.1789 53.6799 37.0668 53.8635 35.9295C53.9894 35.1272 54.0721 34.2994 54.1082 33.4537H44.8741C44.7912 37.567 44.1579 41.414 43.1142 44.714ZM46.569 48.9318C45.4353 47.9996 44.0571 47.1791 42.4881 46.5133C42.1607 47.3554 41.8079 48.1508 41.4301 48.8993C40.5305 50.6771 39.4797 52.1814 38.3172 53.3438C40.131 52.8364 41.8475 52.1023 43.4345 51.1702C44.5465 50.5188 45.5973 49.7666 46.569 48.9318ZM40.7067 45.8476C38.5223 45.1387 36.0644 44.7032 33.4517 44.6169V54.0384C35.852 53.5742 38.0508 51.3682 39.735 48.0427C40.0841 47.3554 40.4081 46.6213 40.7067 45.8476ZM31.5445 44.6205C30.8499 44.6456 30.1554 44.6961 29.4751 44.768C28.8886 44.8329 28.3057 44.9155 27.737 45.0091C28.6907 46.8804 29.2305 49.0002 29.2305 51.2456C29.2305 51.8215 29.1945 52.3901 29.1262 52.9478C29.6049 53.2897 30.0942 53.5669 30.598 53.7648C30.9111 53.8872 31.2243 53.9807 31.5445 54.0419V44.6205ZM18.4273 16.0682C19.561 17.004 20.9429 17.8209 22.5119 18.4902C22.8358 17.648 23.1884 16.8491 23.5664 16.1041C24.466 14.3264 25.5132 12.8221 26.6793 11.6598C24.9411 12.1455 23.2965 12.8402 21.7671 13.7145C20.5757 14.3948 19.4602 15.183 18.4273 16.0682ZM24.2896 19.1524C26.474 19.8649 28.9319 20.2968 31.5445 20.3831V10.9618C29.1442 11.4259 26.9454 13.6318 25.2612 16.9608C24.9122 17.6446 24.5882 18.3787 24.2896 19.1524ZM33.4518 20.3832C34.1788 20.3616 34.8878 20.3112 35.5751 20.2357C36.1508 20.1745 36.7122 20.0954 37.2628 20.0017C36.3056 18.1267 35.7658 16.0035 35.7658 13.7544C35.7658 13.1785 35.8019 12.6136 35.8702 12.0557C35.3952 11.7102 34.9021 11.4367 34.3983 11.2388C34.0852 11.1164 33.772 11.0228 33.4518 10.9616V20.3832ZM38.3172 21.7363C37.4894 21.9018 36.6438 22.0313 35.7765 22.125C35.01 22.2078 34.2327 22.2653 33.4517 22.2869V31.55H42.9703C42.9487 30.5928 42.8983 29.6535 42.8192 28.7358C42.7219 27.6203 42.5852 26.5514 42.4161 25.5365C41.4624 24.9608 40.5807 24.2698 39.7962 23.4816C39.2564 22.9418 38.7599 22.3587 38.3172 21.7363ZM31.5445 22.2869C28.716 22.2005 26.0458 21.7255 23.6634 20.9482C22.6989 24.0466 22.1088 27.6633 22.026 31.55H31.5446V22.2869H31.5445ZM44.4924 26.562C44.5824 27.2279 44.658 27.8973 44.7156 28.5738C44.7983 29.5454 44.8523 30.5387 44.8739 31.5499H54.1081C54.0757 30.7582 54.0001 29.9772 53.8814 29.2142C53.7662 28.4442 53.6079 27.692 53.4134 26.9542C52.1791 27.3178 50.8728 27.5121 49.5233 27.5121C47.7456 27.5123 46.0508 27.1739 44.4924 26.562ZM20.5037 38.4379C20.4137 37.772 20.3381 37.1026 20.2806 36.4297C20.1978 35.4545 20.1438 34.4613 20.1223 33.4537H10.8881C10.9206 34.2453 10.9997 35.0227 11.1148 35.7892C11.23 36.5558 11.3883 37.3115 11.5826 38.0494C12.817 37.6859 14.1233 37.4914 15.4729 37.4914C17.2506 37.4913 18.9455 37.8261 20.5037 38.4379Z" fill="#F6821F"/>
</g>
<defs>
<clipPath id="clip0">
<rect width="65" height="65" fill="white"/>
</clipPath>
</defs>
</svg>
