<svg width="65" height="65" viewBox="0 0 65 65" fill="none" xmlns="http://www.w3.org/2000/svg">
<g clip-path="url(#clip0)">
<path d="M60.7815 2.08481H56.6104C56.0834 2.08481 55.6564 2.51179 55.6564 3.03875C55.6564 3.5657 56.0834 3.99269 56.6104 3.99269H60.7815C61.0244 3.99269 61.2222 4.19034 61.2222 4.43328V30.0447C61.2222 30.2876 61.0244 30.4853 60.7815 30.4853H21.7489V28.5775H47.5116C48.0385 28.5775 48.4655 28.1505 48.4655 27.6236C48.4655 27.0966 48.0385 26.6696 47.5116 26.6696H21.7489V22.623C21.7489 20.0656 19.6682 17.9847 17.1105 17.9847C14.553 17.9847 12.4722 20.0654 12.4722 22.623V26.6696H10.2653C9.92248 25.3686 8.89579 24.3419 7.59474 23.9991V17.2212C7.59474 16.6942 7.16775 16.2672 6.6408 16.2672C6.11384 16.2672 5.68686 16.6942 5.68686 17.2212V24.8301C5.68686 25.357 6.11384 25.784 6.6408 25.784C7.65515 25.784 8.48038 26.6092 8.48038 27.6236C8.48038 28.1505 8.90736 28.5775 9.43432 28.5775H12.4723V30.4853H4.21957C3.97663 30.4853 3.77898 30.2876 3.77898 30.0447V4.43315C3.77898 4.19022 3.97663 3.99256 4.21957 3.99256H17.3988V5.90044H9.43432C8.90736 5.90044 8.48038 6.32743 8.48038 6.85438C8.48038 7.86874 7.65515 8.69396 6.6408 8.69396C6.11384 8.69396 5.68686 9.12095 5.68686 9.6479V13.1556C5.68686 13.6826 6.11384 14.1095 6.6408 14.1095C7.16775 14.1095 7.59474 13.6826 7.59474 13.1556V10.479C8.89579 10.1362 9.92248 9.1095 10.2653 7.80845H17.3988V8.17616C17.3988 10.4647 19.2608 12.3267 21.5495 12.3267C22.6112 12.3267 23.5805 11.9257 24.3153 11.2676C25.025 12.5408 26.3847 13.4043 27.9429 13.4043C29.501 13.4043 30.8608 12.5408 31.5704 11.2676C32.3052 11.9255 33.2746 12.3267 34.3362 12.3267C35.962 12.3267 37.3717 11.3866 38.0524 10.022C38.7758 10.6342 39.71 11.0044 40.7296 11.0044C42.6896 11.0044 44.3356 9.63836 44.768 7.80858H54.7361C55.0789 9.10963 56.1055 10.1363 57.4066 10.4791V23.9992C56.1055 24.342 55.0789 25.3687 54.7361 26.6698H51.577C51.05 26.6698 50.6231 27.0968 50.6231 27.6237C50.6231 28.1507 51.05 28.5777 51.577 28.5777H55.567C56.094 28.5777 56.521 28.1507 56.521 27.6237C56.521 26.6094 57.3462 25.7841 58.3605 25.7841C58.8875 25.7841 59.3145 25.3571 59.3145 24.8302V9.64803C59.3145 9.12107 58.8875 8.69409 58.3605 8.69409C57.3462 8.69409 56.521 7.86887 56.521 6.85451C56.521 6.32755 56.094 5.90057 55.567 5.90057H44.8802V3.99269H52.5452C53.0721 3.99269 53.4991 3.5657 53.4991 3.03875C53.4991 2.51179 53.0721 2.08481 52.5452 2.08481H44.7028C44.2744 0.871775 43.1172 0 41.7594 0H39.6993C38.8583 0 38.0945 0.335024 37.5328 0.87788C36.9712 0.335024 36.2072 0 35.3662 0H33.3061C32.4651 0 31.7012 0.335024 31.1395 0.87788C30.5777 0.335024 29.8139 0 28.9728 0H26.9128C26.0718 0 25.3079 0.335024 24.7462 0.87788C24.1844 0.335024 23.4206 0 22.5796 0H20.5195C19.1618 0 18.0045 0.871775 17.5764 2.08481H4.21957C2.92463 2.08481 1.87109 3.13834 1.87109 4.43328V30.0447C1.87109 31.3396 2.92463 32.3932 4.21957 32.3932H12.4723V39.4687C12.4723 41.5038 13.2647 43.417 14.7036 44.8559L18.7884 48.9406V64.0461C18.7884 64.573 19.2154 65 19.7423 65C20.2693 65 20.6963 64.573 20.6963 64.0461V48.5455C20.6963 48.2926 20.5958 48.05 20.417 47.8709L16.0528 43.5067C14.9742 42.4282 14.3802 40.994 14.3802 39.4686V22.6229C14.3802 21.1173 15.605 19.8925 17.1106 19.8925C18.6162 19.8925 19.8412 21.1173 19.8412 22.6229V31.4392C19.8412 31.9662 20.2682 32.3932 20.7951 32.3932C25.0837 32.3932 28.5725 35.8822 28.5725 40.1706V40.7817C28.5725 41.3087 28.9995 41.7357 29.5265 41.7357C30.0534 41.7357 30.4804 41.3087 30.4804 40.7817V40.1706C30.4804 36.9873 28.9357 34.1595 26.5577 32.393H46.5576V32.8859C46.5576 34.5796 46.036 36.2027 45.0494 37.5793L42.3036 41.4103C42.1874 41.5722 42.125 41.7667 42.125 41.966V64.0459C42.125 64.5729 42.552 64.9999 43.0789 64.9999C43.6059 64.9999 44.0329 64.5729 44.0329 64.0459V42.2728L46.6001 38.6909C47.8206 36.9882 48.4656 34.981 48.4656 32.886V32.3932H60.7816C62.0767 32.3932 63.1302 31.3396 63.1302 30.0447V4.43315C63.1301 3.13834 62.0766 2.08481 60.7815 2.08481ZM39.6993 1.90788H41.7594C42.4281 1.90788 42.9721 2.45188 42.9721 3.12053V6.85362C42.9721 8.09031 41.966 9.0964 40.7293 9.0964C39.4926 9.0964 38.4866 8.09031 38.4866 6.85362V3.12053C38.4868 2.45188 39.0306 1.90788 39.6993 1.90788ZM33.3061 1.90788H35.3662C36.0349 1.90788 36.5789 2.45188 36.5789 3.12053V8.17604C36.5789 9.41272 35.5728 10.4187 34.3361 10.4187C33.0994 10.4187 32.0933 9.41272 32.0933 8.17604V3.12053C32.0933 2.45188 32.6375 1.90788 33.3061 1.90788ZM26.9128 1.90788H28.9728C29.6415 1.90788 30.1855 2.45188 30.1855 3.12053V9.25373C30.1855 10.4904 29.1795 11.4964 27.9428 11.4964H27.9427C26.706 11.4964 25.7 10.4904 25.7 9.25373V3.12053C25.7002 2.45188 26.2442 1.90788 26.9128 1.90788ZM19.3067 3.12053C19.3067 2.45188 19.8507 1.90788 20.5194 1.90788H22.5795C23.2481 1.90788 23.7921 2.45188 23.7921 3.12053V8.17604C23.7921 9.41272 22.7861 10.4187 21.5494 10.4187C20.3127 10.4187 19.3066 9.41272 19.3066 8.17604V3.12053H19.3067Z" fill="#F6821F"/>
<path d="M25.3031 14.5565C24.7837 14.4763 24.2954 14.8336 24.2153 15.3543C24.1503 15.7772 24.1172 16.2096 24.1172 16.6391C24.1172 21.2655 27.8811 25.0293 32.5074 25.0293C37.1338 25.0293 40.8977 21.2655 40.8977 16.6391C40.8977 15.8546 40.7871 15.073 40.5691 14.3155C40.4234 13.8091 39.8936 13.5164 39.3886 13.6627C38.8824 13.8084 38.59 14.3369 38.7358 14.8431C38.9043 15.4289 38.9898 16.033 38.9898 16.639C38.9898 20.2134 36.0819 23.1213 32.5074 23.1213C28.9329 23.1213 26.0251 20.2134 26.0251 16.639C26.0251 16.3062 26.0505 15.9716 26.101 15.6442C26.1813 15.1236 25.824 14.6366 25.3031 14.5565Z" fill="#F6821F"/>
</g>
<defs>
<clipPath id="clip0">
<rect width="65" height="65" fill="white"/>
</clipPath>
</defs>
</svg>
