<svg width="65" height="65" viewBox="0 0 65 65" fill="none" xmlns="http://www.w3.org/2000/svg">
<g clip-path="url(#clip0)">
<path d="M41.3068 52.7306C51.162 52.7306 59.1798 44.7128 59.1798 34.8576C59.1798 25.0023 51.162 16.9844 41.3068 16.9844C31.4515 16.9844 23.4336 25.0022 23.4336 34.8576C23.4336 44.7129 31.4515 52.7306 41.3068 52.7306ZM27.9991 33.8999H25.378C25.597 30.2197 27.0686 26.8715 29.3717 24.2765L31.2198 26.1246C31.4067 26.3116 31.6518 26.4051 31.8968 26.4051C32.1418 26.4051 32.3869 26.3116 32.5738 26.1246C32.9477 25.7507 32.9477 25.1444 32.5738 24.7706L30.7258 22.9225C33.3208 20.6193 36.6689 19.1478 40.3492 18.9288V21.5499C40.3492 22.0787 40.7777 22.5074 41.3067 22.5074C41.8356 22.5074 42.2641 22.0787 42.2641 21.5499V18.9288C45.9444 19.1478 49.2925 20.6193 51.8874 22.9225L50.0394 24.7706C49.6654 25.1445 49.6654 25.7508 50.0394 26.1246C50.2264 26.3115 50.4715 26.4051 50.7165 26.4051C50.9615 26.4051 51.2066 26.3116 51.3936 26.1246L53.2416 24.2765C55.5446 26.8715 57.0163 30.2195 57.2351 33.8998H54.6141C54.0852 33.8998 53.6566 34.3285 53.6566 34.8573C53.6566 35.3861 54.0852 35.8148 54.6141 35.8148H57.2351C57.0162 39.4951 55.5446 42.8432 53.2414 45.4381L51.3935 43.5901C51.0194 43.2162 50.4133 43.2162 50.0394 43.5901C49.6654 43.9641 49.6654 44.5703 50.0394 44.9441L51.8874 46.7922C49.2924 49.0954 45.9444 50.567 42.2641 50.7859V48.1648C42.2641 47.6361 41.8356 47.2074 41.3067 47.2074C40.7777 47.2074 40.3492 47.6361 40.3492 48.1648V50.7859C36.6688 50.567 33.3208 49.0954 30.7258 46.7922L32.5738 44.9443C32.9477 44.5703 32.9477 43.9641 32.5738 43.5903C32.1998 43.2162 31.5936 43.2163 31.2198 43.5903L29.3717 45.4382C27.0686 42.8432 25.597 39.4952 25.378 35.8148H27.9991C28.5279 35.8148 28.9566 35.3861 28.9566 34.8573C28.9566 34.3286 28.5279 33.8999 27.9991 33.8999Z" fill="#F6821F"/>
<path d="M52.9156 53.2884C49.4452 55.4795 45.4307 56.6376 41.306 56.6376C29.2977 56.6376 19.5282 46.8681 19.5282 34.8598C19.5282 29.9982 21.0947 25.4 24.058 21.5622C24.3811 21.1437 24.3039 20.5424 23.8853 20.2192C23.4668 19.8961 22.8655 19.9733 22.5423 20.3919C19.3176 24.5679 17.6133 29.5708 17.6133 34.8598C17.6133 47.924 28.2418 58.5525 41.306 58.5525C45.7931 58.5525 50.1613 57.2921 53.938 54.9076C54.3852 54.6253 54.5187 54.034 54.2365 53.5868C53.9541 53.1397 53.3629 53.0063 52.9156 53.2884Z" fill="#F6821F"/>
<path d="M47.0834 11.8796V8.25012C47.0834 7.25919 46.2772 6.45312 45.2864 6.45312H37.3312C36.3402 6.45312 35.5342 7.25919 35.5342 8.25012V11.8786C31.7266 12.8325 28.194 14.725 25.2538 17.4355C24.865 17.794 24.8404 18.3996 25.1988 18.7885C25.5572 19.1772 26.163 19.202 26.5517 18.8435C30.5822 15.1279 35.8231 13.0816 41.3088 13.0816C53.3171 13.0816 63.0866 22.851 63.0866 34.8593C63.0866 41.0231 60.4571 46.925 55.8723 51.0513C55.4793 51.4051 55.4474 52.0104 55.8012 52.4035C55.9901 52.6137 56.2511 52.7204 56.513 52.7204C56.7413 52.7204 56.9703 52.6393 57.1534 52.4746C62.141 47.9856 65.0015 41.565 65.0015 34.8592C65.0016 23.7864 57.3657 14.4645 47.0834 11.8796ZM37.4492 11.4808V8.36808H45.1686V11.4827C43.9121 11.2759 42.6231 11.1666 41.309 11.1666C40.006 11.1666 38.7158 11.2728 37.4492 11.4808Z" fill="#F6821F"/>
<path d="M41.3053 35.531C41.6645 35.531 41.977 35.333 42.1408 35.0404L45.4437 31.7375C45.8177 31.3636 45.8177 30.7573 45.4437 30.3834C45.0698 30.0094 44.4637 30.0094 44.0895 30.3834L42.2626 32.2101V27.5473C42.2626 27.0185 41.834 26.5898 41.3051 26.5898C40.7762 26.5898 40.3477 27.0185 40.3477 27.5473V34.5733C40.3478 35.1023 40.7763 35.531 41.3053 35.531Z" fill="#F6821F"/>
<path d="M14.1292 35.0747C14.1292 34.5459 13.7005 34.1172 13.1717 34.1172H0.957478C0.428695 34.1172 0 34.5459 0 35.0747C0 35.6034 0.428695 36.0321 0.957478 36.0321H13.1717C13.7005 36.0321 14.1292 35.6036 14.1292 35.0747Z" fill="#F6821F"/>
<path d="M4.77779 30.454H14.4499C14.9786 30.454 15.4073 30.0253 15.4073 29.4965C15.4073 28.9678 14.9786 28.5391 14.4499 28.5391H4.77779C4.24901 28.5391 3.82031 28.9678 3.82031 29.4965C3.82031 30.0253 4.24888 30.454 4.77779 30.454Z" fill="#F6821F"/>
<path d="M15.7256 22.9648H7.79342C7.26463 22.9648 6.83594 23.3935 6.83594 23.9223C6.83594 24.4511 7.26463 24.8798 7.79342 24.8798H15.7256C16.2543 24.8798 16.683 24.4511 16.683 23.9223C16.683 23.3934 16.2543 22.9648 15.7256 22.9648Z" fill="#F6821F"/>
<path d="M15.4072 40.2192C15.4072 39.6904 14.9785 39.2617 14.4497 39.2617H4.77779C4.24901 39.2617 3.82031 39.6904 3.82031 40.2192C3.82031 40.748 4.24901 41.1767 4.77779 41.1767H14.4499C14.9785 41.1767 15.4072 40.748 15.4072 40.2192Z" fill="#F6821F"/>
<path d="M15.7256 44.8398H7.79342C7.26463 44.8398 6.83594 45.2685 6.83594 45.7973C6.83594 46.3261 7.26463 46.7548 7.79342 46.7548H15.7256C16.2543 46.7548 16.683 46.3261 16.683 45.7973C16.683 45.2685 16.2543 44.8398 15.7256 44.8398Z" fill="#F6821F"/>
</g>
<defs>
<clipPath id="clip0">
<rect width="65" height="65" fill="white"/>
</clipPath>
</defs>
</svg>
