<svg width="65" height="65" viewBox="0 0 65 65" fill="none" xmlns="http://www.w3.org/2000/svg">
<path d="M13.2004 61.9518C13.2004 62.5126 13.6546 62.9674 14.216 62.9674H39.6066C40.168 62.9674 40.6222 62.5126 40.6222 61.9518V57.8893H52.8097C53.3711 57.8893 53.8254 57.4345 53.8254 56.8736V44.6861H59.9191C60.2256 44.6861 60.5162 44.5478 60.7086 44.3092C60.902 44.0707 60.9764 43.7578 60.9119 43.4578L57.8879 29.3432C57.8571 21.5926 54.5296 14.1881 48.7482 9.01331C42.8598 3.74227 35.2515 1.32471 27.3309 2.20445C14.6117 3.6173 4.45647 13.8931 3.18496 26.638C2.52143 33.2846 4.26406 39.9135 8.09348 45.3031C11.4349 50.0053 13.2004 55.7623 13.2004 61.9518ZM5.20629 26.8398C6.38359 15.0426 15.7821 5.53102 27.555 4.22281C34.8994 3.41051 41.9414 5.64657 47.3934 10.5268C52.7721 15.3411 55.8566 22.2387 55.8566 29.4518C55.8566 29.5232 55.8646 29.5946 55.8794 29.6645L58.6625 42.6549H52.8097C52.2484 42.6549 51.7941 43.1096 51.7941 43.6705V55.858H39.6066H35.5441V57.8893H38.591V60.9361H15.2167C15.0323 54.708 13.1518 48.9153 9.74982 44.1268C6.20505 39.1374 4.59136 32.998 5.20629 26.8398Z" fill="#F6821F"/>
<path d="M36.3869 31.2064L35.6322 29.4028C35.7948 29.0686 35.9387 28.7209 36.0616 28.3629L37.8737 27.6195C38.2119 27.4806 38.449 27.1702 38.4956 26.8077C38.563 26.2781 38.5938 25.8288 38.5938 25.3929C38.5938 24.957 38.563 24.5077 38.4956 23.978C38.4489 23.6155 38.2119 23.3051 37.8737 23.1662L36.0616 22.4229C35.9387 22.0653 35.7958 21.7177 35.6332 21.3829L36.3869 19.5793C36.5278 19.2416 36.4762 18.8548 36.2521 18.5657C35.6718 17.8158 34.9984 17.1419 34.2496 16.5622C33.96 16.337 33.5712 16.2874 33.2359 16.4278L31.4318 17.1821C31.0966 17.0194 30.7494 16.8761 30.3924 16.7536L29.6485 14.9415C29.5097 14.6028 29.2002 14.3653 28.8372 14.3192C27.7779 14.1853 27.0658 14.1853 26.0065 14.3192C25.6435 14.3653 25.3341 14.6028 25.1952 14.9415L24.4514 16.7536C24.0943 16.8761 23.7472 17.0194 23.4119 17.1821L21.6078 16.4278C21.2716 16.2874 20.8828 16.337 20.5942 16.5622C19.8453 17.1424 19.1719 17.8158 18.5917 18.5647C18.3675 18.8538 18.316 19.2411 18.4568 19.5788L19.2116 21.3824C19.0489 21.7172 18.9051 22.0648 18.7821 22.4228L16.97 23.1662C16.6318 23.3051 16.3948 23.6155 16.3482 23.978C16.2807 24.5077 16.25 24.957 16.25 25.3929C16.25 25.8288 16.2807 26.2781 16.3482 26.8077C16.3948 27.1702 16.6319 27.4807 16.9701 27.6195L18.7821 28.3629C18.9051 28.7204 19.0479 29.0681 19.2106 29.4028L18.4568 31.2064C18.316 31.5441 18.3675 31.931 18.5917 32.2201C19.1719 32.9699 19.8454 33.6438 20.5942 34.2236C20.8828 34.4482 21.2716 34.4978 21.6078 34.3579L23.4119 33.6037C23.7472 33.7663 24.0943 33.9096 24.4514 34.0321L25.1952 35.8442C25.3341 36.1829 25.6435 36.4204 26.0065 36.4666C26.5362 36.5335 26.9855 36.5647 27.4219 36.5647C27.8583 36.5647 28.3076 36.5335 28.8372 36.4665C29.2002 36.4204 29.5097 36.1829 29.6485 35.8442L30.3924 34.0321C30.7504 33.9096 31.0976 33.7663 31.4318 33.6036L33.2359 34.3579C33.5712 34.4978 33.96 34.4482 34.2496 34.2235C34.9984 33.6438 35.6718 32.9699 36.2521 32.2201C36.4762 31.9309 36.5278 31.5436 36.3869 31.2064ZM34.8486 26.6644C34.56 26.7829 34.3418 27.0274 34.2575 27.3274C34.1028 27.8709 33.8905 28.3862 33.6257 28.8578C33.473 29.1305 33.4541 29.4588 33.5741 29.747L34.2764 31.4246C34.0195 31.7162 33.7447 31.991 33.4541 32.2473L31.776 31.5456C31.4874 31.4256 31.1601 31.444 30.8873 31.5972C30.4152 31.862 29.9004 32.0743 29.3569 32.2285C29.0564 32.3133 28.8124 32.5315 28.6944 32.8201L28.0001 34.5112C27.5935 34.5409 27.2503 34.5409 26.8437 34.5112L26.1494 32.8201C26.0314 32.5315 25.7874 32.3133 25.4869 32.2285C24.9453 32.0748 24.4306 31.862 23.9555 31.5967C23.6817 31.445 23.3564 31.4256 23.0678 31.5456L21.3897 32.2473C21.0991 31.991 20.8243 31.7157 20.5674 31.4246L21.2687 29.747C21.3887 29.4588 21.3698 29.1315 21.2181 28.8593C20.9523 28.3857 20.74 27.8704 20.5863 27.3274C20.502 27.0274 20.2838 26.7829 19.9952 26.6644L18.3041 25.9706C18.2882 25.7673 18.2812 25.5773 18.2812 25.3929C18.2812 25.2084 18.2882 25.0185 18.3041 24.8151L19.9951 24.1213C20.2837 24.0028 20.5019 23.7583 20.5862 23.4583C20.741 22.9148 20.9532 22.3995 21.218 21.9279C21.3708 21.6552 21.3896 21.3274 21.2696 21.0388L20.5674 19.3606C20.8243 19.0695 21.099 18.7948 21.3896 18.5384L23.0678 19.2401C23.3564 19.3601 23.6817 19.3408 23.9554 19.189C24.4305 18.9237 24.9453 18.711 25.4868 18.5572C25.7873 18.4724 26.0313 18.2542 26.1493 17.9656L26.8436 16.2746C27.2503 16.2448 27.5934 16.2448 28.0001 16.2746L28.6944 17.9656C28.8124 18.2542 29.0564 18.4724 29.3569 18.5572C29.8984 18.711 30.4132 18.9237 30.8883 19.189C31.16 19.3408 31.4873 19.3601 31.7759 19.2401L33.4541 18.5384C33.7447 18.7948 34.0194 19.07 34.2763 19.3611L33.5751 21.0388C33.4551 21.3269 33.4739 21.6542 33.6257 21.9264C33.8915 22.4 34.1037 22.9153 34.2575 23.4583C34.3418 23.7583 34.56 24.0028 34.8486 24.1213L36.5396 24.8151C36.5556 25.0185 36.5625 25.2084 36.5625 25.3929C36.5625 25.5773 36.5556 25.7673 36.5397 25.9706L34.8486 26.6644Z" fill="#F6821F"/>
<path d="M27.4219 20.3125C24.622 20.3125 22.3438 22.5907 22.3438 25.3906C22.3438 28.1905 24.622 30.4688 27.4219 30.4688C30.2218 30.4688 32.5 28.1905 32.5 25.3906C32.5 22.5907 30.2218 20.3125 27.4219 20.3125ZM27.4219 28.4375C25.7417 28.4375 24.375 27.0708 24.375 25.3906C24.375 23.7105 25.7417 22.3438 27.4219 22.3438C29.102 22.3438 30.4688 23.7105 30.4688 25.3906C30.4688 27.0708 29.102 28.4375 27.4219 28.4375Z" fill="#F6821F"/>
<path d="M35.8516 36.8456L37.0576 38.4801C38.22 37.6232 39.2644 36.6145 40.163 35.4813L38.5721 34.2188C37.7846 35.2116 36.8692 36.0953 35.8516 36.8456Z" fill="#F6821F"/>
<path d="M12.9502 32.7865L14.7573 31.8601C14.3199 31.0051 13.9688 30.1046 13.7139 29.1822C13.3747 27.9543 13.2031 26.6783 13.2031 25.39C13.2031 17.5496 19.5815 11.1712 27.4219 11.1712H35.1263L33.8132 12.4844L35.2493 13.9205L38.2962 10.8737C38.6929 10.4769 38.6929 9.83422 38.2962 9.4375L35.2493 6.39062L33.8132 7.82678L35.1263 9.13995H27.4219C18.4618 9.13995 11.1719 16.4298 11.1719 25.39C11.1719 26.8608 11.3683 28.3188 11.7561 29.7227C12.0476 30.778 12.4493 31.8085 12.9502 32.7865Z" fill="#F6821F"/>
<path d="M43.0862 29.7241L41.1283 29.1836C40.7921 30.4025 40.2922 31.5714 39.6445 32.6584L41.3882 33.6989C42.13 32.4561 42.7013 31.1186 43.0862 29.7241Z" fill="#F6821F"/>
<path d="M15.7327 33.4844L14.0625 34.6418C14.8857 35.8285 15.8636 36.9022 16.9715 37.8335L18.2787 36.2783C17.3087 35.4631 16.4518 34.5233 15.7327 33.4844Z" fill="#F6821F"/>
<path d="M30.7305 39.2226L31.2006 41.1983C32.607 40.864 33.9628 40.3408 35.2333 39.6436L34.2554 37.8633C33.1456 38.4728 31.9593 38.93 30.7305 39.2226Z" fill="#F6821F"/>
<path d="M18.7148 39.1123C19.9368 39.8894 21.2569 40.4989 22.6385 40.9239L23.2356 38.9819C22.0275 38.6109 20.874 38.0778 19.8058 37.3984L18.7148 39.1123Z" fill="#F6821F"/>
<path d="M29.0644 41.5588L28.8601 39.5375C28.388 39.5851 27.9089 39.6094 27.4339 39.6094C26.6454 39.6466 25.8529 39.5454 25.0813 39.418L24.75 41.4215C25.6317 41.5672 26.573 41.6287 27.4349 41.6406C27.9764 41.6406 28.5239 41.6129 29.0644 41.5588Z" fill="#F6821F"/>
<path d="M23.3594 55.8594H25.3906V57.8906H23.3594V55.8594Z" fill="#F6821F"/>
<path d="M27.4219 55.8594H29.4531V57.8906H27.4219V55.8594Z" fill="#F6821F"/>
<path d="M31.4844 55.8594H33.5156V57.8906H31.4844V55.8594Z" fill="#F6821F"/>
</svg>
