<svg width="65" height="65" viewBox="0 0 65 65" fill="none" xmlns="http://www.w3.org/2000/svg">
<path d="M61.9531 41.6406H42.6562C42.4495 41.6408 42.2477 41.7041 42.0779 41.8221C41.908 41.9401 41.7783 42.1071 41.7059 42.3008L33.6898 34.2848C33.1253 33.7172 32.4538 33.2672 31.7142 32.9608C30.9746 32.6545 30.1816 32.4978 29.381 32.5H24.2734C24.3415 32.1657 24.3757 31.8255 24.3756 31.4844V27.0339L24.8046 26.8195C25.3887 26.5274 25.857 26.0467 26.1338 25.4552C26.4105 24.8637 26.4794 24.196 26.3292 23.5605C26.1791 22.9249 25.8188 22.3587 25.3067 21.9535C24.7945 21.5484 24.1606 21.328 23.5075 21.3281H19.2969C17.9505 21.3296 16.6598 21.8651 15.7078 22.8171C14.7558 23.7691 14.2203 25.0599 14.2188 26.4062V31.4844C14.2186 31.8255 14.2529 32.1657 14.3209 32.5H9.14062C7.25575 32.5021 5.44868 33.2518 4.11588 34.5846C2.78307 35.9174 2.03337 37.7245 2.03125 39.6094V62.9688H4.0625V49.1707L11.1211 56.2293C11.9679 57.0807 12.9751 57.7557 14.0845 58.2152C15.194 58.6747 16.3835 58.9096 17.5843 58.9062H25.3906V59.9219C25.3915 60.7297 25.7128 61.5041 26.284 62.0753C26.8552 62.6465 27.6297 62.9678 28.4375 62.9688H61.9531C62.2225 62.9688 62.4808 62.8617 62.6713 62.6713C62.8617 62.4808 62.9688 62.2225 62.9688 61.9531V42.6562C62.9688 42.3869 62.8617 42.1286 62.6713 41.9381C62.4808 41.7476 62.2225 41.6406 61.9531 41.6406ZM41.6406 52.3918L35.9676 46.7188L39.6094 43.077L41.6406 45.1082V52.3918ZM35.1441 48.7678C34.4549 48.8206 33.7825 49.006 33.1636 49.3137L31.4844 50.1536V45.1081L35.1441 48.7678ZM16.25 35.5441C16.8238 35.9755 17.4826 36.2802 18.1829 36.4382C18.8832 36.5961 19.6091 36.6037 20.3125 36.4603V36.5625C20.3125 37.1012 20.0985 37.6179 19.7176 37.9988C19.3366 38.3797 18.82 38.5938 18.2812 38.5938C17.7425 38.5938 17.2259 38.3797 16.8449 37.9988C16.464 37.6179 16.25 37.1012 16.25 36.5625V35.5441ZM16.25 31.4844V29.8737L18.7018 27.4219H22.3438V31.4844C22.3438 32.2925 22.0227 33.0674 21.4513 33.6388C20.8799 34.2102 20.105 34.5312 19.2969 34.5312C18.4888 34.5312 17.7138 34.2102 17.1424 33.6388C16.571 33.0674 16.25 32.2925 16.25 31.4844ZM19.2969 23.3594H23.5075C23.7029 23.3594 23.8926 23.4254 24.0458 23.5467C24.199 23.6679 24.3068 23.8374 24.3517 24.0275C24.3966 24.2177 24.3759 24.4174 24.2931 24.5944C24.2104 24.7714 24.0702 24.9152 23.8955 25.0027L23.1196 25.3906H18.2812C18.1479 25.3906 18.0158 25.4169 17.8926 25.4679C17.7694 25.519 17.6574 25.5938 17.5631 25.6881L16.25 27.0012V26.4062C16.2509 25.5984 16.5722 24.824 17.1434 24.2528C17.7146 23.6816 18.4891 23.3603 19.2969 23.3594ZM4.0625 39.6094C4.06401 38.263 4.59951 36.9723 5.55152 36.0203C6.50352 35.0683 7.79429 34.5328 9.14062 34.5312H14.2188V36.5625C14.2188 37.6399 14.6468 38.6733 15.4086 39.4351C16.1705 40.197 17.2038 40.625 18.2812 40.625C19.3587 40.625 20.392 40.197 21.1539 39.4351C21.9157 38.6733 22.3438 37.6399 22.3438 36.5625V35.5441C22.7272 35.2556 23.0681 34.9147 23.3566 34.5312H29.381C29.9147 34.5298 30.4434 34.6342 30.9365 34.8385C31.4296 35.0427 31.8772 35.3428 32.2536 35.7212L38.173 41.6406L34.5312 45.2824L31.1869 41.9381C31.0449 41.796 30.8639 41.6993 30.6669 41.6601C30.4699 41.6209 30.2657 41.641 30.0801 41.7179C29.8945 41.7948 29.7359 41.925 29.6243 42.092C29.5127 42.259 29.4531 42.4554 29.4531 42.6562V50.7812H19.7175L9.8588 40.9224L8.42245 42.3588L13.2902 47.2266L9.14062 51.3762L4.0625 46.298V39.6094ZM12.5572 54.793L10.577 52.8125L14.7266 48.6629L18.5787 52.5151C18.673 52.6094 18.785 52.6842 18.9082 52.7352C19.0314 52.7862 19.1635 52.8125 19.2969 52.8125H30.4688C30.6264 52.8125 30.782 52.7758 30.923 52.7052L34.0723 51.131C34.7395 50.7974 35.4998 50.699 36.23 50.8517C36.9601 51.0045 37.6173 51.3994 38.0948 51.9725L41.5303 56.0951C41.5881 56.1646 41.6249 56.2491 41.6364 56.3387C41.6479 56.4283 41.6337 56.5193 41.5953 56.6011C41.557 56.6829 41.4962 56.7521 41.42 56.8006C41.3437 56.8491 41.2553 56.8749 41.1649 56.875C41.0342 56.8747 40.9071 56.8324 40.8024 56.7541L37.1719 54.0312C36.9961 53.8994 36.7822 53.8281 36.5625 53.8281C36.3428 53.8281 36.1289 53.8994 35.9531 54.0312L32.1614 56.875H17.5843C16.6503 56.8776 15.7251 56.6949 14.8622 56.3376C13.9993 55.9802 13.2158 55.4552 12.5572 54.793ZM37.5781 56.875H35.5469L36.5625 56.1133L37.5781 56.875ZM27.4219 59.9219V58.9062H41.6406V60.9375H28.4375C28.1682 60.9372 27.9101 60.8301 27.7197 60.6397C27.5293 60.4493 27.4222 60.1911 27.4219 59.9219ZM60.9375 60.9375H43.6719V43.6719H60.9375V60.9375Z" fill="#F6821F"/>
<path d="M52.8125 55.8594C53.616 55.8594 54.4014 55.6211 55.0695 55.1747C55.7376 54.7283 56.2583 54.0939 56.5658 53.3515C56.8733 52.6092 56.9537 51.7924 56.797 51.0043C56.6402 50.2163 56.2533 49.4924 55.6851 48.9243C55.117 48.3561 54.3931 47.9692 53.6051 47.8124C52.817 47.6557 52.0002 47.7361 51.2579 48.0436C50.5155 48.3511 49.8811 48.8718 49.4347 49.5399C48.9883 50.208 48.75 50.9934 48.75 51.7969C48.7512 52.874 49.1796 53.9066 49.9412 54.6682C50.7028 55.4298 51.7354 55.8582 52.8125 55.8594ZM52.8125 49.7656C53.2143 49.7656 53.607 49.8848 53.941 50.108C54.275 50.3312 54.5354 50.6484 54.6891 51.0196C54.8429 51.3907 54.8831 51.7991 54.8047 52.1932C54.7264 52.5872 54.5329 52.9491 54.2488 53.2332C53.9647 53.5173 53.6028 53.7107 53.2088 53.7891C52.8148 53.8675 52.4063 53.8273 52.0352 53.6735C51.664 53.5198 51.3468 53.2594 51.1236 52.9254C50.9004 52.5914 50.7813 52.1986 50.7813 51.7969C50.7819 51.2584 50.9961 50.7421 51.3769 50.3613C51.7577 49.9805 52.274 49.7663 52.8125 49.7656Z" fill="#F6821F"/>
<path d="M59.9219 2.03125H31.4844C30.6766 2.03216 29.9021 2.35346 29.3309 2.92466C28.7597 3.49586 28.4384 4.27032 28.4375 5.07812V30.4688H30.4688V5.07812C30.4691 4.80886 30.5762 4.5507 30.7666 4.3603C30.957 4.1699 31.2151 4.0628 31.4844 4.0625H59.9219C60.1911 4.0628 60.4493 4.1699 60.6397 4.3603C60.8301 4.5507 60.9372 4.80886 60.9375 5.07812V31.4844C60.9372 31.7536 60.8301 32.0118 60.6397 32.2022C60.4493 32.3926 60.1911 32.4997 59.9219 32.5H51.7969C51.5275 32.5 51.2692 32.607 51.0787 32.7975C50.8883 32.9879 50.7812 33.2463 50.7812 33.5156V36.6203L45.2777 32.6892C45.1055 32.5662 44.8991 32.5 44.6875 32.5H35.5469V34.5312H44.3621L51.2067 39.4202C51.3585 39.5286 51.5373 39.5932 51.7234 39.6066C51.9095 39.6201 52.0957 39.5821 52.2616 39.4967C52.4275 39.4113 52.5667 39.2819 52.6639 39.1226C52.7611 38.9633 52.8125 38.7803 52.8125 38.5938V34.5312H59.9219C60.7297 34.5303 61.5041 34.209 62.0753 33.6378C62.6465 33.0666 62.9678 32.2922 62.9688 31.4844V5.07812C62.9678 4.27032 62.6465 3.49586 62.0753 2.92466C61.5041 2.35346 60.7297 2.03216 59.9219 2.03125Z" fill="#F6821F"/>
<path d="M32.5 7.10938C33.0609 7.10938 33.5156 6.65466 33.5156 6.09375C33.5156 5.53284 33.0609 5.07812 32.5 5.07812C31.9391 5.07812 31.4844 5.53284 31.4844 6.09375C31.4844 6.65466 31.9391 7.10938 32.5 7.10938Z" fill="#F6821F"/>
<path d="M35.5469 7.10938C36.1078 7.10938 36.5625 6.65466 36.5625 6.09375C36.5625 5.53284 36.1078 5.07812 35.5469 5.07812C34.986 5.07812 34.5312 5.53284 34.5312 6.09375C34.5312 6.65466 34.986 7.10938 35.5469 7.10938Z" fill="#F6821F"/>
<path d="M38.5938 7.10938C39.1547 7.10938 39.6094 6.65466 39.6094 6.09375C39.6094 5.53284 39.1547 5.07812 38.5938 5.07812C38.0328 5.07812 37.5781 5.53284 37.5781 6.09375C37.5781 6.65466 38.0328 7.10938 38.5938 7.10938Z" fill="#F6821F"/>
<path d="M33.5156 10.1562H35.5469V12.1875H33.5156V10.1562Z" fill="#F6821F"/>
<path d="M38.5938 10.1562H44.6875V12.1875H38.5938V10.1562Z" fill="#F6821F"/>
<path d="M46.7188 10.1562H48.75V12.1875H46.7188V10.1562Z" fill="#F6821F"/>
<path d="M33.5156 14.2188H35.5469V16.25H33.5156V14.2188Z" fill="#F6821F"/>
<path d="M38.5938 14.2188H41.6406V16.25H38.5938V14.2188Z" fill="#F6821F"/>
<path d="M43.6719 14.2188H54.8438V16.25H43.6719V14.2188Z" fill="#F6821F"/>
<path d="M33.5156 18.2812H35.5469V20.3125H33.5156V18.2812Z" fill="#F6821F"/>
<path d="M38.5938 18.2812H46.7188V20.3125H38.5938V18.2812Z" fill="#F6821F"/>
<path d="M48.75 18.2812H50.7812V20.3125H48.75V18.2812Z" fill="#F6821F"/>
<path d="M33.5156 22.3438H35.5469V24.375H33.5156V22.3438Z" fill="#F6821F"/>
<path d="M38.5938 22.3438H52.8125V24.375H38.5938V22.3438Z" fill="#F6821F"/>
<path d="M54.8438 22.3438H56.875V24.375H54.8438V22.3438Z" fill="#F6821F"/>
<path d="M33.5156 26.4062H35.5469V28.4375H33.5156V26.4062Z" fill="#F6821F"/>
<path d="M38.5938 26.4062H47.7344V28.4375H38.5938V26.4062Z" fill="#F6821F"/>
<path d="M49.7656 26.4062H51.7969V28.4375H49.7656V26.4062Z" fill="#F6821F"/>
</svg>
